<svg width="92" height="100" viewBox="0 0 92 100" fill="none" xmlns="http://www.w3.org/2000/svg">
<path d="M56.6409 90.4353C56.6409 85.7961 53.3097 81.913 48.9156 81.0342L48.9361 62.7963C48.9361 61.7745 48.0981 60.9365 47.0763 60.9365C46.0544 60.9365 45.2165 61.7745 45.2165 62.7963L45.196 81.0342C40.802 81.8925 37.4707 85.7756 37.4707 90.4353C37.4707 95.7082 41.7625 100 47.0354 100C52.3082 100 56.6409 95.7286 56.6409 90.4353ZM41.2107 90.4353C41.2107 87.2062 43.8472 84.5698 47.0763 84.5698C50.3054 84.5698 52.9418 87.2062 52.9418 90.4353C52.9418 93.6644 50.3054 96.3009 47.0763 96.3009C43.8267 96.3213 41.2107 93.6849 41.2107 90.4353Z" fill="#040634"/>
<path d="M34.6688 90.435C34.6688 89.4131 33.8309 88.5752 32.809 88.5752C31.7872 88.5752 30.9492 89.4131 30.9492 90.435C30.9492 91.4568 31.7872 92.2948 32.809 92.2948C33.8309 92.2948 34.6688 91.4773 34.6688 90.435Z" fill="#040634"/>
<path d="M21.6063 90.435C21.6063 89.4131 20.7888 88.5752 19.7465 88.5752C18.7246 88.5752 17.8867 89.4131 17.8867 90.435C17.8867 91.4568 18.7246 92.2948 19.7465 92.2948C20.7684 92.2948 21.6063 91.4773 21.6063 90.435Z" fill="#040634"/>
<path d="M24.4297 90.435C24.4297 91.4568 25.2676 92.2948 26.2895 92.2948C27.3114 92.2948 28.1493 91.4773 28.1493 90.435C28.1493 89.4131 27.3318 88.5752 26.2895 88.5752C25.2676 88.5956 24.4297 89.4131 24.4297 90.435Z" fill="#040634"/>
<path d="M11.8966 89.127C11.5492 89.4744 11.3652 89.9445 11.3652 90.435C11.3652 90.9255 11.5696 91.3955 11.8966 91.743C12.244 92.0904 12.7141 92.2948 13.2046 92.2948C13.6951 92.2948 14.1652 92.0904 14.5126 91.743C14.86 91.3955 15.0644 90.9255 15.0644 90.435C15.0644 89.9445 14.86 89.4744 14.5126 89.127C14.1652 88.7796 13.6951 88.5752 13.2046 88.5752C12.7345 88.5956 12.244 88.7796 11.8966 89.127Z" fill="#040634"/>
<path d="M82.2244 91.743C82.5719 91.3955 82.7762 90.9255 82.7762 90.435C82.7762 89.9445 82.5719 89.4744 82.2244 89.127C81.877 88.7796 81.4069 88.5752 80.9164 88.5752C80.4259 88.5752 79.9559 88.7796 79.6084 89.127C79.261 89.4744 79.0566 89.9445 79.0566 90.435C79.0566 90.9255 79.261 91.3955 79.6084 91.743C79.9559 92.0904 80.4259 92.2948 80.9164 92.2948C81.4069 92.2948 81.877 92.0904 82.2244 91.743Z" fill="#040634"/>
<path d="M76.2411 90.435C76.2411 89.4131 75.4236 88.5752 74.3813 88.5752C73.3594 88.5752 72.5215 89.4131 72.5215 90.435C72.5215 91.4568 73.3594 92.2948 74.3813 92.2948C75.4031 92.2948 76.2411 91.4773 76.2411 90.435Z" fill="#040634"/>
<path d="M67.8598 92.2948C68.8817 92.2948 69.7196 91.4773 69.7196 90.435C69.7196 89.4131 68.9021 88.5752 67.8598 88.5752C66.8379 88.5752 66 89.4131 66 90.435C66 91.4773 66.8379 92.2948 67.8598 92.2948Z" fill="#040634"/>
<path d="M63.1796 90.435C63.1796 89.4131 62.3621 88.5752 61.3198 88.5752C60.298 88.5752 59.4805 89.4131 59.4805 90.435C59.4805 91.4568 60.298 92.2948 61.3198 92.2948C62.3417 92.2948 63.1796 91.4773 63.1796 90.435Z" fill="#040634"/>
<path d="M68.1166 58.3333H19.8375C8.89999 58.3333 0 49.9208 0 39.5833C0 29.9708 7.69166 22.0291 17.5583 20.9541C20.6625 8.84583 32.3666 0 45.8333 0C56.4291 0 66.2249 5.48749 71.2874 14.1208C82.8499 15.55 91.6666 24.9041 91.6666 36.1125C91.6666 48.3625 81.0999 58.3333 68.1166 58.3333ZM45.8333 6.24999C34.5083 6.24999 24.7875 14.0625 23.225 24.425C22.9916 25.9541 21.6791 27.0833 20.1333 27.0833C12.3458 27.0833 6.24999 32.6916 6.24999 39.5833C6.24999 46.475 12.3458 52.0833 19.8375 52.0833H68.1166C77.6583 52.0833 85.4166 44.9166 85.4166 36.1125C85.4166 27.6666 78.2874 20.6791 69.1833 20.2083C68.0583 20.15 67.0499 19.4916 66.5499 18.4833C62.8416 11.05 54.7083 6.24999 45.8333 6.24999Z" fill="#040634"/>
</svg>
