<svg width="97" height="100" viewBox="0 0 97 100" fill="none" xmlns="http://www.w3.org/2000/svg">
<path d="M83.871 0H12.9032C5.7871 0 0 5.7871 0 12.9032V70.9677C0 78.0839 5.7871 83.871 12.9032 83.871V96.7742C12.9032 98.0258 13.6258 99.1677 14.7613 99.6968C15.1935 99.8968 15.6645 100 16.129 100C16.8645 100 17.6065 99.7419 18.1935 99.2516L36.6516 83.871H83.871C90.9871 83.871 96.7742 78.0839 96.7742 70.9677V12.9032C96.7742 5.7871 90.9871 0 83.871 0ZM90.3226 70.9677C90.3226 74.5226 87.4323 77.4194 83.871 77.4194H35.4839C34.729 77.4194 34 77.6839 33.4194 78.1677L19.3548 89.8839V80.6452C19.3548 78.8645 17.9097 77.4194 16.129 77.4194H12.9032C9.34194 77.4194 6.45161 74.5226 6.45161 70.9677V12.9032C6.45161 9.34839 9.34194 6.45161 12.9032 6.45161H83.871C87.4323 6.45161 90.3226 9.34839 90.3226 12.9032V70.9677Z" fill="#040634"/>
<path d="M83.871 0H12.9032C5.7871 0 0 5.7871 0 12.9032V70.9677C0 78.0839 5.7871 83.871 12.9032 83.871V96.7742C12.9032 98.0258 13.6258 99.1677 14.7613 99.6968C15.1935 99.8968 15.6645 100 16.129 100C16.8645 100 17.6065 99.7419 18.1935 99.2516L36.6516 83.871H83.871C90.9871 83.871 96.7742 78.0839 96.7742 70.9677V12.9032C96.7742 5.7871 90.9871 0 83.871 0ZM90.3226 70.9677C90.3226 74.5226 87.4323 77.4194 83.871 77.4194H35.4839C34.729 77.4194 34 77.6839 33.4194 78.1677L19.3548 89.8839V80.6452C19.3548 78.8645 17.9097 77.4194 16.129 77.4194H12.9032C9.34194 77.4194 6.45161 74.5226 6.45161 70.9677V12.9032C6.45161 9.34839 9.34194 6.45161 12.9032 6.45161H83.871C87.4323 6.45161 90.3226 9.34839 90.3226 12.9032V70.9677Z" fill="#040634"/>
<path d="M64.5187 25.8066C57.4026 25.8066 51.6155 31.5937 51.6155 38.7099C51.6155 41.0712 52.2994 43.2583 53.409 45.1615H43.3703C44.48 43.2583 45.1639 41.0712 45.1639 38.7099C45.1639 31.5937 39.3768 25.8066 32.2607 25.8066C25.1445 25.8066 19.3574 31.5937 19.3574 38.7099C19.3574 45.826 25.1445 51.6131 32.2607 51.6131H64.5187C71.6349 51.6131 77.422 45.826 77.422 38.7099C77.422 31.5937 71.6349 25.8066 64.5187 25.8066ZM32.2607 45.1615C28.6994 45.1615 25.809 42.2647 25.809 38.7099C25.809 35.155 28.6994 32.2583 32.2607 32.2583C35.8219 32.2583 38.7123 35.155 38.7123 38.7099C38.7123 42.2647 35.8219 45.1615 32.2607 45.1615ZM64.5187 45.1615C60.9574 45.1615 58.0671 42.2647 58.0671 38.7099C58.0671 35.155 60.9574 32.2583 64.5187 32.2583C68.08 32.2583 70.9703 35.155 70.9703 38.7099C70.9703 42.2647 68.08 45.1615 64.5187 45.1615Z" fill="#040634"/>
</svg>
