<svg width="99" height="102" viewBox="0 0 99 102" fill="none" xmlns="http://www.w3.org/2000/svg">
<path d="M98.2572 62.8105C98.2572 58.075 95.2886 53.7459 90.8719 52.0404C90.8008 52.0128 90.7269 52.0206 90.655 52.0029V41.5169C90.655 19.1751 72.4786 1 50.1381 1C27.7966 1 9.6215 19.1751 9.6215 41.5169V51.6811C4.59974 52.9991 1 57.5631 1 62.8115C1 68.1082 4.53265 72.6266 9.6215 73.9545V88.2864C9.6215 95.2977 15.3238 101 22.3351 101H77.9411C84.9527 101 90.655 95.2977 90.655 88.2864V73.6282C95.1841 71.9894 98.2572 67.7424 98.2572 62.8105ZM50.1381 4.44809C67.5892 4.44809 82.2238 16.5845 86.1423 32.8498C82.3778 28.1559 76.6074 25.1379 70.1375 25.1379H51.0004V14.7929C51.0004 13.84 50.229 13.0686 49.2758 13.0686C48.3229 13.0686 47.5523 13.84 47.5523 14.7929V25.1379H30.1397C23.6698 25.1379 17.8984 28.1559 14.1349 32.8498C18.0524 16.5845 32.687 4.44809 50.1381 4.44809ZM4.44885 62.8105C4.44885 59.4366 6.55999 56.4523 9.6215 55.2644V70.3477C6.53062 69.1598 4.44885 66.216 4.44885 62.8105ZM77.9411 97.5509H22.3351C17.2268 97.5509 13.0693 93.3937 13.0693 88.2853V45.6553C13.0693 36.2437 20.727 28.586 30.1387 28.586H70.1375C79.5492 28.586 87.2069 36.2437 87.2069 45.6553V71.5365C87.0679 72.1256 86.2509 74.9846 83.0603 78.1276C78.8912 82.2299 72.6563 84.5818 65.9535 84.5818H61.4479V83.6811C61.4479 80.8289 59.1277 78.5084 56.2756 78.5084H44.9518C42.0996 78.5084 39.7794 80.8289 39.7794 83.6811V85.4826H38.9308C36.0786 85.4826 33.7584 83.1621 33.7584 80.3099C33.7584 79.357 32.9878 78.5854 32.0349 78.5854C31.0819 78.5854 30.3103 79.357 30.3103 80.3099C30.3103 85.0631 34.1776 88.9304 38.9308 88.9304H39.7794C39.7794 91.7825 42.0996 94.1031 44.9518 94.1031H56.2756C59.1277 94.1031 61.4479 91.7825 61.4479 88.9304V88.0296H65.9535C73.554 88.0296 80.6709 85.3167 85.4775 80.5851C86.1423 79.9312 86.6998 79.2899 87.2069 78.6606V88.2853C87.2069 93.3937 83.0494 97.5509 77.9411 97.5509ZM57.9991 83.68V88.9304C57.9991 89.8815 57.2264 90.655 56.2756 90.655H44.9518C44.0009 90.655 43.2282 89.8815 43.2282 88.9304V83.68C43.2282 82.7289 44.0009 81.9565 44.9518 81.9565H56.2756C57.2264 81.9565 57.9991 82.7289 57.9991 83.68ZM90.655 69.8613V55.7467C93.1765 57.1624 94.8091 59.8715 94.8091 62.8105C94.8084 65.8214 93.1706 68.4654 90.655 69.8613Z" fill="#040634" stroke="#040634" stroke-miterlimit="2" stroke-linejoin="round"/>
<path d="M39.666 63.0453C39.666 57.9359 35.5108 53.7815 30.4024 53.7815C25.2949 53.7815 21.1387 57.9367 21.1387 63.0453C21.1387 68.1516 25.2949 72.307 30.4024 72.307C35.5108 72.307 39.666 68.1516 39.666 63.0453ZM24.5865 63.0453C24.5865 59.8379 27.1951 57.2293 30.4024 57.2293C33.6095 57.2293 36.2181 59.8379 36.2181 63.0453C36.2181 66.2506 33.6095 68.8589 30.4024 68.8589C27.1951 68.8589 24.5865 66.2506 24.5865 63.0453Z" fill="#040634" stroke="#040634" stroke-miterlimit="2" stroke-linejoin="round"/>
<path d="M69.8204 72.307C74.9287 72.307 79.0841 68.1516 79.0841 63.0453C79.0841 57.9367 74.9287 53.7815 69.8204 53.7815C64.7121 53.7815 60.5566 57.9367 60.5566 63.0453C60.5556 68.1516 64.7121 72.307 69.8204 72.307ZM69.8204 57.2293C73.0277 57.2293 75.6361 59.8379 75.6361 63.0453C75.6361 66.2506 73.0277 68.8589 69.8204 68.8589C66.6131 68.8589 64.0047 66.2506 64.0047 63.0453C64.0047 59.8379 66.6121 57.2293 69.8204 57.2293Z" fill="#040634" stroke="#040634" stroke-miterlimit="2" stroke-linejoin="round"/>
</svg>
