<svg width="96" height="96" viewBox="0 0 96 96" fill="none" xmlns="http://www.w3.org/2000/svg">
<path d="M87.5625 22.875H62.25V8.4375C62.25 3.78506 58.4649 0 53.8125 0H8.4375C3.78506 0 0 3.78506 0 8.4375V87.5625C0 92.2149 3.78506 96 8.4375 96H53.8125C58.4649 96 62.25 92.2149 62.25 87.5625V71.8524L71.8524 62.25H87.5625C92.2149 62.25 96 58.4649 96 53.8125V31.3125C96 26.6601 92.2149 22.875 87.5625 22.875ZM5.625 8.4375C5.625 6.88669 6.88669 5.625 8.4375 5.625H53.8125C55.3633 5.625 56.625 6.88669 56.625 8.4375V11.25H5.625V8.4375ZM56.625 87.5625C56.625 89.1133 55.3633 90.375 53.8125 90.375H8.4375C6.88669 90.375 5.625 89.1133 5.625 87.5625V79.125H56.625V87.5625ZM56.625 73.5H5.625V16.875H56.625V22.875H53.8125C49.1601 22.875 45.375 26.6601 45.375 31.3125V53.8125C45.375 58.4649 49.1601 62.25 53.8125 62.25H56.625C56.625 63.5424 56.625 72.2874 56.625 73.5ZM90.375 53.8125C90.375 55.3633 89.1133 56.625 87.5625 56.625H70.6875C69.9416 56.625 69.2263 56.9212 68.6989 57.4487L62.25 63.8976V59.4381V59.4375C62.25 57.8843 60.9907 56.625 59.4375 56.625H53.8125C52.2617 56.625 51 55.3633 51 53.8125V31.3125C51 29.7617 52.2617 28.5 53.8125 28.5H87.5625C89.1133 28.5 90.375 29.7617 90.375 31.3125V53.8125Z" fill="#040634"/>
<path d="M81.9375 34.125H59.4375C57.8843 34.125 56.625 35.3842 56.625 36.9375C56.625 38.4908 57.8843 39.75 59.4375 39.75H81.9375C83.4908 39.75 84.75 38.4908 84.75 36.9375C84.75 35.3842 83.4908 34.125 81.9375 34.125Z" fill="#040634"/>
<path d="M70.6875 45.374H59.4375C57.8842 45.374 56.625 46.6333 56.625 48.1865C56.625 49.7398 57.8842 50.999 59.4375 50.999H70.6875C72.2408 50.999 73.5 49.7398 73.5 48.1865C73.5 46.6333 72.2408 45.374 70.6875 45.374Z" fill="#040634"/>
</svg>
