<svg width="99" height="100" viewBox="0 0 99 100" fill="none" xmlns="http://www.w3.org/2000/svg">
<path d="M75.142 54.9258L66.7972 63.3699L62.6248 59.1479L83.487 38.0371L80.7054 35.2225L82.0963 33.815C86.6978 29.1586 86.6978 21.5826 82.0963 16.9264C77.4946 12.2699 70.008 12.2697 65.4063 16.9264L64.0155 18.3338L61.2339 15.5191L40.3715 36.6299L36.1989 32.4076L44.5439 23.9635L20.8626 0L0 21.1105L23.6814 45.0738L32.0264 36.6297L36.1989 40.852L27.854 49.2963L36.8944 58.4443L32.6077 62.782C27.5418 58.6063 21.264 56.3357 14.6404 56.3357C10.6411 56.3357 6.76517 57.1602 3.12124 58.7859L2.61593 59.0115L0 61.658L16.8593 78.718L8.51427 87.1623L12.6867 91.3844L21.0317 82.94L37.8909 100L40.5066 97.3527L40.7296 96.8416C43.0243 91.5746 43.7084 85.7855 42.707 80.0998C41.8547 75.2611 39.8195 70.7889 36.7778 67.0068L41.067 62.6666L50.1074 71.8147L58.4524 63.3703L62.6248 67.5924L54.28 76.0365L77.9613 99.9998L98.8235 78.8891L75.142 54.9258ZM20.8624 8.44414L26.4446 14.0928L22.272 18.315L16.6898 12.6666L20.8624 8.44414ZM8.34518 21.1107L12.5176 16.8887L18.0998 22.5373L13.9274 26.7594L8.34518 21.1107ZM23.6816 36.6299L18.0996 30.9812L22.272 26.7592L27.8541 32.4078L23.6816 36.6299ZM26.4444 22.5369L30.617 18.3148L36.1989 23.9635L32.0265 28.1855L26.4444 22.5369ZM36.6853 90.3358L9.55751 62.885C11.213 62.5002 12.9121 62.3066 14.6406 62.3066C20.6804 62.3066 26.3583 64.6863 30.6283 69.007C36.257 74.7027 38.4447 82.724 36.6853 90.3358ZM69.5787 21.1486C71.8795 18.8205 75.6228 18.8205 77.9237 21.1486C80.2242 23.4768 80.2242 27.2647 77.9237 29.593L76.5328 31.0004L68.1879 22.5561L69.5787 21.1486ZM50.1072 63.3701L36.1991 49.2963L61.2339 23.9633L75.1422 38.0371L50.1072 63.3701ZM75.142 63.3699L80.7242 69.0186L76.5518 73.2406L70.9696 67.592L75.142 63.3699ZM62.6246 76.0363L66.797 71.8143L72.3792 77.4629L68.2068 81.685L62.6246 76.0363ZM77.9612 91.5557L72.379 85.907L76.5514 81.685L82.1336 87.3336L77.9612 91.5557ZM80.7242 77.4625L84.8966 73.2404L90.4787 78.8891L86.3063 83.1111L80.7242 77.4625Z" fill="#040634"/>
</svg>
