<svg width="100" height="100" viewBox="0 0 100 100" fill="none" xmlns="http://www.w3.org/2000/svg">
<path d="M66.0156 71.4827C68.173 71.4827 69.9219 69.7338 69.9219 67.5764C69.9219 65.4191 68.173 63.6702 66.0156 63.6702C63.8583 63.6702 62.1094 65.4191 62.1094 67.5764C62.1094 69.7338 63.8583 71.4827 66.0156 71.4827Z" fill="#040634"/>
<path d="M46.4843 92.1875H15.625C11.3172 92.1875 7.81249 88.6828 7.81249 84.375V52.3438C7.81249 48.0359 11.3172 44.5313 15.625 44.5313H71.8749C76.1827 44.5313 79.6874 48.0359 79.6874 52.3438V60.1563C79.6874 62.3137 81.4363 64.0625 83.5937 64.0625C85.7511 64.0625 87.4999 62.3137 87.4999 60.1563V52.3438C87.4999 43.7281 80.4906 36.7188 71.8749 36.7188H67.1802V22.9426C67.1802 10.292 56.6662 0 43.7427 0C30.8193 0 20.3053 10.292 20.3053 22.9426V36.7188H15.625C7.00937 36.7188 0 43.7281 0 52.3438V84.375C0 92.9906 7.00937 100 15.625 100H46.4843C48.6418 100 50.3906 98.2512 50.3906 96.0938C50.3906 93.9363 48.6418 92.1875 46.4843 92.1875ZM28.1178 22.9426C28.1178 14.5998 35.1271 7.8125 43.7427 7.8125C52.3584 7.8125 59.3677 14.5998 59.3677 22.9426V36.7188H28.1178V22.9426Z" fill="#040634"/>
<path d="M98.3678 63.6184C96.6135 62.3624 94.1731 62.7665 92.9178 64.5208L73.6637 91.4152C73.1379 92.025 72.4789 92.1566 72.1258 92.1801C71.7637 92.2041 71.0664 92.1582 70.4525 91.5822L58.0096 79.4395C56.4654 77.9324 53.9924 77.9631 52.4857 79.5069C50.9789 81.0508 51.009 83.5238 52.5531 85.0307L65.018 97.1949C65.0297 97.2062 65.0412 97.2176 65.0531 97.2287C66.9217 99.0078 69.416 99.9974 71.9824 99.9974C72.2029 99.9974 72.424 99.9902 72.6451 99.9754C75.4408 99.789 78.0512 98.4295 79.8065 96.2455C79.8518 96.1889 79.8955 96.1312 79.9379 96.0723L99.2702 69.0684C100.526 67.3143 100.122 64.8741 98.3678 63.6184Z" fill="#040634"/>
<path d="M51.1719 71.4827C53.3292 71.4827 55.0781 69.7338 55.0781 67.5764C55.0781 65.4191 53.3292 63.6702 51.1719 63.6702C49.0145 63.6702 47.2656 65.4191 47.2656 67.5764C47.2656 69.7338 49.0145 71.4827 51.1719 71.4827Z" fill="#040634"/>
<path d="M21.875 71.4827C24.0324 71.4827 25.7812 69.7338 25.7812 67.5764C25.7812 65.4191 24.0324 63.6702 21.875 63.6702C19.7176 63.6702 17.9688 65.4191 17.9688 67.5764C17.9688 69.7338 19.7176 71.4827 21.875 71.4827Z" fill="#040634"/>
<path d="M36.5234 71.4827C38.6808 71.4827 40.4297 69.7338 40.4297 67.5764C40.4297 65.4191 38.6808 63.6702 36.5234 63.6702C34.3661 63.6702 32.6172 65.4191 32.6172 67.5764C32.6172 69.7338 34.3661 71.4827 36.5234 71.4827Z" fill="#040634"/>
</svg>
