<svg width="100" height="100" viewBox="0 0 100 100" fill="none" xmlns="http://www.w3.org/2000/svg">
<path d="M33.5536 65.947C34.8678 67.2611 34.8678 69.392 33.5536 70.7064C32.2395 72.0205 30.1086 72.0205 28.7942 70.7064C27.4801 69.3922 27.4801 67.2614 28.7942 65.947C30.1086 64.6326 32.2395 64.6326 33.5536 65.947Z" fill="#040634"/>
<path d="M47.4677 65.947C48.7818 67.2611 48.7818 69.392 47.4677 70.7064C46.1535 72.0205 44.0227 72.0205 42.7083 70.7064C41.3941 69.3922 41.3941 67.2614 42.7083 65.947C44.0224 64.6326 46.1533 64.6326 47.4677 65.947Z" fill="#040634"/>
<path d="M61.3798 65.947C62.6939 67.2611 62.6939 69.392 61.3798 70.7064C60.0656 72.0205 57.9348 72.0205 56.6204 70.7064C55.3062 69.3922 55.3062 67.2614 56.6204 65.947C57.9348 64.6326 60.0654 64.6326 61.3798 65.947Z" fill="#040634"/>
<path d="M93.3203 57.6507C92.1941 56.5246 92.1516 54.7179 93.2257 53.3538C97.6569 47.7171 100.001 41.1559 100.001 34.3749C100.001 15.4204 81.7756 0 59.3759 0C36.9761 0 18.7508 15.4206 18.7508 34.3749C18.7508 35.1341 18.8748 35.8638 18.9412 36.6072C7.57952 42.7085 0.000705682 53.4201 0.000705682 65.6249C0.000705682 72.4059 2.34447 78.9671 6.77565 84.6038C7.84984 85.9679 7.80705 87.7746 6.68109 88.9007L0.91625 94.6654C0.0219974 95.5596 -0.246445 96.9023 0.238672 98.0712C0.720867 99.24 1.86227 100 3.12558 100H40.6256C61.7787 100 79.1886 86.2434 81.0632 68.75H96.8754C98.1389 68.75 99.2801 67.9902 99.7623 66.8212C100.248 65.6525 99.979 64.3096 99.0847 63.4154L93.3203 57.6507ZM40.6258 93.7498H10.6697L11.1 93.3196C14.4478 89.9749 14.6981 84.5641 11.689 80.7404C8.1306 76.2178 6.25087 70.99 6.25087 65.6251C6.25087 50.1162 21.6713 37.5002 40.6258 37.5002C59.5802 37.5002 75.0006 50.1162 75.0006 65.6251C75.0006 81.134 59.5802 93.7498 40.6258 93.7498ZM81.0634 62.4998C79.1889 45.0064 61.7789 31.2498 40.6258 31.2498C35.1018 31.2498 29.8363 32.195 25.0306 33.8927C25.3496 18.6079 40.6201 6.24996 59.3759 6.24996C78.3303 6.24996 93.7507 18.8659 93.7507 34.3749C93.7507 39.7398 91.8708 44.9675 88.3126 49.4901C85.3036 53.3139 85.5538 58.7247 88.9016 62.0694L89.3319 62.4996C89.3317 62.5 81.0634 62.5 81.0634 62.4998Z" fill="#040634"/>
</svg>
