<svg width="100" height="100" viewBox="0 0 100 100" fill="none" xmlns="http://www.w3.org/2000/svg">
<path d="M76.1602 70.8951L66.8943 67.8071L63.5679 61.1542C66.5647 58.104 68.6453 54.0682 69.3469 49.8587L69.7618 47.3722H73.3096C76.5344 47.3722 79.1581 44.7486 79.1581 41.5238V29.2421C79.1581 13.118 66.0401 0 49.916 0C33.7506 0 20.6739 13.0804 20.6739 29.2421V41.5238C20.6739 44.0651 22.3039 46.2321 24.5728 47.0369V49.3216C24.5728 52.5465 27.1964 55.1701 30.4213 55.1701H32.1333C32.9784 57.0059 34.0722 58.7062 35.4033 60.2336C35.6794 60.551 35.9673 60.8586 36.2623 61.1579L32.9376 67.8071L23.6716 70.8953C12.8978 74.4878 5.07812 85.8296 5.07812 97.8635C5.07812 98.9402 5.9509 99.813 7.0276 99.813H92.8044C93.8809 99.813 94.7538 98.9402 94.7538 97.8635C94.7538 85.8296 86.9343 74.4878 76.1602 70.8951ZM75.2591 41.5238C75.2591 42.5987 74.3846 43.4732 73.3096 43.4732H70.3344C70.8299 39.6347 71.1601 35.55 71.2929 31.5269C71.2968 31.4134 71.2999 31.3031 71.3034 31.1916H75.2591V41.5238ZM26.5223 43.4732C25.4474 43.4732 24.5728 42.5987 24.5728 41.5238V31.1916H28.5299C28.5363 31.3949 28.5431 31.5992 28.5507 31.8049C28.5509 31.8119 28.5513 31.8187 28.5515 31.8257V31.8275C28.688 35.7404 29.0139 39.7191 29.4982 43.473H26.5223V43.4732ZM30.4213 51.2711C29.3463 51.2711 28.4718 50.3966 28.4718 49.3216V47.3722H30.07L30.4848 49.8595C30.564 50.3322 30.6612 50.8032 30.7737 51.2711H30.4213ZM28.4751 27.2926H24.6469C25.6343 14.2271 36.5381 3.89894 49.916 3.89894C63.2344 3.89894 74.1861 14.2257 75.1848 27.2926H71.357C71.2167 16.5263 62.4493 7.79789 51.6609 7.79789H48.1714C37.3832 7.79789 28.6153 16.5263 28.4751 27.2926ZM48.1712 11.6968H51.6608C60.3961 11.6968 67.4663 18.8418 67.4612 27.5675C67.4612 28.181 67.4563 28.7151 67.446 29.2011C67.446 29.2074 67.4458 29.2138 67.4458 29.2202L65.0074 28.8719C58.3831 27.926 52.1284 24.7986 47.3955 20.0657C47.0298 19.7002 46.534 19.4947 46.017 19.4947C40.7815 19.4947 35.7698 21.8801 32.4569 25.91C33.2733 17.972 39.984 11.6968 48.1712 11.6968ZM34.8154 51.2711C33.8395 48.0247 32.7228 38.4722 32.476 32.3509L35.0998 28.8524C37.5095 25.6404 41.2586 23.6448 45.2466 23.4157C50.494 28.4095 57.2824 31.7072 64.4561 32.7314L67.3261 33.1416C67.1343 37.2131 66.7423 41.2988 66.1806 45.0564C66.1804 45.0576 66.1802 45.0589 66.18 45.0603C66.0015 46.2684 65.8607 47.0458 65.5012 49.2173C64.4688 55.4098 59.8481 61.0097 53.7484 62.5348C51.2381 63.1615 48.5935 63.1613 46.0845 62.5348C42.2758 61.5827 38.7835 58.9474 36.5297 55.1701H40.5039C41.3087 57.439 43.4755 59.069 46.017 59.069H49.916C53.1472 59.069 55.7644 56.452 55.7644 53.2206C55.7644 49.9958 53.1408 47.3722 49.916 47.3722H46.017C43.419 47.3722 41.2841 49.0503 40.5006 51.2711H34.8154ZM45.8531 66.4801C47.1902 66.7618 48.5535 66.9059 49.916 66.9059C50.9825 66.9059 52.0493 66.8166 53.1039 66.6435L49.6592 70.2865L45.8531 66.4801ZM46.9791 73.1206L40.7958 79.6595C39.0935 76.4012 37.6308 73.0101 36.4311 69.5384L38.7531 64.8944L46.9791 73.1206ZM60.7484 64.2339L63.4005 69.5383C62.1988 73.0157 60.7357 76.408 59.0352 79.6624L52.4171 73.0444L60.7484 64.2339ZM44.0676 53.2206C44.0676 52.1443 44.9405 51.2711 46.017 51.2711H49.916C50.9909 51.2711 51.8654 52.1456 51.8654 53.2206C51.8654 54.2971 50.9923 55.1701 49.916 55.1701H46.017C44.9421 55.1701 44.0676 54.2955 44.0676 53.2206ZM9.05505 95.914C9.82762 86.2565 16.2548 77.4784 24.9046 74.594L33.1107 71.8593C34.6142 76.0165 36.4767 80.0572 38.6595 83.8953C38.6632 83.902 38.6667 83.9086 38.6704 83.915C38.6704 83.9152 38.6706 83.9152 38.6706 83.9154C40.2655 86.7205 42.0606 89.4617 44.0067 92.064L46.405 95.914H9.05505ZM49.916 94.1763L47.2721 89.9317C47.2425 89.8841 47.2109 89.8379 47.1774 89.7931C45.5987 87.6872 44.126 85.4849 42.7848 83.2308L49.7372 75.8785L57.0629 83.2042C55.7127 85.4748 54.235 87.6863 52.655 89.7927C52.5595 89.92 52.6949 89.7194 49.916 94.1763ZM53.427 95.914L55.825 92.0642C57.7798 89.4519 59.5877 86.6887 61.1985 83.8507C61.2083 83.8335 61.2175 83.816 61.2272 83.7988C61.2284 83.7967 61.2295 83.7947 61.2307 83.7926C63.3858 79.9911 65.2289 75.9855 66.7212 71.8593L74.9271 74.594C83.5771 77.4784 90.0043 86.2565 90.7769 95.914H53.427Z" fill="#040634"/>
</svg>
