<svg width="100" height="100" viewBox="0 0 100 100" fill="none" xmlns="http://www.w3.org/2000/svg">
<path d="M55.4033 12.2155L49.6576 10.4917C49.5772 10.4676 49.4914 10.4676 49.411 10.4917L43.6652 12.2155C43.4837 12.2699 43.3594 12.437 43.3594 12.6265V18.9468C43.3594 19.7689 43.6922 20.6104 44.3485 21.448C44.8498 22.0877 45.5433 22.7301 46.4098 23.3573C47.8653 24.4109 49.2986 25.0573 49.3589 25.0843C49.4147 25.1093 49.4745 25.1218 49.5343 25.1218C49.594 25.1218 49.6538 25.1093 49.7096 25.0843C49.7699 25.0573 51.2032 24.4109 52.6588 23.3573C53.5252 22.7301 54.2187 22.0877 54.72 21.448C55.3763 20.6104 55.7091 19.7689 55.7091 18.9468V12.6265C55.7091 12.437 55.5849 12.2699 55.4033 12.2155ZM54.8509 18.9468C54.8509 20.4017 53.3911 21.7658 52.1665 22.6541C51.0687 23.4504 49.9553 24.0154 49.5343 24.2184C49.1133 24.0154 47.9999 23.4504 46.902 22.6541C45.6774 21.7658 44.2177 20.4017 44.2177 18.9468V12.9458L49.5343 11.3508L54.8509 12.9458V18.9468Z" stroke="#040634" stroke-width="0.0125711" stroke-miterlimit="2" stroke-linejoin="round"/>
<path d="M33.3478 29.0039C30.6837 29.0039 28.5156 31.1719 28.5156 33.8361V38.4379C28.5156 43.1703 30.3583 47.6207 33.7054 50.9662L39.9872 57.2464C41.5078 58.7669 43.5308 59.6061 45.6811 59.6061H53.2306C55.381 59.6061 57.404 58.7669 58.9246 57.2464L65.2064 50.9662C68.5519 47.6223 70.3945 43.1719 70.3945 38.4379V33.8361C70.3945 31.1719 68.2265 29.0039 65.5624 29.0039H33.3478ZM62.9272 48.6902L56.6454 54.9704C55.7466 55.8708 54.5015 56.3863 53.229 56.3863H45.6795C44.4071 56.3863 43.1636 55.8708 42.2632 54.9704L35.9813 48.6902C34.8877 47.5965 34.0002 46.3531 33.3156 45.0129C36.173 44.789 38.9531 43.9466 41.4224 42.4648C43.8095 41.036 46.5381 40.279 49.3198 40.279H49.592C52.3721 40.279 55.1023 41.036 57.4862 42.4648C59.9554 43.945 62.7355 44.789 65.593 45.0129C64.9084 46.3531 64.0209 47.5949 62.9272 48.6902ZM67.1731 33.8361V38.4379C67.1731 39.6105 67.0185 40.7574 66.7495 41.8688C64.0692 41.8189 61.4437 41.0828 59.1436 39.7024C56.2588 37.9724 52.9552 37.0575 49.5904 37.0575H49.3182C45.955 37.0575 42.6514 37.9724 39.7666 39.704C37.5003 41.0634 34.9134 41.7931 32.1575 41.8623C31.8917 40.7526 31.7371 39.6089 31.7371 38.4379V33.8361C31.7371 32.947 32.4603 32.2254 33.3478 32.2254H65.5624C66.4499 32.2254 67.1731 32.947 67.1731 33.8361Z" fill="#040634"/>
<path d="M89.8701 78.5588C88.7893 72.0692 84.239 66.7441 77.9958 64.6631L64.1371 60.0435V57.9834H60.9156V62.3662L72.086 66.0886L69.4187 74.0907H64.4915L65.7172 67.9635L62.5586 67.3305L61.0687 74.7801L57.6942 77.3121C56.3106 78.351 54.5935 78.9229 52.862 78.9229H46.4191C44.6876 78.9229 42.9705 78.351 41.5869 77.3121L38.2141 74.7817L36.7241 67.3321L33.5655 67.9651L34.7896 74.0907H29.8624L27.1951 66.0886L38.3655 62.3662V57.9834H35.144V60.0435L21.2853 64.6631C15.0437 66.7441 10.4934 72.0692 9.41103 78.5588L5.85938 99.8623H93.4201L89.8701 78.5588ZM85.5179 77.5376L86.1412 76.9143C86.3748 77.6198 86.5681 78.3414 86.6921 79.0888L88.5106 90.003C86.2927 89.4361 84.5595 87.5789 84.2647 85.2176L83.8959 82.2667C83.6768 80.5126 84.268 78.7892 85.5179 77.5376ZM12.5874 79.0888C12.7291 78.2415 12.9659 77.4297 13.2462 76.6372L14.1482 77.5376C15.3981 78.7875 15.9892 80.5126 15.7702 82.2667L15.4013 85.2176C15.0888 87.7223 13.164 89.6777 10.7512 90.1061L12.5874 79.0888ZM20.8617 96.6409H9.66391L10.2067 93.3775C14.4913 93.1585 18.0622 89.9128 18.5986 85.6154L18.9675 82.6646C19.3106 79.9167 18.3844 77.2171 16.4274 75.2584L14.7345 73.5656C16.4902 70.8644 19.1285 68.7769 22.3049 67.717L24.1395 67.1049L27.0904 75.9639V82.0316C27.0904 82.5711 26.8214 83.0721 26.3736 83.3717L22.3774 86.0358L20.8617 96.6409ZM41.5869 96.6409H35.144V93.4194H41.5869V96.6409ZM41.5869 90.1979H35.144V86.9765H41.5869V90.1979ZM64.1371 96.6409H57.6942V93.4194H64.1371V96.6409ZM64.1371 90.1979H57.6942V86.9765H64.1371V90.1979ZM67.3586 96.6409V83.755H54.4727V96.6409H44.8084V83.755H31.9226V96.6409H24.1154L25.3621 87.9172L28.1599 86.0519C29.5065 85.1531 30.3118 83.6503 30.3118 82.0316V77.3121H36.2184L39.654 79.8893C41.5934 81.3438 43.995 82.1443 46.4191 82.1443H52.862C55.2862 82.1443 57.6894 81.3438 59.6271 79.8893L63.0627 77.3121H68.9693V82.0316C68.9693 83.6503 69.7746 85.1531 71.1212 86.0519L73.9191 87.9172L75.1657 96.6409H67.3586ZM78.4194 96.6409L76.9053 86.0358L72.9091 83.3717C72.4597 83.0721 72.1907 82.5711 72.1907 82.0316V75.9639L75.1432 67.1082L76.9778 67.7202C80.246 68.8107 82.9359 70.9949 84.69 73.812L83.2403 75.2617C81.2833 77.2203 80.3571 79.9199 80.7002 82.6678L81.0691 85.6186C81.5893 89.7824 84.9622 92.9507 89.0679 93.3437L89.6172 96.6409H78.4194Z" fill="#040634"/>
<path d="M25.4871 31.6621C25.4871 30.3703 25.9896 29.1558 26.9013 28.2441L27.7646 27.3824C28.3654 26.7832 28.7085 25.952 28.7085 25.1048V24.1609C28.7085 12.6152 38.1023 3.22146 49.648 3.22146C61.1937 3.22146 70.5874 12.6152 70.5874 24.1609V25.1048C70.5874 25.952 70.9305 26.7832 71.5313 27.3824L72.3947 28.2441C73.3064 29.1574 73.8089 30.3703 73.8089 31.6621V37.0467H77.0304V31.6621C77.0304 29.5101 76.1928 27.4871 74.6706 25.9665L73.8089 25.1048V24.1609C73.8089 10.8386 62.9703 0 49.648 0C36.3257 0 25.4871 10.8386 25.4871 24.1609V25.1048L24.6237 25.9665C23.1032 27.4871 22.2656 29.5101 22.2656 31.6621V37.0467H25.4871V31.6621Z" fill="#040634"/>
</svg>
