<svg width="19" height="18" viewBox="0 0 19 18" fill="none" xmlns="http://www.w3.org/2000/svg">
<g clip-path="url(#clip0)">
<path d="M13.2406 9.00004C12.9092 9.00004 12.6406 8.73143 12.6406 8.40004C12.6406 7.07457 11.5661 6.00005 10.2406 6.00005C9.90924 6.00005 9.64062 5.73143 9.64062 5.40005C9.64062 5.06866 9.90924 4.80005 10.2406 4.80005C12.2288 4.80005 13.8406 6.41183 13.8406 8.40004C13.8406 8.73143 13.572 9.00004 13.2406 9.00004Z" fill="#5287C0"/>
<path d="M15.6406 8.99992C15.3092 8.99992 15.0406 8.73131 15.0406 8.39992C15.0406 5.74897 12.8916 3.59993 10.2406 3.59993C9.90924 3.59993 9.64062 3.33132 9.64062 2.99993C9.64062 2.66854 9.90924 2.39993 10.2406 2.39993C13.5527 2.40391 16.2366 5.08785 16.2406 8.39992C16.2406 8.73131 15.972 8.99992 15.6406 8.99992Z" fill="#5287C0"/>
<path d="M18.0406 8.99998C17.7092 8.99998 17.4406 8.73137 17.4406 8.39998C17.4366 4.42518 14.2154 1.20397 10.2406 1.2C9.90924 1.2 9.64062 0.931386 9.64062 0.599999C9.64062 0.268612 9.90924 0 10.2406 0C14.8776 0.00528749 18.6353 3.763 18.6406 8.39998C18.6406 8.73137 18.372 8.99998 18.0406 8.99998Z" fill="#5287C0"/>
<path d="M2.77667 9.16796C2.54615 9.16751 2.33627 9.03506 2.23667 8.82716C1.18063 6.6354 0.634932 4.23286 0.64067 1.79998C0.64067 1.46859 0.909282 1.19998 1.24067 1.19998H4.84066C5.17205 1.19998 5.44066 1.46859 5.44066 1.79998C5.43294 3.50866 5.81851 5.19616 6.56746 6.73197C6.71326 7.02953 6.59026 7.38896 6.2927 7.53476C6.29187 7.53518 6.29108 7.53555 6.29026 7.53596L3.04066 9.10796C2.95854 9.14823 2.86813 9.16878 2.77667 9.16796ZM1.85267 2.39998C1.92185 4.2467 2.33405 6.06443 3.06826 7.76036L5.23906 6.71157C4.65264 5.34578 4.31885 3.88494 4.25386 2.39998H1.85267Z" fill="#5287C0"/>
<path d="M16.8394 17.9999C14.4065 18.0056 12.0039 17.46 9.81216 16.4039C9.51318 16.261 9.38662 15.9029 9.52945 15.6038C9.53009 15.6025 9.53073 15.6012 9.53137 15.5999L11.1034 12.3479C11.2479 12.0497 11.6067 11.925 11.9049 12.0695C11.9057 12.0699 11.9065 12.0703 11.9074 12.0707C13.4429 12.8205 15.1305 13.2069 16.8394 13.1999C17.1707 13.1999 17.4394 13.4685 17.4394 13.7999V17.3999C17.4394 17.7313 17.1707 17.9999 16.8394 17.9999ZM10.879 15.5723C12.5749 16.3065 14.3926 16.7187 16.2394 16.7879V14.3879C14.7544 14.3229 13.2935 13.9891 11.9278 13.4027L10.879 15.5723Z" fill="#5287C0"/>
<path d="M10.0775 16.1654C6.77222 14.564 4.10327 11.8951 2.50195 8.58977L3.58195 8.06897C5.0659 11.1298 7.53756 13.6014 10.5983 15.0854L10.0775 16.1654Z" fill="#5287C0"/>
</g>
<defs>
<clipPath id="clip0">
<rect x="0.640625" width="18" height="18" fill="white"/>
</clipPath>
</defs>
</svg>
