<svg width="259" height="60" viewBox="0 0 259 60" fill="none" xmlns="http://www.w3.org/2000/svg">
<path d="M59.7061 46.4696V42.0402H63.0622V18.9175H59.8919V14.3945H75.09C77.9187 14.3945 80.2497 14.822 82.083 15.677C83.9163 16.5319 85.369 17.6896 86.4422 19.1501C87.5142 20.6105 88.2678 22.3048 88.7031 24.2317C89.1383 26.1586 89.3553 28.1946 89.3553 30.3385C89.3553 32.4837 89.1149 34.534 88.6329 36.4921C88.1508 38.4502 87.3505 40.1679 86.2317 41.6439C85.113 43.12 83.6214 44.2933 81.7569 45.1638C79.8923 46.0344 77.5756 46.4696 74.8107 46.4696H59.7061ZM69.8213 18.9175V42.0402H74.1104C74.9497 42.0402 75.8514 41.8843 76.8142 41.5738C77.7783 41.2632 78.6723 40.6889 79.496 39.8496C80.3185 39.0102 80.9955 37.8447 81.523 36.3531C82.0518 34.8602 82.3156 32.9333 82.3156 30.5724C82.3156 28.1791 82.0674 26.221 81.5698 24.6982C81.0721 23.1754 80.4355 21.9865 79.6585 21.1315C78.8815 20.2766 78.0031 19.6945 77.0247 19.3826C76.0463 19.0721 75.09 18.9175 74.1571 18.9175H69.8213Z" fill="#040634"/>
<path d="M101.475 36.5394C100.356 36.6641 99.5244 37.0058 98.9799 37.5646C98.4368 38.1246 98.164 38.7924 98.164 39.5694C98.164 40.6582 98.4134 41.4586 98.9098 41.9706C99.4074 42.4838 100.231 42.7398 101.381 42.7398C102.096 42.7398 102.849 42.5618 103.642 42.2031C104.435 41.8458 105.141 41.3729 105.764 40.7817V36.1197L101.475 36.5394ZM111.964 42.1343H115.461L115.787 45.6308C114.668 46.1271 113.565 46.4545 112.476 46.6091C111.388 46.7651 110.472 46.8417 109.727 46.8417C108.731 46.8417 107.9 46.6637 107.232 46.3064C106.564 45.9491 106.215 45.1487 106.183 43.9053C106.152 43.9053 106.137 43.8975 106.137 43.8819C106.137 43.8663 106.121 43.8585 106.09 43.8585C105.313 44.6043 104.536 45.1877 103.759 45.6074C102.982 46.027 102.259 46.3298 101.592 46.5156C100.922 46.7027 100.309 46.8196 99.7491 46.8664C99.1904 46.9119 98.7552 46.9353 98.4446 46.9353C97.0452 46.9353 95.8876 46.7183 94.9715 46.283C94.0542 45.8477 93.3396 45.2968 92.8263 44.6277C92.3144 43.9598 91.9571 43.2374 91.7544 42.4604C91.5517 41.6834 91.4517 40.9688 91.4517 40.3152C91.4517 39.446 91.6219 38.6144 91.9636 37.8218C92.3066 37.0292 92.8108 36.3302 93.4786 35.7234C94.1478 35.1179 94.9871 34.6203 95.9967 34.2318C97.0063 33.8433 98.164 33.6029 99.4698 33.5094L105.857 33.0897V31.971C105.857 30.634 105.569 29.6166 104.995 28.9176C104.419 28.2185 103.308 27.869 101.66 27.869C100.542 27.869 99.3528 27.9768 98.0951 28.1951C96.8361 28.4121 95.6939 28.6928 94.6675 29.0345C94.4817 28.3809 94.2946 27.7209 94.1088 27.053C93.9217 26.3839 93.7515 25.7082 93.5955 25.0248C94.9325 24.4336 96.4709 23.984 98.2107 23.6722C99.9518 23.3617 101.629 23.207 103.246 23.207C104.583 23.207 105.795 23.3383 106.882 23.602C107.97 23.8671 108.887 24.3102 109.633 24.9312C110.379 25.5536 110.953 26.3683 111.357 27.3792C111.761 28.3887 111.964 29.6244 111.964 31.0848V42.1343Z" fill="#040634"/>
<path d="M136.252 32.9031C136.096 33.1513 135.731 33.7035 135.148 34.5572C134.573 35.4121 133.898 36.384 133.121 37.4715L126.663 46.4694H120.447V27.7747H117.417V23.6714H126.927V37.6574H127.114V37.7041C127.114 37.6729 127.223 37.4949 127.44 37.1688C127.658 36.8414 127.945 36.4217 128.295 35.9098C128.652 35.3965 129.056 34.8066 129.507 34.1375C129.958 33.4696 130.447 32.7628 130.975 32.017L136.733 23.6714H142.918C142.918 26.7482 142.925 29.8016 142.941 32.833C142.956 35.863 142.964 38.932 142.964 42.04H146.088V45.8626C145.28 46.2043 144.425 46.4538 143.524 46.6084C142.623 46.7643 141.814 46.841 141.1 46.841C140.106 46.841 139.313 46.7019 138.722 46.4226C138.131 46.1419 137.666 45.769 137.324 45.3039C136.981 44.8374 136.756 44.3164 136.647 43.7421C136.539 43.1665 136.485 42.5844 136.485 41.9932V32.9031H136.252ZM131.403 21.1546C130.501 21.1546 129.646 20.9909 128.839 20.6648C128.031 20.3387 127.278 19.9034 126.577 19.3603C125.878 18.8159 125.218 18.1779 124.597 17.4477C123.975 16.7175 123.4 15.9483 122.872 15.1401L125.575 13.043C126.569 14.4254 127.604 15.4519 128.676 16.1276C129.748 16.8032 130.704 17.1449 131.543 17.1449C131.823 17.1449 132.172 17.1293 132.592 17.0982C133.011 17.0683 133.508 16.9357 134.083 16.6941C134.659 16.4615 135.319 16.0808 136.065 15.5598C136.811 15.0478 137.666 14.3098 138.628 13.3691L140.448 15.1401C138.956 17.41 137.424 18.9783 135.854 19.8488C134.285 20.7194 132.801 21.1546 131.403 21.1546Z" fill="#040634"/>
<path fill-rule="evenodd" clip-rule="evenodd" d="M162.408 46.4684V42.2716H165.018V27.727H159.237V29.2186C159.237 31.4872 159.128 33.609 158.911 35.5827C158.693 37.5563 158.242 39.3273 157.559 40.8969C156.875 42.4665 155.919 43.8022 154.692 44.9066C153.465 46.0097 151.84 46.8101 149.82 47.3065L147.862 42.7381C149.012 42.2417 149.945 41.6661 150.659 41.0138C151.374 40.3603 151.926 39.5443 152.315 38.5659C152.703 37.5862 152.959 36.4142 153.084 35.0461C153.207 33.6792 153.27 32.0628 153.27 30.1983V27.727H149.773V23.625H171.498V42.2716H174.248V46.4684H162.408Z" fill="#040634"/>
<path fill-rule="evenodd" clip-rule="evenodd" d="M195.648 32.9036C195.492 33.1517 195.127 33.7039 194.545 34.5576C193.969 35.4126 193.293 36.3845 192.516 37.472L186.06 46.4698H179.844V27.7751H176.814V23.6719H186.324V37.6578H186.511V37.7046C186.511 37.6734 186.619 37.4954 186.837 37.1692C187.054 36.8418 187.341 36.4221 187.691 35.9102C188.049 35.397 188.453 34.8071 188.903 34.1379C189.354 33.4701 189.844 32.7632 190.372 32.0174L196.13 23.6719H202.314C202.314 26.7487 202.322 29.8021 202.338 32.8334C202.353 35.8634 202.361 38.9324 202.361 42.0404H205.485V45.863C204.677 46.2047 203.822 46.4542 202.92 46.6088C202.02 46.7647 201.211 46.8414 200.497 46.8414C199.501 46.8414 198.709 46.7024 198.119 46.423C197.528 46.1424 197.061 45.7695 196.72 45.3043C196.378 44.8379 196.153 44.3168 196.044 43.7425C195.935 43.1669 195.88 42.5848 195.88 41.9936V32.9036H195.648Z" fill="#040634"/>
<path fill-rule="evenodd" clip-rule="evenodd" d="M232.381 23.625V41.9922H235.457V45.8616C234.68 46.2033 233.833 46.4606 232.917 46.6308C232 46.8023 231.184 46.8881 230.469 46.8881C228.791 46.8881 227.609 46.5451 226.926 45.8616C226.243 45.1782 225.901 44.0906 225.901 42.599V36.4441H216.997V46.4684H210.516V27.727H207.579V23.625H216.997V32.6683H225.901V23.625H232.381Z" fill="#040634"/>
<path fill-rule="evenodd" clip-rule="evenodd" d="M237.978 46.4684V42.2716H240.495V27.727H238.072V23.625H258.723V31.456H254.434V27.727H246.976V42.2716H250.379V46.4684H237.978Z" fill="#040634"/>
<path fill-rule="evenodd" clip-rule="evenodd" d="M9.79592 30.6122C9.79592 33.3172 7.60296 35.5102 4.89796 35.5102C2.19296 35.5102 0 33.3172 0 30.6122C0 27.9072 2.19296 25.7143 4.89796 25.7143C7.60296 25.7143 9.79592 27.9072 9.79592 30.6122ZM20.0311 21.4074C21.3124 24.1449 22.0408 27.28 22.0408 30.6122C22.0408 33.9444 21.3124 37.0796 20.0311 39.817C19.1241 41.7528 17.9406 43.4903 16.5412 44.9557C16.034 45.4877 15.2418 45.4027 14.8229 44.7772L12.491 41.2935C12.122 40.7431 12.173 39.9574 12.6101 39.4772C13.4129 38.5942 14.0955 37.5673 14.6272 36.4307C15.4375 34.7005 15.8979 32.7192 15.8979 30.6122C15.8979 28.5053 15.4375 26.524 14.6272 24.7938C14.0955 23.6572 13.4129 22.6302 12.6101 21.7473C12.173 21.2671 12.122 20.4814 12.491 19.931L14.8229 16.4473C15.2418 15.8218 16.034 15.7368 16.5412 16.2688C17.9406 17.7342 19.1241 19.4717 20.0311 21.4074ZM29.044 15.4559C31.1692 19.7811 32.3754 24.735 32.3754 30C32.3754 35.265 31.1692 40.2189 29.044 44.5441L26.8139 43.2114C25.7248 42.5609 24.3582 42.9173 23.6672 44.0523L20.3424 48.3727C19.4391 49.31 19.3418 50.8588 20.1014 51.9401L21.6537 54.1503L25.036 58.9675C25.9017 60.2013 27.5315 60.349 28.583 59.3043C31.6037 56.302 34.1578 52.7395 36.1104 48.7645C38.8514 43.1846 40.4082 36.793 40.4082 30C40.4082 23.207 38.8514 16.8154 36.1104 11.2355C34.1578 7.26051 31.6037 3.69801 28.583 0.695691C27.5315 -0.349018 25.9017 -0.201343 25.036 1.03254L21.6537 5.84967L20.1014 8.05991C19.3418 9.14245 19.4391 10.6888 20.3424 11.6273L23.6672 15.9489C24.3582 17.0827 25.7248 17.4391 26.8139 16.7886L29.044 15.4559Z" fill="#325DFB"/>
</svg>
