<svg width="200" height="200" viewBox="0 0 200 200" fill="none" xmlns="http://www.w3.org/2000/svg">
<g clip-path="url(#clip0)">
<path d="M99.9606 199.921C155.167 199.921 199.921 155.167 199.921 99.9606C199.921 44.7539 155.167 0 99.9606 0C44.7539 0 0 44.7539 0 99.9606C0 155.167 44.7539 199.921 99.9606 199.921Z" fill="url(#paint0_linear)"/>
<path d="M108.139 50.1953L106.917 120.524H93.6119L92.2542 50.1953H108.139ZM100.265 149.851C97.5493 149.851 95.3769 148.9 93.4762 146.999C91.5754 145.099 90.625 142.79 90.625 140.211C90.625 137.495 91.5754 135.323 93.4762 133.422C95.3769 131.522 97.5493 130.571 100.265 130.571C102.844 130.571 105.152 131.522 107.053 133.422C108.954 135.323 109.904 137.495 109.904 140.211C109.904 142.79 108.954 145.099 107.053 146.999C105.152 148.9 102.844 149.851 100.265 149.851Z" fill="white"/>
</g>
<defs>
<linearGradient id="paint0_linear" x1="192.659" y1="137.446" x2="0.0114743" y2="42.8269" gradientUnits="userSpaceOnUse">
<stop stop-color="#1D42F6"/>
<stop offset="0.56" stop-color="#A31BCF"/>
<stop offset="1" stop-color="#DC0ABE"/>
</linearGradient>
<clipPath id="clip0">
<rect width="200" height="200" fill="white"/>
</clipPath>
</defs>
</svg>
