<svg width="357" height="451" viewBox="0 0 357 451" fill="none" xmlns="http://www.w3.org/2000/svg">
<g opacity="0.1">
<path d="M72.4629 233H68.6152L62.4043 222.199H62.3164C62.4401 224.107 62.502 225.467 62.502 226.281V233H59.7969V218.723H63.6152L69.8164 229.416H69.8848C69.7871 227.561 69.7383 226.249 69.7383 225.48V218.723H72.4629V233ZM89.0254 225.842C89.0254 228.205 88.4395 230.021 87.2676 231.291C86.0957 232.561 84.416 233.195 82.2285 233.195C80.041 233.195 78.3613 232.561 77.1895 231.291C76.0176 230.021 75.4316 228.199 75.4316 225.822C75.4316 223.446 76.0176 221.633 77.1895 220.383C78.3678 219.126 80.054 218.498 82.248 218.498C84.4421 218.498 86.1185 219.13 87.2773 220.393C88.4427 221.656 89.0254 223.472 89.0254 225.842ZM78.6055 225.842C78.6055 227.437 78.9082 228.638 79.5137 229.445C80.1191 230.253 81.0241 230.656 82.2285 230.656C84.6439 230.656 85.8516 229.051 85.8516 225.842C85.8516 222.626 84.6504 221.018 82.248 221.018C81.0436 221.018 80.1354 221.424 79.5234 222.238C78.9115 223.046 78.6055 224.247 78.6055 225.842ZM105.607 229.035C105.607 230.324 105.142 231.34 104.211 232.082C103.286 232.824 101.997 233.195 100.344 233.195C98.8203 233.195 97.4727 232.909 96.3008 232.336V229.523C97.2643 229.953 98.0781 230.256 98.7422 230.432C99.4128 230.607 100.025 230.695 100.578 230.695C101.242 230.695 101.75 230.568 102.102 230.314C102.46 230.061 102.639 229.683 102.639 229.182C102.639 228.902 102.561 228.654 102.404 228.439C102.248 228.218 102.017 228.007 101.711 227.805C101.411 227.603 100.796 227.281 99.8652 226.838C98.9928 226.428 98.3385 226.034 97.9023 225.656C97.4661 225.279 97.1178 224.839 96.8574 224.338C96.597 223.837 96.4668 223.251 96.4668 222.58C96.4668 221.317 96.8932 220.324 97.7461 219.602C98.6055 218.879 99.7904 218.518 101.301 218.518C102.043 218.518 102.749 218.605 103.42 218.781C104.097 218.957 104.803 219.204 105.539 219.523L104.562 221.877C103.801 221.564 103.169 221.346 102.668 221.223C102.173 221.099 101.685 221.037 101.203 221.037C100.63 221.037 100.191 221.171 99.8848 221.438C99.5788 221.704 99.4258 222.053 99.4258 222.482C99.4258 222.749 99.4876 222.984 99.6113 223.186C99.735 223.381 99.9303 223.573 100.197 223.762C100.471 223.944 101.112 224.276 102.121 224.758C103.456 225.396 104.37 226.037 104.865 226.682C105.36 227.32 105.607 228.104 105.607 229.035ZM108.195 233V218.723H111.223V233H108.195ZM120.236 224.982H125.9V232.385C124.982 232.684 124.117 232.893 123.303 233.01C122.495 233.133 121.669 233.195 120.822 233.195C118.667 233.195 117.02 232.564 115.881 231.301C114.748 230.031 114.182 228.212 114.182 225.842C114.182 223.537 114.839 221.74 116.154 220.451C117.476 219.162 119.305 218.518 121.643 218.518C123.107 218.518 124.52 218.811 125.881 219.396L124.875 221.818C123.833 221.298 122.749 221.037 121.623 221.037C120.314 221.037 119.266 221.477 118.479 222.355C117.691 223.234 117.297 224.416 117.297 225.9C117.297 227.45 117.613 228.635 118.244 229.455C118.882 230.269 119.807 230.676 121.018 230.676C121.649 230.676 122.29 230.611 122.941 230.48V227.502H120.236V224.982ZM141.975 233H138.127L131.916 222.199H131.828C131.952 224.107 132.014 225.467 132.014 226.281V233H129.309V218.723H133.127L139.328 229.416H139.396C139.299 227.561 139.25 226.249 139.25 225.48V218.723H141.975V233ZM154.318 233L153.283 229.602H148.078L147.043 233H143.781L148.82 218.664H152.521L157.58 233H154.318ZM152.561 227.062C151.604 223.983 151.063 222.242 150.939 221.838C150.822 221.434 150.738 221.115 150.686 220.881C150.471 221.714 149.855 223.775 148.84 227.062H152.561ZM159.387 233V218.723H162.414V230.5H168.205V233H159.387Z" fill="white"/>
<path d="M192.278 449.355H33.7836C15.9544 449.355 1.5 434.9 1.5 417.071V33.7836C1.5 15.9532 15.9544 1.5 33.7836 1.5H192.278C210.107 1.5 224.561 15.9532 224.561 33.7836V417.071C224.561 434.9 210.107 449.355 192.278 449.355Z" stroke="white" stroke-width="3"/>
<path d="M135.909 22.3316H90.8167C89.9433 22.3316 89.2344 21.6226 89.2344 20.7493C89.2344 19.876 89.9433 19.167 90.8167 19.167H135.909C136.782 19.167 137.49 19.876 137.49 20.7493C137.49 21.6226 136.782 22.3316 135.909 22.3316Z" fill="white"/>
<path d="M49.7576 427.785H41.1875V428.957H49.7576V427.785Z" fill="white"/>
<path d="M117.491 434.999V434.549H111.228V428.831H117.041V434.999H117.491V434.549V434.999H117.941V428.381C117.941 428.263 117.893 428.148 117.809 428.064C117.725 427.98 117.609 427.932 117.491 427.932H110.778C110.659 427.932 110.544 427.98 110.46 428.064C110.376 428.148 110.328 428.263 110.328 428.381V434.999C110.328 435.117 110.376 435.234 110.46 435.318C110.544 435.4 110.659 435.448 110.778 435.448H117.491C117.609 435.448 117.725 435.4 117.809 435.318C117.893 435.234 117.941 435.117 117.941 434.999H117.491Z" fill="white"/>
<path d="M177.183 427.698L174.092 430.79C173.771 431.109 173.609 431.532 173.609 431.95C173.609 432.37 173.771 432.792 174.092 433.113L177.183 436.204C177.358 436.379 177.644 436.379 177.819 436.204C177.994 436.028 177.994 435.744 177.819 435.567L174.727 432.476C174.581 432.329 174.51 432.142 174.509 431.95C174.51 431.76 174.581 431.572 174.727 431.427L177.819 428.333C177.995 428.158 177.994 427.873 177.819 427.698C177.644 427.521 177.358 427.521 177.183 427.698Z" fill="white"/>
<path d="M181.347 42.8974C181.738 42.8974 182.055 43.2129 182.055 43.6028C182.055 43.995 181.738 44.3117 181.347 44.3117C180.957 44.3117 180.641 43.995 180.641 43.6028C180.641 43.2129 180.957 42.8974 181.347 42.8974Z" fill="white"/>
<path d="M183.113 41.8906L183.082 41.8594L183.048 41.8306L183.031 41.815C182.116 40.9837 180.716 41.0173 179.843 41.8906L179.74 41.9925L179.597 42.1341C179.425 42.3068 179.426 42.5888 179.598 42.7615C179.772 42.9354 180.053 42.9366 180.225 42.7627L180.471 42.518C181.027 41.9638 181.93 41.9638 182.484 42.518L182.659 42.6895C182.833 42.8599 183.11 42.8599 183.283 42.6883C183.366 42.6056 183.412 42.494 183.412 42.3776C183.412 42.2589 183.366 42.1485 183.286 42.0669L183.113 41.8906Z" fill="white"/>
<path d="M184.235 41.0197L184.09 40.8722L184.087 40.871L183.971 40.7534L183.906 40.7006C182.414 39.3918 180.145 39.4314 178.702 40.8206L178.68 40.8386L178.414 41.1037C178.257 41.262 178.259 41.5176 178.415 41.6759C178.573 41.8343 178.83 41.8343 178.987 41.6771L179.253 41.412L179.258 41.406C180.425 40.2784 182.278 40.2712 183.454 41.3832L183.663 41.5919C183.822 41.7491 184.078 41.7491 184.234 41.5907C184.393 41.4324 184.394 41.1769 184.235 41.0197Z" fill="white"/>
<path d="M12.7683 44.6903C12.7683 44.7743 12.8391 44.8451 12.9231 44.8451C13.0142 44.8451 13.079 44.7743 13.079 44.6903V40.5276C13.085 40.4881 13.079 40.4497 13.0598 40.4101C13.0202 40.3393 12.9171 40.3129 12.8451 40.3525L11.9718 40.8827C11.8938 40.9223 11.8674 41.0123 11.913 41.0963C11.9394 41.1418 11.9909 41.1742 12.0497 41.1742C12.0749 41.1742 12.1073 41.161 12.1265 41.149L12.7683 40.7736V44.6903Z" fill="white"/>
<path d="M14.6686 44.18C14.9469 44.5878 15.3416 44.8661 15.8011 44.8661C16.2605 44.8661 16.6564 44.5878 16.9347 44.18C17.2058 43.7661 17.375 43.2095 17.375 42.6001C17.375 41.9919 17.2058 41.4352 16.9347 41.0142C16.6564 40.6135 16.2605 40.334 15.8011 40.334C15.3416 40.334 14.9469 40.6135 14.6686 41.0142C14.3891 41.4352 14.2344 41.9919 14.2344 42.6001C14.2344 43.2095 14.3891 43.7661 14.6686 44.18ZM14.9337 41.1953C15.1665 40.839 15.4772 40.6519 15.8011 40.6519C16.125 40.6519 16.4297 40.839 16.6684 41.1953C16.9023 41.5456 17.0571 42.0434 17.0571 42.6001C17.0571 43.1579 16.9023 43.6557 16.6684 44.006C16.4297 44.3491 16.125 44.5494 15.8011 44.5494C15.4772 44.5494 15.1665 44.3491 14.9337 44.006C14.701 43.6557 14.5511 43.1579 14.5511 42.6001C14.5511 42.0434 14.701 41.5456 14.9337 41.1953Z" fill="white"/>
<path d="M18.9219 44.5493C18.9219 44.7304 19.0634 44.872 19.2458 44.872C19.4269 44.872 19.5685 44.7304 19.5685 44.5493C19.5685 44.3682 19.4269 44.2254 19.2458 44.2254C19.0634 44.2254 18.9219 44.3682 18.9219 44.5493ZM18.9219 41.8298C18.9219 42.0109 19.0634 42.1537 19.2458 42.1537C19.4269 42.1537 19.5685 42.0109 19.5685 41.8298C19.5685 41.6486 19.4269 41.5059 19.2458 41.5059C19.0634 41.5059 18.9219 41.6486 18.9219 41.8298Z" fill="white"/>
<path d="M22.7455 40.5679C22.7587 40.5487 22.7647 40.5223 22.7647 40.4959C22.7647 40.406 22.6939 40.334 22.6028 40.334H20.4854C20.3955 40.334 20.3235 40.406 20.3235 40.4959C20.3235 40.5871 20.3955 40.6579 20.4854 40.6579H22.2213L21.0948 41.8167C21.0301 41.8815 21.0301 41.9859 21.0948 42.0506H21.1008C21.1332 42.089 21.1788 42.1154 21.2304 42.1154C21.5411 42.1154 21.8518 42.2318 22.0845 42.4717C22.3244 42.7044 22.4408 43.0151 22.4408 43.3258C22.4408 43.6365 22.3244 43.9472 22.0845 44.1872C21.8458 44.4199 21.5351 44.5362 21.2244 44.5362C20.9137 44.5362 20.609 44.4199 20.3691 44.1872C20.3043 44.1224 20.2011 44.1224 20.1423 44.1872C20.0776 44.2519 20.0776 44.3551 20.1423 44.4139C20.441 44.7174 20.8357 44.8661 21.2244 44.8661C21.6191 44.8661 22.0137 44.7114 22.3112 44.4139C22.6159 44.1152 22.7647 43.7205 22.7647 43.3258C22.7647 42.9312 22.616 42.5353 22.3185 42.2378C22.0977 42.0182 21.8266 41.8815 21.5411 41.8239L22.7131 40.6195C22.7263 40.6063 22.7395 40.5871 22.7455 40.5679Z" fill="white"/>
<path d="M25.2155 44.18C25.4938 44.5878 25.8885 44.8661 26.348 44.8661C26.8074 44.8661 27.2021 44.5878 27.4816 44.18C27.7527 43.7661 27.9218 43.2095 27.9218 42.6001C27.9218 41.9919 27.7527 41.4352 27.4816 41.0142C27.2021 40.6135 26.8074 40.334 26.348 40.334C25.8885 40.334 25.4938 40.6135 25.2155 41.0142C24.936 41.4352 24.7812 41.9919 24.7812 42.6001C24.7812 43.2095 24.936 43.7661 25.2155 44.18ZM25.4806 41.1953C25.7133 40.839 26.0241 40.6519 26.348 40.6519C26.6718 40.6519 26.9765 40.839 27.2153 41.1953C27.4492 41.5456 27.6039 42.0434 27.6039 42.6001C27.6039 43.1579 27.4492 43.6557 27.2153 44.006C26.9765 44.3491 26.6718 44.5494 26.348 44.5494C26.0241 44.5494 25.7133 44.3491 25.4806 44.006C25.2479 43.6557 25.0979 43.1579 25.0979 42.6001C25.0979 42.0434 25.2479 41.5456 25.4806 41.1953Z" fill="white"/>
<path d="M33.8169 44.7426C33.8433 44.8074 33.9081 44.8457 33.9669 44.8457C33.9861 44.8457 33.9981 44.8398 34.0245 44.8398C34.1025 44.8074 34.1408 44.7102 34.1085 44.6322L32.5358 40.4312C32.5166 40.3724 32.4518 40.334 32.3798 40.334C32.315 40.334 32.2502 40.3724 32.2251 40.4312L30.6512 44.6322C30.6188 44.7102 30.6644 44.8074 30.7423 44.8398C30.7615 44.8398 30.7867 44.8457 30.7999 44.8457C30.8647 44.8457 30.9235 44.8074 30.9487 44.7426L31.3505 43.6749H33.4163L33.8169 44.7426ZM32.387 40.923L33.2999 43.357H31.4669L32.387 40.923Z" fill="white"/>
<path d="M38.8238 44.6923C38.8238 44.7763 38.8886 44.8471 38.9798 44.8471C39.0637 44.8471 39.1357 44.7763 39.1357 44.6923V40.4973C39.1357 40.4709 39.1225 40.4385 39.1093 40.4121C39.0961 40.3929 39.0829 40.3797 39.0637 40.3605C38.9929 40.3149 38.8886 40.3281 38.8442 40.4001L37.2379 42.6338L35.6256 40.4001C35.574 40.3281 35.4769 40.3149 35.4061 40.3605C35.3989 40.3677 35.3929 40.3677 35.3929 40.3737C35.3545 40.4001 35.3281 40.4445 35.3281 40.4973V44.6923C35.3281 44.7763 35.3989 44.8471 35.4901 44.8471C35.574 44.8471 35.6448 44.7763 35.6448 44.6923V40.9699L37.0952 42.9769C37.1276 43.0285 37.1731 43.0476 37.2319 43.0476H37.2451C37.2895 43.0476 37.3411 43.0285 37.3735 42.9769L38.8238 40.9627V44.6923Z" fill="white"/>
<path d="M189.346 40.8567C189.346 41.1566 189.488 41.4145 189.701 41.5801C189.2 41.7876 188.844 42.2902 188.844 42.866C188.844 43.6386 189.469 44.2576 190.235 44.2576C191.007 44.2576 191.626 43.6386 191.626 42.866C191.626 42.2902 191.271 41.7876 190.762 41.5801C190.983 41.4145 191.13 41.1566 191.13 40.8567C191.13 40.366 190.725 39.9678 190.235 39.9678C189.739 39.9678 189.346 40.366 189.346 40.8567ZM189.139 42.866C189.139 42.2662 189.628 41.7696 190.235 41.7696C190.848 41.7696 191.332 42.2662 191.332 42.866C191.332 43.473 190.848 43.9637 190.235 43.9637C189.628 43.9637 189.139 43.473 189.139 42.866ZM189.64 40.8567C189.64 40.5256 189.904 40.2629 190.235 40.2629C190.566 40.2629 190.835 40.5256 190.835 40.8567C190.835 41.1878 190.566 41.4577 190.235 41.4637C189.904 41.4577 189.64 41.1878 189.64 40.8567Z" fill="white"/>
<path d="M193.435 44.2576C193.802 44.2576 194.182 44.11 194.464 43.8341C194.752 43.5522 194.886 43.1731 194.886 42.8049C194.886 42.4258 194.752 42.0575 194.464 41.7756C194.182 41.4877 193.814 41.3533 193.44 41.3533C193.183 41.3533 192.932 41.4205 192.711 41.5489L192.865 40.2749H194.734C194.819 40.2749 194.886 40.2137 194.886 40.1213C194.886 40.0361 194.819 39.9678 194.734 39.9678H192.736C192.699 39.9678 192.662 39.981 192.638 40.005C192.601 40.0302 192.577 40.0661 192.577 40.1153L192.368 41.8428C192.368 41.856 192.362 41.868 192.362 41.874C192.362 41.892 192.362 41.9111 192.368 41.9231C192.368 41.9291 192.368 41.9351 192.374 41.9411V41.9471C192.38 41.9651 192.393 41.9843 192.411 41.9963C192.466 42.0575 192.565 42.0575 192.626 41.9963C192.853 41.7696 193.141 41.6592 193.44 41.6592C193.734 41.6592 194.028 41.7696 194.249 41.9903C194.47 42.2111 194.58 42.505 194.58 42.8049C194.58 43.0988 194.47 43.3867 194.243 43.6134C194.016 43.8401 193.728 43.9505 193.435 43.9505C193.141 43.9505 192.853 43.8401 192.626 43.6194C192.565 43.5582 192.466 43.5582 192.405 43.6194C192.344 43.6746 192.344 43.773 192.405 43.8341C192.687 44.116 193.06 44.2576 193.435 44.2576Z" fill="white"/>
<path d="M196.813 42.0874C197.383 42.0874 197.762 41.5668 197.762 40.991V40.979C197.762 40.4152 197.389 39.8945 196.825 39.8945C196.255 39.8945 195.875 40.4152 195.875 40.991V41.003C195.875 41.5728 196.249 42.0874 196.813 42.0874ZM196.433 44.128C196.433 44.2012 196.494 44.2563 196.567 44.2563C196.616 44.2563 196.654 44.2323 196.684 44.1891L199.668 40.1273C199.686 40.1021 199.692 40.0781 199.692 40.0469C199.692 39.9737 199.631 39.9185 199.558 39.9185C199.509 39.9185 199.471 39.9425 199.441 39.9857L196.457 44.0476C196.439 44.0728 196.433 44.0968 196.433 44.128ZM199.3 44.2815C199.87 44.2815 200.25 43.7597 200.25 43.1839V43.1719C200.25 42.6081 199.876 42.0874 199.312 42.0874C198.742 42.0874 198.363 42.6081 198.363 43.1839V43.1971C198.363 43.7669 198.736 44.2815 199.3 44.2815ZM196.825 41.8235C196.482 41.8235 196.194 41.4744 196.194 40.991V40.979C196.194 40.5315 196.451 40.1572 196.813 40.1572C197.156 40.1572 197.444 40.5123 197.444 40.991V41.003C197.444 41.4624 197.186 41.8235 196.825 41.8235ZM199.312 44.0176C198.969 44.0176 198.681 43.6685 198.681 43.1839V43.1719C198.681 42.7244 198.939 42.3513 199.3 42.3513C199.643 42.3513 199.931 42.7064 199.931 43.1839V43.1971C199.931 43.6565 199.674 44.0176 199.312 44.0176Z" fill="white"/>
<path d="M206.012 40.5255L213.012 40.5123L213.018 44.0127L206.017 44.0199L206.012 40.5255ZM215.261 40.1092L205.637 40.1248L205.642 44.4254L215.267 44.4098L215.261 40.1092ZM205.814 44.7841C205.506 44.7853 205.257 44.5562 205.257 44.2743L205.25 40.2747C205.25 39.9952 205.501 39.7649 205.803 39.7637L215.09 39.7481C215.394 39.7493 215.643 39.9772 215.647 40.2579L215.646 41.0845L216.362 41.0809L216.368 43.4381L215.651 43.4417L215.653 44.2599C215.653 44.5406 215.404 44.7685 215.098 44.7685L205.814 44.7841Z" fill="#F9F9F8"/>
<path d="M130.083 22.3316H90.8167C89.9433 22.3316 89.2344 21.6226 89.2344 20.7493C89.2344 19.876 89.9433 19.167 90.8167 19.167H131.091L130.083 22.3316Z" fill="white"/>
<path d="M12.7683 44.6902C12.7683 44.7742 12.8391 44.845 12.9231 44.845C13.0142 44.845 13.079 44.7742 13.079 44.6902V40.5276C13.085 40.488 13.079 40.4496 13.0598 40.41C13.0202 40.3392 12.9171 40.3128 12.8451 40.3524L11.9718 40.8827C11.8938 40.9222 11.8674 41.0122 11.913 41.0962C11.9394 41.1418 11.9909 41.1742 12.0497 41.1742C12.0749 41.1742 12.1073 41.161 12.1265 41.149L12.7683 40.7735V44.6902Z" fill="white"/>
<path d="M14.6686 44.18C14.9469 44.5878 15.3416 44.8661 15.8011 44.8661C16.2605 44.8661 16.6564 44.5878 16.9347 44.18C17.2058 43.7661 17.375 43.2095 17.375 42.6001C17.375 41.9919 17.2058 41.4352 16.9347 41.0142C16.6564 40.6135 16.2605 40.334 15.8011 40.334C15.3416 40.334 14.9469 40.6135 14.6686 41.0142C14.3891 41.4352 14.2344 41.9919 14.2344 42.6001C14.2344 43.2095 14.3891 43.7661 14.6686 44.18ZM14.9337 41.1953C15.1665 40.839 15.4772 40.6519 15.8011 40.6519C16.125 40.6519 16.4297 40.839 16.6684 41.1953C16.9023 41.5456 17.0571 42.0434 17.0571 42.6001C17.0571 43.1579 16.9023 43.6557 16.6684 44.006C16.4297 44.3491 16.125 44.5494 15.8011 44.5494C15.4772 44.5494 15.1665 44.3491 14.9337 44.006C14.701 43.6557 14.5511 43.1579 14.5511 42.6001C14.5511 42.0434 14.701 41.5456 14.9337 41.1953Z" fill="white"/>
<path d="M18.9219 44.5493C18.9219 44.7304 19.0634 44.872 19.2458 44.872C19.4269 44.872 19.5685 44.7304 19.5685 44.5493C19.5685 44.3682 19.4269 44.2254 19.2458 44.2254C19.0634 44.2254 18.9219 44.3682 18.9219 44.5493ZM18.9219 41.8298C18.9219 42.0109 19.0634 42.1537 19.2458 42.1537C19.4269 42.1537 19.5685 42.0109 19.5685 41.8298C19.5685 41.6486 19.4269 41.5059 19.2458 41.5059C19.0634 41.5059 18.9219 41.6486 18.9219 41.8298Z" fill="white"/>
<path d="M22.7455 40.5679C22.7587 40.5487 22.7647 40.5223 22.7647 40.4959C22.7647 40.406 22.6939 40.334 22.6028 40.334H20.4854C20.3955 40.334 20.3235 40.406 20.3235 40.4959C20.3235 40.5871 20.3955 40.6579 20.4854 40.6579H22.2213L21.0948 41.8167C21.0301 41.8815 21.0301 41.9859 21.0948 42.0506H21.1008C21.1332 42.089 21.1788 42.1154 21.2304 42.1154C21.5411 42.1154 21.8518 42.2318 22.0845 42.4717C22.3244 42.7044 22.4408 43.0151 22.4408 43.3258C22.4408 43.6365 22.3244 43.9472 22.0845 44.1872C21.8458 44.4199 21.5351 44.5362 21.2244 44.5362C20.9137 44.5362 20.609 44.4199 20.3691 44.1872C20.3043 44.1224 20.2011 44.1224 20.1423 44.1872C20.0776 44.2519 20.0776 44.3551 20.1423 44.4139C20.441 44.7174 20.8357 44.8661 21.2244 44.8661C21.6191 44.8661 22.0137 44.7114 22.3112 44.4139C22.6159 44.1152 22.7647 43.7205 22.7647 43.3258C22.7647 42.9312 22.616 42.5353 22.3185 42.2378C22.0977 42.0182 21.8266 41.8815 21.5411 41.8239L22.7131 40.6195C22.7263 40.6063 22.7395 40.5871 22.7455 40.5679Z" fill="white"/>
<path d="M25.2155 44.18C25.4938 44.5878 25.8885 44.8661 26.348 44.8661C26.8074 44.8661 27.2021 44.5878 27.4816 44.18C27.7527 43.7661 27.9218 43.2095 27.9218 42.6001C27.9218 41.9919 27.7527 41.4352 27.4816 41.0142C27.2021 40.6135 26.8074 40.334 26.348 40.334C25.8885 40.334 25.4938 40.6135 25.2155 41.0142C24.936 41.4352 24.7812 41.9919 24.7812 42.6001C24.7812 43.2095 24.936 43.7661 25.2155 44.18ZM25.4806 41.1953C25.7133 40.839 26.0241 40.6519 26.348 40.6519C26.6718 40.6519 26.9765 40.839 27.2153 41.1953C27.4492 41.5456 27.6039 42.0434 27.6039 42.6001C27.6039 43.1579 27.4492 43.6557 27.2153 44.006C26.9765 44.3491 26.6718 44.5494 26.348 44.5494C26.0241 44.5494 25.7133 44.3491 25.4806 44.006C25.2479 43.6557 25.0979 43.1579 25.0979 42.6001C25.0979 42.0434 25.2479 41.5456 25.4806 41.1953Z" fill="white"/>
<path d="M33.8169 44.7426C33.8433 44.8074 33.9081 44.8457 33.9669 44.8457C33.9861 44.8457 33.9981 44.8398 34.0245 44.8398C34.1025 44.8074 34.1408 44.7102 34.1085 44.6322L32.5358 40.4312C32.5166 40.3724 32.4518 40.334 32.3798 40.334C32.315 40.334 32.2502 40.3724 32.2251 40.4312L30.6512 44.6322C30.6188 44.7102 30.6644 44.8074 30.7423 44.8398C30.7615 44.8398 30.7867 44.8457 30.7999 44.8457C30.8647 44.8457 30.9235 44.8074 30.9487 44.7426L31.3505 43.6749H33.4163L33.8169 44.7426ZM32.387 40.923L33.2999 43.357H31.4669L32.387 40.923Z" fill="white"/>
<path d="M38.8238 44.6923C38.8238 44.7763 38.8886 44.8471 38.9798 44.8471C39.0637 44.8471 39.1357 44.7763 39.1357 44.6923V40.4973C39.1357 40.4709 39.1225 40.4385 39.1093 40.4121C39.0961 40.3929 39.0829 40.3797 39.0637 40.3605C38.9929 40.3149 38.8886 40.3281 38.8442 40.4001L37.2379 42.6338L35.6256 40.4001C35.574 40.3281 35.4769 40.3149 35.4061 40.3605C35.3989 40.3677 35.3929 40.3677 35.3929 40.3737C35.3545 40.4001 35.3281 40.4445 35.3281 40.4973V44.6923C35.3281 44.7763 35.3989 44.8471 35.4901 44.8471C35.574 44.8471 35.6448 44.7763 35.6448 44.6923V40.9699L37.0952 42.9769C37.1276 43.0285 37.1731 43.0476 37.2319 43.0476H37.2451C37.2895 43.0476 37.3411 43.0285 37.3735 42.9769L38.8238 40.9627V44.6923Z" fill="white"/>
<rect x="14.5" y="62.5" width="197" height="347" rx="1.5" stroke="white"/>
</g>
<path d="M202.463 233H198.615L192.404 222.199H192.316C192.44 224.107 192.502 225.467 192.502 226.281V233H189.797V218.723H193.615L199.816 229.416H199.885C199.787 227.561 199.738 226.249 199.738 225.48V218.723H202.463V233ZM219.025 225.842C219.025 228.205 218.439 230.021 217.268 231.291C216.096 232.561 214.416 233.195 212.229 233.195C210.041 233.195 208.361 232.561 207.189 231.291C206.018 230.021 205.432 228.199 205.432 225.822C205.432 223.446 206.018 221.633 207.189 220.383C208.368 219.126 210.054 218.498 212.248 218.498C214.442 218.498 216.118 219.13 217.277 220.393C218.443 221.656 219.025 223.472 219.025 225.842ZM208.605 225.842C208.605 227.437 208.908 228.638 209.514 229.445C210.119 230.253 211.024 230.656 212.229 230.656C214.644 230.656 215.852 229.051 215.852 225.842C215.852 222.626 214.65 221.018 212.248 221.018C211.044 221.018 210.135 221.424 209.523 222.238C208.911 223.046 208.605 224.247 208.605 225.842ZM235.607 229.035C235.607 230.324 235.142 231.34 234.211 232.082C233.286 232.824 231.997 233.195 230.344 233.195C228.82 233.195 227.473 232.909 226.301 232.336V229.523C227.264 229.953 228.078 230.256 228.742 230.432C229.413 230.607 230.025 230.695 230.578 230.695C231.242 230.695 231.75 230.568 232.102 230.314C232.46 230.061 232.639 229.683 232.639 229.182C232.639 228.902 232.561 228.654 232.404 228.439C232.248 228.218 232.017 228.007 231.711 227.805C231.411 227.603 230.796 227.281 229.865 226.838C228.993 226.428 228.339 226.034 227.902 225.656C227.466 225.279 227.118 224.839 226.857 224.338C226.597 223.837 226.467 223.251 226.467 222.58C226.467 221.317 226.893 220.324 227.746 219.602C228.605 218.879 229.79 218.518 231.301 218.518C232.043 218.518 232.749 218.605 233.42 218.781C234.097 218.957 234.803 219.204 235.539 219.523L234.562 221.877C233.801 221.564 233.169 221.346 232.668 221.223C232.173 221.099 231.685 221.037 231.203 221.037C230.63 221.037 230.191 221.171 229.885 221.438C229.579 221.704 229.426 222.053 229.426 222.482C229.426 222.749 229.488 222.984 229.611 223.186C229.735 223.381 229.93 223.573 230.197 223.762C230.471 223.944 231.112 224.276 232.121 224.758C233.456 225.396 234.37 226.037 234.865 226.682C235.36 227.32 235.607 228.104 235.607 229.035ZM238.195 233V218.723H241.223V233H238.195ZM250.236 224.982H255.9V232.385C254.982 232.684 254.117 232.893 253.303 233.01C252.495 233.133 251.669 233.195 250.822 233.195C248.667 233.195 247.02 232.564 245.881 231.301C244.748 230.031 244.182 228.212 244.182 225.842C244.182 223.537 244.839 221.74 246.154 220.451C247.476 219.162 249.305 218.518 251.643 218.518C253.107 218.518 254.52 218.811 255.881 219.396L254.875 221.818C253.833 221.298 252.749 221.037 251.623 221.037C250.314 221.037 249.266 221.477 248.479 222.355C247.691 223.234 247.297 224.416 247.297 225.9C247.297 227.45 247.613 228.635 248.244 229.455C248.882 230.269 249.807 230.676 251.018 230.676C251.649 230.676 252.29 230.611 252.941 230.48V227.502H250.236V224.982ZM271.975 233H268.127L261.916 222.199H261.828C261.952 224.107 262.014 225.467 262.014 226.281V233H259.309V218.723H263.127L269.328 229.416H269.396C269.299 227.561 269.25 226.249 269.25 225.48V218.723H271.975V233ZM284.318 233L283.283 229.602H278.078L277.043 233H273.781L278.82 218.664H282.521L287.58 233H284.318ZM282.561 227.062C281.604 223.983 281.063 222.242 280.939 221.838C280.822 221.434 280.738 221.115 280.686 220.881C280.471 221.714 279.855 223.775 278.84 227.062H282.561ZM289.387 233V218.723H292.414V230.5H298.205V233H289.387Z" fill="white"/>
<path d="M322.278 449.355H163.784C145.954 449.355 131.5 434.9 131.5 417.071V33.7836C131.5 15.9532 145.954 1.5 163.784 1.5H322.278C340.107 1.5 354.561 15.9532 354.561 33.7836V417.071C354.561 434.9 340.107 449.355 322.278 449.355Z" stroke="white" stroke-width="3"/>
<path d="M265.909 22.3316H220.817C219.943 22.3316 219.234 21.6226 219.234 20.7493C219.234 19.876 219.943 19.167 220.817 19.167H265.909C266.782 19.167 267.49 19.876 267.49 20.7493C267.49 21.6226 266.782 22.3316 265.909 22.3316Z" fill="white"/>
<path d="M179.758 427.785H171.188V428.957H179.758V427.785Z" fill="white"/>
<path d="M247.491 434.999V434.549H241.228V428.831H247.041V434.999H247.491V434.549V434.999H247.941V428.381C247.941 428.263 247.893 428.148 247.809 428.064C247.725 427.98 247.609 427.932 247.491 427.932H240.778C240.659 427.932 240.544 427.98 240.46 428.064C240.376 428.148 240.328 428.263 240.328 428.381V434.999C240.328 435.117 240.376 435.234 240.46 435.318C240.544 435.4 240.659 435.448 240.778 435.448H247.491C247.609 435.448 247.725 435.4 247.809 435.318C247.893 435.234 247.941 435.117 247.941 434.999H247.491Z" fill="white"/>
<path d="M307.183 427.698L304.092 430.79C303.771 431.109 303.609 431.532 303.609 431.95C303.609 432.37 303.771 432.792 304.092 433.113L307.183 436.204C307.358 436.379 307.644 436.379 307.819 436.204C307.994 436.028 307.994 435.744 307.819 435.567L304.727 432.476C304.581 432.329 304.51 432.142 304.509 431.95C304.51 431.76 304.581 431.572 304.727 431.427L307.819 428.333C307.995 428.158 307.994 427.873 307.819 427.698C307.644 427.521 307.358 427.521 307.183 427.698Z" fill="white"/>
<path d="M311.347 42.8974C311.738 42.8974 312.055 43.2129 312.055 43.6028C312.055 43.995 311.738 44.3117 311.347 44.3117C310.957 44.3117 310.641 43.995 310.641 43.6028C310.641 43.2129 310.957 42.8974 311.347 42.8974Z" fill="white"/>
<path d="M313.113 41.8906L313.082 41.8594L313.048 41.8306L313.031 41.815C312.116 40.9837 310.716 41.0173 309.843 41.8906L309.74 41.9925L309.597 42.1341C309.425 42.3068 309.426 42.5888 309.598 42.7615C309.772 42.9354 310.053 42.9366 310.225 42.7627L310.471 42.518C311.027 41.9638 311.93 41.9638 312.484 42.518L312.659 42.6895C312.833 42.8599 313.11 42.8599 313.283 42.6883C313.366 42.6056 313.412 42.494 313.412 42.3776C313.412 42.2589 313.366 42.1485 313.286 42.0669L313.113 41.8906Z" fill="white"/>
<path d="M314.235 41.0197L314.09 40.8722L314.087 40.871L313.971 40.7534L313.906 40.7006C312.414 39.3918 310.145 39.4314 308.702 40.8206L308.68 40.8386L308.414 41.1037C308.257 41.262 308.259 41.5176 308.415 41.6759C308.573 41.8343 308.83 41.8343 308.987 41.6771L309.253 41.412L309.258 41.406C310.425 40.2784 312.278 40.2712 313.454 41.3832L313.663 41.5919C313.822 41.7491 314.078 41.7491 314.234 41.5907C314.393 41.4324 314.394 41.1769 314.235 41.0197Z" fill="white"/>
<path d="M142.768 44.6903C142.768 44.7743 142.839 44.8451 142.923 44.8451C143.014 44.8451 143.079 44.7743 143.079 44.6903V40.5276C143.085 40.4881 143.079 40.4497 143.06 40.4101C143.02 40.3393 142.917 40.3129 142.845 40.3525L141.972 40.8827C141.894 40.9223 141.867 41.0123 141.913 41.0963C141.939 41.1418 141.991 41.1742 142.05 41.1742C142.075 41.1742 142.107 41.161 142.127 41.149L142.768 40.7736V44.6903Z" fill="white"/>
<path d="M144.669 44.18C144.947 44.5878 145.342 44.8661 145.801 44.8661C146.261 44.8661 146.656 44.5878 146.935 44.18C147.206 43.7661 147.375 43.2095 147.375 42.6001C147.375 41.9919 147.206 41.4352 146.935 41.0142C146.656 40.6135 146.261 40.334 145.801 40.334C145.342 40.334 144.947 40.6135 144.669 41.0142C144.389 41.4352 144.234 41.9919 144.234 42.6001C144.234 43.2095 144.389 43.7661 144.669 44.18ZM144.934 41.1953C145.166 40.839 145.477 40.6519 145.801 40.6519C146.125 40.6519 146.43 40.839 146.668 41.1953C146.902 41.5456 147.057 42.0434 147.057 42.6001C147.057 43.1579 146.902 43.6557 146.668 44.006C146.43 44.3491 146.125 44.5494 145.801 44.5494C145.477 44.5494 145.166 44.3491 144.934 44.006C144.701 43.6557 144.551 43.1579 144.551 42.6001C144.551 42.0434 144.701 41.5456 144.934 41.1953Z" fill="white"/>
<path d="M148.922 44.5493C148.922 44.7304 149.063 44.872 149.246 44.872C149.427 44.872 149.568 44.7304 149.568 44.5493C149.568 44.3682 149.427 44.2254 149.246 44.2254C149.063 44.2254 148.922 44.3682 148.922 44.5493ZM148.922 41.8298C148.922 42.0109 149.063 42.1537 149.246 42.1537C149.427 42.1537 149.568 42.0109 149.568 41.8298C149.568 41.6486 149.427 41.5059 149.246 41.5059C149.063 41.5059 148.922 41.6486 148.922 41.8298Z" fill="white"/>
<path d="M152.746 40.5679C152.759 40.5487 152.765 40.5223 152.765 40.4959C152.765 40.406 152.694 40.334 152.603 40.334H150.485C150.395 40.334 150.323 40.406 150.323 40.4959C150.323 40.5871 150.395 40.6579 150.485 40.6579H152.221L151.095 41.8167C151.03 41.8815 151.03 41.9859 151.095 42.0506H151.101C151.133 42.089 151.179 42.1154 151.23 42.1154C151.541 42.1154 151.852 42.2318 152.085 42.4717C152.324 42.7044 152.441 43.0151 152.441 43.3258C152.441 43.6365 152.324 43.9472 152.085 44.1872C151.846 44.4199 151.535 44.5362 151.224 44.5362C150.914 44.5362 150.609 44.4199 150.369 44.1872C150.304 44.1224 150.201 44.1224 150.142 44.1872C150.078 44.2519 150.078 44.3551 150.142 44.4139C150.441 44.7174 150.836 44.8661 151.224 44.8661C151.619 44.8661 152.014 44.7114 152.311 44.4139C152.616 44.1152 152.765 43.7205 152.765 43.3258C152.765 42.9312 152.616 42.5353 152.318 42.2378C152.098 42.0182 151.827 41.8815 151.541 41.8239L152.713 40.6195C152.726 40.6063 152.74 40.5871 152.746 40.5679Z" fill="white"/>
<path d="M155.216 44.18C155.494 44.5878 155.888 44.8661 156.348 44.8661C156.807 44.8661 157.202 44.5878 157.482 44.18C157.753 43.7661 157.922 43.2095 157.922 42.6001C157.922 41.9919 157.753 41.4352 157.482 41.0142C157.202 40.6135 156.807 40.334 156.348 40.334C155.888 40.334 155.494 40.6135 155.216 41.0142C154.936 41.4352 154.781 41.9919 154.781 42.6001C154.781 43.2095 154.936 43.7661 155.216 44.18ZM155.481 41.1953C155.713 40.839 156.024 40.6519 156.348 40.6519C156.672 40.6519 156.977 40.839 157.215 41.1953C157.449 41.5456 157.604 42.0434 157.604 42.6001C157.604 43.1579 157.449 43.6557 157.215 44.006C156.977 44.3491 156.672 44.5494 156.348 44.5494C156.024 44.5494 155.713 44.3491 155.481 44.006C155.248 43.6557 155.098 43.1579 155.098 42.6001C155.098 42.0434 155.248 41.5456 155.481 41.1953Z" fill="white"/>
<path d="M163.817 44.7426C163.843 44.8074 163.908 44.8457 163.967 44.8457C163.986 44.8457 163.998 44.8398 164.024 44.8398C164.102 44.8074 164.141 44.7102 164.108 44.6322L162.536 40.4312C162.517 40.3724 162.452 40.334 162.38 40.334C162.315 40.334 162.25 40.3724 162.225 40.4312L160.651 44.6322C160.619 44.7102 160.664 44.8074 160.742 44.8398C160.762 44.8398 160.787 44.8457 160.8 44.8457C160.865 44.8457 160.923 44.8074 160.949 44.7426L161.351 43.6749H163.416L163.817 44.7426ZM162.387 40.923L163.3 43.357H161.467L162.387 40.923Z" fill="white"/>
<path d="M168.824 44.6923C168.824 44.7763 168.889 44.8471 168.98 44.8471C169.064 44.8471 169.136 44.7763 169.136 44.6923V40.4973C169.136 40.4709 169.123 40.4385 169.109 40.4121C169.096 40.3929 169.083 40.3797 169.064 40.3605C168.993 40.3149 168.889 40.3281 168.844 40.4001L167.238 42.6338L165.626 40.4001C165.574 40.3281 165.477 40.3149 165.406 40.3605C165.399 40.3677 165.393 40.3677 165.393 40.3737C165.355 40.4001 165.328 40.4445 165.328 40.4973V44.6923C165.328 44.7763 165.399 44.8471 165.49 44.8471C165.574 44.8471 165.645 44.7763 165.645 44.6923V40.9699L167.095 42.9769C167.128 43.0285 167.173 43.0476 167.232 43.0476H167.245C167.29 43.0476 167.341 43.0285 167.373 42.9769L168.824 40.9627V44.6923Z" fill="white"/>
<path d="M319.346 40.8567C319.346 41.1566 319.488 41.4145 319.701 41.5801C319.2 41.7876 318.844 42.2902 318.844 42.866C318.844 43.6386 319.469 44.2576 320.235 44.2576C321.007 44.2576 321.626 43.6386 321.626 42.866C321.626 42.2902 321.271 41.7876 320.762 41.5801C320.983 41.4145 321.13 41.1566 321.13 40.8567C321.13 40.366 320.725 39.9678 320.235 39.9678C319.739 39.9678 319.346 40.366 319.346 40.8567ZM319.139 42.866C319.139 42.2662 319.628 41.7696 320.235 41.7696C320.848 41.7696 321.332 42.2662 321.332 42.866C321.332 43.473 320.848 43.9637 320.235 43.9637C319.628 43.9637 319.139 43.473 319.139 42.866ZM319.64 40.8567C319.64 40.5256 319.904 40.2629 320.235 40.2629C320.566 40.2629 320.835 40.5256 320.835 40.8567C320.835 41.1878 320.566 41.4577 320.235 41.4637C319.904 41.4577 319.64 41.1878 319.64 40.8567Z" fill="white"/>
<path d="M323.435 44.2576C323.802 44.2576 324.182 44.11 324.464 43.8341C324.752 43.5522 324.886 43.1731 324.886 42.8049C324.886 42.4258 324.752 42.0575 324.464 41.7756C324.182 41.4877 323.814 41.3533 323.44 41.3533C323.183 41.3533 322.932 41.4205 322.711 41.5489L322.865 40.2749H324.734C324.819 40.2749 324.886 40.2137 324.886 40.1213C324.886 40.0361 324.819 39.9678 324.734 39.9678H322.736C322.699 39.9678 322.662 39.981 322.638 40.005C322.601 40.0302 322.577 40.0661 322.577 40.1153L322.368 41.8428C322.368 41.856 322.362 41.868 322.362 41.874C322.362 41.892 322.362 41.9111 322.368 41.9231C322.368 41.9291 322.368 41.9351 322.374 41.9411V41.9471C322.38 41.9651 322.393 41.9843 322.411 41.9963C322.466 42.0575 322.565 42.0575 322.626 41.9963C322.853 41.7696 323.141 41.6592 323.44 41.6592C323.734 41.6592 324.028 41.7696 324.249 41.9903C324.47 42.2111 324.58 42.505 324.58 42.8049C324.58 43.0988 324.47 43.3867 324.243 43.6134C324.016 43.8401 323.728 43.9505 323.435 43.9505C323.141 43.9505 322.853 43.8401 322.626 43.6194C322.565 43.5582 322.466 43.5582 322.405 43.6194C322.344 43.6746 322.344 43.773 322.405 43.8341C322.687 44.116 323.06 44.2576 323.435 44.2576Z" fill="white"/>
<path d="M326.813 42.0874C327.383 42.0874 327.762 41.5668 327.762 40.991V40.979C327.762 40.4152 327.389 39.8945 326.825 39.8945C326.255 39.8945 325.875 40.4152 325.875 40.991V41.003C325.875 41.5728 326.249 42.0874 326.813 42.0874ZM326.433 44.128C326.433 44.2012 326.494 44.2563 326.567 44.2563C326.616 44.2563 326.654 44.2323 326.684 44.1891L329.668 40.1273C329.686 40.1021 329.692 40.0781 329.692 40.0469C329.692 39.9737 329.631 39.9185 329.558 39.9185C329.509 39.9185 329.471 39.9425 329.441 39.9857L326.457 44.0476C326.439 44.0728 326.433 44.0968 326.433 44.128ZM329.3 44.2815C329.87 44.2815 330.25 43.7597 330.25 43.1839V43.1719C330.25 42.6081 329.876 42.0874 329.312 42.0874C328.742 42.0874 328.363 42.6081 328.363 43.1839V43.1971C328.363 43.7669 328.736 44.2815 329.3 44.2815ZM326.825 41.8235C326.482 41.8235 326.194 41.4744 326.194 40.991V40.979C326.194 40.5315 326.451 40.1572 326.813 40.1572C327.156 40.1572 327.444 40.5123 327.444 40.991V41.003C327.444 41.4624 327.186 41.8235 326.825 41.8235ZM329.312 44.0176C328.969 44.0176 328.681 43.6685 328.681 43.1839V43.1719C328.681 42.7244 328.939 42.3513 329.3 42.3513C329.643 42.3513 329.931 42.7064 329.931 43.1839V43.1971C329.931 43.6565 329.674 44.0176 329.312 44.0176Z" fill="white"/>
<path d="M336.012 40.5255L343.012 40.5123L343.018 44.0127L336.017 44.0199L336.012 40.5255ZM345.261 40.1092L335.637 40.1248L335.642 44.4254L345.267 44.4098L345.261 40.1092ZM335.814 44.7841C335.506 44.7853 335.257 44.5562 335.257 44.2743L335.25 40.2747C335.25 39.9952 335.501 39.7649 335.803 39.7637L345.09 39.7481C345.394 39.7493 345.643 39.9772 345.647 40.2579L345.646 41.0845L346.362 41.0809L346.368 43.4381L345.651 43.4417L345.653 44.2599C345.653 44.5406 345.404 44.7685 345.098 44.7685L335.814 44.7841Z" fill="#F9F9F8"/>
<path d="M260.083 22.3316H220.817C219.943 22.3316 219.234 21.6226 219.234 20.7493C219.234 19.876 219.943 19.167 220.817 19.167H261.091L260.083 22.3316Z" fill="white"/>
<path d="M142.768 44.6902C142.768 44.7742 142.839 44.845 142.923 44.845C143.014 44.845 143.079 44.7742 143.079 44.6902V40.5276C143.085 40.488 143.079 40.4496 143.06 40.41C143.02 40.3392 142.917 40.3128 142.845 40.3524L141.972 40.8827C141.894 40.9222 141.867 41.0122 141.913 41.0962C141.939 41.1418 141.991 41.1742 142.05 41.1742C142.075 41.1742 142.107 41.161 142.127 41.149L142.768 40.7735V44.6902Z" fill="white"/>
<path d="M144.669 44.18C144.947 44.5878 145.342 44.8661 145.801 44.8661C146.261 44.8661 146.656 44.5878 146.935 44.18C147.206 43.7661 147.375 43.2095 147.375 42.6001C147.375 41.9919 147.206 41.4352 146.935 41.0142C146.656 40.6135 146.261 40.334 145.801 40.334C145.342 40.334 144.947 40.6135 144.669 41.0142C144.389 41.4352 144.234 41.9919 144.234 42.6001C144.234 43.2095 144.389 43.7661 144.669 44.18ZM144.934 41.1953C145.166 40.839 145.477 40.6519 145.801 40.6519C146.125 40.6519 146.43 40.839 146.668 41.1953C146.902 41.5456 147.057 42.0434 147.057 42.6001C147.057 43.1579 146.902 43.6557 146.668 44.006C146.43 44.3491 146.125 44.5494 145.801 44.5494C145.477 44.5494 145.166 44.3491 144.934 44.006C144.701 43.6557 144.551 43.1579 144.551 42.6001C144.551 42.0434 144.701 41.5456 144.934 41.1953Z" fill="white"/>
<path d="M148.922 44.5493C148.922 44.7304 149.063 44.872 149.246 44.872C149.427 44.872 149.568 44.7304 149.568 44.5493C149.568 44.3682 149.427 44.2254 149.246 44.2254C149.063 44.2254 148.922 44.3682 148.922 44.5493ZM148.922 41.8298C148.922 42.0109 149.063 42.1537 149.246 42.1537C149.427 42.1537 149.568 42.0109 149.568 41.8298C149.568 41.6486 149.427 41.5059 149.246 41.5059C149.063 41.5059 148.922 41.6486 148.922 41.8298Z" fill="white"/>
<path d="M152.746 40.5679C152.759 40.5487 152.765 40.5223 152.765 40.4959C152.765 40.406 152.694 40.334 152.603 40.334H150.485C150.395 40.334 150.323 40.406 150.323 40.4959C150.323 40.5871 150.395 40.6579 150.485 40.6579H152.221L151.095 41.8167C151.03 41.8815 151.03 41.9859 151.095 42.0506H151.101C151.133 42.089 151.179 42.1154 151.23 42.1154C151.541 42.1154 151.852 42.2318 152.085 42.4717C152.324 42.7044 152.441 43.0151 152.441 43.3258C152.441 43.6365 152.324 43.9472 152.085 44.1872C151.846 44.4199 151.535 44.5362 151.224 44.5362C150.914 44.5362 150.609 44.4199 150.369 44.1872C150.304 44.1224 150.201 44.1224 150.142 44.1872C150.078 44.2519 150.078 44.3551 150.142 44.4139C150.441 44.7174 150.836 44.8661 151.224 44.8661C151.619 44.8661 152.014 44.7114 152.311 44.4139C152.616 44.1152 152.765 43.7205 152.765 43.3258C152.765 42.9312 152.616 42.5353 152.318 42.2378C152.098 42.0182 151.827 41.8815 151.541 41.8239L152.713 40.6195C152.726 40.6063 152.74 40.5871 152.746 40.5679Z" fill="white"/>
<path d="M155.216 44.18C155.494 44.5878 155.888 44.8661 156.348 44.8661C156.807 44.8661 157.202 44.5878 157.482 44.18C157.753 43.7661 157.922 43.2095 157.922 42.6001C157.922 41.9919 157.753 41.4352 157.482 41.0142C157.202 40.6135 156.807 40.334 156.348 40.334C155.888 40.334 155.494 40.6135 155.216 41.0142C154.936 41.4352 154.781 41.9919 154.781 42.6001C154.781 43.2095 154.936 43.7661 155.216 44.18ZM155.481 41.1953C155.713 40.839 156.024 40.6519 156.348 40.6519C156.672 40.6519 156.977 40.839 157.215 41.1953C157.449 41.5456 157.604 42.0434 157.604 42.6001C157.604 43.1579 157.449 43.6557 157.215 44.006C156.977 44.3491 156.672 44.5494 156.348 44.5494C156.024 44.5494 155.713 44.3491 155.481 44.006C155.248 43.6557 155.098 43.1579 155.098 42.6001C155.098 42.0434 155.248 41.5456 155.481 41.1953Z" fill="white"/>
<path d="M163.817 44.7426C163.843 44.8074 163.908 44.8457 163.967 44.8457C163.986 44.8457 163.998 44.8398 164.024 44.8398C164.102 44.8074 164.141 44.7102 164.108 44.6322L162.536 40.4312C162.517 40.3724 162.452 40.334 162.38 40.334C162.315 40.334 162.25 40.3724 162.225 40.4312L160.651 44.6322C160.619 44.7102 160.664 44.8074 160.742 44.8398C160.762 44.8398 160.787 44.8457 160.8 44.8457C160.865 44.8457 160.923 44.8074 160.949 44.7426L161.351 43.6749H163.416L163.817 44.7426ZM162.387 40.923L163.3 43.357H161.467L162.387 40.923Z" fill="white"/>
<path d="M168.824 44.6923C168.824 44.7763 168.889 44.8471 168.98 44.8471C169.064 44.8471 169.136 44.7763 169.136 44.6923V40.4973C169.136 40.4709 169.123 40.4385 169.109 40.4121C169.096 40.3929 169.083 40.3797 169.064 40.3605C168.993 40.3149 168.889 40.3281 168.844 40.4001L167.238 42.6338L165.626 40.4001C165.574 40.3281 165.477 40.3149 165.406 40.3605C165.399 40.3677 165.393 40.3677 165.393 40.3737C165.355 40.4001 165.328 40.4445 165.328 40.4973V44.6923C165.328 44.7763 165.399 44.8471 165.49 44.8471C165.574 44.8471 165.645 44.7763 165.645 44.6923V40.9699L167.095 42.9769C167.128 43.0285 167.173 43.0476 167.232 43.0476H167.245C167.29 43.0476 167.341 43.0285 167.373 42.9769L168.824 40.9627V44.6923Z" fill="white"/>
<rect x="144.5" y="62.5" width="197" height="347" rx="1.5" stroke="white"/>
</svg>
