<svg width="469" height="451" viewBox="0 0 469 451" fill="none" xmlns="http://www.w3.org/2000/svg">
<path d="M243.576 197.966C243.576 194.069 240.777 190.807 237.086 190.069L237.104 174.749C237.104 173.891 236.4 173.187 235.541 173.187C234.683 173.187 233.979 173.891 233.979 174.749L233.962 190.069C230.271 190.79 227.473 194.052 227.473 197.966C227.473 202.395 231.078 206 235.507 206C239.936 206 243.576 202.412 243.576 197.966ZM230.614 197.966C230.614 195.253 232.829 193.039 235.541 193.039C238.254 193.039 240.468 195.253 240.468 197.966C240.468 200.678 238.254 202.893 235.541 202.893C232.812 202.91 230.614 200.695 230.614 197.966Z" fill="white"/>
<path d="M225.121 197.965C225.121 197.107 224.417 196.403 223.558 196.403C222.7 196.403 221.996 197.107 221.996 197.965C221.996 198.824 222.7 199.528 223.558 199.528C224.417 199.528 225.121 198.841 225.121 197.965Z" fill="white"/>
<path d="M214.148 197.965C214.148 197.107 213.461 196.403 212.586 196.403C211.727 196.403 211.023 197.107 211.023 197.965C211.023 198.824 211.727 199.528 212.586 199.528C213.444 199.528 214.148 198.841 214.148 197.965Z" fill="white"/>
<path d="M216.52 197.965C216.52 198.824 217.223 199.528 218.082 199.528C218.94 199.528 219.644 198.841 219.644 197.965C219.644 197.107 218.957 196.403 218.082 196.403C217.223 196.42 216.52 197.107 216.52 197.965Z" fill="white"/>
<path d="M205.993 196.867C205.701 197.158 205.547 197.553 205.547 197.965C205.547 198.377 205.719 198.772 205.993 199.064C206.285 199.356 206.68 199.528 207.092 199.528C207.504 199.528 207.899 199.356 208.191 199.064C208.482 198.772 208.654 198.377 208.654 197.965C208.654 197.553 208.482 197.158 208.191 196.867C207.899 196.575 207.504 196.403 207.092 196.403C206.697 196.42 206.285 196.575 205.993 196.867Z" fill="white"/>
<path d="M265.067 199.064C265.359 198.772 265.531 198.377 265.531 197.965C265.531 197.553 265.359 197.158 265.067 196.867C264.775 196.575 264.38 196.403 263.968 196.403C263.556 196.403 263.162 196.575 262.87 196.867C262.578 197.158 262.406 197.553 262.406 197.965C262.406 198.377 262.578 198.772 262.87 199.064C263.162 199.356 263.556 199.528 263.968 199.528C264.38 199.528 264.775 199.356 265.067 199.064Z" fill="white"/>
<path d="M260.042 197.965C260.042 197.107 259.356 196.403 258.48 196.403C257.622 196.403 256.918 197.107 256.918 197.965C256.918 198.824 257.622 199.528 258.48 199.528C259.339 199.528 260.042 198.841 260.042 197.965Z" fill="white"/>
<path d="M253.004 199.528C253.862 199.528 254.566 198.841 254.566 197.965C254.566 197.107 253.879 196.403 253.004 196.403C252.145 196.403 251.441 197.107 251.441 197.965C251.441 198.841 252.145 199.528 253.004 199.528Z" fill="white"/>
<path d="M249.072 197.965C249.072 197.107 248.385 196.403 247.51 196.403C246.652 196.403 245.965 197.107 245.965 197.965C245.965 198.824 246.652 199.528 247.51 199.528C248.368 199.528 249.072 198.841 249.072 197.965Z" fill="white"/>
<path d="M253.218 171H212.663C203.476 171 196 163.934 196 155.25C196 147.176 202.461 140.505 210.749 139.602C213.357 129.431 223.188 122 234.5 122C243.401 122 251.629 126.609 255.881 133.862C265.594 135.062 273 142.92 273 152.335C273 162.625 264.124 171 253.218 171ZM234.5 127.25C224.987 127.25 216.821 133.813 215.509 142.517C215.313 143.802 214.21 144.75 212.912 144.75C206.37 144.75 201.25 149.461 201.25 155.25C201.25 161.039 206.371 165.75 212.663 165.75H253.218C261.233 165.75 267.75 159.73 267.75 152.335C267.75 145.24 261.761 139.371 254.114 138.975C253.169 138.926 252.322 138.373 251.902 137.526C248.787 131.282 241.955 127.25 234.5 127.25Z" fill="white"/>
<path d="M316.278 449.355H157.784C139.954 449.355 125.5 434.9 125.5 417.071V33.7836C125.5 15.9532 139.954 1.5 157.784 1.5H316.278C334.107 1.5 348.561 15.9532 348.561 33.7836V417.071C348.561 434.9 334.107 449.355 316.278 449.355Z" stroke="white" stroke-width="3"/>
<path d="M259.909 22.3316H214.817C213.943 22.3316 213.234 21.6226 213.234 20.7493C213.234 19.876 213.943 19.167 214.817 19.167H259.909C260.782 19.167 261.49 19.876 261.49 20.7493C261.49 21.6226 260.782 22.3316 259.909 22.3316Z" fill="white"/>
<path d="M173.758 427.785H165.188V428.957H173.758V427.785Z" fill="white"/>
<path d="M241.491 434.999V434.549H235.228V428.831H241.041V434.999H241.491V434.549V434.999H241.941V428.381C241.941 428.263 241.893 428.148 241.809 428.064C241.725 427.98 241.609 427.932 241.491 427.932H234.778C234.659 427.932 234.544 427.98 234.46 428.064C234.376 428.148 234.328 428.263 234.328 428.381V434.999C234.328 435.117 234.376 435.234 234.46 435.318C234.544 435.4 234.659 435.448 234.778 435.448H241.491C241.609 435.448 241.725 435.4 241.809 435.318C241.893 435.234 241.941 435.117 241.941 434.999H241.491Z" fill="white"/>
<path d="M301.183 427.698L298.092 430.79C297.771 431.109 297.609 431.532 297.609 431.95C297.609 432.37 297.771 432.792 298.092 433.113L301.183 436.204C301.358 436.379 301.644 436.379 301.819 436.204C301.994 436.028 301.994 435.744 301.819 435.567L298.727 432.476C298.581 432.329 298.51 432.142 298.509 431.95C298.51 431.76 298.581 431.572 298.727 431.427L301.819 428.333C301.995 428.158 301.994 427.873 301.819 427.698C301.644 427.521 301.358 427.521 301.183 427.698Z" fill="white"/>
<path d="M305.347 42.8974C305.738 42.8974 306.055 43.2129 306.055 43.6028C306.055 43.995 305.738 44.3117 305.347 44.3117C304.957 44.3117 304.641 43.995 304.641 43.6028C304.641 43.2129 304.957 42.8974 305.347 42.8974Z" fill="white"/>
<path d="M307.113 41.8906L307.082 41.8594L307.048 41.8306L307.031 41.815C306.116 40.9837 304.716 41.0173 303.843 41.8906L303.74 41.9925L303.597 42.1341C303.425 42.3068 303.426 42.5888 303.598 42.7615C303.772 42.9354 304.053 42.9366 304.225 42.7627L304.471 42.518C305.027 41.9638 305.93 41.9638 306.484 42.518L306.659 42.6895C306.833 42.8599 307.11 42.8599 307.283 42.6883C307.366 42.6056 307.412 42.494 307.412 42.3776C307.412 42.2589 307.366 42.1485 307.286 42.0669L307.113 41.8906Z" fill="white"/>
<path d="M308.235 41.0197L308.09 40.8722L308.087 40.871L307.971 40.7534L307.906 40.7006C306.414 39.3918 304.145 39.4314 302.702 40.8206L302.68 40.8386L302.414 41.1037C302.257 41.262 302.259 41.5176 302.415 41.6759C302.573 41.8343 302.83 41.8343 302.987 41.6771L303.253 41.412L303.258 41.406C304.425 40.2784 306.278 40.2712 307.454 41.3832L307.663 41.5919C307.822 41.7491 308.078 41.7491 308.234 41.5907C308.393 41.4324 308.394 41.1769 308.235 41.0197Z" fill="white"/>
<path d="M136.768 44.6903C136.768 44.7743 136.839 44.8451 136.923 44.8451C137.014 44.8451 137.079 44.7743 137.079 44.6903V40.5276C137.085 40.4881 137.079 40.4497 137.06 40.4101C137.02 40.3393 136.917 40.3129 136.845 40.3525L135.972 40.8827C135.894 40.9223 135.867 41.0123 135.913 41.0963C135.939 41.1418 135.991 41.1742 136.05 41.1742C136.075 41.1742 136.107 41.161 136.127 41.149L136.768 40.7736V44.6903Z" fill="white"/>
<path d="M138.669 44.18C138.947 44.5878 139.342 44.8661 139.801 44.8661C140.261 44.8661 140.656 44.5878 140.935 44.18C141.206 43.7661 141.375 43.2095 141.375 42.6001C141.375 41.9919 141.206 41.4352 140.935 41.0142C140.656 40.6135 140.261 40.334 139.801 40.334C139.342 40.334 138.947 40.6135 138.669 41.0142C138.389 41.4352 138.234 41.9919 138.234 42.6001C138.234 43.2095 138.389 43.7661 138.669 44.18ZM138.934 41.1953C139.166 40.839 139.477 40.6519 139.801 40.6519C140.125 40.6519 140.43 40.839 140.668 41.1953C140.902 41.5456 141.057 42.0434 141.057 42.6001C141.057 43.1579 140.902 43.6557 140.668 44.006C140.43 44.3491 140.125 44.5494 139.801 44.5494C139.477 44.5494 139.166 44.3491 138.934 44.006C138.701 43.6557 138.551 43.1579 138.551 42.6001C138.551 42.0434 138.701 41.5456 138.934 41.1953Z" fill="white"/>
<path d="M142.922 44.5493C142.922 44.7304 143.063 44.872 143.246 44.872C143.427 44.872 143.568 44.7304 143.568 44.5493C143.568 44.3682 143.427 44.2254 143.246 44.2254C143.063 44.2254 142.922 44.3682 142.922 44.5493ZM142.922 41.8298C142.922 42.0109 143.063 42.1537 143.246 42.1537C143.427 42.1537 143.568 42.0109 143.568 41.8298C143.568 41.6486 143.427 41.5059 143.246 41.5059C143.063 41.5059 142.922 41.6486 142.922 41.8298Z" fill="white"/>
<path d="M146.746 40.5679C146.759 40.5487 146.765 40.5223 146.765 40.4959C146.765 40.406 146.694 40.334 146.603 40.334H144.485C144.395 40.334 144.323 40.406 144.323 40.4959C144.323 40.5871 144.395 40.6579 144.485 40.6579H146.221L145.095 41.8167C145.03 41.8815 145.03 41.9859 145.095 42.0506H145.101C145.133 42.089 145.179 42.1154 145.23 42.1154C145.541 42.1154 145.852 42.2318 146.085 42.4717C146.324 42.7044 146.441 43.0151 146.441 43.3258C146.441 43.6365 146.324 43.9472 146.085 44.1872C145.846 44.4199 145.535 44.5362 145.224 44.5362C144.914 44.5362 144.609 44.4199 144.369 44.1872C144.304 44.1224 144.201 44.1224 144.142 44.1872C144.078 44.2519 144.078 44.3551 144.142 44.4139C144.441 44.7174 144.836 44.8661 145.224 44.8661C145.619 44.8661 146.014 44.7114 146.311 44.4139C146.616 44.1152 146.765 43.7205 146.765 43.3258C146.765 42.9312 146.616 42.5353 146.318 42.2378C146.098 42.0182 145.827 41.8815 145.541 41.8239L146.713 40.6195C146.726 40.6063 146.74 40.5871 146.746 40.5679Z" fill="white"/>
<path d="M149.216 44.18C149.494 44.5878 149.888 44.8661 150.348 44.8661C150.807 44.8661 151.202 44.5878 151.482 44.18C151.753 43.7661 151.922 43.2095 151.922 42.6001C151.922 41.9919 151.753 41.4352 151.482 41.0142C151.202 40.6135 150.807 40.334 150.348 40.334C149.888 40.334 149.494 40.6135 149.216 41.0142C148.936 41.4352 148.781 41.9919 148.781 42.6001C148.781 43.2095 148.936 43.7661 149.216 44.18ZM149.481 41.1953C149.713 40.839 150.024 40.6519 150.348 40.6519C150.672 40.6519 150.977 40.839 151.215 41.1953C151.449 41.5456 151.604 42.0434 151.604 42.6001C151.604 43.1579 151.449 43.6557 151.215 44.006C150.977 44.3491 150.672 44.5494 150.348 44.5494C150.024 44.5494 149.713 44.3491 149.481 44.006C149.248 43.6557 149.098 43.1579 149.098 42.6001C149.098 42.0434 149.248 41.5456 149.481 41.1953Z" fill="white"/>
<path d="M157.817 44.7426C157.843 44.8074 157.908 44.8457 157.967 44.8457C157.986 44.8457 157.998 44.8398 158.024 44.8398C158.102 44.8074 158.141 44.7102 158.108 44.6322L156.536 40.4312C156.517 40.3724 156.452 40.334 156.38 40.334C156.315 40.334 156.25 40.3724 156.225 40.4312L154.651 44.6322C154.619 44.7102 154.664 44.8074 154.742 44.8398C154.762 44.8398 154.787 44.8457 154.8 44.8457C154.865 44.8457 154.923 44.8074 154.949 44.7426L155.351 43.6749H157.416L157.817 44.7426ZM156.387 40.923L157.3 43.357H155.467L156.387 40.923Z" fill="white"/>
<path d="M162.824 44.6923C162.824 44.7763 162.889 44.8471 162.98 44.8471C163.064 44.8471 163.136 44.7763 163.136 44.6923V40.4973C163.136 40.4709 163.123 40.4385 163.109 40.4121C163.096 40.3929 163.083 40.3797 163.064 40.3605C162.993 40.3149 162.889 40.3281 162.844 40.4001L161.238 42.6338L159.626 40.4001C159.574 40.3281 159.477 40.3149 159.406 40.3605C159.399 40.3677 159.393 40.3677 159.393 40.3737C159.355 40.4001 159.328 40.4445 159.328 40.4973V44.6923C159.328 44.7763 159.399 44.8471 159.49 44.8471C159.574 44.8471 159.645 44.7763 159.645 44.6923V40.9699L161.095 42.9769C161.128 43.0285 161.173 43.0476 161.232 43.0476H161.245C161.29 43.0476 161.341 43.0285 161.373 42.9769L162.824 40.9627V44.6923Z" fill="white"/>
<path d="M313.346 40.8567C313.346 41.1566 313.488 41.4145 313.701 41.5801C313.2 41.7876 312.844 42.2902 312.844 42.866C312.844 43.6386 313.469 44.2576 314.235 44.2576C315.007 44.2576 315.626 43.6386 315.626 42.866C315.626 42.2902 315.271 41.7876 314.762 41.5801C314.983 41.4145 315.13 41.1566 315.13 40.8567C315.13 40.366 314.725 39.9678 314.235 39.9678C313.739 39.9678 313.346 40.366 313.346 40.8567ZM313.139 42.866C313.139 42.2662 313.628 41.7696 314.235 41.7696C314.848 41.7696 315.332 42.2662 315.332 42.866C315.332 43.473 314.848 43.9637 314.235 43.9637C313.628 43.9637 313.139 43.473 313.139 42.866ZM313.64 40.8567C313.64 40.5256 313.904 40.2629 314.235 40.2629C314.566 40.2629 314.835 40.5256 314.835 40.8567C314.835 41.1878 314.566 41.4577 314.235 41.4637C313.904 41.4577 313.64 41.1878 313.64 40.8567Z" fill="white"/>
<path d="M317.435 44.2576C317.802 44.2576 318.182 44.11 318.464 43.8341C318.752 43.5522 318.886 43.1731 318.886 42.8049C318.886 42.4258 318.752 42.0575 318.464 41.7756C318.182 41.4877 317.814 41.3533 317.44 41.3533C317.183 41.3533 316.932 41.4205 316.711 41.5489L316.865 40.2749H318.734C318.819 40.2749 318.886 40.2137 318.886 40.1213C318.886 40.0361 318.819 39.9678 318.734 39.9678H316.736C316.699 39.9678 316.662 39.981 316.638 40.005C316.601 40.0302 316.577 40.0661 316.577 40.1153L316.368 41.8428C316.368 41.856 316.362 41.868 316.362 41.874C316.362 41.892 316.362 41.9111 316.368 41.9231C316.368 41.9291 316.368 41.9351 316.374 41.9411V41.9471C316.38 41.9651 316.393 41.9843 316.411 41.9963C316.466 42.0575 316.565 42.0575 316.626 41.9963C316.853 41.7696 317.141 41.6592 317.44 41.6592C317.734 41.6592 318.028 41.7696 318.249 41.9903C318.47 42.2111 318.58 42.505 318.58 42.8049C318.58 43.0988 318.47 43.3867 318.243 43.6134C318.016 43.8401 317.728 43.9505 317.435 43.9505C317.141 43.9505 316.853 43.8401 316.626 43.6194C316.565 43.5582 316.466 43.5582 316.405 43.6194C316.344 43.6746 316.344 43.773 316.405 43.8341C316.687 44.116 317.06 44.2576 317.435 44.2576Z" fill="white"/>
<path d="M320.813 42.0874C321.383 42.0874 321.762 41.5668 321.762 40.991V40.979C321.762 40.4152 321.389 39.8945 320.825 39.8945C320.255 39.8945 319.875 40.4152 319.875 40.991V41.003C319.875 41.5728 320.249 42.0874 320.813 42.0874ZM320.433 44.128C320.433 44.2012 320.494 44.2563 320.567 44.2563C320.616 44.2563 320.654 44.2323 320.684 44.1891L323.668 40.1273C323.686 40.1021 323.692 40.0781 323.692 40.0469C323.692 39.9737 323.631 39.9185 323.558 39.9185C323.509 39.9185 323.471 39.9425 323.441 39.9857L320.457 44.0476C320.439 44.0728 320.433 44.0968 320.433 44.128ZM323.3 44.2815C323.87 44.2815 324.25 43.7597 324.25 43.1839V43.1719C324.25 42.6081 323.876 42.0874 323.312 42.0874C322.742 42.0874 322.363 42.6081 322.363 43.1839V43.1971C322.363 43.7669 322.736 44.2815 323.3 44.2815ZM320.825 41.8235C320.482 41.8235 320.194 41.4744 320.194 40.991V40.979C320.194 40.5315 320.451 40.1572 320.813 40.1572C321.156 40.1572 321.444 40.5123 321.444 40.991V41.003C321.444 41.4624 321.186 41.8235 320.825 41.8235ZM323.312 44.0176C322.969 44.0176 322.681 43.6685 322.681 43.1839V43.1719C322.681 42.7244 322.939 42.3513 323.3 42.3513C323.643 42.3513 323.931 42.7064 323.931 43.1839V43.1971C323.931 43.6565 323.674 44.0176 323.312 44.0176Z" fill="white"/>
<path d="M330.012 40.5255L337.012 40.5123L337.018 44.0127L330.017 44.0199L330.012 40.5255ZM339.261 40.1092L329.637 40.1248L329.642 44.4254L339.267 44.4098L339.261 40.1092ZM329.814 44.7841C329.506 44.7853 329.257 44.5562 329.257 44.2743L329.25 40.2747C329.25 39.9952 329.501 39.7649 329.803 39.7637L339.09 39.7481C339.394 39.7493 339.643 39.9772 339.647 40.2579L339.646 41.0845L340.362 41.0809L340.368 43.4381L339.651 43.4417L339.653 44.2599C339.653 44.5406 339.404 44.7685 339.098 44.7685L329.814 44.7841Z" fill="#F9F9F8"/>
<path d="M254.083 22.3316H214.817C213.943 22.3316 213.234 21.6226 213.234 20.7493C213.234 19.876 213.943 19.167 214.817 19.167H255.091L254.083 22.3316Z" fill="white"/>
<path d="M136.768 44.6902C136.768 44.7742 136.839 44.845 136.923 44.845C137.014 44.845 137.079 44.7742 137.079 44.6902V40.5276C137.085 40.488 137.079 40.4496 137.06 40.41C137.02 40.3392 136.917 40.3128 136.845 40.3524L135.972 40.8827C135.894 40.9222 135.867 41.0122 135.913 41.0962C135.939 41.1418 135.991 41.1742 136.05 41.1742C136.075 41.1742 136.107 41.161 136.127 41.149L136.768 40.7735V44.6902Z" fill="white"/>
<path d="M138.669 44.18C138.947 44.5878 139.342 44.8661 139.801 44.8661C140.261 44.8661 140.656 44.5878 140.935 44.18C141.206 43.7661 141.375 43.2095 141.375 42.6001C141.375 41.9919 141.206 41.4352 140.935 41.0142C140.656 40.6135 140.261 40.334 139.801 40.334C139.342 40.334 138.947 40.6135 138.669 41.0142C138.389 41.4352 138.234 41.9919 138.234 42.6001C138.234 43.2095 138.389 43.7661 138.669 44.18ZM138.934 41.1953C139.166 40.839 139.477 40.6519 139.801 40.6519C140.125 40.6519 140.43 40.839 140.668 41.1953C140.902 41.5456 141.057 42.0434 141.057 42.6001C141.057 43.1579 140.902 43.6557 140.668 44.006C140.43 44.3491 140.125 44.5494 139.801 44.5494C139.477 44.5494 139.166 44.3491 138.934 44.006C138.701 43.6557 138.551 43.1579 138.551 42.6001C138.551 42.0434 138.701 41.5456 138.934 41.1953Z" fill="white"/>
<path d="M142.922 44.5493C142.922 44.7304 143.063 44.872 143.246 44.872C143.427 44.872 143.568 44.7304 143.568 44.5493C143.568 44.3682 143.427 44.2254 143.246 44.2254C143.063 44.2254 142.922 44.3682 142.922 44.5493ZM142.922 41.8298C142.922 42.0109 143.063 42.1537 143.246 42.1537C143.427 42.1537 143.568 42.0109 143.568 41.8298C143.568 41.6486 143.427 41.5059 143.246 41.5059C143.063 41.5059 142.922 41.6486 142.922 41.8298Z" fill="white"/>
<path d="M146.746 40.5679C146.759 40.5487 146.765 40.5223 146.765 40.4959C146.765 40.406 146.694 40.334 146.603 40.334H144.485C144.395 40.334 144.323 40.406 144.323 40.4959C144.323 40.5871 144.395 40.6579 144.485 40.6579H146.221L145.095 41.8167C145.03 41.8815 145.03 41.9859 145.095 42.0506H145.101C145.133 42.089 145.179 42.1154 145.23 42.1154C145.541 42.1154 145.852 42.2318 146.085 42.4717C146.324 42.7044 146.441 43.0151 146.441 43.3258C146.441 43.6365 146.324 43.9472 146.085 44.1872C145.846 44.4199 145.535 44.5362 145.224 44.5362C144.914 44.5362 144.609 44.4199 144.369 44.1872C144.304 44.1224 144.201 44.1224 144.142 44.1872C144.078 44.2519 144.078 44.3551 144.142 44.4139C144.441 44.7174 144.836 44.8661 145.224 44.8661C145.619 44.8661 146.014 44.7114 146.311 44.4139C146.616 44.1152 146.765 43.7205 146.765 43.3258C146.765 42.9312 146.616 42.5353 146.318 42.2378C146.098 42.0182 145.827 41.8815 145.541 41.8239L146.713 40.6195C146.726 40.6063 146.74 40.5871 146.746 40.5679Z" fill="white"/>
<path d="M149.216 44.18C149.494 44.5878 149.888 44.8661 150.348 44.8661C150.807 44.8661 151.202 44.5878 151.482 44.18C151.753 43.7661 151.922 43.2095 151.922 42.6001C151.922 41.9919 151.753 41.4352 151.482 41.0142C151.202 40.6135 150.807 40.334 150.348 40.334C149.888 40.334 149.494 40.6135 149.216 41.0142C148.936 41.4352 148.781 41.9919 148.781 42.6001C148.781 43.2095 148.936 43.7661 149.216 44.18ZM149.481 41.1953C149.713 40.839 150.024 40.6519 150.348 40.6519C150.672 40.6519 150.977 40.839 151.215 41.1953C151.449 41.5456 151.604 42.0434 151.604 42.6001C151.604 43.1579 151.449 43.6557 151.215 44.006C150.977 44.3491 150.672 44.5494 150.348 44.5494C150.024 44.5494 149.713 44.3491 149.481 44.006C149.248 43.6557 149.098 43.1579 149.098 42.6001C149.098 42.0434 149.248 41.5456 149.481 41.1953Z" fill="white"/>
<path d="M157.817 44.7426C157.843 44.8074 157.908 44.8457 157.967 44.8457C157.986 44.8457 157.998 44.8398 158.024 44.8398C158.102 44.8074 158.141 44.7102 158.108 44.6322L156.536 40.4312C156.517 40.3724 156.452 40.334 156.38 40.334C156.315 40.334 156.25 40.3724 156.225 40.4312L154.651 44.6322C154.619 44.7102 154.664 44.8074 154.742 44.8398C154.762 44.8398 154.787 44.8457 154.8 44.8457C154.865 44.8457 154.923 44.8074 154.949 44.7426L155.351 43.6749H157.416L157.817 44.7426ZM156.387 40.923L157.3 43.357H155.467L156.387 40.923Z" fill="white"/>
<path d="M162.824 44.6923C162.824 44.7763 162.889 44.8471 162.98 44.8471C163.064 44.8471 163.136 44.7763 163.136 44.6923V40.4973C163.136 40.4709 163.123 40.4385 163.109 40.4121C163.096 40.3929 163.083 40.3797 163.064 40.3605C162.993 40.3149 162.889 40.3281 162.844 40.4001L161.238 42.6338L159.626 40.4001C159.574 40.3281 159.477 40.3149 159.406 40.3605C159.399 40.3677 159.393 40.3677 159.393 40.3737C159.355 40.4001 159.328 40.4445 159.328 40.4973V44.6923C159.328 44.7763 159.399 44.8471 159.49 44.8471C159.574 44.8471 159.645 44.7763 159.645 44.6923V40.9699L161.095 42.9769C161.128 43.0285 161.173 43.0476 161.232 43.0476H161.245C161.29 43.0476 161.341 43.0285 161.373 42.9769L162.824 40.9627V44.6923Z" fill="white"/>
<rect x="138.5" y="62.5" width="197" height="347" rx="1.5" stroke="white"/>
<path d="M0 280.656V282.011H2.71098V280.656" fill="white"/>
<path d="M0 283.404V286.257H2.71098V283.404H0ZM0 287.684V290.538H2.71098V287.684H0ZM0 291.963V294.818H2.71098V291.963H0ZM0 296.244V299.099H2.71098V296.244H0ZM0 300.525V303.379H2.71098V300.525H0ZM0 304.805V307.659H2.71098V304.805H0Z" fill="white"/>
<path d="M0 309.109V310.465H2.71098V309.109" fill="white"/>
<path d="M10.0391 300.961V299.606H7.32812V300.961" fill="white"/>
<path d="M10.0391 298.431V296.106H7.32812V298.431H10.0391ZM10.0391 294.944V292.621H7.32812V294.944H10.0391Z" fill="white"/>
<path d="M10.0391 291.457V290.102H7.32812V291.457" fill="white"/>
<path d="M17.3672 299.644V298.289H14.6562V299.644" fill="white"/>
<path d="M17.3672 294.224H14.6562V296.935H17.3672V294.224Z" fill="white"/>
<path d="M17.3672 292.831V291.476H14.6562V292.831" fill="white"/>
<path d="M83.3204 299.644V298.289H80.6094V299.644" fill="white"/>
<path d="M83.3204 294.224H80.6094V296.935H83.3204V294.224Z" fill="white"/>
<path d="M83.3204 292.831V291.476H80.6094V292.831" fill="white"/>
<path d="M24.6954 298.27V296.915H21.9844V298.27" fill="white"/>
<path d="M24.6954 294.205V292.85H21.9844V294.205" fill="white"/>
<path d="M32.0235 310.98V309.625H29.3125V310.98" fill="white"/>
<path d="M32.0235 308.348V305.784H29.3125V308.348H32.0235ZM32.0235 304.503V301.94H29.3125V304.503H32.0235ZM32.0235 300.658V298.095H29.3125V300.658H32.0235ZM32.0235 296.814V294.25H29.3125V296.814H32.0235ZM32.0235 292.969V290.406H29.3125V292.969H32.0235ZM32.0235 289.124V286.561H29.3125V289.124H32.0235ZM32.0235 285.28V282.717H29.3125V285.28H32.0235Z" fill="white"/>
<path d="M32.0235 281.438V280.083H29.3125V281.438" fill="white"/>
<path d="M39.3516 326.724V325.369H36.6406V326.724" fill="white"/>
<path d="M39.3516 324.013V321.238H36.6406V324.013H39.3516ZM39.3516 319.851V317.077H36.6406V319.851H39.3516ZM39.3516 315.69V312.917H36.6406V315.69H39.3516ZM39.3516 311.529V308.755H36.6406V311.529H39.3516ZM39.3516 307.369V304.594H36.6406V307.369H39.3516ZM39.3516 303.207V300.432H36.6406V303.207H39.3516ZM39.3516 299.046V296.271H36.6406V299.046H39.3516ZM39.3516 294.884V292.111H36.6406V294.884H39.3516ZM39.3516 290.723V287.95H36.6406V290.723H39.3516ZM39.3516 286.563V283.788H36.6406V286.563H39.3516ZM39.3516 282.402V279.627H36.6406V282.402H39.3516ZM39.3516 278.24V275.467H36.6406V278.24H39.3516ZM39.3516 274.079V271.306H36.6406V274.079H39.3516ZM39.3516 269.919V267.144H36.6406V269.919H39.3516Z" fill="white"/>
<path d="M39.3516 265.752V264.396H36.6406V265.752" fill="white"/>
<path d="M46.6797 363.307V361.952H43.9688V363.307" fill="white"/>
<path d="M46.6797 360.602V357.864H43.9688V360.602H46.6797ZM46.6797 356.494V353.756H43.9688V356.494H46.6797ZM46.6797 352.385V349.647H43.9688V352.385H46.6797ZM46.6797 348.277V345.539H43.9688V348.277H46.6797ZM46.6797 344.17V341.43H43.9688V344.17H46.6797ZM46.6797 340.061V337.322H43.9688V340.061H46.6797ZM46.6797 335.953V333.213H43.9688V335.953H46.6797ZM46.6797 331.844V329.105H43.9688V331.844H46.6797ZM46.6797 327.736V324.998H43.9688V327.736H46.6797ZM46.6797 323.627V320.888H43.9688V323.627H46.6797ZM46.6797 319.519V316.779H43.9688V319.519H46.6797ZM46.6797 315.41V312.671H43.9688V315.41H46.6797ZM46.6797 311.302V308.564H43.9688V311.302H46.6797ZM46.6797 307.193V304.455H43.9688V307.193H46.6797ZM46.6797 303.085V300.347H43.9688V303.085H46.6797ZM46.6797 298.976V296.238H43.9688V298.976H46.6797ZM46.6797 294.868V292.13H43.9688V294.868H46.6797ZM46.6797 290.761V288.021H43.9688V290.761H46.6797ZM46.6797 286.652V283.913H43.9688V286.652H46.6797ZM46.6797 282.544V279.804H43.9688V282.544H46.6797ZM46.6797 278.435V275.696H43.9688V278.435H46.6797ZM46.6797 274.327V271.587H43.9688V274.327H46.6797ZM46.6797 270.218V267.479H43.9688V270.218H46.6797ZM46.6797 266.11V263.37H43.9688V266.11H46.6797ZM46.6797 262.001V259.262H43.9688V262.001H46.6797ZM46.6797 257.893V255.155H43.9688V257.893H46.6797ZM46.6797 253.784V251.046H43.9688V253.784H46.6797ZM46.6797 249.676V246.938H43.9688V249.676H46.6797ZM46.6797 245.567V242.829H43.9688V245.567H46.6797ZM46.6797 241.459V238.721H43.9688V241.459H46.6797ZM46.6797 237.352V234.612H43.9688V237.352H46.6797ZM46.6797 233.243V230.504H43.9688V233.243H46.6797Z" fill="white"/>
<path d="M46.6797 229.111V227.756H43.9688V229.111" fill="white"/>
<path d="M54.0079 321.285V319.93H51.2969V321.285" fill="white"/>
<path d="M54.0079 318.629V315.991H51.2969V318.629H54.0079ZM54.0079 314.672V312.034H51.2969V314.672H54.0079ZM54.0079 310.715V308.079H51.2969V310.715H54.0079ZM54.0079 306.76V304.122H51.2969V306.76H54.0079ZM54.0079 302.803V300.165H51.2969V302.803H54.0079ZM54.0079 298.847V296.209H51.2969V298.847H54.0079ZM54.0079 294.89V292.252H51.2969V294.89H54.0079ZM54.0079 290.933V288.295H51.2969V290.933H54.0079ZM54.0079 286.976V284.339H51.2969V286.976H54.0079ZM54.0079 283.02V280.382H51.2969V283.02H54.0079ZM54.0079 279.063V276.425H51.2969V279.063H54.0079ZM54.0079 275.106V272.469H51.2969V275.106H54.0079Z" fill="white"/>
<path d="M54.0079 271.133V269.778H51.2969V271.133" fill="white"/>
<path d="M61.336 309.091V307.735H58.625V309.091" fill="white"/>
<path d="M61.336 306.495V303.926H58.625V306.495H61.336ZM61.336 302.642V300.074H58.625V302.642H61.336ZM61.336 298.79V296.221H58.625V298.79H61.336ZM61.336 294.936V292.369H58.625V294.936H61.336ZM61.336 291.084V288.517H58.625V291.084H61.336ZM61.336 287.232V284.663H58.625V287.232H61.336Z" fill="white"/>
<path d="M61.336 283.328V281.972H58.625V283.328" fill="white"/>
<path d="M68.6641 321.285V319.93H65.9531V321.285" fill="white"/>
<path d="M68.6641 318.629V315.991H65.9531V318.629H68.6641ZM68.6641 314.672V312.034H65.9531V314.672H68.6641ZM68.6641 310.715V308.079H65.9531V310.715H68.6641ZM68.6641 306.76V304.122H65.9531V306.76H68.6641ZM68.6641 302.803V300.165H65.9531V302.803H68.6641ZM68.6641 298.847V296.209H65.9531V298.847H68.6641ZM68.6641 294.89V292.252H65.9531V294.89H68.6641ZM68.6641 290.933V288.295H65.9531V290.933H68.6641ZM68.6641 286.976V284.339H65.9531V286.976H68.6641ZM68.6641 283.02V280.382H65.9531V283.02H68.6641ZM68.6641 279.063V276.425H65.9531V279.063H68.6641ZM68.6641 275.106V272.469H65.9531V275.106H68.6641Z" fill="white"/>
<path d="M68.6641 271.133V269.778H65.9531V271.133" fill="white"/>
<path d="M75.9922 303.709V302.354H73.2812V303.709" fill="white"/>
<path d="M75.9922 300.946V298.235H73.2812V300.946H75.9922ZM75.9922 296.879V294.168H73.2812V296.879H75.9922ZM75.9922 292.813V290.102H73.2812V292.813H75.9922Z" fill="white"/>
<path d="M75.9922 288.767V287.411H73.2812V288.767" fill="white"/>
<path d="M90.6485 303.709V302.354H87.9375V303.709" fill="white"/>
<path d="M90.6485 300.946V298.235H87.9375V300.946H90.6485ZM90.6485 296.879V294.168H87.9375V296.879H90.6485ZM90.6485 292.813V290.102H87.9375V292.813H90.6485Z" fill="white"/>
<path d="M90.6485 288.767V287.411H87.9375V288.767" fill="white"/>
<path d="M97.9766 319.968V318.613H95.2656V319.968" fill="white"/>
<path d="M97.9766 317.218V314.507H95.2656V317.218H97.9766ZM97.9766 313.152V310.441H95.2656V313.152H97.9766ZM97.9766 309.085V306.374H95.2656V309.085H97.9766ZM97.9766 305.019V302.308H95.2656V305.019H97.9766ZM97.9766 300.952V298.242H95.2656V300.952H97.9766ZM97.9766 296.886V294.175H95.2656V296.886H97.9766ZM97.9766 292.82V290.109H95.2656V292.82H97.9766ZM97.9766 288.753V286.042H95.2656V288.753H97.9766ZM97.9766 284.687V281.976H95.2656V284.687H97.9766ZM97.9766 280.62V277.909H95.2656V280.62H97.9766ZM97.9766 276.554V273.843H95.2656V276.554H97.9766Z" fill="white"/>
<path d="M97.9766 272.507V271.152H95.2656V272.507" fill="white"/>
<path d="M149.273 299.644V298.289H146.562V299.644" fill="white"/>
<path d="M149.273 294.224H146.562V296.935H149.273V294.224Z" fill="white"/>
<path d="M149.273 292.831V291.476H146.562V292.831" fill="white"/>
<path d="M156.602 303.709V302.354H153.891V303.709" fill="white"/>
<path d="M156.602 300.946V298.235H153.891V300.946H156.602ZM156.602 296.879V294.168H153.891V296.879H156.602ZM156.602 292.813V290.102H153.891V292.813H156.602Z" fill="white"/>
<path d="M156.602 288.767V287.411H153.891V288.767" fill="white"/>
<path d="M161.219 294.224V295.579H163.93V294.224" fill="white"/>
<path d="M161.219 295.541V296.896H163.93V295.541" fill="white"/>
<path d="M105.305 340.293V338.937H102.594V340.293" fill="white"/>
<path d="M105.305 337.559V334.848H102.594V337.559H105.305ZM105.305 333.493V330.782H102.594V333.493H105.305ZM105.305 329.426V326.715H102.594V329.426H105.305ZM105.305 325.36V322.649H102.594V325.36H105.305ZM105.305 321.293V318.582H102.594V321.293H105.305ZM105.305 317.227V314.516H102.594V317.227H105.305ZM105.305 313.16V310.449H102.594V313.16H105.305ZM105.305 309.094V306.383H102.594V309.094H105.305ZM105.305 305.027V302.316H102.594V305.027H105.305ZM105.305 300.961V298.25H102.594V300.961H105.305ZM105.305 296.894V294.183H102.594V296.894H105.305ZM105.305 292.828V290.117H102.594V292.828H105.305ZM105.305 288.761V286.05H102.594V288.761H105.305ZM105.305 284.695V281.984H102.594V284.695H105.305ZM105.305 280.628V277.917H102.594V280.628H105.305ZM105.305 276.562V273.851H102.594V276.562H105.305ZM105.305 272.495V269.784H102.594V272.495H105.305ZM105.305 268.429V265.718H102.594V268.429H105.305ZM105.305 264.362V261.652H102.594V264.362H105.305ZM105.305 260.296V257.585H102.594V260.296H105.305ZM105.305 256.23V253.519H102.594V256.23H105.305Z" fill="white"/>
<path d="M105.305 252.183V250.828H102.594V252.183" fill="white"/>
<path d="M112.633 313.156V311.8H109.922V313.156" fill="white"/>
<path d="M112.633 310.528V307.925H109.922V310.528H112.633ZM112.633 306.624V304.021H109.922V306.624H112.633ZM112.633 302.72V300.117H109.922V302.72H112.633ZM112.633 298.816V296.214H109.922V298.816H112.633ZM112.633 294.912V292.31H109.922V294.912H112.633ZM112.633 291.008V288.406H109.922V291.008H112.633ZM112.633 287.105V284.502H109.922V287.105H112.633ZM112.633 283.201V280.598H109.922V283.201H112.633Z" fill="white"/>
<path d="M112.633 279.263V277.907H109.922V279.263" fill="white"/>
<path d="M119.961 303.709V302.354H117.25V303.709" fill="white"/>
<path d="M119.961 300.946V298.235H117.25V300.946H119.961ZM119.961 296.879V294.168H117.25V296.879H119.961ZM119.961 292.813V290.102H117.25V292.813H119.961Z" fill="white"/>
<path d="M119.961 288.767V287.411H117.25V288.767" fill="white"/>
<path d="M127.289 299.644V298.289H124.578V299.644" fill="white"/>
<path d="M127.289 294.224H124.578V296.935H127.289V294.224Z" fill="white"/>
<path d="M127.289 292.831V291.476H124.578V292.831" fill="white"/>
<path d="M171.258 303.709V302.354H168.547V303.709" fill="white"/>
<path d="M171.258 300.946V298.235H168.547V300.946H171.258ZM171.258 296.879V294.168H168.547V296.879H171.258ZM171.258 292.813V290.102H168.547V292.813H171.258Z" fill="white"/>
<path d="M171.258 288.767V287.411H168.547V288.767" fill="white"/>
<path d="M178.586 319.968V318.613H175.875V319.968" fill="white"/>
<path d="M178.586 317.218V314.507H175.875V317.218H178.586ZM178.586 313.152V310.441H175.875V313.152H178.586ZM178.586 309.085V306.374H175.875V309.085H178.586ZM178.586 305.019V302.308H175.875V305.019H178.586ZM178.586 300.952V298.242H175.875V300.952H178.586ZM178.586 296.886V294.175H175.875V296.886H178.586ZM178.586 292.82V290.109H175.875V292.82H178.586ZM178.586 288.753V286.042H175.875V288.753H178.586ZM178.586 284.687V281.976H175.875V284.687H178.586ZM178.586 280.62V277.909H175.875V280.62H178.586ZM178.586 276.554V273.843H175.875V276.554H178.586Z" fill="white"/>
<path d="M178.586 272.507V271.152H175.875V272.507" fill="white"/>
<path d="M185.914 305.026V303.67H183.203V305.026" fill="white"/>
<path d="M185.914 302.434V299.932H183.203V302.434H185.914ZM185.914 298.681V296.179H183.203V298.681H185.914ZM185.914 294.928V292.425H183.203V294.928H185.914ZM185.914 291.173V288.671H183.203V291.173H185.914Z" fill="white"/>
<path d="M185.914 287.393V286.037H183.203V287.393" fill="white"/>
<path d="M193.242 313.156V311.8H190.531V313.156" fill="white"/>
<path d="M193.242 310.528V307.925H190.531V310.528H193.242ZM193.242 306.624V304.021H190.531V306.624H193.242ZM193.242 302.72V300.117H190.531V302.72H193.242ZM193.242 298.816V296.214H190.531V298.816H193.242ZM193.242 294.912V292.31H190.531V294.912H193.242ZM193.242 291.008V288.406H190.531V291.008H193.242ZM193.242 287.105V284.502H190.531V287.105H193.242ZM193.242 283.201V280.598H190.531V283.201H193.242Z" fill="white"/>
<path d="M193.242 279.263V277.907H190.531V279.263" fill="white"/>
<path d="M200.57 303.709V302.354H197.859V303.709" fill="white"/>
<path d="M200.57 300.946V298.235H197.859V300.946H200.57ZM200.57 296.879V294.168H197.859V296.879H200.57ZM200.57 292.813V290.102H197.859V292.813H200.57Z" fill="white"/>
<path d="M200.57 288.767V287.411H197.859V288.767" fill="white"/>
<path d="M207.898 299.644V298.289H205.188V299.644" fill="white"/>
<path d="M207.898 294.224H205.188V296.935H207.898V294.224Z" fill="white"/>
<path d="M207.898 292.831V291.476H205.188V292.831" fill="white"/>
<path d="M134.617 319.968V318.613H131.906V319.968" fill="white"/>
<path d="M134.617 317.218V314.507H131.906V317.218H134.617ZM134.617 313.152V310.441H131.906V313.152H134.617ZM134.617 309.085V306.374H131.906V309.085H134.617ZM134.617 305.019V302.308H131.906V305.019H134.617ZM134.617 300.952V298.242H131.906V300.952H134.617ZM134.617 296.886V294.175H131.906V296.886H134.617ZM134.617 292.82V290.109H131.906V292.82H134.617ZM134.617 288.753V286.042H131.906V288.753H134.617ZM134.617 284.687V281.976H131.906V284.687H134.617ZM134.617 280.62V277.909H131.906V280.62H134.617ZM134.617 276.554V273.843H131.906V276.554H134.617Z" fill="white"/>
<path d="M134.617 272.507V271.152H131.906V272.507" fill="white"/>
<path d="M141.945 306.4V305.044H139.234V306.4" fill="white"/>
<path d="M141.945 303.583V300.663H139.234V303.583H141.945ZM141.945 299.203V296.283H139.234V299.203H141.945ZM141.945 294.824V291.904H139.234V294.824H141.945ZM141.945 290.445V287.526H139.234V290.445H141.945Z" fill="white"/>
<path d="M141.945 286.076V284.72H139.234V286.076" fill="white"/>
<path d="M214.348 280.656V282.011H217.059V280.656" fill="white"/>
<path d="M214.348 283.404V286.257H217.059V283.404H214.348ZM214.348 287.684V290.538H217.059V287.684H214.348ZM214.348 291.963V294.818H217.059V291.963H214.348ZM214.348 296.244V299.099H217.059V296.244H214.348ZM214.348 300.525V303.379H217.059V300.525H214.348ZM214.348 304.805V307.659H217.059V304.805H214.348Z" fill="white"/>
<path d="M214.348 309.109V310.465H217.059V309.109" fill="white"/>
<path d="M224.387 300.961V299.606H221.676V300.961" fill="white"/>
<path d="M224.387 298.431V296.106H221.676V298.431H224.387ZM224.387 294.944V292.621H221.676V294.944H224.387Z" fill="white"/>
<path d="M224.387 291.457V290.102H221.676V291.457" fill="white"/>
<path d="M231.715 299.644V298.289H229.004V299.644" fill="white"/>
<path d="M231.715 294.224H229.004V296.935H231.715V294.224Z" fill="white"/>
<path d="M231.715 292.831V291.476H229.004V292.831" fill="white"/>
<path d="M297.668 309.091V307.735H294.957V309.091" fill="white"/>
<path d="M297.668 306.495V303.926H294.957V306.495H297.668ZM297.668 302.642V300.074H294.957V302.642H297.668ZM297.668 298.79V296.221H294.957V298.79H297.668ZM297.668 294.936V292.369H294.957V294.936H297.668ZM297.668 291.084V288.517H294.957V291.084H297.668ZM297.668 287.232V284.663H294.957V287.232H297.668Z" fill="white"/>
<path d="M297.668 283.328V281.972H294.957V283.328" fill="white"/>
<path d="M239.043 298.27V296.915H236.332V298.27" fill="white"/>
<path d="M239.043 294.205V292.85H236.332V294.205" fill="white"/>
<path d="M458.008 291.476V292.831H460.719V291.476" fill="white"/>
<path d="M460.719 294.224H458.008V296.935H460.719V294.224Z" fill="white"/>
<path d="M458.008 298.289V299.644H460.719V298.289" fill="white"/>
<path d="M448.848 277.907V279.263H451.559V277.907" fill="white"/>
<path d="M448.848 280.598V283.201H451.559V280.598H448.848ZM448.848 284.502V287.105H451.559V284.502H448.848ZM448.848 288.406V291.008H451.559V288.406H448.848ZM448.848 292.31V294.912H451.559V292.31H448.848ZM448.848 296.214V298.816H451.559V296.214H448.848ZM448.848 300.117V302.72H451.559V300.117H448.848ZM448.848 304.021V306.624H451.559V304.021H448.848ZM448.848 307.925V310.528H451.559V307.925H448.848Z" fill="white"/>
<path d="M448.848 311.8V313.156H451.559V311.8" fill="white"/>
<path d="M434.191 291.476V292.831H436.902V291.476" fill="white"/>
<path d="M436.902 294.224H434.191V296.935H436.902V294.224Z" fill="white"/>
<path d="M434.191 298.289V299.644H436.902V298.289" fill="white"/>
<path d="M246.371 310.98V309.625H243.66V310.98" fill="white"/>
<path d="M246.371 308.348V305.784H243.66V308.348H246.371ZM246.371 304.503V301.94H243.66V304.503H246.371ZM246.371 300.658V298.095H243.66V300.658H246.371ZM246.371 296.814V294.25H243.66V296.814H246.371ZM246.371 292.969V290.406H243.66V292.969H246.371ZM246.371 289.124V286.561H243.66V289.124H246.371ZM246.371 285.28V282.717H243.66V285.28H246.371Z" fill="white"/>
<path d="M246.371 281.438V280.083H243.66V281.438" fill="white"/>
<path d="M253.699 326.724V325.369H250.988V326.724" fill="white"/>
<path d="M253.699 324.013V321.238H250.988V324.013H253.699ZM253.699 319.851V317.077H250.988V319.851H253.699ZM253.699 315.69V312.917H250.988V315.69H253.699ZM253.699 311.529V308.755H250.988V311.529H253.699ZM253.699 307.369V304.594H250.988V307.369H253.699ZM253.699 303.207V300.432H250.988V303.207H253.699ZM253.699 299.046V296.271H250.988V299.046H253.699ZM253.699 294.884V292.111H250.988V294.884H253.699ZM253.699 290.723V287.95H250.988V290.723H253.699ZM253.699 286.563V283.788H250.988V286.563H253.699ZM253.699 282.402V279.627H250.988V282.402H253.699ZM253.699 278.24V275.467H250.988V278.24H253.699ZM253.699 274.079V271.306H250.988V274.079H253.699ZM253.699 269.919V267.144H250.988V269.919H253.699Z" fill="white"/>
<path d="M253.699 265.752V264.396H250.988V265.752" fill="white"/>
<path d="M261.027 313.156V311.8H258.316V313.156" fill="white"/>
<path d="M261.027 310.528V307.925H258.316V310.528H261.027ZM261.027 306.624V304.021H258.316V306.624H261.027ZM261.027 302.72V300.117H258.316V302.72H261.027ZM261.027 298.816V296.214H258.316V298.816H261.027ZM261.027 294.912V292.31H258.316V294.912H261.027ZM261.027 291.008V288.406H258.316V291.008H261.027ZM261.027 287.105V284.502H258.316V287.105H261.027ZM261.027 283.201V280.598H258.316V283.201H261.027Z" fill="white"/>
<path d="M261.027 279.263V277.907H258.316V279.263" fill="white"/>
<path d="M268.355 321.285V319.93H265.645V321.285" fill="white"/>
<path d="M268.355 318.629V315.991H265.645V318.629H268.355ZM268.355 314.672V312.034H265.645V314.672H268.355ZM268.355 310.715V308.079H265.645V310.715H268.355ZM268.355 306.76V304.122H265.645V306.76H268.355ZM268.355 302.803V300.165H265.645V302.803H268.355ZM268.355 298.847V296.209H265.645V298.847H268.355ZM268.355 294.89V292.252H265.645V294.89H268.355ZM268.355 290.933V288.295H265.645V290.933H268.355ZM268.355 286.976V284.339H265.645V286.976H268.355ZM268.355 283.02V280.382H265.645V283.02H268.355ZM268.355 279.063V276.425H265.645V279.063H268.355ZM268.355 275.106V272.469H265.645V275.106H268.355Z" fill="white"/>
<path d="M268.355 271.133V269.778H265.645V271.133" fill="white"/>
<path d="M275.684 340.293V338.937H272.973V340.293" fill="white"/>
<path d="M275.684 337.559V334.848H272.973V337.559H275.684ZM275.684 333.493V330.782H272.973V333.493H275.684ZM275.684 329.426V326.715H272.973V329.426H275.684ZM275.684 325.36V322.649H272.973V325.36H275.684ZM275.684 321.293V318.582H272.973V321.293H275.684ZM275.684 317.227V314.516H272.973V317.227H275.684ZM275.684 313.16V310.449H272.973V313.16H275.684ZM275.684 309.094V306.383H272.973V309.094H275.684ZM275.684 305.027V302.316H272.973V305.027H275.684ZM275.684 300.961V298.25H272.973V300.961H275.684ZM275.684 296.894V294.183H272.973V296.894H275.684ZM275.684 292.828V290.117H272.973V292.828H275.684ZM275.684 288.761V286.05H272.973V288.761H275.684ZM275.684 284.695V281.984H272.973V284.695H275.684ZM275.684 280.628V277.917H272.973V280.628H275.684ZM275.684 276.562V273.851H272.973V276.562H275.684ZM275.684 272.495V269.784H272.973V272.495H275.684ZM275.684 268.429V265.718H272.973V268.429H275.684ZM275.684 264.362V261.652H272.973V264.362H275.684ZM275.684 260.296V257.585H272.973V260.296H275.684ZM275.684 256.23V253.519H272.973V256.23H275.684Z" fill="white"/>
<path d="M275.684 252.183V250.828H272.973V252.183" fill="white"/>
<path d="M283.012 334.854V333.498H280.301V334.854" fill="white"/>
<path d="M283.012 332.104V329.344H280.301V332.104H283.012ZM283.012 327.964V325.204H280.301V327.964H283.012ZM283.012 323.824V321.063H280.301V323.824H283.012ZM283.012 319.683V316.922H280.301V319.683H283.012ZM283.012 315.542V312.783H280.301V315.542H283.012ZM283.012 311.403V308.642H280.301V311.403H283.012ZM283.012 307.262V304.502H280.301V307.262H283.012ZM283.012 303.122V300.361H280.301V303.122H283.012ZM283.012 298.981V296.221H280.301V298.981H283.012ZM283.012 294.841V292.08H280.301V294.841H283.012ZM283.012 290.7V287.941H280.301V290.7H283.012ZM283.012 286.561V283.799H280.301V286.561H283.012ZM283.012 282.42V279.66H280.301V282.42H283.012ZM283.012 278.279V275.519H280.301V278.279H283.012ZM283.012 274.139V271.379H280.301V274.139H283.012ZM283.012 269.998V267.238H280.301V269.998H283.012ZM283.012 265.858V263.097H280.301V265.858H283.012ZM283.012 261.717V258.957H280.301V261.717H283.012Z" fill="white"/>
<path d="M283.012 257.622V256.267H280.301V257.622" fill="white"/>
<path d="M290.34 326.724V325.369H287.629V326.724" fill="white"/>
<path d="M290.34 324.013V321.238H287.629V324.013H290.34ZM290.34 319.851V317.077H287.629V319.851H290.34ZM290.34 315.69V312.917H287.629V315.69H290.34ZM290.34 311.529V308.755H287.629V311.529H290.34ZM290.34 307.367V304.594H287.629V307.367H290.34ZM290.34 303.207V300.432H287.629V303.207H290.34ZM290.34 299.046V296.271H287.629V299.046H290.34ZM290.34 294.884V292.111H287.629V294.884H290.34ZM290.34 290.723V287.95H287.629V290.723H290.34ZM290.34 286.563V283.788H287.629V286.563H290.34ZM290.34 282.402V279.627H287.629V282.402H290.34ZM290.34 278.24V275.467H287.629V278.24H290.34ZM290.34 274.079V271.306H287.629V274.079H290.34ZM290.34 269.919V267.144H287.629V269.919H290.34Z" fill="white"/>
<path d="M290.34 265.752V264.396H287.629V265.752" fill="white"/>
<path d="M304.996 334.854V333.498H302.285V334.854" fill="white"/>
<path d="M304.996 332.104V329.344H302.285V332.104H304.996ZM304.996 327.964V325.204H302.285V327.964H304.996ZM304.996 323.824V321.063H302.285V323.824H304.996ZM304.996 319.683V316.922H302.285V319.683H304.996ZM304.996 315.542V312.783H302.285V315.542H304.996ZM304.996 311.403V308.642H302.285V311.403H304.996ZM304.996 307.262V304.502H302.285V307.262H304.996ZM304.996 303.122V300.361H302.285V303.122H304.996ZM304.996 298.981V296.221H302.285V298.981H304.996ZM304.996 294.841V292.08H302.285V294.841H304.996ZM304.996 290.7V287.941H302.285V290.7H304.996ZM304.996 286.561V283.799H302.285V286.561H304.996ZM304.996 282.42V279.66H302.285V282.42H304.996ZM304.996 278.279V275.519H302.285V278.279H304.996ZM304.996 274.139V271.379H302.285V274.139H304.996ZM304.996 269.998V267.238H302.285V269.998H304.996ZM304.996 265.858V263.097H302.285V265.858H304.996ZM304.996 261.717V258.957H302.285V261.717H304.996Z" fill="white"/>
<path d="M304.996 257.622V256.267H302.285V257.622" fill="white"/>
<path d="M312.324 349.796V348.441H309.613V349.796" fill="white"/>
<path d="M312.324 347.066V344.389H309.613V347.066H312.324ZM312.324 343.051V340.374H309.613V343.051H312.324ZM312.324 339.036V336.359H309.613V339.036H312.324ZM312.324 335.021V332.344H309.613V335.021H312.324ZM312.324 331.006V328.329H309.613V331.006H312.324ZM312.324 326.991V324.314H309.613V326.991H312.324ZM312.324 322.976V320.299H309.613V322.976H312.324ZM312.324 318.961V316.284H309.613V318.961H312.324ZM312.324 314.946V312.269H309.613V314.946H312.324ZM312.324 310.931V308.254H309.613V310.931H312.324ZM312.324 306.915V304.239H309.613V306.915H312.324ZM312.324 302.9V300.224H309.613V302.9H312.324ZM312.324 298.885V296.209H309.613V298.885H312.324ZM312.324 294.87V292.194H309.613V294.87H312.324ZM312.324 290.855V288.18H309.613V290.855H312.324ZM312.324 286.84V284.165H309.613V286.84H312.324ZM312.324 282.825V280.15H309.613V282.825H312.324ZM312.324 278.81V276.135H309.613V278.81H312.324ZM312.324 274.795V272.12H309.613V274.795H312.324ZM312.324 270.78V268.105H309.613V270.78H312.324ZM312.324 266.765V264.09H309.613V266.765H312.324ZM312.324 262.751V260.075H309.613V262.751H312.324ZM312.324 258.736V256.06H309.613V258.736H312.324ZM312.324 254.721V252.045H309.613V254.721H312.324ZM312.324 250.706V248.03H309.613V250.706H312.324ZM312.324 246.691V244.015H309.613V246.691H312.324Z" fill="white"/>
<path d="M312.324 242.68V241.324H309.613V242.68" fill="white"/>
<path d="M363.621 299.644V298.289H360.91V299.644" fill="white"/>
<path d="M363.621 294.224H360.91V296.935H363.621V294.224Z" fill="white"/>
<path d="M363.621 292.831V291.476H360.91V292.831" fill="white"/>
<path d="M370.949 303.709V302.354H368.238V303.709" fill="white"/>
<path d="M370.949 300.946V298.235H368.238V300.946H370.949ZM370.949 296.879V294.168H368.238V296.879H370.949ZM370.949 292.813V290.102H368.238V292.813H370.949Z" fill="white"/>
<path d="M370.949 288.767V287.411H368.238V288.767" fill="white"/>
<path d="M375.566 294.224V295.579H378.277V294.224" fill="white"/>
<path d="M375.566 295.541V296.896H378.277V295.541" fill="white"/>
<path d="M465.336 294.224V295.579H468.047V294.224" fill="white"/>
<path d="M465.336 295.541V296.896H468.047V295.541" fill="white"/>
<path d="M444.23 303.709V302.354H441.52V303.709" fill="white"/>
<path d="M444.23 300.946V298.235H441.52V300.946H444.23ZM444.23 296.879V294.168H441.52V296.879H444.23ZM444.23 292.813V290.102H441.52V292.813H444.23Z" fill="white"/>
<path d="M444.23 288.767V287.411H441.52V288.767" fill="white"/>
<path d="M426.863 294.224V295.579H429.574V294.224" fill="white"/>
<path d="M426.863 295.541V296.896H429.574V295.541" fill="white"/>
<path d="M319.652 370.12V368.765H316.941V370.12" fill="white"/>
<path d="M319.652 367.397V364.711H316.941V367.397H319.652ZM319.652 363.367V360.682H316.941V363.367H319.652ZM319.652 359.339V356.652H316.941V359.339H319.652ZM319.652 355.309V352.624H316.941V355.309H319.652ZM319.652 351.28V348.594H316.941V351.28H319.652ZM319.652 347.251V344.565H316.941V347.251H319.652ZM319.652 343.222V340.535H316.941V343.222H319.652ZM319.652 339.192V336.507H316.941V339.192H319.652ZM319.652 335.164V332.477H316.941V335.164H319.652ZM319.652 331.135V328.449H316.941V331.135H319.652ZM319.652 327.105V324.419H316.941V327.105H319.652ZM319.652 323.078V320.39H316.941V323.078H319.652ZM319.652 319.047V316.36H316.941V319.047H319.652ZM319.652 315.018V312.332H316.941V315.018H319.652ZM319.652 310.988V308.302H316.941V310.988H319.652ZM319.652 306.96V304.273H316.941V306.96H319.652ZM319.652 302.93V300.245H316.941V302.93H319.652ZM319.652 298.902V296.215H316.941V298.902H319.652ZM319.652 294.872V292.186H316.941V294.872H319.652ZM319.652 290.843V288.157H316.941V290.843H319.652ZM319.652 286.813V284.128H316.941V286.813H319.652ZM319.652 282.785V280.098H316.941V282.785H319.652ZM319.652 278.755V276.07H316.941V278.755H319.652ZM319.652 274.726V272.04H316.941V274.726H319.652ZM319.652 270.697V268.011H316.941V270.697H319.652ZM319.652 266.668V263.981H316.941V266.668H319.652ZM319.652 262.638V259.953H316.941V262.638H319.652ZM319.652 258.61V255.923H316.941V258.61H319.652ZM319.652 254.581V251.894H316.941V254.581H319.652ZM319.652 250.551V247.865H316.941V250.551H319.652ZM319.652 246.523V243.836H316.941V246.523H319.652ZM319.652 242.493V239.806H316.941V242.493H319.652ZM319.652 238.464V235.778H316.941V238.464H319.652ZM319.652 234.434V231.749H316.941V234.434H319.652ZM319.652 230.406V227.719H316.941V230.406H319.652ZM319.652 226.376V223.691H316.941V226.376H319.652Z" fill="white"/>
<path d="M319.652 222.355V221H316.941V222.355" fill="white"/>
<path d="M326.98 334.854V333.498H324.27V334.854" fill="white"/>
<path d="M326.98 332.104V329.344H324.27V332.104H326.98ZM326.98 327.964V325.204H324.27V327.964H326.98ZM326.98 323.824V321.063H324.27V323.824H326.98ZM326.98 319.683V316.922H324.27V319.683H326.98ZM326.98 315.542V312.783H324.27V315.542H326.98ZM326.98 311.403V308.642H324.27V311.403H326.98ZM326.98 307.262V304.502H324.27V307.262H326.98ZM326.98 303.122V300.361H324.27V303.122H326.98ZM326.98 298.981V296.221H324.27V298.981H326.98ZM326.98 294.841V292.08H324.27V294.841H326.98ZM326.98 290.7V287.941H324.27V290.7H326.98ZM326.98 286.561V283.799H324.27V286.561H326.98ZM326.98 282.42V279.66H324.27V282.42H326.98ZM326.98 278.279V275.519H324.27V278.279H326.98ZM326.98 274.139V271.379H324.27V274.139H326.98ZM326.98 269.998V267.238H324.27V269.998H326.98ZM326.98 265.858V263.097H324.27V265.858H326.98ZM326.98 261.717V258.957H324.27V261.717H326.98Z" fill="white"/>
<path d="M326.98 257.622V256.267H324.27V257.622" fill="white"/>
<path d="M334.309 319.968V318.613H331.598V319.968" fill="white"/>
<path d="M334.309 317.218V314.507H331.598V317.218H334.309ZM334.309 313.152V310.441H331.598V313.152H334.309ZM334.309 309.085V306.374H331.598V309.085H334.309ZM334.309 305.019V302.308H331.598V305.019H334.309ZM334.309 300.952V298.242H331.598V300.952H334.309ZM334.309 296.886V294.175H331.598V296.886H334.309ZM334.309 292.82V290.109H331.598V292.82H334.309ZM334.309 288.753V286.042H331.598V288.753H334.309ZM334.309 284.687V281.976H331.598V284.687H334.309ZM334.309 280.62V277.909H331.598V280.62H334.309ZM334.309 276.554V273.843H331.598V276.554H334.309Z" fill="white"/>
<path d="M334.309 272.507V271.152H331.598V272.507" fill="white"/>
<path d="M341.637 306.4V305.044H338.926V306.4" fill="white"/>
<path d="M341.637 303.583V300.663H338.926V303.583H341.637ZM341.637 299.203V296.283H338.926V299.203H341.637ZM341.637 294.824V291.904H338.926V294.824H341.637ZM341.637 290.445V287.526H338.926V290.445H341.637Z" fill="white"/>
<path d="M341.637 286.076V284.72H338.926V286.076" fill="white"/>
<path d="M385.605 303.709V302.354H382.895V303.709" fill="white"/>
<path d="M385.605 300.946V298.235H382.895V300.946H385.605ZM385.605 296.879V294.168H382.895V296.879H385.605ZM385.605 292.813V290.102H382.895V292.813H385.605Z" fill="white"/>
<path d="M385.605 288.767V287.411H382.895V288.767" fill="white"/>
<path d="M392.934 319.968V318.613H390.223V319.968" fill="white"/>
<path d="M392.934 317.218V314.507H390.223V317.218H392.934ZM392.934 313.152V310.441H390.223V313.152H392.934ZM392.934 309.085V306.374H390.223V309.085H392.934ZM392.934 305.019V302.308H390.223V305.019H392.934ZM392.934 300.952V298.242H390.223V300.952H392.934ZM392.934 296.886V294.175H390.223V296.886H392.934ZM392.934 292.82V290.109H390.223V292.82H392.934ZM392.934 288.753V286.042H390.223V288.753H392.934ZM392.934 284.687V281.976H390.223V284.687H392.934ZM392.934 280.62V277.909H390.223V280.62H392.934ZM392.934 276.554V273.843H390.223V276.554H392.934Z" fill="white"/>
<path d="M392.934 272.507V271.152H390.223V272.507" fill="white"/>
<path d="M400.262 305.026V303.67H397.551V305.026" fill="white"/>
<path d="M400.262 302.434V299.932H397.551V302.434H400.262ZM400.262 298.681V296.179H397.551V298.681H400.262ZM400.262 294.928V292.425H397.551V294.928H400.262ZM400.262 291.173V288.671H397.551V291.173H400.262Z" fill="white"/>
<path d="M400.262 287.393V286.037H397.551V287.393" fill="white"/>
<path d="M407.59 313.156V311.8H404.879V313.156" fill="white"/>
<path d="M407.59 310.528V307.925H404.879V310.528H407.59ZM407.59 306.624V304.021H404.879V306.624H407.59ZM407.59 302.72V300.117H404.879V302.72H407.59ZM407.59 298.816V296.214H404.879V298.816H407.59ZM407.59 294.912V292.31H404.879V294.912H407.59ZM407.59 291.008V288.406H404.879V291.008H407.59ZM407.59 287.105V284.502H404.879V287.105H407.59ZM407.59 283.201V280.598H404.879V283.201H407.59Z" fill="white"/>
<path d="M407.59 279.263V277.907H404.879V279.263" fill="white"/>
<path d="M414.918 303.709V302.354H412.207V303.709" fill="white"/>
<path d="M414.918 300.946V298.235H412.207V300.946H414.918ZM414.918 296.879V294.168H412.207V296.879H414.918ZM414.918 292.813V290.102H412.207V292.813H414.918Z" fill="white"/>
<path d="M414.918 288.767V287.411H412.207V288.767" fill="white"/>
<path d="M422.246 299.644V298.289H419.535V299.644" fill="white"/>
<path d="M422.246 294.224H419.535V296.935H422.246V294.224Z" fill="white"/>
<path d="M422.246 292.831V291.476H419.535V292.831" fill="white"/>
<path d="M348.965 319.968V318.613H346.254V319.968" fill="white"/>
<path d="M348.965 317.218V314.507H346.254V317.218H348.965ZM348.965 313.152V310.441H346.254V313.152H348.965ZM348.965 309.085V306.374H346.254V309.085H348.965ZM348.965 305.019V302.308H346.254V305.019H348.965ZM348.965 300.952V298.242H346.254V300.952H348.965ZM348.965 296.886V294.175H346.254V296.886H348.965ZM348.965 292.82V290.109H346.254V292.82H348.965ZM348.965 288.753V286.042H346.254V288.753H348.965ZM348.965 284.687V281.976H346.254V284.687H348.965ZM348.965 280.62V277.909H346.254V280.62H348.965ZM348.965 276.554V273.843H346.254V276.554H348.965Z" fill="white"/>
<path d="M348.965 272.507V271.152H346.254V272.507" fill="white"/>
<path d="M356.293 306.4V305.044H353.582V306.4" fill="white"/>
<path d="M356.293 303.583V300.663H353.582V303.583H356.293ZM356.293 299.203V296.283H353.582V299.203H356.293ZM356.293 294.824V291.904H353.582V294.824H356.293ZM356.293 290.445V287.526H353.582V290.445H356.293Z" fill="white"/>
<path d="M356.293 286.076V284.72H353.582V286.076" fill="white"/>
</svg>
