<svg width="384" height="267" viewBox="0 0 384 267" fill="none" xmlns="http://www.w3.org/2000/svg">
<g opacity="0.2">
<path d="M209.62 170.367C209.62 167.013 207.212 164.206 204.035 163.571L204.05 150.387C204.05 149.648 203.444 149.042 202.706 149.042C201.967 149.042 201.361 149.648 201.361 150.387L201.346 163.571C198.17 164.191 195.762 166.998 195.762 170.367C195.762 174.179 198.864 177.281 202.676 177.281C206.488 177.281 209.62 174.193 209.62 170.367ZM198.465 170.367C198.465 168.033 200.371 166.127 202.706 166.127C205.04 166.127 206.946 168.033 206.946 170.367C206.946 172.701 205.04 174.607 202.706 174.607C200.356 174.622 198.465 172.716 198.465 170.367Z" fill="white"/>
<path d="M193.736 170.367C193.736 169.628 193.13 169.022 192.391 169.022C191.653 169.022 191.047 169.628 191.047 170.367C191.047 171.105 191.653 171.711 192.391 171.711C193.13 171.711 193.736 171.12 193.736 170.367Z" fill="white"/>
<path d="M184.294 170.367C184.294 169.628 183.703 169.022 182.95 169.022C182.211 169.022 181.605 169.628 181.605 170.367C181.605 171.105 182.211 171.711 182.95 171.711C183.689 171.711 184.294 171.12 184.294 170.367Z" fill="white"/>
<path d="M186.336 170.367C186.336 171.105 186.942 171.711 187.68 171.711C188.419 171.711 189.025 171.12 189.025 170.367C189.025 169.628 188.434 169.022 187.68 169.022C186.942 169.037 186.336 169.628 186.336 170.367Z" fill="white"/>
<path d="M177.275 169.421C177.024 169.672 176.891 170.012 176.891 170.367C176.891 170.721 177.038 171.061 177.275 171.312C177.526 171.563 177.866 171.711 178.22 171.711C178.575 171.711 178.915 171.563 179.166 171.312C179.417 171.061 179.565 170.721 179.565 170.367C179.565 170.012 179.417 169.672 179.166 169.421C178.915 169.17 178.575 169.022 178.22 169.022C177.88 169.037 177.526 169.17 177.275 169.421Z" fill="white"/>
<path d="M228.114 171.312C228.365 171.061 228.513 170.721 228.513 170.367C228.513 170.012 228.365 169.672 228.114 169.421C227.863 169.17 227.523 169.022 227.169 169.022C226.814 169.022 226.474 169.17 226.223 169.421C225.972 169.672 225.824 170.012 225.824 170.367C225.824 170.721 225.972 171.061 226.223 171.312C226.474 171.563 226.814 171.711 227.169 171.711C227.523 171.711 227.863 171.563 228.114 171.312Z" fill="white"/>
<path d="M223.79 170.367C223.79 169.628 223.199 169.022 222.446 169.022C221.707 169.022 221.102 169.628 221.102 170.367C221.102 171.105 221.707 171.711 222.446 171.711C223.185 171.711 223.79 171.12 223.79 170.367Z" fill="white"/>
<path d="M217.731 171.711C218.47 171.711 219.076 171.12 219.076 170.367C219.076 169.628 218.485 169.022 217.731 169.022C216.992 169.022 216.387 169.628 216.387 170.367C216.387 171.12 216.992 171.711 217.731 171.711Z" fill="white"/>
<path d="M214.35 170.367C214.35 169.628 213.759 169.022 213.005 169.022C212.267 169.022 211.676 169.628 211.676 170.367C211.676 171.105 212.267 171.711 213.005 171.711C213.744 171.711 214.35 171.12 214.35 170.367Z" fill="white"/>
<path d="M217.917 147.161H183.016C175.11 147.161 168.676 141.079 168.676 133.606C168.676 126.657 174.236 120.916 181.369 120.139C183.613 111.386 192.073 104.992 201.808 104.992C209.468 104.992 216.549 108.959 220.209 115.2C228.568 116.233 234.941 122.995 234.941 131.097C234.941 139.953 227.302 147.161 217.917 147.161ZM201.808 109.51C193.622 109.51 186.595 115.157 185.465 122.648C185.296 123.754 184.348 124.57 183.23 124.57C177.601 124.57 173.194 128.624 173.194 133.606C173.194 138.588 177.601 142.642 183.016 142.642H217.917C224.815 142.642 230.423 137.462 230.423 131.097C230.423 124.992 225.269 119.941 218.688 119.6C217.875 119.558 217.146 119.082 216.784 118.353C214.104 112.98 208.224 109.51 201.808 109.51Z" fill="white"/>
<path d="M272.175 386.5H135.777C120.549 386.5 108.203 374.154 108.203 358.926V29.0738C108.203 13.8447 120.549 1.5 135.777 1.5H272.175C287.404 1.5 299.748 13.8446 299.748 29.0738V358.926C299.748 374.154 287.404 386.5 272.175 386.5Z" stroke="white" stroke-width="3"/>
<path d="M223.664 19.2183H184.858C184.106 19.2183 183.496 18.6081 183.496 17.8566C183.496 17.105 184.106 16.4949 184.858 16.4949H223.664C224.415 16.4949 225.024 17.105 225.024 17.8566C225.024 18.6081 224.415 19.2183 223.664 19.2183Z" fill="white"/>
<path d="M262.768 36.917C263.105 36.917 263.377 37.1885 263.377 37.524C263.377 37.8616 263.105 38.1342 262.768 38.1342C262.433 38.1342 262.16 37.8616 262.16 37.524C262.16 37.1885 262.433 36.917 262.768 36.917Z" fill="white"/>
<path d="M264.288 36.0505L264.262 36.0237L264.233 35.9989L264.218 35.9855C263.431 35.27 262.226 35.2989 261.474 36.0505L261.385 36.1383L261.263 36.2601C261.115 36.4087 261.116 36.6513 261.264 36.8C261.413 36.9497 261.655 36.9507 261.804 36.801L262.015 36.5904C262.493 36.1135 263.271 36.1135 263.747 36.5904L263.898 36.7381C264.048 36.8847 264.286 36.8847 264.435 36.737C264.506 36.6658 264.546 36.5698 264.546 36.4696C264.546 36.3674 264.506 36.2725 264.437 36.2023L264.288 36.0505Z" fill="white"/>
<path d="M265.255 35.3011L265.13 35.1741L265.127 35.1731L265.028 35.0719L264.971 35.0265C263.688 33.9002 261.735 33.9342 260.493 35.1297L260.474 35.1452L260.245 35.3734C260.11 35.5096 260.112 35.7295 260.246 35.8658C260.382 36.0021 260.603 36.0021 260.739 35.8668L260.968 35.6387L260.972 35.6335C261.976 34.6631 263.57 34.6569 264.583 35.6139L264.763 35.7935C264.899 35.9288 265.12 35.9288 265.254 35.7925C265.39 35.6562 265.391 35.4363 265.255 35.3011Z" fill="white"/>
<path d="M117.693 38.4599C117.693 38.5322 117.754 38.5931 117.826 38.5931C117.904 38.5931 117.96 38.5322 117.96 38.4599V34.8775C117.965 34.8435 117.96 34.8104 117.944 34.7764C117.91 34.7155 117.821 34.6927 117.759 34.7268L117.007 35.1831C116.94 35.2172 116.918 35.2946 116.957 35.3669C116.979 35.4061 117.024 35.434 117.074 35.434C117.096 35.434 117.124 35.4226 117.14 35.4123L117.693 35.0892V38.4599Z" fill="white"/>
<path d="M119.327 38.0207C119.566 38.3717 119.906 38.6113 120.301 38.6113C120.697 38.6113 121.037 38.3717 121.277 38.0207C121.51 37.6646 121.656 37.1855 121.656 36.6611C121.656 36.1377 121.51 35.6587 121.277 35.2963C121.037 34.9515 120.697 34.7109 120.301 34.7109C119.906 34.7109 119.566 34.9515 119.327 35.2963C119.086 35.6587 118.953 36.1377 118.953 36.6611C118.953 37.1855 119.086 37.6646 119.327 38.0207ZM119.555 35.4522C119.755 35.1456 120.023 34.9845 120.301 34.9845C120.58 34.9845 120.842 35.1456 121.048 35.4522C121.249 35.7536 121.382 36.1821 121.382 36.6611C121.382 37.1412 121.249 37.5696 121.048 37.871C120.842 38.1663 120.58 38.3387 120.301 38.3387C120.023 38.3387 119.755 38.1663 119.555 37.871C119.355 37.5696 119.226 37.1412 119.226 36.6611C119.226 36.1821 119.355 35.7536 119.555 35.4522Z" fill="white"/>
<path d="M122.988 38.3386C122.988 38.4945 123.11 38.6163 123.267 38.6163C123.423 38.6163 123.545 38.4945 123.545 38.3386C123.545 38.1827 123.423 38.0599 123.267 38.0599C123.11 38.0599 122.988 38.1827 122.988 38.3386ZM122.988 35.9982C122.988 36.1541 123.11 36.277 123.267 36.277C123.423 36.277 123.545 36.1541 123.545 35.9982C123.545 35.8423 123.423 35.7195 123.267 35.7195C123.11 35.7195 122.988 35.8423 122.988 35.9982Z" fill="white"/>
<path d="M126.278 34.9123C126.29 34.8957 126.295 34.873 126.295 34.8503C126.295 34.7729 126.234 34.7109 126.155 34.7109H124.333C124.256 34.7109 124.194 34.7729 124.194 34.8503C124.194 34.9288 124.256 34.9897 124.333 34.9897H125.827L124.858 35.987C124.802 36.0427 124.802 36.1325 124.858 36.1883H124.863C124.891 36.2213 124.93 36.244 124.974 36.244C125.242 36.244 125.509 36.3442 125.709 36.5506C125.916 36.7509 126.016 37.0183 126.016 37.2857C126.016 37.5531 125.916 37.8205 125.709 38.0269C125.504 38.2272 125.237 38.3274 124.969 38.3274C124.702 38.3274 124.44 38.2272 124.233 38.0269C124.177 37.9712 124.088 37.9712 124.038 38.0269C123.982 38.0827 123.982 38.1715 124.038 38.2221C124.295 38.4832 124.635 38.6113 124.969 38.6113C125.309 38.6113 125.648 38.4781 125.904 38.2221C126.167 37.965 126.295 37.6253 126.295 37.2857C126.295 36.946 126.167 36.6053 125.911 36.3493C125.721 36.1604 125.487 36.0427 125.242 35.9932L126.25 34.9566C126.262 34.9453 126.273 34.9288 126.278 34.9123Z" fill="white"/>
<path d="M128.405 38.0207C128.644 38.3717 128.984 38.6113 129.38 38.6113C129.775 38.6113 130.115 38.3717 130.355 38.0207C130.588 37.6646 130.734 37.1855 130.734 36.6611C130.734 36.1377 130.588 35.6587 130.355 35.2963C130.115 34.9515 129.775 34.7109 129.38 34.7109C128.984 34.7109 128.644 34.9515 128.405 35.2963C128.164 35.6587 128.031 36.1377 128.031 36.6611C128.031 37.1855 128.164 37.6646 128.405 38.0207ZM128.633 35.4522C128.833 35.1456 129.101 34.9845 129.38 34.9845C129.658 34.9845 129.92 35.1456 130.126 35.4522C130.327 35.7536 130.46 36.1821 130.46 36.6611C130.46 37.1412 130.327 37.5696 130.126 37.871C129.92 38.1663 129.658 38.3387 129.38 38.3387C129.101 38.3387 128.833 38.1663 128.633 37.871C128.433 37.5696 128.304 37.1412 128.304 36.6611C128.304 36.1821 128.433 35.7536 128.633 35.4522Z" fill="white"/>
<path d="M135.804 38.5049C135.827 38.5607 135.882 38.5937 135.933 38.5937C135.949 38.5937 135.96 38.5885 135.982 38.5885C136.05 38.5607 136.083 38.477 136.055 38.4099L134.701 34.7946C134.685 34.744 134.629 34.7109 134.567 34.7109C134.511 34.7109 134.456 34.744 134.434 34.7946L133.079 38.4099C133.052 38.477 133.091 38.5607 133.158 38.5885C133.174 38.5885 133.196 38.5937 133.207 38.5937C133.263 38.5937 133.314 38.5607 133.335 38.5049L133.681 37.5861H135.459L135.804 38.5049ZM134.573 35.2178L135.359 37.3125H133.781L134.573 35.2178Z" fill="white"/>
<path d="M140.114 38.4617C140.114 38.5339 140.17 38.5948 140.248 38.5948C140.32 38.5948 140.382 38.5339 140.382 38.4617V34.8514C140.382 34.8287 140.371 34.8009 140.36 34.7781C140.348 34.7616 140.337 34.7503 140.32 34.7338C140.259 34.6945 140.17 34.7059 140.131 34.7678L138.749 36.6901L137.361 34.7678C137.317 34.7059 137.233 34.6945 137.173 34.7338C137.166 34.74 137.161 34.74 137.161 34.7451C137.128 34.7678 137.105 34.806 137.105 34.8514V38.4617C137.105 38.5339 137.166 38.5948 137.245 38.5948C137.317 38.5948 137.378 38.5339 137.378 38.4617V35.2582L138.626 36.9854C138.654 37.0298 138.693 37.0463 138.744 37.0463H138.755C138.793 37.0463 138.838 37.0298 138.866 36.9854L140.114 35.252V38.4617Z" fill="white"/>
<path d="M269.651 35.1607C269.651 35.4188 269.773 35.6408 269.957 35.7833C269.525 35.9619 269.219 36.3944 269.219 36.89C269.219 37.5548 269.757 38.0875 270.416 38.0875C271.08 38.0875 271.613 37.5548 271.613 36.89C271.613 36.3944 271.307 35.9619 270.87 35.7833C271.059 35.6408 271.186 35.4188 271.186 35.1607C271.186 34.7385 270.838 34.3958 270.416 34.3958C269.989 34.3958 269.651 34.7385 269.651 35.1607ZM269.473 36.89C269.473 36.3738 269.894 35.9464 270.416 35.9464C270.944 35.9464 271.36 36.3738 271.36 36.89C271.36 37.4123 270.944 37.8346 270.416 37.8346C269.894 37.8346 269.473 37.4123 269.473 36.89ZM269.904 35.1607C269.904 34.8758 270.131 34.6497 270.416 34.6497C270.701 34.6497 270.933 34.8758 270.933 35.1607C270.933 35.4457 270.701 35.678 270.416 35.6831C270.131 35.678 269.904 35.4457 269.904 35.1607Z" fill="white"/>
<path d="M273.171 38.0875C273.487 38.0875 273.815 37.9605 274.057 37.7231C274.305 37.4805 274.421 37.1543 274.421 36.8373C274.421 36.5111 274.305 36.1941 274.057 35.9515C273.815 35.7038 273.498 35.5881 273.176 35.5881C272.955 35.5881 272.739 35.646 272.549 35.7564L272.681 34.66H274.289C274.363 34.66 274.421 34.6074 274.421 34.5279C274.421 34.4546 274.363 34.3958 274.289 34.3958H272.571C272.539 34.3958 272.507 34.4071 272.486 34.4278C272.454 34.4494 272.433 34.4804 272.433 34.5227L272.254 36.0094C272.254 36.0207 272.248 36.031 272.248 36.0362C272.248 36.0517 272.248 36.0682 272.254 36.0785C272.254 36.0837 272.254 36.0888 272.259 36.094V36.0992C272.264 36.1147 272.275 36.1312 272.291 36.1415C272.338 36.1941 272.423 36.1941 272.476 36.1415C272.671 35.9464 272.918 35.8514 273.176 35.8514C273.429 35.8514 273.682 35.9464 273.872 36.1363C274.062 36.3263 274.157 36.5792 274.157 36.8373C274.157 37.0903 274.062 37.338 273.867 37.5331C273.672 37.7283 273.424 37.8232 273.171 37.8232C272.918 37.8232 272.671 37.7283 272.476 37.5383C272.423 37.4857 272.338 37.4857 272.286 37.5383C272.233 37.5858 272.233 37.6704 272.286 37.7231C272.528 37.9657 272.849 38.0875 273.171 38.0875Z" fill="white"/>
<path d="M276.077 36.2199C276.567 36.2199 276.893 35.7719 276.893 35.2763V35.266C276.893 34.7808 276.572 34.3328 276.087 34.3328C275.597 34.3328 275.27 34.7808 275.27 35.2763V35.2867C275.27 35.7771 275.592 36.2199 276.077 36.2199ZM275.75 37.976C275.75 38.039 275.802 38.0865 275.865 38.0865C275.908 38.0865 275.94 38.0658 275.965 38.0287L278.534 34.533C278.549 34.5114 278.555 34.4907 278.555 34.4639C278.555 34.4009 278.502 34.3534 278.439 34.3534C278.397 34.3534 278.365 34.3741 278.339 34.4112L275.77 37.9068C275.755 37.9285 275.75 37.9492 275.75 37.976ZM278.217 38.1082C278.707 38.1082 279.035 37.6591 279.035 37.1635V37.1532C279.035 36.668 278.712 36.2199 278.227 36.2199C277.737 36.2199 277.411 36.668 277.411 37.1635V37.1749C277.411 37.6653 277.732 38.1082 278.217 38.1082ZM276.087 35.9928C275.792 35.9928 275.544 35.6924 275.544 35.2763V35.266C275.544 34.881 275.765 34.5588 276.077 34.5588C276.372 34.5588 276.62 34.8644 276.62 35.2763V35.2867C276.62 35.6821 276.398 35.9928 276.087 35.9928ZM278.227 37.881C277.932 37.881 277.684 37.5806 277.684 37.1635V37.1532C277.684 36.7681 277.906 36.4471 278.217 36.4471C278.512 36.4471 278.76 36.7526 278.76 37.1635V37.1749C278.76 37.5703 278.539 37.881 278.227 37.881Z" fill="white"/>
<path d="M283.995 34.8756L290.019 34.8643L290.024 37.8768L284 37.8829L283.995 34.8756ZM291.955 34.5174L283.673 34.5308L283.677 38.2319L291.96 38.2185L291.955 34.5174ZM283.825 38.5406C283.56 38.5416 283.346 38.3444 283.346 38.1018L283.34 34.6599C283.34 34.4193 283.556 34.2211 283.816 34.2201L291.808 34.2067C292.07 34.2077 292.284 34.4038 292.287 34.6454L292.286 35.3567L292.903 35.3536L292.908 37.3822L292.291 37.3853L292.293 38.0894C292.293 38.331 292.078 38.5272 291.815 38.5272L283.825 38.5406Z" fill="#F9F9F8"/>
<path d="M218.65 19.2183H184.858C184.106 19.2183 183.496 18.6081 183.496 17.8566C183.496 17.105 184.106 16.4949 184.858 16.4949H219.518L218.65 19.2183Z" fill="white"/>
<path d="M117.693 38.4599C117.693 38.5322 117.754 38.5931 117.826 38.5931C117.904 38.5931 117.96 38.5322 117.96 38.4599V34.8775C117.965 34.8435 117.96 34.8104 117.944 34.7764C117.91 34.7155 117.821 34.6927 117.759 34.7268L117.007 35.1831C116.94 35.2172 116.918 35.2946 116.957 35.3669C116.979 35.4061 117.024 35.434 117.074 35.434C117.096 35.434 117.124 35.4226 117.14 35.4123L117.693 35.0892V38.4599Z" fill="white"/>
<path d="M119.327 38.0207C119.566 38.3717 119.906 38.6113 120.301 38.6113C120.697 38.6113 121.037 38.3717 121.277 38.0207C121.51 37.6646 121.656 37.1855 121.656 36.6611C121.656 36.1377 121.51 35.6587 121.277 35.2963C121.037 34.9515 120.697 34.7109 120.301 34.7109C119.906 34.7109 119.566 34.9515 119.327 35.2963C119.086 35.6587 118.953 36.1377 118.953 36.6611C118.953 37.1855 119.086 37.6646 119.327 38.0207ZM119.555 35.4522C119.755 35.1456 120.023 34.9845 120.301 34.9845C120.58 34.9845 120.842 35.1456 121.048 35.4522C121.249 35.7536 121.382 36.1821 121.382 36.6611C121.382 37.1412 121.249 37.5696 121.048 37.871C120.842 38.1663 120.58 38.3387 120.301 38.3387C120.023 38.3387 119.755 38.1663 119.555 37.871C119.355 37.5696 119.226 37.1412 119.226 36.6611C119.226 36.1821 119.355 35.7536 119.555 35.4522Z" fill="white"/>
<path d="M122.988 38.3386C122.988 38.4945 123.11 38.6163 123.267 38.6163C123.423 38.6163 123.545 38.4945 123.545 38.3386C123.545 38.1827 123.423 38.0599 123.267 38.0599C123.11 38.0599 122.988 38.1827 122.988 38.3386ZM122.988 35.9982C122.988 36.1541 123.11 36.277 123.267 36.277C123.423 36.277 123.545 36.1541 123.545 35.9982C123.545 35.8423 123.423 35.7195 123.267 35.7195C123.11 35.7195 122.988 35.8423 122.988 35.9982Z" fill="white"/>
<path d="M126.278 34.9123C126.29 34.8957 126.295 34.873 126.295 34.8503C126.295 34.7729 126.234 34.7109 126.155 34.7109H124.333C124.256 34.7109 124.194 34.7729 124.194 34.8503C124.194 34.9288 124.256 34.9897 124.333 34.9897H125.827L124.858 35.987C124.802 36.0427 124.802 36.1325 124.858 36.1883H124.863C124.891 36.2213 124.93 36.244 124.974 36.244C125.242 36.244 125.509 36.3442 125.709 36.5506C125.916 36.7509 126.016 37.0183 126.016 37.2857C126.016 37.5531 125.916 37.8205 125.709 38.0269C125.504 38.2272 125.237 38.3274 124.969 38.3274C124.702 38.3274 124.44 38.2272 124.233 38.0269C124.177 37.9712 124.088 37.9712 124.038 38.0269C123.982 38.0827 123.982 38.1715 124.038 38.2221C124.295 38.4832 124.635 38.6113 124.969 38.6113C125.309 38.6113 125.648 38.4781 125.904 38.2221C126.167 37.965 126.295 37.6253 126.295 37.2857C126.295 36.946 126.167 36.6053 125.911 36.3493C125.721 36.1604 125.487 36.0427 125.242 35.9932L126.25 34.9566C126.262 34.9453 126.273 34.9288 126.278 34.9123Z" fill="white"/>
<path d="M128.405 38.0207C128.644 38.3717 128.984 38.6113 129.38 38.6113C129.775 38.6113 130.115 38.3717 130.355 38.0207C130.588 37.6646 130.734 37.1855 130.734 36.6611C130.734 36.1377 130.588 35.6587 130.355 35.2963C130.115 34.9515 129.775 34.7109 129.38 34.7109C128.984 34.7109 128.644 34.9515 128.405 35.2963C128.164 35.6587 128.031 36.1377 128.031 36.6611C128.031 37.1855 128.164 37.6646 128.405 38.0207ZM128.633 35.4522C128.833 35.1456 129.101 34.9845 129.38 34.9845C129.658 34.9845 129.92 35.1456 130.126 35.4522C130.327 35.7536 130.46 36.1821 130.46 36.6611C130.46 37.1412 130.327 37.5696 130.126 37.871C129.92 38.1663 129.658 38.3387 129.38 38.3387C129.101 38.3387 128.833 38.1663 128.633 37.871C128.433 37.5696 128.304 37.1412 128.304 36.6611C128.304 36.1821 128.433 35.7536 128.633 35.4522Z" fill="white"/>
<path d="M135.808 38.5049C135.83 38.5607 135.886 38.5937 135.937 38.5937C135.953 38.5937 135.964 38.5885 135.986 38.5885C136.053 38.5607 136.086 38.477 136.059 38.4099L134.705 34.7946C134.689 34.744 134.633 34.7109 134.571 34.7109C134.515 34.7109 134.459 34.744 134.438 34.7946L133.083 38.4099C133.055 38.477 133.095 38.5607 133.162 38.5885C133.178 38.5885 133.2 38.5937 133.211 38.5937C133.267 38.5937 133.318 38.5607 133.339 38.5049L133.685 37.5861H135.463L135.808 38.5049ZM134.577 35.2178L135.363 37.3125H133.785L134.577 35.2178Z" fill="white"/>
<path d="M140.118 38.4617C140.118 38.5339 140.173 38.5948 140.252 38.5948C140.324 38.5948 140.386 38.5339 140.386 38.4617V34.8514C140.386 34.8287 140.375 34.8009 140.363 34.7781C140.352 34.7616 140.341 34.7503 140.324 34.7338C140.263 34.6945 140.173 34.7059 140.135 34.7678L138.753 36.6901L137.365 34.7678C137.321 34.7059 137.237 34.6945 137.176 34.7338C137.17 34.74 137.165 34.74 137.165 34.7451C137.132 34.7678 137.109 34.806 137.109 34.8514V38.4617C137.109 38.5339 137.17 38.5948 137.249 38.5948C137.321 38.5948 137.382 38.5339 137.382 38.4617V35.2582L138.63 36.9854C138.658 37.0298 138.697 37.0463 138.748 37.0463H138.759C138.797 37.0463 138.842 37.0298 138.87 36.9854L140.118 35.252V38.4617Z" fill="white"/>
<rect x="119.254" y="53.8564" width="169.396" height="298.485" rx="1.5" stroke="white"/>
<path d="M0 241.529V242.695H2.33304V241.529" fill="white"/>
<path d="M0 243.894V246.349H2.33304V243.894H0ZM0 247.577V250.033H2.33304V247.577H0ZM0 251.26V253.717H2.33304V251.26H0ZM0 254.944V257.401H2.33304V254.944H0ZM0 258.628V261.085H2.33304V258.628H0ZM0 262.312V264.767H2.33304V262.312H0Z" fill="white"/>
<path d="M8.63773 259.003V257.837H6.30469V259.003" fill="white"/>
<path d="M8.63773 256.826V254.825H6.30469V256.826H8.63773ZM8.63773 253.826V251.826H6.30469V253.826H8.63773Z" fill="white"/>
<path d="M8.63773 250.825V249.658H6.30469V250.825" fill="white"/>
<path d="M14.9463 257.87V256.704H12.6133V257.87" fill="white"/>
<path d="M14.9463 253.206H12.6133V255.539H14.9463V253.206Z" fill="white"/>
<path d="M14.9463 252.007V250.841H12.6133V252.007" fill="white"/>
<path d="M71.7041 257.87V256.704H69.3711V257.87" fill="white"/>
<path d="M71.7041 253.206H69.3711V255.539H71.7041V253.206Z" fill="white"/>
<path d="M71.7041 252.007V250.841H69.3711V252.007" fill="white"/>
<path d="M21.251 256.688V255.521H18.918V256.688" fill="white"/>
<path d="M21.251 253.19V252.023H18.918V253.19" fill="white"/>
<path d="M27.5596 265.36V263.154H25.2266V265.36H27.5596ZM27.5596 262.052V259.846H25.2266V262.052H27.5596ZM27.5596 258.743V256.537H25.2266V258.743H27.5596ZM27.5596 255.434V253.228H25.2266V255.434H27.5596ZM27.5596 252.126V249.92H25.2266V252.126H27.5596ZM27.5596 248.817V246.611H25.2266V248.817H27.5596ZM27.5596 245.508V243.302H25.2266V245.508H27.5596Z" fill="white"/>
<path d="M27.5596 242.203V241.036H25.2266V242.203" fill="white"/>
<path d="M33.8643 278.841V276.454H31.5312V278.841H33.8643ZM33.8643 275.26V272.872H31.5312V275.26H33.8643ZM33.8643 271.679V269.292H31.5312V271.679H33.8643ZM33.8643 268.098V265.711H31.5312V268.098H33.8643ZM33.8643 264.518V262.13H31.5312V264.518H33.8643ZM33.8643 260.937V258.549H31.5312V260.937H33.8643ZM33.8643 257.355V254.967H31.5312V257.355H33.8643ZM33.8643 253.774V251.387H31.5312V253.774H33.8643ZM33.8643 250.193V247.806H31.5312V250.193H33.8643ZM33.8643 246.613V244.225H31.5312V246.613H33.8643ZM33.8643 243.032V240.644H31.5312V243.032H33.8643ZM33.8643 239.45V237.064H31.5312V239.45H33.8643ZM33.8643 235.869V233.482H31.5312V235.869H33.8643ZM33.8643 232.289V229.901H31.5312V232.289H33.8643Z" fill="white"/>
<path d="M33.8643 228.703V227.536H31.5312V228.703" fill="white"/>
<path d="M40.1729 310.33V307.974H37.8398V310.33H40.1729ZM40.1729 306.794V304.438H37.8398V306.794H40.1729ZM40.1729 303.259V300.902H37.8398V303.259H40.1729ZM40.1729 299.723V297.367H37.8398V299.723H40.1729ZM40.1729 296.188V293.831H37.8398V296.188H40.1729ZM40.1729 292.653V290.295H37.8398V292.653H40.1729ZM40.1729 289.117V286.759H37.8398V289.117H40.1729ZM40.1729 285.581V283.224H37.8398V285.581H40.1729ZM40.1729 282.045V279.689H37.8398V282.045H40.1729ZM40.1729 278.51V276.152H37.8398V278.51H40.1729ZM40.1729 274.974V272.616H37.8398V274.974H40.1729ZM40.1729 271.438V269.081H37.8398V271.438H40.1729ZM40.1729 267.903V265.546H37.8398V267.903H40.1729ZM40.1729 264.367V262.01H37.8398V264.367H40.1729ZM40.1729 260.831V258.475H37.8398V260.831H40.1729ZM40.1729 257.295V254.939H37.8398V257.295H40.1729ZM40.1729 253.76V251.403H37.8398V253.76H40.1729ZM40.1729 250.225V247.868H37.8398V250.225H40.1729ZM40.1729 246.689V244.332H37.8398V246.689H40.1729ZM40.1729 243.154V240.796H37.8398V243.154H40.1729ZM40.1729 239.618V237.26H37.8398V239.618H40.1729ZM40.1729 236.082V233.725H37.8398V236.082H40.1729ZM40.1729 232.547V230.189H37.8398V232.547H40.1729ZM40.1729 229.011V226.653H37.8398V229.011H40.1729ZM40.1729 225.475V223.118H37.8398V225.475H40.1729ZM40.1729 221.939V219.583H37.8398V221.939H40.1729ZM40.1729 218.404V216.047H37.8398V218.404H40.1729ZM40.1729 214.868V212.512H37.8398V214.868H40.1729ZM40.1729 211.332V208.976H37.8398V211.332H40.1729ZM40.1729 207.796V205.44H37.8398V207.796H40.1729ZM40.1729 204.262V201.904H37.8398V204.262H40.1729ZM40.1729 200.726V198.369H37.8398V200.726H40.1729Z" fill="white"/>
<path d="M40.1729 197.17V196.004H37.8398V197.17" fill="white"/>
<path d="M46.4776 274.208V271.938H44.1445V274.208H46.4776ZM46.4776 270.803V268.533H44.1445V270.803H46.4776ZM46.4776 267.398V265.129H44.1445V267.398H46.4776ZM46.4776 263.994V261.724H44.1445V263.994H46.4776ZM46.4776 260.589V258.319H44.1445V260.589H46.4776ZM46.4776 257.184V254.914H44.1445V257.184H46.4776ZM46.4776 253.779V251.509H44.1445V253.779H46.4776ZM46.4776 250.373V248.103H44.1445V250.373H46.4776ZM46.4776 246.968V244.698H44.1445V246.968H46.4776ZM46.4776 243.563V241.293H44.1445V243.563H46.4776ZM46.4776 240.158V237.888H44.1445V240.158H46.4776ZM46.4776 236.753V234.483H44.1445V236.753H46.4776Z" fill="white"/>
<path d="M46.4776 233.334V232.168H44.1445V233.334" fill="white"/>
<path d="M52.7862 263.766V261.555H50.4531V263.766H52.7862ZM52.7862 260.45V258.24H50.4531V260.45H52.7862ZM52.7862 257.135V254.924H50.4531V257.135H52.7862ZM52.7862 253.819V251.609H50.4531V253.819H52.7862ZM52.7862 250.503V248.294H50.4531V250.503H52.7862ZM52.7862 247.188V244.978H50.4531V247.188H52.7862Z" fill="white"/>
<path d="M52.7862 243.828V242.662H50.4531V243.828" fill="white"/>
<path d="M59.0908 274.208V271.938H56.7578V274.208H59.0908ZM59.0908 270.803V268.533H56.7578V270.803H59.0908ZM59.0908 267.398V265.129H56.7578V267.398H59.0908ZM59.0908 263.994V261.724H56.7578V263.994H59.0908ZM59.0908 260.589V258.319H56.7578V260.589H59.0908ZM59.0908 257.184V254.914H56.7578V257.184H59.0908ZM59.0908 253.779V251.509H56.7578V253.779H59.0908ZM59.0908 250.373V248.103H56.7578V250.373H59.0908ZM59.0908 246.968V244.698H56.7578V246.968H59.0908ZM59.0908 243.563V241.293H56.7578V243.563H59.0908ZM59.0908 240.158V237.888H56.7578V240.158H59.0908ZM59.0908 236.753V234.483H56.7578V236.753H59.0908Z" fill="white"/>
<path d="M59.0908 233.334V232.168H56.7578V233.334" fill="white"/>
<path d="M65.3994 258.99V256.657H63.0664V258.99H65.3994ZM65.3994 255.491V253.158H63.0664V255.491H65.3994ZM65.3994 251.991V249.658H63.0664V251.991H65.3994Z" fill="white"/>
<path d="M65.3994 248.509V247.343H63.0664V248.509" fill="white"/>
<path d="M78.0127 258.99V256.657H75.6797V258.99H78.0127ZM78.0127 255.491V253.158H75.6797V255.491H78.0127ZM78.0127 251.991V249.658H75.6797V251.991H78.0127Z" fill="white"/>
<path d="M78.0127 248.509V247.343H75.6797V248.509" fill="white"/>
<path d="M84.3174 272.994V270.661H81.9844V272.994H84.3174ZM84.3174 269.495V267.162H81.9844V269.495H84.3174ZM84.3174 265.995V263.662H81.9844V265.995H84.3174ZM84.3174 262.496V260.163H81.9844V262.496H84.3174ZM84.3174 258.996V256.663H81.9844V258.996H84.3174ZM84.3174 255.497V253.164H81.9844V255.497H84.3174ZM84.3174 251.997V249.664H81.9844V251.997H84.3174ZM84.3174 248.497V246.164H81.9844V248.497H84.3174ZM84.3174 244.998V242.665H81.9844V244.998H84.3174ZM84.3174 241.498V239.165H81.9844V241.498H84.3174ZM84.3174 237.999V235.666H81.9844V237.999H84.3174Z" fill="white"/>
<path d="M84.3174 234.517V233.35H81.9844V234.517" fill="white"/>
<path d="M128.462 257.87V256.704H126.129V257.87" fill="white"/>
<path d="M128.462 253.206H126.129V255.539H128.462V253.206Z" fill="white"/>
<path d="M128.462 252.007V250.841H126.129V252.007" fill="white"/>
<path d="M134.771 258.99V256.657H132.438V258.99H134.771ZM134.771 255.491V253.158H132.438V255.491H134.771ZM134.771 251.991V249.658H132.438V251.991H134.771Z" fill="white"/>
<path d="M134.771 248.509V247.343H132.438V248.509" fill="white"/>
<path d="M138.742 253.206V254.372H141.075V253.206" fill="white"/>
<path d="M138.742 254.339V255.505H141.075V254.339" fill="white"/>
<path d="M90.6221 290.499V288.166H88.2891V290.499H90.6221ZM90.6221 287V284.667H88.2891V287H90.6221ZM90.6221 283.5V281.167H88.2891V283.5H90.6221ZM90.6221 280.001V277.668H88.2891V280.001H90.6221ZM90.6221 276.501V274.168H88.2891V276.501H90.6221ZM90.6221 273.001V270.668H88.2891V273.001H90.6221ZM90.6221 269.502V267.169H88.2891V269.502H90.6221ZM90.6221 266.002V263.669H88.2891V266.002H90.6221ZM90.6221 262.503V260.17H88.2891V262.503H90.6221ZM90.6221 259.003V256.67H88.2891V259.003H90.6221ZM90.6221 255.504V253.171H88.2891V255.504H90.6221ZM90.6221 252.004V249.671H88.2891V252.004H90.6221ZM90.6221 248.505V246.172H88.2891V248.505H90.6221ZM90.6221 245.005V242.672H88.2891V245.005H90.6221ZM90.6221 241.505V239.172H88.2891V241.505H90.6221ZM90.6221 238.006V235.673H88.2891V238.006H90.6221ZM90.6221 234.506V232.173H88.2891V234.506H90.6221ZM90.6221 231.007V228.674H88.2891V231.007H90.6221ZM90.6221 227.507V225.174H88.2891V227.507H90.6221ZM90.6221 224.008V221.675H88.2891V224.008H90.6221ZM90.6221 220.508V218.175H88.2891V220.508H90.6221Z" fill="white"/>
<path d="M90.6221 217.026V215.859H88.2891V217.026" fill="white"/>
<path d="M96.9307 267.236V264.997H94.5977V267.236H96.9307ZM96.9307 263.877V261.637H94.5977V263.877H96.9307ZM96.9307 260.517V258.277H94.5977V260.517H96.9307ZM96.9307 257.158V254.918H94.5977V257.158H96.9307ZM96.9307 253.798V251.558H94.5977V253.798H96.9307ZM96.9307 250.438V248.199H94.5977V250.438H96.9307ZM96.9307 247.079V244.839H94.5977V247.079H96.9307ZM96.9307 243.719V241.479H94.5977V243.719H96.9307Z" fill="white"/>
<path d="M96.9307 240.33V239.164H94.5977V240.33" fill="white"/>
<path d="M103.235 258.99V256.657H100.902V258.99H103.235ZM103.235 255.491V253.158H100.902V255.491H103.235ZM103.235 251.991V249.658H100.902V251.991H103.235Z" fill="white"/>
<path d="M103.235 248.509V247.343H100.902V248.509" fill="white"/>
<path d="M109.544 257.87V256.704H107.211V257.87" fill="white"/>
<path d="M109.544 253.206H107.211V255.539H109.544V253.206Z" fill="white"/>
<path d="M109.544 252.007V250.841H107.211V252.007" fill="white"/>
<path d="M147.384 258.99V256.657H145.051V258.99H147.384ZM147.384 255.491V253.158H145.051V255.491H147.384ZM147.384 251.991V249.658H145.051V251.991H147.384Z" fill="white"/>
<path d="M147.384 248.509V247.343H145.051V248.509" fill="white"/>
<path d="M153.689 272.994V270.661H151.355V272.994H153.689ZM153.689 269.495V267.162H151.355V269.495H153.689ZM153.689 265.995V263.662H151.355V265.995H153.689ZM153.689 262.496V260.163H151.355V262.496H153.689ZM153.689 258.996V256.663H151.355V258.996H153.689ZM153.689 255.497V253.164H151.355V255.497H153.689ZM153.689 251.997V249.664H151.355V251.997H153.689ZM153.689 248.497V246.164H151.355V248.497H153.689ZM153.689 244.998V242.665H151.355V244.998H153.689ZM153.689 241.498V239.165H151.355V241.498H153.689ZM153.689 237.999V235.666H151.355V237.999H153.689Z" fill="white"/>
<path d="M153.689 234.517V233.35H151.355V234.517" fill="white"/>
<path d="M159.997 260.271V258.118H157.664V260.271H159.997ZM159.997 257.041V254.888H157.664V257.041H159.997ZM159.997 253.811V251.658H157.664V253.811H159.997ZM159.997 250.58V248.427H157.664V250.58H159.997Z" fill="white"/>
<path d="M159.997 247.327V246.16H157.664V247.327" fill="white"/>
<path d="M166.302 267.236V264.997H163.969V267.236H166.302ZM166.302 263.877V261.637H163.969V263.877H166.302ZM166.302 260.517V258.277H163.969V260.517H166.302ZM166.302 257.158V254.918H163.969V257.158H166.302ZM166.302 253.798V251.558H163.969V253.798H166.302ZM166.302 250.438V248.199H163.969V250.438H166.302ZM166.302 247.079V244.839H163.969V247.079H166.302ZM166.302 243.719V241.479H163.969V243.719H166.302Z" fill="white"/>
<path d="M166.302 240.33V239.164H163.969V240.33" fill="white"/>
<path d="M172.606 258.99V256.657H170.273V258.99H172.606ZM172.606 255.491V253.158H170.273V255.491H172.606ZM172.606 251.991V249.658H170.273V251.991H172.606Z" fill="white"/>
<path d="M172.606 248.509V247.343H170.273V248.509" fill="white"/>
<path d="M178.915 257.87V256.704H176.582V257.87" fill="white"/>
<path d="M178.915 253.206H176.582V255.539H178.915V253.206Z" fill="white"/>
<path d="M178.915 252.007V250.841H176.582V252.007" fill="white"/>
<path d="M115.849 272.994V270.661H113.516V272.994H115.849ZM115.849 269.495V267.162H113.516V269.495H115.849ZM115.849 265.995V263.662H113.516V265.995H115.849ZM115.849 262.496V260.163H113.516V262.496H115.849ZM115.849 258.996V256.663H113.516V258.996H115.849ZM115.849 255.497V253.164H113.516V255.497H115.849ZM115.849 251.997V249.664H113.516V251.997H115.849ZM115.849 248.497V246.164H113.516V248.497H115.849ZM115.849 244.998V242.665H113.516V244.998H115.849ZM115.849 241.498V239.165H113.516V241.498H115.849ZM115.849 237.999V235.666H113.516V237.999H115.849Z" fill="white"/>
<path d="M115.849 234.517V233.35H113.516V234.517" fill="white"/>
<path d="M122.157 261.26V258.747H119.824V261.26H122.157ZM122.157 257.491V254.978H119.824V257.491H122.157ZM122.157 253.722V251.209H119.824V253.722H122.157ZM122.157 249.954V247.441H119.824V249.954H122.157Z" fill="white"/>
<path d="M122.157 246.193V245.027H119.824V246.193" fill="white"/>
<path d="M184.465 241.529V242.695H186.798V241.529" fill="white"/>
<path d="M184.465 243.894V246.349H186.798V243.894H184.465ZM184.465 247.577V250.033H186.798V247.577H184.465ZM184.465 251.26V253.717H186.798V251.26H184.465ZM184.465 254.944V257.401H186.798V254.944H184.465ZM184.465 258.628V261.085H186.798V258.628H184.465ZM184.465 262.312V264.767H186.798V262.312H184.465Z" fill="white"/>
<path d="M193.106 259.003V257.837H190.773V259.003" fill="white"/>
<path d="M193.106 256.826V254.825H190.773V256.826H193.106ZM193.106 253.826V251.826H190.773V253.826H193.106Z" fill="white"/>
<path d="M193.106 250.825V249.658H190.773V250.825" fill="white"/>
<path d="M199.411 257.87V256.704H197.078V257.87" fill="white"/>
<path d="M199.411 253.206H197.078V255.539H199.411V253.206Z" fill="white"/>
<path d="M199.411 252.007V250.841H197.078V252.007" fill="white"/>
<path d="M256.169 263.766V261.555H253.836V263.766H256.169ZM256.169 260.45V258.24H253.836V260.45H256.169ZM256.169 257.135V254.924H253.836V257.135H256.169ZM256.169 253.819V251.609H253.836V253.819H256.169ZM256.169 250.503V248.294H253.836V250.503H256.169ZM256.169 247.188V244.978H253.836V247.188H256.169Z" fill="white"/>
<path d="M256.169 243.828V242.662H253.836V243.828" fill="white"/>
<path d="M205.716 256.688V255.521H203.383V256.688" fill="white"/>
<path d="M205.716 253.19V252.023H203.383V253.19" fill="white"/>
<path d="M373.66 250.841V252.007H375.993V250.841" fill="white"/>
<path d="M375.993 253.206H373.66V255.539H375.993V253.206Z" fill="white"/>
<path d="M373.66 256.704V257.87H375.993V256.704" fill="white"/>
<path d="M212.024 265.36V263.154H209.691V265.36H212.024ZM212.024 262.052V259.846H209.691V262.052H212.024ZM212.024 258.743V256.537H209.691V258.743H212.024ZM212.024 255.434V253.228H209.691V255.434H212.024ZM212.024 252.126V249.92H209.691V252.126H212.024ZM212.024 248.817V246.611H209.691V248.817H212.024ZM212.024 245.508V243.302H209.691V245.508H212.024Z" fill="white"/>
<path d="M212.024 242.203V241.036H209.691V242.203" fill="white"/>
<path d="M218.329 278.841V276.454H215.996V278.841H218.329ZM218.329 275.26V272.872H215.996V275.26H218.329ZM218.329 271.679V269.292H215.996V271.679H218.329ZM218.329 268.098V265.711H215.996V268.098H218.329ZM218.329 264.518V262.13H215.996V264.518H218.329ZM218.329 260.937V258.549H215.996V260.937H218.329ZM218.329 257.355V254.967H215.996V257.355H218.329ZM218.329 253.774V251.387H215.996V253.774H218.329ZM218.329 250.193V247.806H215.996V250.193H218.329ZM218.329 246.613V244.225H215.996V246.613H218.329ZM218.329 243.032V240.644H215.996V243.032H218.329ZM218.329 239.45V237.064H215.996V239.45H218.329ZM218.329 235.869V233.482H215.996V235.869H218.329ZM218.329 232.289V229.901H215.996V232.289H218.329Z" fill="white"/>
<path d="M218.329 228.703V227.536H215.996V228.703" fill="white"/>
<path d="M224.638 267.236V264.997H222.305V267.236H224.638ZM224.638 263.877V261.637H222.305V263.877H224.638ZM224.638 260.517V258.277H222.305V260.517H224.638ZM224.638 257.158V254.918H222.305V257.158H224.638ZM224.638 253.798V251.558H222.305V253.798H224.638ZM224.638 250.438V248.199H222.305V250.438H224.638ZM224.638 247.079V244.839H222.305V247.079H224.638ZM224.638 243.719V241.479H222.305V243.719H224.638Z" fill="white"/>
<path d="M224.638 240.33V239.164H222.305V240.33" fill="white"/>
<path d="M230.942 274.208V271.938H228.609V274.208H230.942ZM230.942 270.803V268.533H228.609V270.803H230.942ZM230.942 267.398V265.129H228.609V267.398H230.942ZM230.942 263.994V261.724H228.609V263.994H230.942ZM230.942 260.589V258.319H228.609V260.589H230.942ZM230.942 257.184V254.914H228.609V257.184H230.942ZM230.942 253.779V251.509H228.609V253.779H230.942ZM230.942 250.373V248.103H228.609V250.373H230.942ZM230.942 246.968V244.698H228.609V246.968H230.942ZM230.942 243.563V241.293H228.609V243.563H230.942ZM230.942 240.158V237.888H228.609V240.158H230.942ZM230.942 236.753V234.483H228.609V236.753H230.942Z" fill="white"/>
<path d="M230.942 233.334V232.168H228.609V233.334" fill="white"/>
<path d="M237.251 290.499V288.166H234.918V290.499H237.251ZM237.251 287V284.667H234.918V287H237.251ZM237.251 283.5V281.167H234.918V283.5H237.251ZM237.251 280.001V277.668H234.918V280.001H237.251ZM237.251 276.501V274.168H234.918V276.501H237.251ZM237.251 273.001V270.668H234.918V273.001H237.251ZM237.251 269.502V267.169H234.918V269.502H237.251ZM237.251 266.002V263.669H234.918V266.002H237.251ZM237.251 262.503V260.17H234.918V262.503H237.251ZM237.251 259.003V256.67H234.918V259.003H237.251ZM237.251 255.504V253.171H234.918V255.504H237.251ZM237.251 252.004V249.671H234.918V252.004H237.251ZM237.251 248.505V246.172H234.918V248.505H237.251ZM237.251 245.005V242.672H234.918V245.005H237.251ZM237.251 241.505V239.172H234.918V241.505H237.251ZM237.251 238.006V235.673H234.918V238.006H237.251ZM237.251 234.506V232.173H234.918V234.506H237.251ZM237.251 231.007V228.674H234.918V231.007H237.251ZM237.251 227.507V225.174H234.918V227.507H237.251ZM237.251 224.008V221.675H234.918V224.008H237.251ZM237.251 220.508V218.175H234.918V220.508H237.251Z" fill="white"/>
<path d="M237.251 217.026V215.859H234.918V217.026" fill="white"/>
<path d="M243.556 285.804V283.429H241.223V285.804H243.556ZM243.556 282.242V279.867H241.223V282.242H243.556ZM243.556 278.679V276.303H241.223V278.679H243.556ZM243.556 275.116V272.739H241.223V275.116H243.556ZM243.556 271.552V269.177H241.223V271.552H243.556ZM243.556 267.989V265.613H241.223V267.989H243.556ZM243.556 264.426V262.051H241.223V264.426H243.556ZM243.556 260.863V258.487H241.223V260.863H243.556ZM243.556 257.299V254.924H241.223V257.299H243.556ZM243.556 253.737V251.361H241.223V253.737H243.556ZM243.556 250.173V247.798H241.223V250.173H243.556ZM243.556 246.611V244.234H241.223V246.611H243.556ZM243.556 243.047V240.672H241.223V243.047H243.556ZM243.556 239.483V237.108H241.223V239.483H243.556ZM243.556 235.921V233.546H241.223V235.921H243.556ZM243.556 232.357V229.982H241.223V232.357H243.556ZM243.556 228.794V226.418H241.223V228.794H243.556ZM243.556 225.231V222.856H241.223V225.231H243.556Z" fill="white"/>
<path d="M243.556 221.707V220.54H241.223V221.707" fill="white"/>
<path d="M249.864 278.841V276.454H247.531V278.841H249.864ZM249.864 275.26V272.872H247.531V275.26H249.864ZM249.864 271.679V269.292H247.531V271.679H249.864ZM249.864 268.098V265.711H247.531V268.098H249.864ZM249.864 264.517V262.13H247.531V264.517H249.864ZM249.864 260.937V258.549H247.531V260.937H249.864ZM249.864 257.355V254.967H247.531V257.355H249.864ZM249.864 253.774V251.387H247.531V253.774H249.864ZM249.864 250.193V247.806H247.531V250.193H249.864ZM249.864 246.613V244.225H247.531V246.613H249.864ZM249.864 243.032V240.644H247.531V243.032H249.864ZM249.864 239.45V237.064H247.531V239.45H249.864ZM249.864 235.869V233.482H247.531V235.869H249.864ZM249.864 232.289V229.901H247.531V232.289H249.864Z" fill="white"/>
<path d="M249.864 228.703V227.536H247.531V228.703" fill="white"/>
<path d="M262.478 285.804V283.429H260.145V285.804H262.478ZM262.478 282.242V279.867H260.145V282.242H262.478ZM262.478 278.679V276.303H260.145V278.679H262.478ZM262.478 275.116V272.739H260.145V275.116H262.478ZM262.478 271.552V269.177H260.145V271.552H262.478ZM262.478 267.989V265.613H260.145V267.989H262.478ZM262.478 264.426V262.051H260.145V264.426H262.478ZM262.478 260.863V258.487H260.145V260.863H262.478ZM262.478 257.299V254.924H260.145V257.299H262.478ZM262.478 253.737V251.361H260.145V253.737H262.478ZM262.478 250.173V247.798H260.145V250.173H262.478ZM262.478 246.611V244.234H260.145V246.611H262.478ZM262.478 243.047V240.672H260.145V243.047H262.478ZM262.478 239.483V237.108H260.145V239.483H262.478ZM262.478 235.921V233.546H260.145V235.921H262.478ZM262.478 232.357V229.982H260.145V232.357H262.478ZM262.478 228.794V226.418H260.145V228.794H262.478ZM262.478 225.231V222.856H260.145V225.231H262.478Z" fill="white"/>
<path d="M262.478 221.707V220.54H260.145V221.707" fill="white"/>
<path d="M268.782 298.681V296.377H266.449V298.681H268.782ZM268.782 295.226V292.922H266.449V295.226H268.782ZM268.782 291.771V289.467H266.449V291.771H268.782ZM268.782 288.315V286.011H266.449V288.315H268.782ZM268.782 284.86V282.556H266.449V284.86H268.782ZM268.782 281.405V279.101H266.449V281.405H268.782ZM268.782 277.95V275.646H266.449V277.95H268.782ZM268.782 274.494V272.19H266.449V274.494H268.782ZM268.782 271.039V268.735H266.449V271.039H268.782ZM268.782 267.584V265.28H266.449V267.584H268.782ZM268.782 264.128V261.825H266.449V264.128H268.782ZM268.782 260.672V258.37H266.449V260.672H268.782ZM268.782 257.217V254.914H266.449V257.217H268.782ZM268.782 253.762V251.459H266.449V253.762H268.782ZM268.782 250.307V248.004H266.449V250.307H268.782ZM268.782 246.851V244.549H266.449V246.851H268.782ZM268.782 243.396V241.093H266.449V243.396H268.782ZM268.782 239.941V237.638H266.449V239.941H268.782ZM268.782 236.486V234.183H266.449V236.486H268.782ZM268.782 233.03V230.728H266.449V233.03H268.782ZM268.782 229.575V227.272H266.449V229.575H268.782ZM268.782 226.12V223.817H266.449V226.12H268.782ZM268.782 222.665V220.362H266.449V222.665H268.782ZM268.782 219.21V216.907H266.449V219.21H268.782ZM268.782 215.754V213.452H266.449V215.754H268.782ZM268.782 212.299V209.996H266.449V212.299H268.782Z" fill="white"/>
<path d="M268.782 208.847V207.681H266.449V208.847" fill="white"/>
<path d="M312.927 257.87V256.704H310.594V257.87" fill="white"/>
<path d="M312.927 253.206H310.594V255.539H312.927V253.206Z" fill="white"/>
<path d="M312.927 252.007V250.841H310.594V252.007" fill="white"/>
<path d="M319.235 258.99V256.657H316.902V258.99H319.235ZM319.235 255.491V253.158H316.902V255.491H319.235ZM319.235 251.991V249.658H316.902V251.991H319.235Z" fill="white"/>
<path d="M319.235 248.509V247.343H316.902V248.509" fill="white"/>
<path d="M323.207 253.206V254.372H325.54V253.206" fill="white"/>
<path d="M323.207 254.339V255.505H325.54V254.339" fill="white"/>
<path d="M382.298 258.99V256.657H379.965V258.99H382.298ZM382.298 255.491V253.158H379.965V255.491H382.298ZM382.298 251.991V249.658H379.965V251.991H382.298Z" fill="white"/>
<path d="M382.298 248.509V247.343H379.965V248.509" fill="white"/>
<path d="M367.352 253.206V254.372H369.685V253.206" fill="white"/>
<path d="M367.352 254.339V255.505H369.685V254.339" fill="white"/>
<path d="M275.091 316.178V313.866H272.758V316.178H275.091ZM275.091 312.71V310.399H272.758V312.71H275.091ZM275.091 309.243V306.931H272.758V309.243H275.091ZM275.091 305.775V303.464H272.758V305.775H275.091ZM275.091 302.308V299.996H272.758V302.308H275.091ZM275.091 298.84V296.529H272.758V298.84H275.091ZM275.091 295.373V293.061H272.758V295.373H275.091ZM275.091 291.905V289.594H272.758V291.905H275.091ZM275.091 288.438V286.126H272.758V288.438H275.091ZM275.091 284.971V282.659H272.758V284.971H275.091ZM275.091 281.503V279.191H272.758V281.503H275.091ZM275.091 278.037V275.724H272.758V278.037H275.091ZM275.091 274.568V272.256H272.758V274.568H275.091ZM275.091 271.101V268.789H272.758V271.101H275.091ZM275.091 267.633V265.321H272.758V267.633H275.091ZM275.091 264.166V261.854H272.758V264.166H275.091ZM275.091 260.698V258.387H272.758V260.698H275.091ZM275.091 257.231V254.919H272.758V257.231H275.091ZM275.091 253.763V251.452H272.758V253.763H275.091ZM275.091 250.296V247.984H272.758V250.296H275.091ZM275.091 246.828V244.517H272.758V246.828H275.091ZM275.091 243.361V241.049H272.758V243.361H275.091ZM275.091 239.893V237.582H272.758V239.893H275.091ZM275.091 236.426V234.114H272.758V236.426H275.091ZM275.091 232.958V230.647H272.758V232.958H275.091ZM275.091 229.491V227.179H272.758V229.491H275.091ZM275.091 226.023V223.712H272.758V226.023H275.091ZM275.091 222.556V220.244H272.758V222.556H275.091ZM275.091 219.089V216.777H272.758V219.089H275.091ZM275.091 215.621V213.309H272.758V215.621H275.091ZM275.091 212.154V209.842H272.758V212.154H275.091ZM275.091 208.686V206.374H272.758V208.686H275.091ZM275.091 205.219V202.907H272.758V205.219H275.091ZM275.091 201.751V199.441H272.758V201.751H275.091ZM275.091 198.285V195.973H272.758V198.285H275.091ZM275.091 194.816V192.506H272.758V194.816H275.091Z" fill="white"/>
<path d="M275.091 191.356V190.19H272.758V191.356" fill="white"/>
<path d="M281.396 285.804V283.429H279.062V285.804H281.396ZM281.396 282.242V279.867H279.062V282.242H281.396ZM281.396 278.679V276.303H279.062V278.679H281.396ZM281.396 275.116V272.739H279.062V275.116H281.396ZM281.396 271.552V269.177H279.062V271.552H281.396ZM281.396 267.989V265.613H279.062V267.989H281.396ZM281.396 264.426V262.051H279.062V264.426H281.396ZM281.396 260.863V258.487H279.062V260.863H281.396ZM281.396 257.299V254.924H279.062V257.299H281.396ZM281.396 253.737V251.361H279.062V253.737H281.396ZM281.396 250.173V247.798H279.062V250.173H281.396ZM281.396 246.611V244.234H279.062V246.611H281.396ZM281.396 243.047V240.672H279.062V243.047H281.396ZM281.396 239.483V237.108H279.062V239.483H281.396ZM281.396 235.921V233.546H279.062V235.921H281.396ZM281.396 232.357V229.982H279.062V232.357H281.396ZM281.396 228.794V226.418H279.062V228.794H281.396ZM281.396 225.231V222.856H279.062V225.231H281.396Z" fill="white"/>
<path d="M281.396 221.707V220.54H279.062V221.707" fill="white"/>
<path d="M287.7 272.994V270.661H285.367V272.994H287.7ZM287.7 269.495V267.162H285.367V269.495H287.7ZM287.7 265.995V263.662H285.367V265.995H287.7ZM287.7 262.496V260.163H285.367V262.496H287.7ZM287.7 258.996V256.663H285.367V258.996H287.7ZM287.7 255.497V253.164H285.367V255.497H287.7ZM287.7 251.997V249.664H285.367V251.997H287.7ZM287.7 248.497V246.164H285.367V248.497H287.7ZM287.7 244.998V242.665H285.367V244.998H287.7ZM287.7 241.498V239.165H285.367V241.498H287.7ZM287.7 237.999V235.666H285.367V237.999H287.7Z" fill="white"/>
<path d="M287.7 234.517V233.35H285.367V234.517" fill="white"/>
<path d="M294.009 261.26V258.747H291.676V261.26H294.009ZM294.009 257.491V254.978H291.676V257.491H294.009ZM294.009 253.722V251.209H291.676V253.722H294.009ZM294.009 249.954V247.441H291.676V249.954H294.009Z" fill="white"/>
<path d="M294.009 246.193V245.027H291.676V246.193" fill="white"/>
<path d="M331.849 258.99V256.657H329.516V258.99H331.849ZM331.849 255.491V253.158H329.516V255.491H331.849ZM331.849 251.991V249.658H329.516V251.991H331.849Z" fill="white"/>
<path d="M331.849 248.509V247.343H329.516V248.509" fill="white"/>
<path d="M338.153 272.994V270.661H335.82V272.994H338.153ZM338.153 269.495V267.162H335.82V269.495H338.153ZM338.153 265.995V263.662H335.82V265.995H338.153ZM338.153 262.496V260.163H335.82V262.496H338.153ZM338.153 258.996V256.663H335.82V258.996H338.153ZM338.153 255.497V253.164H335.82V255.497H338.153ZM338.153 251.997V249.664H335.82V251.997H338.153ZM338.153 248.497V246.164H335.82V248.497H338.153ZM338.153 244.998V242.665H335.82V244.998H338.153ZM338.153 241.498V239.165H335.82V241.498H338.153ZM338.153 237.999V235.666H335.82V237.999H338.153Z" fill="white"/>
<path d="M338.153 234.517V233.35H335.82V234.517" fill="white"/>
<path d="M344.462 260.271V258.118H342.129V260.271H344.462ZM344.462 257.041V254.888H342.129V257.041H344.462ZM344.462 253.811V251.658H342.129V253.811H344.462ZM344.462 250.58V248.427H342.129V250.58H344.462Z" fill="white"/>
<path d="M344.462 247.327V246.16H342.129V247.327" fill="white"/>
<path d="M350.767 267.236V264.997H348.434V267.236H350.767ZM350.767 263.877V261.637H348.434V263.877H350.767ZM350.767 260.517V258.277H348.434V260.517H350.767ZM350.767 257.158V254.918H348.434V257.158H350.767ZM350.767 253.798V251.558H348.434V253.798H350.767ZM350.767 250.438V248.199H348.434V250.438H350.767ZM350.767 247.079V244.839H348.434V247.079H350.767ZM350.767 243.719V241.479H348.434V243.719H350.767Z" fill="white"/>
<path d="M350.767 240.33V239.164H348.434V240.33" fill="white"/>
<path d="M357.075 258.99V256.657H354.742V258.99H357.075ZM357.075 255.491V253.158H354.742V255.491H357.075ZM357.075 251.991V249.658H354.742V251.991H357.075Z" fill="white"/>
<path d="M357.075 248.509V247.343H354.742V248.509" fill="white"/>
<path d="M363.38 257.87V256.704H361.047V257.87" fill="white"/>
<path d="M363.38 253.206H361.047V255.539H363.38V253.206Z" fill="white"/>
<path d="M363.38 252.007V250.841H361.047V252.007" fill="white"/>
<path d="M300.313 272.994V270.661H297.98V272.994H300.313ZM300.313 269.495V267.162H297.98V269.495H300.313ZM300.313 265.995V263.662H297.98V265.995H300.313ZM300.313 262.496V260.163H297.98V262.496H300.313ZM300.313 258.996V256.663H297.98V258.996H300.313ZM300.313 255.497V253.164H297.98V255.497H300.313ZM300.313 251.997V249.664H297.98V251.997H300.313ZM300.313 248.497V246.164H297.98V248.497H300.313ZM300.313 244.998V242.665H297.98V244.998H300.313ZM300.313 241.498V239.165H297.98V241.498H300.313ZM300.313 237.999V235.666H297.98V237.999H300.313Z" fill="white"/>
<path d="M300.313 234.517V233.35H297.98V234.517" fill="white"/>
<path d="M306.622 261.26V258.747H304.289V261.26H306.622ZM306.622 257.491V254.978H304.289V257.491H306.622ZM306.622 253.722V251.209H304.289V253.722H306.622ZM306.622 249.954V247.441H304.289V249.954H306.622Z" fill="white"/>
<path d="M306.622 246.193V245.027H304.289V246.193" fill="white"/>
</g>
</svg>
