<svg width="365" height="272" viewBox="0 0 365 272" fill="none" xmlns="http://www.w3.org/2000/svg">
<g opacity="0.2">
<path d="M272.185 386.5H135.787C120.559 386.5 108.213 374.154 108.213 358.926V29.0738C108.213 13.8447 120.559 1.5 135.787 1.5H272.185C287.413 1.5 299.758 13.8446 299.758 29.0738V358.926C299.758 374.154 287.413 386.5 272.185 386.5Z" stroke="white" stroke-width="3"/>
<path d="M223.676 19.2183H184.87C184.118 19.2183 183.508 18.6081 183.508 17.8566C183.508 17.105 184.118 16.4949 184.87 16.4949H223.676C224.427 16.4949 225.036 17.105 225.036 17.8566C225.036 18.6081 224.427 19.2183 223.676 19.2183Z" fill="white"/>
<path d="M262.778 36.917C263.115 36.917 263.387 37.1885 263.387 37.524C263.387 37.8616 263.115 38.1342 262.778 38.1342C262.442 38.1342 262.17 37.8616 262.17 37.524C262.17 37.1885 262.442 36.917 262.778 36.917Z" fill="white"/>
<path d="M264.298 36.0505L264.271 36.0237L264.242 35.9989L264.228 35.9855C263.44 35.27 262.236 35.2989 261.484 36.0505L261.395 36.1383L261.272 36.2601C261.125 36.4087 261.126 36.6513 261.273 36.8C261.423 36.9497 261.665 36.9507 261.813 36.801L262.025 36.5904C262.503 36.1135 263.28 36.1135 263.757 36.5904L263.908 36.7381C264.058 36.8847 264.296 36.8847 264.445 36.737C264.516 36.6658 264.555 36.5698 264.555 36.4696C264.555 36.3674 264.516 36.2725 264.447 36.2023L264.298 36.0505Z" fill="white"/>
<path d="M265.263 35.3011L265.138 35.1741L265.135 35.1731L265.036 35.0719L264.979 35.0265C263.696 33.9002 261.743 33.9342 260.501 35.1297L260.482 35.1452L260.253 35.3734C260.118 35.5096 260.12 35.7295 260.254 35.8658C260.39 36.0021 260.611 36.0021 260.746 35.8668L260.976 35.6387L260.98 35.6335C261.984 34.6631 263.578 34.6569 264.591 35.6139L264.771 35.7935C264.907 35.9288 265.128 35.9288 265.262 35.7925C265.398 35.6562 265.399 35.4363 265.263 35.3011Z" fill="white"/>
<path d="M117.701 38.4599C117.701 38.5322 117.762 38.5931 117.834 38.5931C117.912 38.5931 117.968 38.5322 117.968 38.4599V34.8775C117.973 34.8435 117.968 34.8104 117.951 34.7764C117.917 34.7155 117.829 34.6927 117.767 34.7268L117.015 35.1831C116.948 35.2172 116.925 35.2946 116.965 35.3669C116.987 35.4061 117.032 35.434 117.082 35.434C117.104 35.434 117.132 35.4226 117.148 35.4123L117.701 35.0892V38.4599Z" fill="white"/>
<path d="M119.337 38.0207C119.576 38.3717 119.916 38.6113 120.311 38.6113C120.707 38.6113 121.047 38.3717 121.287 38.0207C121.52 37.6646 121.666 37.1855 121.666 36.6611C121.666 36.1377 121.52 35.6587 121.287 35.2963C121.047 34.9515 120.707 34.7109 120.311 34.7109C119.916 34.7109 119.576 34.9515 119.337 35.2963C119.096 35.6587 118.963 36.1377 118.963 36.6611C118.963 37.1855 119.096 37.6646 119.337 38.0207ZM119.565 35.4522C119.765 35.1456 120.032 34.9845 120.311 34.9845C120.59 34.9845 120.852 35.1456 121.058 35.4522C121.259 35.7536 121.392 36.1821 121.392 36.6611C121.392 37.1412 121.259 37.5696 121.058 37.871C120.852 38.1663 120.59 38.3387 120.311 38.3387C120.032 38.3387 119.765 38.1663 119.565 37.871C119.364 37.5696 119.235 37.1412 119.235 36.6611C119.235 36.1821 119.364 35.7536 119.565 35.4522Z" fill="white"/>
<path d="M122.996 38.3386C122.996 38.4945 123.118 38.6163 123.275 38.6163C123.431 38.6163 123.553 38.4945 123.553 38.3386C123.553 38.1827 123.431 38.0599 123.275 38.0599C123.118 38.0599 122.996 38.1827 122.996 38.3386ZM122.996 35.9982C122.996 36.1541 123.118 36.277 123.275 36.277C123.431 36.277 123.553 36.1541 123.553 35.9982C123.553 35.8423 123.431 35.7195 123.275 35.7195C123.118 35.7195 122.996 35.8423 122.996 35.9982Z" fill="white"/>
<path d="M126.288 34.9123C126.299 34.8957 126.304 34.873 126.304 34.8503C126.304 34.7729 126.244 34.7109 126.165 34.7109H124.343C124.266 34.7109 124.204 34.7729 124.204 34.8503C124.204 34.9288 124.266 34.9897 124.343 34.9897H125.837L124.867 35.987C124.812 36.0427 124.812 36.1325 124.867 36.1883H124.873C124.9 36.2213 124.94 36.244 124.984 36.244C125.251 36.244 125.519 36.3442 125.719 36.5506C125.926 36.7509 126.026 37.0183 126.026 37.2857C126.026 37.5531 125.926 37.8205 125.719 38.0269C125.514 38.2272 125.246 38.3274 124.979 38.3274C124.711 38.3274 124.449 38.2272 124.243 38.0269C124.187 37.9712 124.098 37.9712 124.048 38.0269C123.992 38.0827 123.992 38.1715 124.048 38.2221C124.305 38.4832 124.644 38.6113 124.979 38.6113C125.319 38.6113 125.658 38.4781 125.914 38.2221C126.176 37.965 126.304 37.6253 126.304 37.2857C126.304 36.946 126.176 36.6053 125.92 36.3493C125.73 36.1604 125.497 36.0427 125.251 35.9932L126.26 34.9566C126.271 34.9453 126.283 34.9288 126.288 34.9123Z" fill="white"/>
<path d="M128.413 38.0207C128.652 38.3717 128.992 38.6113 129.387 38.6113C129.783 38.6113 130.122 38.3717 130.363 38.0207C130.596 37.6646 130.742 37.1855 130.742 36.6611C130.742 36.1377 130.596 35.6587 130.363 35.2963C130.122 34.9515 129.783 34.7109 129.387 34.7109C128.992 34.7109 128.652 34.9515 128.413 35.2963C128.172 35.6587 128.039 36.1377 128.039 36.6611C128.039 37.1855 128.172 37.6646 128.413 38.0207ZM128.641 35.4522C128.841 35.1456 129.109 34.9845 129.387 34.9845C129.666 34.9845 129.928 35.1456 130.134 35.4522C130.335 35.7536 130.468 36.1821 130.468 36.6611C130.468 37.1412 130.335 37.5696 130.134 37.871C129.928 38.1663 129.666 38.3387 129.387 38.3387C129.109 38.3387 128.841 38.1663 128.641 37.871C128.441 37.5696 128.312 37.1412 128.312 36.6611C128.312 36.1821 128.441 35.7536 128.641 35.4522Z" fill="white"/>
<path d="M135.816 38.5049C135.838 38.5607 135.894 38.5937 135.945 38.5937C135.961 38.5937 135.971 38.5885 135.994 38.5885C136.061 38.5607 136.094 38.477 136.066 38.4099L134.713 34.7946C134.696 34.744 134.641 34.7109 134.579 34.7109C134.523 34.7109 134.467 34.744 134.446 34.7946L133.091 38.4099C133.063 38.477 133.102 38.5607 133.17 38.5885C133.186 38.5885 133.208 38.5937 133.219 38.5937C133.275 38.5937 133.325 38.5607 133.347 38.5049L133.693 37.5861H135.471L135.816 38.5049ZM134.585 35.2178L135.371 37.3125H133.793L134.585 35.2178Z" fill="white"/>
<path d="M140.124 38.4617C140.124 38.5339 140.179 38.5948 140.258 38.5948C140.33 38.5948 140.392 38.5339 140.392 38.4617V34.8514C140.392 34.8287 140.381 34.8009 140.369 34.7781C140.358 34.7616 140.347 34.7503 140.33 34.7338C140.269 34.6945 140.179 34.7059 140.141 34.7678L138.759 36.6901L137.371 34.7678C137.327 34.7059 137.243 34.6945 137.182 34.7338C137.176 34.74 137.171 34.74 137.171 34.7451C137.138 34.7678 137.115 34.806 137.115 34.8514V38.4617C137.115 38.5339 137.176 38.5948 137.255 38.5948C137.327 38.5948 137.388 38.5339 137.388 38.4617V35.2582L138.636 36.9854C138.664 37.0298 138.703 37.0463 138.754 37.0463H138.765C138.803 37.0463 138.848 37.0298 138.875 36.9854L140.124 35.252V38.4617Z" fill="white"/>
<path d="M269.663 35.1607C269.663 35.4188 269.785 35.6408 269.969 35.7833C269.537 35.9619 269.23 36.3944 269.23 36.89C269.23 37.5548 269.768 38.0875 270.428 38.0875C271.092 38.0875 271.625 37.5548 271.625 36.89C271.625 36.3944 271.319 35.9619 270.881 35.7833C271.071 35.6408 271.198 35.4188 271.198 35.1607C271.198 34.7385 270.849 34.3958 270.428 34.3958C270.001 34.3958 269.663 34.7385 269.663 35.1607ZM269.484 36.89C269.484 36.3738 269.906 35.9464 270.428 35.9464C270.956 35.9464 271.372 36.3738 271.372 36.89C271.372 37.4123 270.956 37.8346 270.428 37.8346C269.906 37.8346 269.484 37.4123 269.484 36.89ZM269.916 35.1607C269.916 34.8758 270.143 34.6497 270.428 34.6497C270.713 34.6497 270.944 34.8758 270.944 35.1607C270.944 35.4457 270.713 35.678 270.428 35.6831C270.143 35.678 269.916 35.4457 269.916 35.1607Z" fill="white"/>
<path d="M273.181 38.0875C273.497 38.0875 273.824 37.9605 274.067 37.7231C274.315 37.4805 274.43 37.1543 274.43 36.8373C274.43 36.5111 274.315 36.1941 274.067 35.9515C273.824 35.7038 273.507 35.5881 273.186 35.5881C272.964 35.5881 272.749 35.646 272.559 35.7564L272.691 34.66H274.299C274.372 34.66 274.43 34.6074 274.43 34.5279C274.43 34.4546 274.372 34.3958 274.299 34.3958H272.58C272.548 34.3958 272.516 34.4071 272.496 34.4278C272.464 34.4494 272.443 34.4804 272.443 34.5227L272.263 36.0094C272.263 36.0207 272.258 36.031 272.258 36.0362C272.258 36.0517 272.258 36.0682 272.263 36.0785C272.263 36.0837 272.263 36.0888 272.269 36.094V36.0992C272.274 36.1147 272.285 36.1312 272.301 36.1415C272.348 36.1941 272.433 36.1941 272.485 36.1415C272.68 35.9464 272.928 35.8514 273.186 35.8514C273.439 35.8514 273.692 35.9464 273.882 36.1363C274.072 36.3263 274.167 36.5792 274.167 36.8373C274.167 37.0903 274.072 37.338 273.877 37.5331C273.682 37.7283 273.434 37.8232 273.181 37.8232C272.928 37.8232 272.68 37.7283 272.485 37.5383C272.433 37.4857 272.348 37.4857 272.295 37.5383C272.243 37.5858 272.243 37.6704 272.295 37.7231C272.538 37.9657 272.859 38.0875 273.181 38.0875Z" fill="white"/>
<path d="M276.089 36.2199C276.579 36.2199 276.905 35.7719 276.905 35.2763V35.266C276.905 34.7808 276.584 34.3328 276.099 34.3328C275.609 34.3328 275.281 34.7808 275.281 35.2763V35.2867C275.281 35.7771 275.603 36.2199 276.089 36.2199ZM275.761 37.976C275.761 38.039 275.814 38.0865 275.877 38.0865C275.919 38.0865 275.951 38.0658 275.977 38.0287L278.546 34.533C278.561 34.5114 278.566 34.4907 278.566 34.4639C278.566 34.4009 278.514 34.3534 278.451 34.3534C278.408 34.3534 278.376 34.3741 278.35 34.4112L275.782 37.9068C275.766 37.9285 275.761 37.9492 275.761 37.976ZM278.229 38.1082C278.719 38.1082 279.046 37.6591 279.046 37.1635V37.1532C279.046 36.668 278.724 36.2199 278.239 36.2199C277.749 36.2199 277.422 36.668 277.422 37.1635V37.1749C277.422 37.6653 277.743 38.1082 278.229 38.1082ZM276.099 35.9928C275.804 35.9928 275.556 35.6924 275.556 35.2763V35.266C275.556 34.881 275.777 34.5588 276.089 34.5588C276.384 34.5588 276.632 34.8644 276.632 35.2763V35.2867C276.632 35.6821 276.41 35.9928 276.099 35.9928ZM278.239 37.881C277.944 37.881 277.696 37.5806 277.696 37.1635V37.1532C277.696 36.7681 277.918 36.4471 278.229 36.4471C278.524 36.4471 278.772 36.7526 278.772 37.1635V37.1749C278.772 37.5703 278.551 37.881 278.239 37.881Z" fill="white"/>
<path d="M284.003 34.8756L290.027 34.8643L290.032 37.8768L284.007 37.8829L284.003 34.8756ZM291.963 34.5174L283.681 34.5308L283.685 38.2319L291.968 38.2185L291.963 34.5174ZM283.833 38.5406C283.568 38.5416 283.354 38.3444 283.354 38.1018L283.348 34.6599C283.348 34.4193 283.563 34.2211 283.824 34.2201L291.816 34.2067C292.077 34.2077 292.292 34.4038 292.295 34.6454L292.294 35.3567L292.911 35.3536L292.916 37.3822L292.298 37.3853L292.3 38.0894C292.3 38.331 292.086 38.5272 291.822 38.5272L283.833 38.5406Z" fill="#F9F9F8"/>
<path d="M218.661 19.2183H184.87C184.118 19.2183 183.508 18.6081 183.508 17.8566C183.508 17.105 184.118 16.4949 184.87 16.4949H219.529L218.661 19.2183Z" fill="white"/>
<path d="M117.701 38.4599C117.701 38.5322 117.762 38.5931 117.834 38.5931C117.912 38.5931 117.968 38.5322 117.968 38.4599V34.8775C117.973 34.8435 117.968 34.8104 117.951 34.7764C117.917 34.7155 117.829 34.6927 117.767 34.7268L117.015 35.1831C116.948 35.2172 116.925 35.2946 116.965 35.3669C116.987 35.4061 117.032 35.434 117.082 35.434C117.104 35.434 117.132 35.4226 117.148 35.4123L117.701 35.0892V38.4599Z" fill="white"/>
<path d="M119.337 38.0207C119.576 38.3717 119.916 38.6113 120.311 38.6113C120.707 38.6113 121.047 38.3717 121.287 38.0207C121.52 37.6646 121.666 37.1855 121.666 36.6611C121.666 36.1377 121.52 35.6587 121.287 35.2963C121.047 34.9515 120.707 34.7109 120.311 34.7109C119.916 34.7109 119.576 34.9515 119.337 35.2963C119.096 35.6587 118.963 36.1377 118.963 36.6611C118.963 37.1855 119.096 37.6646 119.337 38.0207ZM119.565 35.4522C119.765 35.1456 120.032 34.9845 120.311 34.9845C120.59 34.9845 120.852 35.1456 121.058 35.4522C121.259 35.7536 121.392 36.1821 121.392 36.6611C121.392 37.1412 121.259 37.5696 121.058 37.871C120.852 38.1663 120.59 38.3387 120.311 38.3387C120.032 38.3387 119.765 38.1663 119.565 37.871C119.364 37.5696 119.235 37.1412 119.235 36.6611C119.235 36.1821 119.364 35.7536 119.565 35.4522Z" fill="white"/>
<path d="M122.996 38.3386C122.996 38.4945 123.118 38.6163 123.275 38.6163C123.431 38.6163 123.553 38.4945 123.553 38.3386C123.553 38.1827 123.431 38.0599 123.275 38.0599C123.118 38.0599 122.996 38.1827 122.996 38.3386ZM122.996 35.9982C122.996 36.1541 123.118 36.277 123.275 36.277C123.431 36.277 123.553 36.1541 123.553 35.9982C123.553 35.8423 123.431 35.7195 123.275 35.7195C123.118 35.7195 122.996 35.8423 122.996 35.9982Z" fill="white"/>
<path d="M126.288 34.9123C126.299 34.8957 126.304 34.873 126.304 34.8503C126.304 34.7729 126.244 34.7109 126.165 34.7109H124.343C124.266 34.7109 124.204 34.7729 124.204 34.8503C124.204 34.9288 124.266 34.9897 124.343 34.9897H125.837L124.867 35.987C124.812 36.0427 124.812 36.1325 124.867 36.1883H124.873C124.9 36.2213 124.94 36.244 124.984 36.244C125.251 36.244 125.519 36.3442 125.719 36.5506C125.926 36.7509 126.026 37.0183 126.026 37.2857C126.026 37.5531 125.926 37.8205 125.719 38.0269C125.514 38.2272 125.246 38.3274 124.979 38.3274C124.711 38.3274 124.449 38.2272 124.243 38.0269C124.187 37.9712 124.098 37.9712 124.048 38.0269C123.992 38.0827 123.992 38.1715 124.048 38.2221C124.305 38.4832 124.644 38.6113 124.979 38.6113C125.319 38.6113 125.658 38.4781 125.914 38.2221C126.176 37.965 126.304 37.6253 126.304 37.2857C126.304 36.946 126.176 36.6053 125.92 36.3493C125.73 36.1604 125.497 36.0427 125.251 35.9932L126.26 34.9566C126.271 34.9453 126.283 34.9288 126.288 34.9123Z" fill="white"/>
<path d="M128.413 38.0207C128.652 38.3717 128.992 38.6113 129.387 38.6113C129.783 38.6113 130.122 38.3717 130.363 38.0207C130.596 37.6646 130.742 37.1855 130.742 36.6611C130.742 36.1377 130.596 35.6587 130.363 35.2963C130.122 34.9515 129.783 34.7109 129.387 34.7109C128.992 34.7109 128.652 34.9515 128.413 35.2963C128.172 35.6587 128.039 36.1377 128.039 36.6611C128.039 37.1855 128.172 37.6646 128.413 38.0207ZM128.641 35.4522C128.841 35.1456 129.109 34.9845 129.387 34.9845C129.666 34.9845 129.928 35.1456 130.134 35.4522C130.335 35.7536 130.468 36.1821 130.468 36.6611C130.468 37.1412 130.335 37.5696 130.134 37.871C129.928 38.1663 129.666 38.3387 129.387 38.3387C129.109 38.3387 128.841 38.1663 128.641 37.871C128.441 37.5696 128.312 37.1412 128.312 36.6611C128.312 36.1821 128.441 35.7536 128.641 35.4522Z" fill="white"/>
<path d="M135.816 38.5049C135.838 38.5607 135.894 38.5937 135.945 38.5937C135.961 38.5937 135.971 38.5885 135.994 38.5885C136.061 38.5607 136.094 38.477 136.066 38.4099L134.713 34.7946C134.696 34.744 134.641 34.7109 134.579 34.7109C134.523 34.7109 134.467 34.744 134.446 34.7946L133.091 38.4099C133.063 38.477 133.102 38.5607 133.17 38.5885C133.186 38.5885 133.208 38.5937 133.219 38.5937C133.275 38.5937 133.325 38.5607 133.347 38.5049L133.693 37.5861H135.471L135.816 38.5049ZM134.585 35.2178L135.371 37.3125H133.793L134.585 35.2178Z" fill="white"/>
<path d="M140.124 38.4617C140.124 38.5339 140.179 38.5948 140.258 38.5948C140.33 38.5948 140.392 38.5339 140.392 38.4617V34.8514C140.392 34.8287 140.381 34.8009 140.369 34.7781C140.358 34.7616 140.347 34.7503 140.33 34.7338C140.269 34.6945 140.179 34.7059 140.141 34.7678L138.759 36.6901L137.371 34.7678C137.327 34.7059 137.243 34.6945 137.182 34.7338C137.176 34.74 137.171 34.74 137.171 34.7451C137.138 34.7678 137.115 34.806 137.115 34.8514V38.4617C137.115 38.5339 137.176 38.5948 137.255 38.5948C137.327 38.5948 137.388 38.5339 137.388 38.4617V35.2582L138.636 36.9854C138.664 37.0298 138.703 37.0463 138.754 37.0463H138.765C138.803 37.0463 138.848 37.0298 138.875 36.9854L140.124 35.252V38.4617Z" fill="white"/>
<rect x="119.262" y="53.8564" width="169.396" height="298.485" rx="1.5" stroke="white"/>
<path d="M0 241.529V242.695H2.33304V241.529" fill="white"/>
<path d="M0 243.894V246.349H2.33304V243.894H0ZM0 247.578V250.033H2.33304V247.578H0ZM0 251.26V253.717H2.33304V251.26H0ZM0 254.944V257.401H2.33304V254.944H0ZM0 258.628V261.085H2.33304V258.628H0ZM0 262.312V264.767H2.33304V262.312H0Z" fill="white"/>
<path d="M8.63968 259.004V257.837H6.30664V259.004" fill="white"/>
<path d="M8.63968 256.826V254.825H6.30664V256.826H8.63968ZM8.63968 253.826V251.826H6.30664V253.826H8.63968Z" fill="white"/>
<path d="M8.63968 250.825V249.658H6.30664V250.825" fill="white"/>
<path d="M14.9463 257.87V256.704H12.6133V257.87" fill="white"/>
<path d="M14.9463 253.206H12.6133V255.539H14.9463V253.206Z" fill="white"/>
<path d="M14.9463 252.007V250.841H12.6133V252.007" fill="white"/>
<path d="M71.7022 257.87V256.704H69.3691V257.87" fill="white"/>
<path d="M71.7022 253.206H69.3691V255.539H71.7022V253.206Z" fill="white"/>
<path d="M71.7022 252.007V250.841H69.3691V252.007" fill="white"/>
<path d="M21.253 256.688V255.521H18.9199V256.688" fill="white"/>
<path d="M21.253 253.19V252.023H18.9199V253.19" fill="white"/>
<path d="M27.5596 265.36V263.154H25.2266V265.36H27.5596ZM27.5596 262.052V259.846H25.2266V262.052H27.5596ZM27.5596 258.743V256.537H25.2266V258.743H27.5596ZM27.5596 255.434V253.228H25.2266V255.434H27.5596ZM27.5596 252.126V249.92H25.2266V252.126H27.5596ZM27.5596 248.817V246.611H25.2266V248.817H27.5596ZM27.5596 245.508V243.302H25.2266V245.508H27.5596Z" fill="white"/>
<path d="M27.5596 242.203V241.036H25.2266V242.203" fill="white"/>
<path d="M33.8662 278.841V276.453H31.5332V278.841H33.8662ZM33.8662 275.26V272.872H31.5332V275.26H33.8662ZM33.8662 271.679V269.292H31.5332V271.679H33.8662ZM33.8662 268.098V265.711H31.5332V268.098H33.8662ZM33.8662 264.518V262.13H31.5332V264.518H33.8662ZM33.8662 260.936V258.549H31.5332V260.936H33.8662ZM33.8662 257.355V254.967H31.5332V257.355H33.8662ZM33.8662 253.774V251.387H31.5332V253.774H33.8662ZM33.8662 250.193V247.806H31.5332V250.193H33.8662ZM33.8662 246.613V244.225H31.5332V246.613H33.8662ZM33.8662 243.031V240.644H31.5332V243.031H33.8662ZM33.8662 239.45V237.064H31.5332V239.45H33.8662ZM33.8662 235.869V233.482H31.5332V235.869H33.8662ZM33.8662 232.289V229.901H31.5332V232.289H33.8662Z" fill="white"/>
<path d="M33.8662 228.703V227.536H31.5332V228.703" fill="white"/>
<path d="M40.1729 310.33V307.974H37.8398V310.33H40.1729ZM40.1729 306.794V304.438H37.8398V306.794H40.1729ZM40.1729 303.259V300.902H37.8398V303.259H40.1729ZM40.1729 299.723V297.367H37.8398V299.723H40.1729ZM40.1729 296.188V293.831H37.8398V296.188H40.1729ZM40.1729 292.653V290.295H37.8398V292.653H40.1729ZM40.1729 289.117V286.759H37.8398V289.117H40.1729ZM40.1729 285.581V283.224H37.8398V285.581H40.1729ZM40.1729 282.045V279.689H37.8398V282.045H40.1729ZM40.1729 278.51V276.152H37.8398V278.51H40.1729ZM40.1729 274.974V272.616H37.8398V274.974H40.1729ZM40.1729 271.438V269.081H37.8398V271.438H40.1729ZM40.1729 267.903V265.546H37.8398V267.903H40.1729ZM40.1729 264.367V262.01H37.8398V264.367H40.1729ZM40.1729 260.831V258.475H37.8398V260.831H40.1729ZM40.1729 257.295V254.939H37.8398V257.295H40.1729ZM40.1729 253.76V251.403H37.8398V253.76H40.1729ZM40.1729 250.225V247.868H37.8398V250.225H40.1729ZM40.1729 246.689V244.332H37.8398V246.689H40.1729ZM40.1729 243.154V240.796H37.8398V243.154H40.1729ZM40.1729 239.618V237.26H37.8398V239.618H40.1729ZM40.1729 236.082V233.725H37.8398V236.082H40.1729ZM40.1729 232.547V230.189H37.8398V232.547H40.1729ZM40.1729 229.011V226.653H37.8398V229.011H40.1729ZM40.1729 225.475V223.118H37.8398V225.475H40.1729ZM40.1729 221.939V219.583H37.8398V221.939H40.1729ZM40.1729 218.404V216.047H37.8398V218.404H40.1729ZM40.1729 214.868V212.512H37.8398V214.868H40.1729ZM40.1729 211.332V208.976H37.8398V211.332H40.1729ZM40.1729 207.796V205.44H37.8398V207.796H40.1729ZM40.1729 204.262V201.904H37.8398V204.262H40.1729ZM40.1729 200.726V198.369H37.8398V200.726H40.1729Z" fill="white"/>
<path d="M40.1729 197.17V196.004H37.8398V197.17" fill="white"/>
<path d="M46.4776 274.208V271.938H44.1445V274.208H46.4776ZM46.4776 270.803V268.533H44.1445V270.803H46.4776ZM46.4776 267.398V265.129H44.1445V267.398H46.4776ZM46.4776 263.994V261.724H44.1445V263.994H46.4776ZM46.4776 260.589V258.319H44.1445V260.589H46.4776ZM46.4776 257.184V254.914H44.1445V257.184H46.4776ZM46.4776 253.779V251.509H44.1445V253.779H46.4776ZM46.4776 250.374V248.104H44.1445V250.374H46.4776ZM46.4776 246.969V244.698H44.1445V246.969H46.4776ZM46.4776 243.563V241.293H44.1445V243.563H46.4776ZM46.4776 240.158V237.888H44.1445V240.158H46.4776ZM46.4776 236.753V234.483H44.1445V236.753H46.4776Z" fill="white"/>
<path d="M46.4776 233.334V232.168H44.1445V233.334" fill="white"/>
<path d="M52.7842 263.766V261.555H50.4512V263.766H52.7842ZM52.7842 260.45V258.24H50.4512V260.45H52.7842ZM52.7842 257.135V254.925H50.4512V257.135H52.7842ZM52.7842 253.819V251.609H50.4512V253.819H52.7842ZM52.7842 250.503V248.294H50.4512V250.503H52.7842ZM52.7842 247.188V244.978H50.4512V247.188H52.7842Z" fill="white"/>
<path d="M52.7842 243.829V242.662H50.4512V243.829" fill="white"/>
<path d="M59.0908 274.208V271.938H56.7578V274.208H59.0908ZM59.0908 270.803V268.533H56.7578V270.803H59.0908ZM59.0908 267.398V265.129H56.7578V267.398H59.0908ZM59.0908 263.994V261.724H56.7578V263.994H59.0908ZM59.0908 260.589V258.319H56.7578V260.589H59.0908ZM59.0908 257.184V254.914H56.7578V257.184H59.0908ZM59.0908 253.779V251.509H56.7578V253.779H59.0908ZM59.0908 250.374V248.104H56.7578V250.374H59.0908ZM59.0908 246.969V244.698H56.7578V246.969H59.0908ZM59.0908 243.563V241.293H56.7578V243.563H59.0908ZM59.0908 240.158V237.888H56.7578V240.158H59.0908ZM59.0908 236.753V234.483H56.7578V236.753H59.0908Z" fill="white"/>
<path d="M59.0908 233.334V232.168H56.7578V233.334" fill="white"/>
<path d="M65.3975 261.368V260.202H63.0645V261.368" fill="white"/>
<path d="M65.3975 258.99V256.657H63.0645V258.99H65.3975ZM65.3975 255.491V253.158H63.0645V255.491H65.3975ZM65.3975 251.991V249.658H63.0645V251.991H65.3975Z" fill="white"/>
<path d="M65.3975 248.509V247.343H63.0645V248.509" fill="white"/>
<path d="M78.0108 261.368V260.202H75.6777V261.368" fill="white"/>
<path d="M78.0108 258.99V256.657H75.6777V258.99H78.0108ZM78.0108 255.491V253.158H75.6777V255.491H78.0108ZM78.0108 251.991V249.658H75.6777V251.991H78.0108Z" fill="white"/>
<path d="M78.0108 248.509V247.343H75.6777V248.509" fill="white"/>
<path d="M84.3174 272.994V270.661H81.9844V272.994H84.3174ZM84.3174 269.495V267.162H81.9844V269.495H84.3174ZM84.3174 265.995V263.662H81.9844V265.995H84.3174ZM84.3174 262.496V260.163H81.9844V262.496H84.3174ZM84.3174 258.996V256.663H81.9844V258.996H84.3174ZM84.3174 255.496V253.163H81.9844V255.496H84.3174ZM84.3174 251.997V249.664H81.9844V251.997H84.3174ZM84.3174 248.497V246.164H81.9844V248.497H84.3174ZM84.3174 244.998V242.665H81.9844V244.998H84.3174ZM84.3174 241.498V239.165H81.9844V241.498H84.3174ZM84.3174 237.999V235.666H81.9844V237.999H84.3174Z" fill="white"/>
<path d="M84.3174 234.517V233.35H81.9844V234.517" fill="white"/>
<path d="M128.464 257.87V256.704H126.131V257.87" fill="white"/>
<path d="M128.464 253.206H126.131V255.539H128.464V253.206Z" fill="white"/>
<path d="M128.464 252.007V250.841H126.131V252.007" fill="white"/>
<path d="M134.769 261.368V260.202H132.436V261.368" fill="white"/>
<path d="M134.769 258.99V256.657H132.436V258.99H134.769ZM134.769 255.491V253.158H132.436V255.491H134.769ZM134.769 251.991V249.658H132.436V251.991H134.769Z" fill="white"/>
<path d="M134.769 248.509V247.343H132.436V248.509" fill="white"/>
<path d="M138.742 253.206V254.372H141.075V253.206" fill="white"/>
<path d="M138.742 254.339V255.505H141.075V254.339" fill="white"/>
<path d="M90.624 290.499V288.166H88.291V290.499H90.624ZM90.624 287V284.667H88.291V287H90.624ZM90.624 283.5V281.167H88.291V283.5H90.624ZM90.624 280.001V277.668H88.291V280.001H90.624ZM90.624 276.501V274.168H88.291V276.501H90.624ZM90.624 273.001V270.668H88.291V273.001H90.624ZM90.624 269.502V267.169H88.291V269.502H90.624ZM90.624 266.002V263.669H88.291V266.002H90.624ZM90.624 262.503V260.17H88.291V262.503H90.624ZM90.624 259.003V256.67H88.291V259.003H90.624ZM90.624 255.504V253.171H88.291V255.504H90.624ZM90.624 252.004V249.671H88.291V252.004H90.624ZM90.624 248.505V246.172H88.291V248.505H90.624ZM90.624 245.005V242.672H88.291V245.005H90.624ZM90.624 241.505V239.172H88.291V241.505H90.624ZM90.624 238.006V235.673H88.291V238.006H90.624ZM90.624 234.506V232.173H88.291V234.506H90.624ZM90.624 231.007V228.674H88.291V231.007H90.624ZM90.624 227.507V225.174H88.291V227.507H90.624ZM90.624 224.008V221.675H88.291V224.008H90.624ZM90.624 220.508V218.175H88.291V220.508H90.624Z" fill="white"/>
<path d="M90.624 217.026V215.859H88.291V217.026" fill="white"/>
<path d="M96.9307 267.236V264.997H94.5977V267.236H96.9307ZM96.9307 263.877V261.637H94.5977V263.877H96.9307ZM96.9307 260.517V258.277H94.5977V260.517H96.9307ZM96.9307 257.158V254.918H94.5977V257.158H96.9307ZM96.9307 253.798V251.558H94.5977V253.798H96.9307ZM96.9307 250.438V248.199H94.5977V250.438H96.9307ZM96.9307 247.079V244.839H94.5977V247.079H96.9307ZM96.9307 243.719V241.479H94.5977V243.719H96.9307Z" fill="white"/>
<path d="M96.9307 240.33V239.164H94.5977V240.33" fill="white"/>
<path d="M103.237 261.368V260.202H100.904V261.368" fill="white"/>
<path d="M103.237 258.99V256.657H100.904V258.99H103.237ZM103.237 255.491V253.158H100.904V255.491H103.237ZM103.237 251.991V249.658H100.904V251.991H103.237Z" fill="white"/>
<path d="M103.237 248.509V247.343H100.904V248.509" fill="white"/>
<path d="M109.544 257.87V256.704H107.211V257.87" fill="white"/>
<path d="M109.544 253.206H107.211V255.539H109.544V253.206Z" fill="white"/>
<path d="M109.544 252.007V250.841H107.211V252.007" fill="white"/>
<path d="M147.382 261.368V260.202H145.049V261.368" fill="white"/>
<path d="M147.382 258.99V256.657H145.049V258.99H147.382ZM147.382 255.491V253.158H145.049V255.491H147.382ZM147.382 251.991V249.658H145.049V251.991H147.382Z" fill="white"/>
<path d="M147.382 248.509V247.343H145.049V248.509" fill="white"/>
<path d="M153.689 272.994V270.661H151.355V272.994H153.689ZM153.689 269.495V267.162H151.355V269.495H153.689ZM153.689 265.995V263.662H151.355V265.995H153.689ZM153.689 262.496V260.163H151.355V262.496H153.689ZM153.689 258.996V256.663H151.355V258.996H153.689ZM153.689 255.496V253.163H151.355V255.496H153.689ZM153.689 251.997V249.664H151.355V251.997H153.689ZM153.689 248.497V246.164H151.355V248.497H153.689ZM153.689 244.998V242.665H151.355V244.998H153.689ZM153.689 241.498V239.165H151.355V241.498H153.689ZM153.689 237.999V235.666H151.355V237.999H153.689Z" fill="white"/>
<path d="M153.689 234.517V233.35H151.355V234.517" fill="white"/>
<path d="M159.995 262.502V261.335H157.662V262.502" fill="white"/>
<path d="M159.995 260.271V258.118H157.662V260.271H159.995ZM159.995 257.041V254.888H157.662V257.041H159.995ZM159.995 253.811V251.658H157.662V253.811H159.995ZM159.995 250.58V248.427H157.662V250.58H159.995Z" fill="white"/>
<path d="M159.995 247.327V246.16H157.662V247.327" fill="white"/>
<path d="M166.302 267.236V264.997H163.969V267.236H166.302ZM166.302 263.877V261.637H163.969V263.877H166.302ZM166.302 260.517V258.277H163.969V260.517H166.302ZM166.302 257.158V254.918H163.969V257.158H166.302ZM166.302 253.798V251.558H163.969V253.798H166.302ZM166.302 250.438V248.199H163.969V250.438H166.302ZM166.302 247.079V244.839H163.969V247.079H166.302ZM166.302 243.719V241.479H163.969V243.719H166.302Z" fill="white"/>
<path d="M166.302 240.33V239.164H163.969V240.33" fill="white"/>
<path d="M172.608 261.368V260.202H170.275V261.368" fill="white"/>
<path d="M172.608 258.99V256.657H170.275V258.99H172.608ZM172.608 255.491V253.158H170.275V255.491H172.608ZM172.608 251.991V249.658H170.275V251.991H172.608Z" fill="white"/>
<path d="M172.608 248.509V247.343H170.275V248.509" fill="white"/>
<path d="M178.915 257.87V256.704H176.582V257.87" fill="white"/>
<path d="M178.915 253.206H176.582V255.539H178.915V253.206Z" fill="white"/>
<path d="M178.915 252.007V250.841H176.582V252.007" fill="white"/>
<path d="M115.851 272.994V270.661H113.518V272.994H115.851ZM115.851 269.495V267.162H113.518V269.495H115.851ZM115.851 265.995V263.662H113.518V265.995H115.851ZM115.851 262.496V260.163H113.518V262.496H115.851ZM115.851 258.996V256.663H113.518V258.996H115.851ZM115.851 255.496V253.163H113.518V255.496H115.851ZM115.851 251.997V249.664H113.518V251.997H115.851ZM115.851 248.497V246.164H113.518V248.497H115.851ZM115.851 244.998V242.665H113.518V244.998H115.851ZM115.851 241.498V239.165H113.518V241.498H115.851ZM115.851 237.999V235.666H113.518V237.999H115.851Z" fill="white"/>
<path d="M115.851 234.517V233.35H113.518V234.517" fill="white"/>
<path d="M122.157 263.684V262.518H119.824V263.684" fill="white"/>
<path d="M122.157 261.26V258.747H119.824V261.26H122.157ZM122.157 257.491V254.978H119.824V257.491H122.157ZM122.157 253.722V251.209H119.824V253.722H122.157ZM122.157 249.954V247.441H119.824V249.954H122.157Z" fill="white"/>
<path d="M122.157 246.193V245.027H119.824V246.193" fill="white"/>
<path d="M184.465 241.529V242.695H186.798V241.529" fill="white"/>
<path d="M184.465 243.894V246.349H186.798V243.894H184.465ZM184.465 247.578V250.033H186.798V247.578H184.465ZM184.465 251.26V253.717H186.798V251.26H184.465ZM184.465 254.944V257.401H186.798V254.944H184.465ZM184.465 258.628V261.085H186.798V258.628H184.465ZM184.465 262.312V264.767H186.798V262.312H184.465Z" fill="white"/>
<path d="M193.105 259.004V257.837H190.771V259.004" fill="white"/>
<path d="M193.105 256.826V254.825H190.771V256.826H193.105ZM193.105 253.826V251.826H190.771V253.826H193.105Z" fill="white"/>
<path d="M193.105 250.825V249.658H190.771V250.825" fill="white"/>
<path d="M199.411 257.87V256.704H197.078V257.87" fill="white"/>
<path d="M199.411 253.206H197.078V255.539H199.411V253.206Z" fill="white"/>
<path d="M199.411 252.007V250.841H197.078V252.007" fill="white"/>
<path d="M256.167 263.766V261.555H253.834V263.766H256.167ZM256.167 260.45V258.24H253.834V260.45H256.167ZM256.167 257.135V254.925H253.834V257.135H256.167ZM256.167 253.819V251.609H253.834V253.819H256.167ZM256.167 250.503V248.294H253.834V250.503H256.167ZM256.167 247.188V244.978H253.834V247.188H256.167Z" fill="white"/>
<path d="M256.167 243.829V242.662H253.834V243.829" fill="white"/>
<path d="M205.718 256.688V255.521H203.385V256.688" fill="white"/>
<path d="M205.718 253.19V252.023H203.385V253.19" fill="white"/>
<path d="M212.024 265.36V263.154H209.691V265.36H212.024ZM212.024 262.052V259.846H209.691V262.052H212.024ZM212.024 258.743V256.537H209.691V258.743H212.024ZM212.024 255.434V253.228H209.691V255.434H212.024ZM212.024 252.126V249.92H209.691V252.126H212.024ZM212.024 248.817V246.611H209.691V248.817H212.024ZM212.024 245.508V243.302H209.691V245.508H212.024Z" fill="white"/>
<path d="M212.024 242.203V241.036H209.691V242.203" fill="white"/>
<path d="M218.331 278.841V276.453H215.998V278.841H218.331ZM218.331 275.26V272.872H215.998V275.26H218.331ZM218.331 271.679V269.292H215.998V271.679H218.331ZM218.331 268.098V265.711H215.998V268.098H218.331ZM218.331 264.518V262.13H215.998V264.518H218.331ZM218.331 260.936V258.549H215.998V260.936H218.331ZM218.331 257.355V254.967H215.998V257.355H218.331ZM218.331 253.774V251.387H215.998V253.774H218.331ZM218.331 250.193V247.806H215.998V250.193H218.331ZM218.331 246.613V244.225H215.998V246.613H218.331ZM218.331 243.031V240.644H215.998V243.031H218.331ZM218.331 239.45V237.064H215.998V239.45H218.331ZM218.331 235.869V233.482H215.998V235.869H218.331ZM218.331 232.289V229.901H215.998V232.289H218.331Z" fill="white"/>
<path d="M218.331 228.703V227.536H215.998V228.703" fill="white"/>
<path d="M224.638 267.236V264.997H222.305V267.236H224.638ZM224.638 263.877V261.637H222.305V263.877H224.638ZM224.638 260.517V258.277H222.305V260.517H224.638ZM224.638 257.158V254.918H222.305V257.158H224.638ZM224.638 253.798V251.558H222.305V253.798H224.638ZM224.638 250.438V248.199H222.305V250.438H224.638ZM224.638 247.079V244.839H222.305V247.079H224.638ZM224.638 243.719V241.479H222.305V243.719H224.638Z" fill="white"/>
<path d="M224.638 240.33V239.164H222.305V240.33" fill="white"/>
<path d="M230.944 274.208V271.938H228.611V274.208H230.944ZM230.944 270.803V268.533H228.611V270.803H230.944ZM230.944 267.398V265.129H228.611V267.398H230.944ZM230.944 263.994V261.724H228.611V263.994H230.944ZM230.944 260.589V258.319H228.611V260.589H230.944ZM230.944 257.184V254.914H228.611V257.184H230.944ZM230.944 253.779V251.509H228.611V253.779H230.944ZM230.944 250.374V248.104H228.611V250.374H230.944ZM230.944 246.969V244.698H228.611V246.969H230.944ZM230.944 243.563V241.293H228.611V243.563H230.944ZM230.944 240.158V237.888H228.611V240.158H230.944ZM230.944 236.753V234.483H228.611V236.753H230.944Z" fill="white"/>
<path d="M230.944 233.334V232.168H228.611V233.334" fill="white"/>
<path d="M237.251 290.499V288.166H234.918V290.499H237.251ZM237.251 287V284.667H234.918V287H237.251ZM237.251 283.5V281.167H234.918V283.5H237.251ZM237.251 280.001V277.668H234.918V280.001H237.251ZM237.251 276.501V274.168H234.918V276.501H237.251ZM237.251 273.001V270.668H234.918V273.001H237.251ZM237.251 269.502V267.169H234.918V269.502H237.251ZM237.251 266.002V263.669H234.918V266.002H237.251ZM237.251 262.503V260.17H234.918V262.503H237.251ZM237.251 259.003V256.67H234.918V259.003H237.251ZM237.251 255.504V253.171H234.918V255.504H237.251ZM237.251 252.004V249.671H234.918V252.004H237.251ZM237.251 248.505V246.172H234.918V248.505H237.251ZM237.251 245.005V242.672H234.918V245.005H237.251ZM237.251 241.505V239.172H234.918V241.505H237.251ZM237.251 238.006V235.673H234.918V238.006H237.251ZM237.251 234.506V232.173H234.918V234.506H237.251ZM237.251 231.007V228.674H234.918V231.007H237.251ZM237.251 227.507V225.174H234.918V227.507H237.251ZM237.251 224.008V221.675H234.918V224.008H237.251ZM237.251 220.508V218.175H234.918V220.508H237.251Z" fill="white"/>
<path d="M237.251 217.026V215.859H234.918V217.026" fill="white"/>
<path d="M243.556 285.804V283.429H241.223V285.804H243.556ZM243.556 282.242V279.867H241.223V282.242H243.556ZM243.556 278.679V276.303H241.223V278.679H243.556ZM243.556 275.116V272.739H241.223V275.116H243.556ZM243.556 271.552V269.177H241.223V271.552H243.556ZM243.556 267.989V265.613H241.223V267.989H243.556ZM243.556 264.426V262.051H241.223V264.426H243.556ZM243.556 260.863V258.487H241.223V260.863H243.556ZM243.556 257.299V254.924H241.223V257.299H243.556ZM243.556 253.737V251.361H241.223V253.737H243.556ZM243.556 250.173V247.798H241.223V250.173H243.556ZM243.556 246.611V244.234H241.223V246.611H243.556ZM243.556 243.047V240.672H241.223V243.047H243.556ZM243.556 239.483V237.108H241.223V239.483H243.556ZM243.556 235.921V233.546H241.223V235.921H243.556ZM243.556 232.357V229.982H241.223V232.357H243.556ZM243.556 228.794V226.418H241.223V228.794H243.556ZM243.556 225.231V222.856H241.223V225.231H243.556Z" fill="white"/>
<path d="M243.556 221.706V220.54H241.223V221.706" fill="white"/>
<path d="M249.862 278.841V276.453H247.529V278.841H249.862ZM249.862 275.26V272.872H247.529V275.26H249.862ZM249.862 271.679V269.292H247.529V271.679H249.862ZM249.862 268.098V265.711H247.529V268.098H249.862ZM249.862 264.516V262.13H247.529V264.516H249.862ZM249.862 260.936V258.549H247.529V260.936H249.862ZM249.862 257.355V254.967H247.529V257.355H249.862ZM249.862 253.774V251.387H247.529V253.774H249.862ZM249.862 250.193V247.806H247.529V250.193H249.862ZM249.862 246.613V244.225H247.529V246.613H249.862ZM249.862 243.031V240.644H247.529V243.031H249.862ZM249.862 239.45V237.064H247.529V239.45H249.862ZM249.862 235.869V233.482H247.529V235.869H249.862ZM249.862 232.289V229.901H247.529V232.289H249.862Z" fill="white"/>
<path d="M249.862 228.703V227.536H247.529V228.703" fill="white"/>
<path d="M262.476 285.804V283.429H260.143V285.804H262.476ZM262.476 282.242V279.867H260.143V282.242H262.476ZM262.476 278.679V276.303H260.143V278.679H262.476ZM262.476 275.116V272.739H260.143V275.116H262.476ZM262.476 271.552V269.177H260.143V271.552H262.476ZM262.476 267.989V265.613H260.143V267.989H262.476ZM262.476 264.426V262.051H260.143V264.426H262.476ZM262.476 260.863V258.487H260.143V260.863H262.476ZM262.476 257.299V254.924H260.143V257.299H262.476ZM262.476 253.737V251.361H260.143V253.737H262.476ZM262.476 250.173V247.798H260.143V250.173H262.476ZM262.476 246.611V244.234H260.143V246.611H262.476ZM262.476 243.047V240.672H260.143V243.047H262.476ZM262.476 239.483V237.108H260.143V239.483H262.476ZM262.476 235.921V233.546H260.143V235.921H262.476ZM262.476 232.357V229.982H260.143V232.357H262.476ZM262.476 228.794V226.418H260.143V228.794H262.476ZM262.476 225.231V222.856H260.143V225.231H262.476Z" fill="white"/>
<path d="M262.476 221.706V220.54H260.143V221.706" fill="white"/>
<path d="M268.78 298.681V296.377H266.447V298.681H268.78ZM268.78 295.226V292.922H266.447V295.226H268.78ZM268.78 291.771V289.467H266.447V291.771H268.78ZM268.78 288.315V286.011H266.447V288.315H268.78ZM268.78 284.86V282.556H266.447V284.86H268.78ZM268.78 281.405V279.101H266.447V281.405H268.78ZM268.78 277.95V275.646H266.447V277.95H268.78ZM268.78 274.494V272.19H266.447V274.494H268.78ZM268.78 271.039V268.735H266.447V271.039H268.78ZM268.78 267.584V265.28H266.447V267.584H268.78ZM268.78 264.128V261.825H266.447V264.128H268.78ZM268.78 260.672V258.37H266.447V260.672H268.78ZM268.78 257.217V254.914H266.447V257.217H268.78ZM268.78 253.762V251.459H266.447V253.762H268.78ZM268.78 250.307V248.004H266.447V250.307H268.78ZM268.78 246.851V244.549H266.447V246.851H268.78ZM268.78 243.396V241.093H266.447V243.396H268.78ZM268.78 239.941V237.638H266.447V239.941H268.78ZM268.78 236.486V234.183H266.447V236.486H268.78ZM268.78 233.03V230.728H266.447V233.03H268.78ZM268.78 229.575V227.272H266.447V229.575H268.78ZM268.78 226.12V223.817H266.447V226.12H268.78ZM268.78 222.665V220.362H266.447V222.665H268.78ZM268.78 219.21V216.907H266.447V219.21H268.78ZM268.78 215.754V213.452H266.447V215.754H268.78ZM268.78 212.299V209.996H266.447V212.299H268.78Z" fill="white"/>
<path d="M268.78 208.847V207.681H266.447V208.847" fill="white"/>
<path d="M312.929 257.87V256.704H310.596V257.87" fill="white"/>
<path d="M312.929 253.206H310.596V255.539H312.929V253.206Z" fill="white"/>
<path d="M312.929 252.007V250.841H310.596V252.007" fill="white"/>
<path d="M319.235 261.368V260.202H316.902V261.368" fill="white"/>
<path d="M319.235 258.99V256.657H316.902V258.99H319.235ZM319.235 255.491V253.158H316.902V255.491H319.235ZM319.235 251.991V249.658H316.902V251.991H319.235Z" fill="white"/>
<path d="M319.235 248.509V247.343H316.902V248.509" fill="white"/>
<path d="M323.207 253.206V254.372H325.54V253.206" fill="white"/>
<path d="M323.207 254.339V255.505H325.54V254.339" fill="white"/>
<path d="M275.087 316.178V313.866H272.754V316.178H275.087ZM275.087 312.71V310.399H272.754V312.71H275.087ZM275.087 309.243V306.931H272.754V309.243H275.087ZM275.087 305.775V303.464H272.754V305.775H275.087ZM275.087 302.308V299.996H272.754V302.308H275.087ZM275.087 298.84V296.529H272.754V298.84H275.087ZM275.087 295.373V293.061H272.754V295.373H275.087ZM275.087 291.905V289.594H272.754V291.905H275.087ZM275.087 288.438V286.126H272.754V288.438H275.087ZM275.087 284.971V282.659H272.754V284.971H275.087ZM275.087 281.503V279.191H272.754V281.503H275.087ZM275.087 278.037V275.724H272.754V278.037H275.087ZM275.087 274.568V272.256H272.754V274.568H275.087ZM275.087 271.101V268.789H272.754V271.101H275.087ZM275.087 267.633V265.321H272.754V267.633H275.087ZM275.087 264.166V261.854H272.754V264.166H275.087ZM275.087 260.698V258.387H272.754V260.698H275.087ZM275.087 257.231V254.919H272.754V257.231H275.087ZM275.087 253.763V251.452H272.754V253.763H275.087ZM275.087 250.296V247.984H272.754V250.296H275.087ZM275.087 246.828V244.517H272.754V246.828H275.087ZM275.087 243.361V241.049H272.754V243.361H275.087ZM275.087 239.893V237.582H272.754V239.893H275.087ZM275.087 236.426V234.114H272.754V236.426H275.087ZM275.087 232.958V230.647H272.754V232.958H275.087ZM275.087 229.491V227.179H272.754V229.491H275.087ZM275.087 226.023V223.712H272.754V226.023H275.087ZM275.087 222.556V220.244H272.754V222.556H275.087ZM275.087 219.089V216.777H272.754V219.089H275.087ZM275.087 215.621V213.309H272.754V215.621H275.087ZM275.087 212.154V209.842H272.754V212.154H275.087ZM275.087 208.686V206.374H272.754V208.686H275.087ZM275.087 205.219V202.907H272.754V205.219H275.087ZM275.087 201.751V199.441H272.754V201.751H275.087ZM275.087 198.285V195.973H272.754V198.285H275.087ZM275.087 194.816V192.506H272.754V194.816H275.087Z" fill="white"/>
<path d="M275.087 191.356V190.19H272.754V191.356" fill="white"/>
<path d="M281.394 285.804V283.429H279.061V285.804H281.394ZM281.394 282.242V279.867H279.061V282.242H281.394ZM281.394 278.679V276.303H279.061V278.679H281.394ZM281.394 275.116V272.739H279.061V275.116H281.394ZM281.394 271.552V269.177H279.061V271.552H281.394ZM281.394 267.989V265.613H279.061V267.989H281.394ZM281.394 264.426V262.051H279.061V264.426H281.394ZM281.394 260.863V258.487H279.061V260.863H281.394ZM281.394 257.299V254.924H279.061V257.299H281.394ZM281.394 253.737V251.361H279.061V253.737H281.394ZM281.394 250.173V247.798H279.061V250.173H281.394ZM281.394 246.611V244.234H279.061V246.611H281.394ZM281.394 243.047V240.672H279.061V243.047H281.394ZM281.394 239.483V237.108H279.061V239.483H281.394ZM281.394 235.921V233.546H279.061V235.921H281.394ZM281.394 232.357V229.982H279.061V232.357H281.394ZM281.394 228.794V226.418H279.061V228.794H281.394ZM281.394 225.231V222.856H279.061V225.231H281.394Z" fill="white"/>
<path d="M281.394 221.706V220.54H279.061V221.706" fill="white"/>
<path d="M287.7 272.994V270.661H285.367V272.994H287.7ZM287.7 269.495V267.162H285.367V269.495H287.7ZM287.7 265.995V263.662H285.367V265.995H287.7ZM287.7 262.496V260.163H285.367V262.496H287.7ZM287.7 258.996V256.663H285.367V258.996H287.7ZM287.7 255.496V253.163H285.367V255.496H287.7ZM287.7 251.997V249.664H285.367V251.997H287.7ZM287.7 248.497V246.164H285.367V248.497H287.7ZM287.7 244.998V242.665H285.367V244.998H287.7ZM287.7 241.498V239.165H285.367V241.498H287.7ZM287.7 237.999V235.666H285.367V237.999H287.7Z" fill="white"/>
<path d="M287.7 234.517V233.35H285.367V234.517" fill="white"/>
<path d="M294.007 263.684V262.518H291.674V263.684" fill="white"/>
<path d="M294.007 261.26V258.747H291.674V261.26H294.007ZM294.007 257.491V254.978H291.674V257.491H294.007ZM294.007 253.722V251.209H291.674V253.722H294.007ZM294.007 249.954V247.441H291.674V249.954H294.007Z" fill="white"/>
<path d="M294.007 246.193V245.027H291.674V246.193" fill="white"/>
<path d="M331.847 261.368V260.202H329.514V261.368" fill="white"/>
<path d="M331.847 258.99V256.657H329.514V258.99H331.847ZM331.847 255.491V253.158H329.514V255.491H331.847ZM331.847 251.991V249.658H329.514V251.991H331.847Z" fill="white"/>
<path d="M331.847 248.509V247.343H329.514V248.509" fill="white"/>
<path d="M338.153 272.994V270.661H335.82V272.994H338.153ZM338.153 269.495V267.162H335.82V269.495H338.153ZM338.153 265.995V263.662H335.82V265.995H338.153ZM338.153 262.496V260.163H335.82V262.496H338.153ZM338.153 258.996V256.663H335.82V258.996H338.153ZM338.153 255.496V253.163H335.82V255.496H338.153ZM338.153 251.997V249.664H335.82V251.997H338.153ZM338.153 248.497V246.164H335.82V248.497H338.153ZM338.153 244.998V242.665H335.82V244.998H338.153ZM338.153 241.498V239.165H335.82V241.498H338.153ZM338.153 237.999V235.666H335.82V237.999H338.153Z" fill="white"/>
<path d="M338.153 234.517V233.35H335.82V234.517" fill="white"/>
<path d="M344.46 262.502V261.335H342.127V262.502" fill="white"/>
<path d="M344.46 260.271V258.118H342.127V260.271H344.46ZM344.46 257.041V254.888H342.127V257.041H344.46ZM344.46 253.811V251.658H342.127V253.811H344.46ZM344.46 250.58V248.427H342.127V250.58H344.46Z" fill="white"/>
<path d="M344.46 247.327V246.16H342.127V247.327" fill="white"/>
<path d="M350.767 267.236V264.997H348.434V267.236H350.767ZM350.767 263.877V261.637H348.434V263.877H350.767ZM350.767 260.517V258.277H348.434V260.517H350.767ZM350.767 257.158V254.918H348.434V257.158H350.767ZM350.767 253.798V251.558H348.434V253.798H350.767ZM350.767 250.438V248.199H348.434V250.438H350.767ZM350.767 247.079V244.839H348.434V247.079H350.767ZM350.767 243.719V241.479H348.434V243.719H350.767Z" fill="white"/>
<path d="M350.767 240.33V239.164H348.434V240.33" fill="white"/>
<path d="M357.073 261.368V260.202H354.74V261.368" fill="white"/>
<path d="M357.073 258.99V256.657H354.74V258.99H357.073ZM357.073 255.491V253.158H354.74V255.491H357.073ZM357.073 251.991V249.658H354.74V251.991H357.073Z" fill="white"/>
<path d="M357.073 248.509V247.343H354.74V248.509" fill="white"/>
<path d="M300.313 272.994V270.661H297.98V272.994H300.313ZM300.313 269.495V267.162H297.98V269.495H300.313ZM300.313 265.995V263.662H297.98V265.995H300.313ZM300.313 262.496V260.163H297.98V262.496H300.313ZM300.313 258.996V256.663H297.98V258.996H300.313ZM300.313 255.496V253.163H297.98V255.496H300.313ZM300.313 251.997V249.664H297.98V251.997H300.313ZM300.313 248.497V246.164H297.98V248.497H300.313ZM300.313 244.998V242.665H297.98V244.998H300.313ZM300.313 241.498V239.165H297.98V241.498H300.313ZM300.313 237.999V235.666H297.98V237.999H300.313Z" fill="white"/>
<path d="M300.313 234.517V233.35H297.98V234.517" fill="white"/>
<path d="M306.62 263.684V262.518H304.287V263.684" fill="white"/>
<path d="M306.62 261.26V258.747H304.287V261.26H306.62ZM306.62 257.491V254.978H304.287V257.491H306.62ZM306.62 253.722V251.209H304.287V253.722H306.62ZM306.62 249.954V247.441H304.287V249.954H306.62Z" fill="white"/>
<path d="M306.62 246.193V245.027H304.287V246.193" fill="white"/>
</g>
<g opacity="0.2">
<path d="M231.498 152.197C231.498 149.306 229.685 146.662 226.989 145.621C226.945 145.604 226.9 145.609 226.856 145.598V139.196C226.856 125.555 215.759 114.458 202.119 114.458C188.478 114.458 177.381 125.555 177.381 139.196V145.402C174.315 146.206 172.117 148.993 172.117 152.197C172.117 155.431 174.274 158.19 177.381 159.001V167.751C177.381 172.032 180.863 175.513 185.143 175.513H219.094C223.375 175.513 226.856 172.032 226.856 167.751V158.802C229.621 157.801 231.498 155.208 231.498 152.197ZM202.119 116.563C212.773 116.563 221.709 123.973 224.101 133.904C221.803 131.038 218.279 129.196 214.329 129.196H202.645V122.88C202.645 122.298 202.174 121.827 201.592 121.827C201.01 121.827 200.54 122.298 200.54 122.88V129.196H189.908C185.958 129.196 182.435 131.038 180.137 133.904C182.529 123.973 191.464 116.563 202.119 116.563ZM174.223 152.197C174.223 150.137 175.512 148.315 177.381 147.589V156.799C175.494 156.073 174.223 154.276 174.223 152.197ZM219.094 173.408H185.143C182.024 173.408 179.486 170.869 179.486 167.75V141.723C179.486 135.976 184.162 131.301 189.908 131.301H214.329C220.076 131.301 224.751 135.976 224.751 141.723V157.524C224.666 157.884 224.167 159.63 222.219 161.549C219.674 164.053 215.867 165.489 211.775 165.489H209.024V164.939C209.024 163.198 207.607 161.781 205.866 161.781H198.952C197.211 161.781 195.794 163.198 195.794 164.939V166.039H195.276C193.535 166.039 192.118 164.622 192.118 162.881C192.118 162.299 191.647 161.828 191.066 161.828C190.484 161.828 190.013 162.299 190.013 162.881C190.013 165.783 192.374 168.144 195.276 168.144H195.794C195.794 169.886 197.211 171.302 198.952 171.302H205.866C207.607 171.302 209.024 169.886 209.024 168.144V167.594H211.775C216.415 167.594 220.76 165.938 223.695 163.049C224.101 162.65 224.441 162.258 224.751 161.874V167.75C224.751 170.869 222.213 173.408 219.094 173.408ZM206.918 164.939V168.144C206.918 168.725 206.446 169.197 205.866 169.197H198.952C198.371 169.197 197.9 168.725 197.9 168.144V164.939C197.9 164.358 198.371 163.886 198.952 163.886H205.866C206.446 163.886 206.918 164.358 206.918 164.939ZM226.856 156.502V147.884C228.396 148.748 229.393 150.402 229.393 152.197C229.392 154.035 228.392 155.649 226.856 156.502Z" fill="white" stroke="white" stroke-miterlimit="2" stroke-linejoin="round"/>
<path d="M195.724 152.34C195.724 149.221 193.187 146.684 190.068 146.684C186.95 146.684 184.412 149.221 184.412 152.34C184.412 155.458 186.95 157.995 190.068 157.995C193.187 157.995 195.724 155.458 195.724 152.34ZM186.517 152.34C186.517 150.382 188.11 148.789 190.068 148.789C192.026 148.789 193.619 150.382 193.619 152.34C193.619 154.297 192.026 155.89 190.068 155.89C188.11 155.89 186.517 154.297 186.517 152.34Z" fill="white" stroke="white" stroke-miterlimit="2" stroke-linejoin="round"/>
<path d="M214.136 157.995C217.255 157.995 219.792 155.458 219.792 152.34C219.792 149.221 217.255 146.684 214.136 146.684C211.018 146.684 208.48 149.221 208.48 152.34C208.48 155.458 211.018 157.995 214.136 157.995ZM214.136 148.789C216.095 148.789 217.687 150.382 217.687 152.34C217.687 154.297 216.095 155.89 214.136 155.89C212.178 155.89 210.586 154.297 210.586 152.34C210.586 150.382 212.178 148.789 214.136 148.789Z" fill="white" stroke="white" stroke-miterlimit="2" stroke-linejoin="round"/>
</g>
</svg>
