<svg width="20" height="22" viewBox="0 0 20 22" fill="none" xmlns="http://www.w3.org/2000/svg">
<path d="M10.0851 22L6.97396 18.8889H2.64063C2.08507 18.8889 1.61285 18.6944 1.22396 18.3056C0.83507 17.9167 0.640625 17.4444 0.640625 16.8889V2C0.640625 1.44444 0.83507 0.972222 1.22396 0.583333C1.61285 0.194445 2.08507 0 2.64063 0H17.5295C18.0851 0 18.5573 0.194445 18.9462 0.583333C19.3351 0.972222 19.5295 1.44444 19.5295 2V16.8889C19.5295 17.4444 19.3351 17.9167 18.9462 18.3056C18.5573 18.6944 18.0851 18.8889 17.5295 18.8889H13.1962L10.0851 22ZM2.64063 17.2222H7.6684L10.0851 19.6389L12.5017 17.2222H17.5295C17.6221 17.2222 17.701 17.19 17.7662 17.1256C17.8306 17.0604 17.8628 16.9815 17.8628 16.8889V2C17.8628 1.90741 17.8306 1.82852 17.7662 1.76333C17.701 1.69889 17.6221 1.66667 17.5295 1.66667H2.64063C2.54803 1.66667 2.46951 1.69889 2.40507 1.76333C2.33988 1.82852 2.30729 1.90741 2.30729 2V16.8889C2.30729 16.9815 2.33988 17.0604 2.40507 17.1256C2.46951 17.19 2.54803 17.2222 2.64063 17.2222ZM10.0851 15.5C10.3999 15.5 10.664 15.3889 10.8773 15.1667C11.0899 14.9444 11.1962 14.6759 11.1962 14.3611C11.1962 14.0463 11.0899 13.7778 10.8773 13.5556C10.664 13.3333 10.3999 13.2222 10.0851 13.2222C9.75174 13.2222 9.47877 13.3333 9.26618 13.5556C9.05285 13.7778 8.94618 14.0463 8.94618 14.3611C8.94618 14.6759 9.05285 14.9444 9.26618 15.1667C9.47877 15.3889 9.75174 15.5 10.0851 15.5ZM10.8628 11.5278C10.8628 10.9352 10.9417 10.4859 11.0995 10.18C11.2566 9.87481 11.5666 9.49074 12.0295 9.02778C12.6036 8.4537 13.0203 7.95815 13.2795 7.54111C13.5388 7.12481 13.6684 6.64815 13.6684 6.11111C13.6684 5.18519 13.3536 4.43963 12.724 3.87444C12.0943 3.31 11.2795 3.02778 10.2795 3.02778C9.37211 3.02778 8.59914 3.25926 7.96063 3.72222C7.32137 4.18519 6.86285 4.78704 6.58507 5.52778L8.02951 6.11111C8.17766 5.62963 8.43692 5.24074 8.80729 4.94444C9.17766 4.64815 9.64063 4.5 10.1962 4.5C10.7888 4.5 11.2566 4.66222 11.5995 4.98667C11.9417 5.31037 12.1128 5.7037 12.1128 6.16667C12.1128 6.51852 12.011 6.8563 11.8073 7.18C11.6036 7.50444 11.2888 7.86111 10.8628 8.25C10.2517 8.80556 9.83507 9.31482 9.61285 9.77778C9.39062 10.2407 9.27951 10.8241 9.27951 11.5278H10.8628Z" fill="#5287C0"/>
</svg>
