<svg width="23" height="23" viewBox="0 0 23 23" fill="none" xmlns="http://www.w3.org/2000/svg">
<g clip-path="url(#clip0)">
<path d="M15.1865 12.6374H1.317C0.920999 12.6374 0.599609 12.316 0.599609 11.92C0.599609 11.524 0.920999 11.2026 1.317 11.2026H15.1865C15.5825 11.2026 15.9039 11.524 15.9039 11.92C15.9039 12.316 15.5825 12.6374 15.1865 12.6374Z" fill="#5287C0"/>
<path d="M11.3617 16.4635C11.178 16.4635 10.9945 16.3938 10.8547 16.2531C10.5745 15.9729 10.5745 15.5186 10.8547 15.2382L14.1739 11.9192L10.8547 8.60002C10.5745 8.31978 10.5745 7.86528 10.8547 7.58505C11.1351 7.30482 11.5894 7.30482 11.8697 7.58505L15.6957 11.4113C15.9759 11.6915 15.9759 12.1458 15.6957 12.4261L11.8697 16.2521C11.729 16.3938 11.5455 16.4635 11.3617 16.4635Z" fill="#5287C0"/>
<path d="M12.0774 22.4418C7.72414 22.4418 3.88095 19.8229 2.28451 15.769C2.13914 15.4017 2.32076 14.9847 2.68909 14.8393C3.05637 14.6959 3.47444 14.8747 3.61981 15.245C4.99819 18.7449 8.31823 21.007 12.0774 21.007C17.0875 21.007 21.1644 16.9302 21.1644 11.92C21.1644 6.90984 17.0875 2.83301 12.0774 2.83301C8.31823 2.83301 4.99819 5.09517 3.61981 8.59508C3.47339 8.96534 3.05637 9.14416 2.68909 9.00071C2.32076 8.85534 2.13914 8.43833 2.28451 8.07105C3.88095 4.01716 7.72414 1.39822 12.0774 1.39822C17.8787 1.39822 22.5991 6.11871 22.5991 11.92C22.5991 17.7213 17.8787 22.4418 12.0774 22.4418Z" fill="#5287C0"/>
</g>
<defs>
<clipPath id="clip0">
<rect x="0.599609" y="0.919983" width="22" height="22" fill="white"/>
</clipPath>
</defs>
</svg>
