<?xml version="1.0" encoding="UTF-8" standalone="no"?>
<!DOCTYPE svg PUBLIC "-//W3C//DTD SVG 1.1//EN" "http://www.w3.org/Graphics/SVG/1.1/DTD/svg11.dtd">
<svg width="100%" height="100%" viewBox="0 0 194 37" version="1.1" xmlns="http://www.w3.org/2000/svg" xmlns:xlink="http://www.w3.org/1999/xlink" xml:space="preserve" xmlns:serif="http://www.serif.com/" style="fill-rule:evenodd;clip-rule:evenodd;stroke-linejoin:round;stroke-miterlimit:2;">
    <rect x="0" y="0" width="194" height="37" style="fill:none;"/>
    <g transform="matrix(1.48372,0,0,1.48372,-613.365,-1144.82)">
        <g transform="matrix(0.00583279,1.16166e-18,-1.16166e-18,0.00583279,413.175,772.028)">
            <path d="M651,2958C989,2958 1263,3232 1263,3570C1263,3908 989,4183 651,4183C313,4183 38,3908 38,3570C38,3232 313,2958 651,2958Z" style="fill:white;"/>
        </g>
        <g transform="matrix(0.00583279,1.16166e-18,-1.16166e-18,0.00583279,413.459,770.898)">
            <path d="M2362,1206C2700,1206 2975,1481 2975,1819C2975,2157 2700,2431 2362,2431C2024,2431 1750,2157 1750,1819C1750,1481 2024,1206 2362,1206Z" style="fill:white;"/>
        </g>
        <g transform="matrix(0.00583279,1.16166e-18,-1.16166e-18,0.00583279,413.175,770.898)">
            <path d="M651,1206C989,1206 1263,1481 1263,1819C1263,2157 989,2431 651,2431C313,2431 38,2157 38,1819C38,1481 313,1206 651,1206Z" style="fill:white;"/>
        </g>
        <g transform="matrix(0.00582048,1.15921e-18,-1.15921e-18,0.00582048,413.48,772.064)">
            <path d="M2362,2958C2700,2958 2975,3232 2975,3570C2975,3908 2700,4183 2362,4183C2024,4183 1750,3908 1750,3570C1750,3232 2024,2958 2362,2958Z" style="fill:white;"/>
        </g>
        <g transform="matrix(0.00606158,1.20722e-18,-1.20722e-18,0.00606158,413.53,770.831)">
            <path d="M4950,2726C4950,2819 4966,2905 4999,2985C5032,3065 5078,3134 5137,3192C5196,3250 5264,3296 5342,3330C5420,3363 5506,3380 5599,3380C5689,3380 5771,3363 5842,3330C5914,3296 5975,3249 6024,3189C6074,3128 6112,3058 6138,2978C6165,2898 6178,2811 6178,2716L6178,1589C6178,1531 6189,1476 6212,1426C6236,1375 6266,1331 6304,1293C6342,1255 6387,1225 6437,1204C6488,1182 6542,1171 6599,1171C6655,1171 6708,1182 6757,1204C6805,1225 6847,1255 6883,1293C6919,1331 6948,1375 6969,1426C6990,1476 7000,1531 7000,1589L7000,2700C7000,2909 6965,3106 6896,3291C6826,3475 6730,3637 6606,3775C6483,3913 6335,4022 6163,4102C5992,4182 5803,4222 5599,4222C5396,4222 5206,4182 5028,4104C4849,4025 4693,3917 4559,3781C4425,3645 4320,3486 4243,3304C4166,3121 4127,2927 4127,2719L4127,1589C4127,1531 4138,1476 4159,1426C4180,1375 4209,1331 4246,1293C4283,1255 4326,1225 4376,1204C4425,1182 4479,1171 4536,1171C4593,1171 4646,1182 4695,1204C4745,1225 4789,1255 4827,1293C4865,1331 4895,1375 4917,1426C4939,1476 4950,1531 4950,1589L4950,2726Z" style="fill:white;"/>
        </g>
        <g transform="matrix(0.00606158,1.20722e-18,-1.20722e-18,0.00606158,413.278,771.186)">
            <path d="M11968,446L11968,2677C11968,2780 11978,2879 11997,2974C12016,3070 12045,3163 12083,3254C12122,3344 12168,3429 12220,3509C12273,3588 12332,3661 12398,3729C12464,3796 12535,3856 12612,3910C12689,3963 12772,4009 12859,4048C12946,4087 13037,4116 13130,4135C13223,4155 13320,4164 13420,4164C13521,4164 13618,4155 13712,4135C13806,4116 13896,4087 13984,4048C14071,4010 14153,3963 14230,3910C14307,3856 14378,3796 14444,3729C14509,3661 14567,3588 14619,3509C14672,3429 14717,3344 14755,3254C14831,3074 14869,2881 14869,2677C14869,2574 14859,2474 14840,2378C14821,2282 14793,2190 14756,2102L14755,2099C14716,2008 14671,1924 14620,1845C14568,1767 14509,1694 14444,1626C14378,1559 14307,1498 14230,1445C14154,1392 14074,1346 13988,1308L13984,1306C13896,1267 13805,1238 13712,1219C13618,1200 13521,1190 13420,1190C13359,1190 13300,1193 13244,1201C13187,1208 13131,1219 13075,1233C13020,1248 12965,1265 12913,1285C12862,1305 12812,1328 12764,1352C12755,1358 12745,1362 12733,1362C12702,1362 12676,1336 12676,1304L12676,446C12676,419 12674,393 12669,368C12665,342 12658,317 12650,294C12641,271 12631,250 12618,229C12606,209 12592,191 12577,175L12576,175C12560,158 12543,143 12525,130C12506,117 12486,105 12464,95C12423,76 12376,66 12325,66C12300,66 12276,69 12254,74C12231,78 12208,86 12187,95C12165,105 12145,116 12125,130C12106,143 12088,159 12072,175C12055,192 12041,210 12028,230C12016,250 12005,271 11996,295C11986,319 11979,343 11975,368C11970,393 11968,419 11968,446ZM12736,2973C12696,2881 12676,2782 12676,2677C12676,2626 12681,2575 12691,2525C12701,2475 12716,2427 12736,2381C12756,2335 12779,2292 12806,2252C12833,2212 12863,2175 12896,2140C12930,2106 12967,2075 13006,2048C13046,2020 13088,1997 13133,1977C13178,1957 13224,1942 13273,1932C13321,1922 13370,1917 13420,1917C13471,1917 13520,1922 13569,1932C13618,1942 13665,1957 13710,1977C13755,1997 13797,2021 13837,2048C13876,2075 13912,2106 13945,2140C13978,2175 14008,2212 14034,2253C14061,2293 14083,2336 14102,2381C14122,2428 14136,2476 14146,2525C14156,2574 14161,2625 14161,2677C14161,2729 14156,2780 14146,2829C14137,2877 14123,2923 14104,2968L14102,2973C14083,3018 14061,3061 14034,3102C14008,3142 13978,3180 13945,3214C13912,3249 13875,3280 13837,3307C13797,3334 13755,3357 13710,3377C13665,3397 13618,3412 13569,3422C13520,3432 13471,3437 13420,3437C13370,3437 13321,3432 13273,3422C13224,3412 13178,3397 13133,3377C13088,3358 13046,3334 13006,3307C12967,3279 12930,3249 12896,3214C12863,3180 12833,3142 12806,3102C12779,3063 12756,3020 12736,2973Z" style="fill:white;fill-rule:nonzero;"/>
        </g>
        <g transform="matrix(0.00606158,1.20722e-18,-1.20722e-18,0.00606158,412.792,771.186)">
            <path d="M16214,3238C16169,3195 16129,3144 16094,3086C16088,3077 16084,3065 16084,3053C16084,3021 16109,2995 16141,2995L17856,2995C17909,2995 17957,2988 17999,2972C18040,2956 18077,2933 18108,2902C18140,2871 18164,2835 18179,2795C18195,2754 18203,2707 18203,2655L18204,2655C18202,2553 18190,2455 18170,2359C18149,2264 18119,2172 18080,2083C18041,1994 17995,1911 17943,1833C17890,1755 17830,1683 17765,1617C17699,1550 17627,1491 17550,1439L17550,1438C17473,1387 17391,1341 17302,1303C17213,1265 17123,1237 17030,1218C16937,1199 16841,1190 16742,1190C16641,1190 16543,1200 16450,1219C16356,1238 16265,1267 16177,1306C16088,1345 16005,1392 15928,1445C15850,1498 15778,1558 15712,1625C15645,1692 15585,1765 15533,1843C15480,1922 15435,2007 15396,2097C15358,2187 15329,2281 15310,2378C15290,2474 15281,2574 15281,2677C15281,2780 15290,2880 15310,2976C15329,3073 15358,3166 15396,3255C15435,3346 15480,3430 15533,3508C15585,3587 15645,3661 15712,3728C15778,3796 15850,3856 15928,3910C16005,3963 16088,4009 16177,4048C16265,4087 16356,4116 16450,4135C16543,4155 16641,4164 16742,4164C16801,4164 16857,4163 16908,4159C16959,4155 17007,4149 17052,4141C17098,4133 17141,4124 17179,4114C17216,4105 17253,4093 17287,4081C17320,4069 17352,4055 17382,4041C17411,4027 17438,4012 17463,3997C17490,3981 17514,3965 17536,3949C17558,3934 17579,3918 17599,3902C17619,3885 17637,3867 17652,3848C17668,3830 17681,3811 17691,3792L17692,3791C17703,3771 17712,3751 17719,3730C17725,3710 17730,3689 17733,3669C17736,3648 17736,3627 17735,3606C17735,3585 17732,3564 17727,3543C17722,3521 17717,3502 17710,3483L17709,3481C17702,3461 17693,3443 17684,3425L17683,3424C17673,3407 17661,3390 17649,3374C17636,3358 17622,3343 17607,3330C17593,3317 17577,3305 17560,3294C17544,3284 17527,3275 17509,3268C17483,3258 17457,3252 17430,3249C17402,3246 17373,3247 17344,3252C17315,3256 17285,3266 17253,3280C17221,3294 17189,3313 17155,3337L17151,3339C17125,3358 17097,3373 17067,3387C17037,3400 17005,3410 16972,3418C16940,3425 16904,3431 16865,3435C16826,3438 16785,3440 16742,3440C16674,3440 16609,3433 16547,3418C16485,3403 16426,3381 16369,3351C16312,3321 16260,3283 16214,3238ZM17351,2146C17398,2198 17436,2258 17467,2327C17471,2335 17474,2344 17474,2353C17474,2385 17448,2411 17416,2411L16116,2411C16108,2411 16100,2409 16092,2406C16064,2393 16051,2359 16064,2330C16093,2264 16131,2206 16176,2155C16222,2104 16275,2060 16335,2024C16395,1988 16461,1961 16532,1944C16602,1926 16678,1917 16758,1917C16838,1917 16914,1925 16985,1942C17056,1958 17123,1983 17185,2016C17249,2050 17304,2094 17351,2146Z" style="fill:white;fill-rule:nonzero;"/>
        </g>
        <g transform="matrix(0.00606158,1.20722e-18,-1.20722e-18,0.00606158,412.406,771.416)">
            <path d="M19701,3406C19678,3401 19653,3398 19628,3398C19590,3398 19554,3394 19521,3386C19486,3378 19455,3365 19427,3348C19394,3328 19370,3301 19353,3269C19338,3237 19330,3201 19330,3160L19330,430C19330,404 19327,380 19323,357C19318,333 19310,310 19300,288C19290,266 19279,245 19265,225C19251,205 19236,188 19219,172C19203,155 19184,141 19164,128C19145,115 19125,104 19104,95L19101,94C19079,85 19056,78 19033,73C19009,69 18985,66 18960,66C18936,66 18913,69 18892,73C18871,77 18850,84 18830,93C18810,103 18791,114 18773,126C18755,139 18739,153 18723,169L18723,170C18708,186 18694,204 18682,223C18669,243 18658,264 18649,286C18640,309 18633,332 18629,356C18624,379 18622,404 18622,430L18622,3160C18622,3230 18628,3298 18641,3363C18654,3427 18673,3488 18698,3545L18699,3548C18725,3607 18756,3662 18791,3713C18826,3763 18866,3809 18911,3851C18955,3894 19004,3931 19056,3964C19109,3998 19166,4027 19226,4051C19286,4074 19349,4093 19414,4105C19477,4118 19542,4124 19608,4126L19628,4126C19654,4126 19679,4123 19702,4119C19725,4115 19746,4109 19766,4100L19769,4099C19790,4090 19810,4080 19828,4068C19846,4056 19863,4042 19878,4026C19893,4011 19907,3994 19919,3975C19930,3957 19940,3937 19949,3916L19949,3915C19958,3892 19965,3869 19969,3846C19973,3822 19975,3798 19975,3772C19975,3745 19973,3721 19969,3697C19965,3674 19958,3650 19949,3627C19941,3604 19930,3583 19918,3564C19906,3544 19892,3526 19877,3509C19862,3493 19845,3478 19826,3464C19807,3450 19787,3438 19766,3428C19746,3418 19724,3411 19701,3406Z" style="fill:white;fill-rule:nonzero;"/>
        </g>
        <g transform="matrix(0.00606158,1.20722e-18,-1.20722e-18,0.00606158,412.406,771.416)">
            <path d="M21460,3406C21437,3401 21412,3398 21387,3398C21349,3398 21313,3394 21280,3386C21246,3378 21214,3365 21186,3348C21154,3328 21129,3301 21113,3269C21097,3237 21089,3201 21089,3160L21089,430C21089,404 21087,380 21082,357C21077,333 21069,310 21059,288C21049,266 21037,244 21024,225C21011,206 20996,188 20979,172C20962,156 20944,141 20924,128C20904,115 20883,104 20861,94L20860,94C20838,85 20815,78 20792,73C20768,69 20744,66 20719,66C20695,66 20673,69 20652,73C20630,77 20609,84 20589,93C20569,103 20550,114 20532,126C20514,139 20498,153 20483,170L20482,170C20467,186 20453,204 20441,223C20429,242 20418,262 20410,283L20409,286C20399,309 20392,332 20388,356C20383,379 20381,404 20381,430L20381,3160C20381,3230 20388,3298 20401,3363C20413,3427 20432,3488 20457,3545L20458,3548C20484,3607 20515,3662 20550,3713C20585,3763 20625,3809 20670,3851C20715,3894 20763,3932 20816,3965C20869,3998 20925,4027 20985,4051C21045,4074 21108,4093 21173,4105C21236,4118 21301,4124 21367,4126L21387,4126C21413,4126 21438,4123 21461,4119C21484,4115 21507,4108 21528,4099C21549,4091 21569,4080 21587,4068C21605,4056 21622,4042 21637,4027L21637,4026C21668,3995 21691,3958 21709,3914C21717,3892 21724,3870 21728,3846C21732,3823 21734,3798 21734,3772C21734,3745 21732,3720 21728,3697C21724,3673 21717,3650 21708,3627C21691,3582 21667,3543 21636,3509C21621,3493 21604,3478 21585,3464C21567,3451 21547,3439 21525,3428C21505,3418 21483,3411 21460,3406Z" style="fill:white;fill-rule:nonzero;"/>
        </g>
        <g transform="matrix(0.00606158,1.20722e-18,-1.20722e-18,0.00606158,413.362,771.419)">
            <path d="M11465,3906C11483,3863 11492,3816 11492,3765L11492,1589C11492,1563 11490,1538 11485,1515C11481,1492 11475,1469 11466,1447C11457,1425 11447,1404 11435,1386C11423,1367 11409,1349 11393,1333C11377,1318 11360,1303 11342,1290C11323,1277 11303,1266 11283,1257C11262,1248 11241,1241 11219,1236C11197,1232 11173,1230 11148,1230C11123,1230 11099,1232 11076,1237C11053,1241 11030,1248 11008,1258C10985,1267 10964,1278 10945,1291C10926,1304 10908,1318 10892,1334C10875,1351 10861,1368 10848,1387C10835,1406 10824,1427 10814,1449C10795,1492 10786,1539 10786,1589L10786,3765C10786,3790 10788,3814 10792,3836L10793,3838C10797,3861 10804,3884 10814,3905C10824,3928 10835,3949 10848,3967C10861,3986 10875,4004 10892,4020C10908,4037 10926,4051 10945,4064C10963,4077 10984,4088 11005,4097C11027,4107 11048,4113 11071,4118C11093,4122 11117,4125 11142,4125C11167,4125 11191,4122 11213,4118C11235,4113 11257,4107 11279,4097C11300,4088 11320,4077 11339,4064C11357,4051 11374,4037 11390,4021C11405,4005 11420,3987 11432,3968C11445,3949 11456,3928 11465,3906Z" style="fill:white;fill-rule:nonzero;"/>
        </g>
        <g transform="matrix(0.00606158,1.20722e-18,-1.20722e-18,0.00606158,413.362,771.419)">
            <path d="M10762,350C10757,376 10754,402 10754,430C10754,457 10757,483 10761,507L10762,509C10767,535 10774,559 10784,582C10795,606 10807,628 10820,649C10834,669 10849,688 10867,706L10867,707C10885,725 10904,741 10924,755C10943,768 10965,781 10989,791L10989,792C11011,802 11035,809 11059,814C11083,819 11109,822 11136,822C11162,822 11186,819 11210,814C11234,809 11258,801 11281,791C11305,781 11327,768 11348,754C11369,740 11388,724 11406,706C11424,688 11440,669 11454,648C11468,628 11480,606 11490,582C11500,559 11508,535 11513,510C11518,484 11520,458 11520,430C11520,402 11518,376 11513,350C11508,324 11500,299 11490,276C11480,252 11468,230 11454,209C11440,189 11425,170 11407,153C11389,135 11369,119 11348,105C11328,92 11307,80 11284,70L11281,69C11258,58 11234,51 11210,46C11186,41 11162,38 11136,38C11109,38 11083,41 11059,46C11035,51 11011,58 10988,68C10966,79 10944,91 10924,105C10903,119 10884,135 10867,152C10849,169 10834,188 10820,209C10806,230 10794,252 10784,276C10774,299 10767,324 10762,350Z" style="fill:white;fill-rule:nonzero;"/>
        </g>
        <g transform="matrix(0.00606158,1.20722e-18,-1.20722e-18,0.00606158,413.675,771.035)">
            <path d="M10253,3778C10253,3836 10242,3890 10221,3940C10200,3990 10172,4033 10136,4071C10100,4109 10058,4138 10009,4159C9961,4179 9908,4189 9851,4189C9794,4189 9740,4179 9690,4159C9639,4138 9594,4109 9555,4071C9516,4033 9486,3990 9463,3940C9441,3890 9430,3836 9430,3778L9430,2624C9430,2616 9431,2609 9433,2603C9429,2516 9411,2435 9378,2358C9345,2282 9302,2215 9247,2157C9192,2100 9128,2055 9054,2023C8980,1991 8900,1975 8813,1975C8723,1975 8640,1991 8565,2025C8490,2058 8426,2104 8372,2162C8318,2221 8276,2289 8247,2368C8217,2447 8203,2533 8203,2625L8203,3778C8203,3836 8192,3890 8171,3940C8150,3990 8121,4033 8086,4071C8050,4109 8007,4138 7959,4159C7910,4179 7858,4189 7801,4189C7744,4189 7690,4179 7639,4159C7589,4138 7545,4109 7507,4071C7469,4033 7438,3990 7415,3940C7392,3890 7380,3836 7380,3778L7380,2625C7380,2418 7417,2224 7491,2042C7565,1861 7666,1703 7794,1568C7923,1433 8074,1327 8249,1249C8423,1171 8611,1133 8813,1133C9016,1133 9205,1171 9380,1249C9555,1327 9707,1433 9837,1568C9967,1703 10068,1861 10142,2042C10216,2224 10253,2418 10253,2625L10253,3778Z" style="fill:white;fill-rule:nonzero;"/>
        </g>
    </g>
</svg>
