<svg width="369" height="299" viewBox="0 0 369 299" fill="none" xmlns="http://www.w3.org/2000/svg">
<g opacity="0.1">
<path fill-rule="evenodd" clip-rule="evenodd" d="M57.6693 183.276C89.4674 183.276 115.245 209.053 115.245 240.852C115.245 272.65 89.4674 298.521 57.6693 298.521C25.8712 298.521 0 272.65 0 240.852C0 209.053 25.8712 183.276 57.6693 183.276Z" fill="white"/>
<path fill-rule="evenodd" clip-rule="evenodd" d="M222.331 0C254.129 0 280 25.8712 280 57.6693C280 89.4673 254.129 115.244 222.331 115.244C190.533 115.244 164.756 89.4673 164.756 57.6693C164.756 25.8712 190.533 0 222.331 0Z" fill="white"/>
<path fill-rule="evenodd" clip-rule="evenodd" d="M57.6693 0C89.4674 0 115.245 25.8712 115.245 57.6693C115.245 89.4673 89.4674 115.244 57.6693 115.244C25.8712 115.244 0 89.4673 0 57.6693C0 25.8712 25.8712 0 57.6693 0Z" fill="white"/>
<path fill-rule="evenodd" clip-rule="evenodd" d="M222.516 183.779C254.211 183.779 279.998 209.473 279.998 241.168C279.998 272.863 254.211 298.651 222.516 298.651C190.821 298.651 165.127 272.863 165.127 241.168C165.127 209.473 190.821 183.779 222.516 183.779Z" fill="white"/>
</g>
<path fill-rule="evenodd" clip-rule="evenodd" d="M146.669 183.276C178.467 183.276 204.245 209.053 204.245 240.852C204.245 272.65 178.467 298.521 146.669 298.521C114.871 298.521 89 272.65 89 240.852C89 209.053 114.871 183.276 146.669 183.276Z" fill="white"/>
<path fill-rule="evenodd" clip-rule="evenodd" d="M311.331 0C343.129 0 369 25.8712 369 57.6693C369 89.4673 343.129 115.244 311.331 115.244C279.533 115.244 253.756 89.4673 253.756 57.6693C253.756 25.8712 279.533 0 311.331 0Z" fill="white"/>
<path fill-rule="evenodd" clip-rule="evenodd" d="M146.669 0C178.467 0 204.245 25.8712 204.245 57.6693C204.245 89.4673 178.467 115.244 146.669 115.244C114.871 115.244 89 89.4673 89 57.6693C89 25.8712 114.871 0 146.669 0Z" fill="white"/>
<path fill-rule="evenodd" clip-rule="evenodd" d="M311.516 183.779C343.211 183.779 368.998 209.473 368.998 241.168C368.998 272.863 343.211 298.651 311.516 298.651C279.821 298.651 254.127 272.863 254.127 241.168C254.127 209.473 279.821 183.779 311.516 183.779Z" fill="white"/>
</svg>
