<svg width="227" height="280" viewBox="0 0 227 280" fill="none" xmlns="http://www.w3.org/2000/svg">
<g opacity="0.2">
<path d="M192.278 449.355H33.7836C15.9544 449.355 1.5 434.9 1.5 417.071V33.7836C1.5 15.9532 15.9544 1.5 33.7836 1.5H192.278C210.107 1.5 224.561 15.9532 224.561 33.7836V417.071C224.561 434.9 210.107 449.355 192.278 449.355Z" stroke="white" stroke-width="3"/>
<path d="M135.909 22.3316H90.8167C89.9433 22.3316 89.2344 21.6226 89.2344 20.7493C89.2344 19.876 89.9433 19.167 90.8167 19.167H135.909C136.782 19.167 137.49 19.876 137.49 20.7493C137.49 21.6226 136.782 22.3316 135.909 22.3316Z" fill="white"/>
<path d="M181.347 42.8975C181.738 42.8975 182.055 43.213 182.055 43.6028C182.055 43.9951 181.738 44.3118 181.347 44.3118C180.957 44.3118 180.641 43.9951 180.641 43.6028C180.641 43.213 180.957 42.8975 181.347 42.8975Z" fill="white"/>
<path d="M183.113 41.8906L183.082 41.8594L183.048 41.8306L183.031 41.815C182.116 40.9837 180.716 41.0173 179.843 41.8906L179.74 41.9925L179.597 42.1341C179.425 42.3068 179.426 42.5888 179.598 42.7615C179.772 42.9354 180.053 42.9366 180.225 42.7627L180.471 42.518C181.027 41.9638 181.93 41.9638 182.484 42.518L182.659 42.6895C182.833 42.8599 183.11 42.8599 183.283 42.6883C183.366 42.6056 183.412 42.494 183.412 42.3776C183.412 42.2589 183.366 42.1485 183.286 42.0669L183.113 41.8906Z" fill="white"/>
<path d="M184.235 41.0198L184.09 40.8722L184.087 40.871L183.971 40.7535L183.906 40.7007C182.414 39.3919 180.145 39.4315 178.702 40.8206L178.68 40.8386L178.414 41.1037C178.257 41.2621 178.259 41.5176 178.415 41.676C178.573 41.8343 178.83 41.8343 178.987 41.6772L179.253 41.4121L179.258 41.4061C180.425 40.2784 182.278 40.2712 183.454 41.3833L183.663 41.592C183.822 41.7491 184.078 41.7491 184.234 41.5908C184.393 41.4325 184.394 41.1769 184.235 41.0198Z" fill="white"/>
<path d="M12.7683 44.6902C12.7683 44.7742 12.8391 44.845 12.9231 44.845C13.0142 44.845 13.079 44.7742 13.079 44.6902V40.5276C13.085 40.488 13.079 40.4496 13.0598 40.41C13.0202 40.3392 12.9171 40.3128 12.8451 40.3524L11.9718 40.8827C11.8938 40.9222 11.8674 41.0122 11.913 41.0962C11.9394 41.1418 11.9909 41.1742 12.0497 41.1742C12.0749 41.1742 12.1073 41.161 12.1265 41.149L12.7683 40.7735V44.6902Z" fill="white"/>
<path d="M14.6686 44.18C14.9469 44.5878 15.3416 44.8661 15.8011 44.8661C16.2605 44.8661 16.6564 44.5878 16.9347 44.18C17.2058 43.7661 17.375 43.2095 17.375 42.6001C17.375 41.9919 17.2058 41.4352 16.9347 41.0142C16.6564 40.6135 16.2605 40.334 15.8011 40.334C15.3416 40.334 14.9469 40.6135 14.6686 41.0142C14.3891 41.4352 14.2344 41.9919 14.2344 42.6001C14.2344 43.2095 14.3891 43.7661 14.6686 44.18ZM14.9337 41.1953C15.1665 40.839 15.4772 40.6519 15.8011 40.6519C16.125 40.6519 16.4297 40.839 16.6684 41.1953C16.9023 41.5456 17.0571 42.0434 17.0571 42.6001C17.0571 43.1579 16.9023 43.6557 16.6684 44.006C16.4297 44.3491 16.125 44.5494 15.8011 44.5494C15.4772 44.5494 15.1665 44.3491 14.9337 44.006C14.701 43.6557 14.5511 43.1579 14.5511 42.6001C14.5511 42.0434 14.701 41.5456 14.9337 41.1953Z" fill="white"/>
<path d="M18.9219 44.5493C18.9219 44.7304 19.0634 44.872 19.2458 44.872C19.4269 44.872 19.5685 44.7304 19.5685 44.5493C19.5685 44.3682 19.4269 44.2254 19.2458 44.2254C19.0634 44.2254 18.9219 44.3682 18.9219 44.5493ZM18.9219 41.8298C18.9219 42.0109 19.0634 42.1537 19.2458 42.1537C19.4269 42.1537 19.5685 42.0109 19.5685 41.8298C19.5685 41.6486 19.4269 41.5059 19.2458 41.5059C19.0634 41.5059 18.9219 41.6486 18.9219 41.8298Z" fill="white"/>
<path d="M22.7455 40.5679C22.7587 40.5487 22.7647 40.5223 22.7647 40.4959C22.7647 40.406 22.6939 40.334 22.6028 40.334H20.4854C20.3955 40.334 20.3235 40.406 20.3235 40.4959C20.3235 40.5871 20.3955 40.6579 20.4854 40.6579H22.2213L21.0948 41.8167C21.0301 41.8815 21.0301 41.9859 21.0948 42.0506H21.1008C21.1332 42.089 21.1788 42.1154 21.2304 42.1154C21.5411 42.1154 21.8518 42.2318 22.0845 42.4717C22.3244 42.7044 22.4408 43.0151 22.4408 43.3258C22.4408 43.6365 22.3244 43.9472 22.0845 44.1872C21.8458 44.4199 21.5351 44.5362 21.2244 44.5362C20.9137 44.5362 20.609 44.4199 20.3691 44.1872C20.3043 44.1224 20.2011 44.1224 20.1423 44.1872C20.0776 44.2519 20.0776 44.3551 20.1423 44.4139C20.441 44.7174 20.8357 44.8661 21.2244 44.8661C21.6191 44.8661 22.0137 44.7114 22.3112 44.4139C22.6159 44.1152 22.7647 43.7205 22.7647 43.3258C22.7647 42.9312 22.616 42.5353 22.3185 42.2378C22.0977 42.0182 21.8266 41.8815 21.5411 41.8239L22.7131 40.6195C22.7263 40.6063 22.7395 40.5871 22.7455 40.5679Z" fill="white"/>
<path d="M25.2155 44.18C25.4938 44.5878 25.8885 44.8661 26.348 44.8661C26.8074 44.8661 27.2021 44.5878 27.4816 44.18C27.7527 43.7661 27.9218 43.2095 27.9218 42.6001C27.9218 41.9919 27.7527 41.4352 27.4816 41.0142C27.2021 40.6135 26.8074 40.334 26.348 40.334C25.8885 40.334 25.4938 40.6135 25.2155 41.0142C24.936 41.4352 24.7812 41.9919 24.7812 42.6001C24.7812 43.2095 24.936 43.7661 25.2155 44.18ZM25.4806 41.1953C25.7133 40.839 26.0241 40.6519 26.348 40.6519C26.6718 40.6519 26.9765 40.839 27.2153 41.1953C27.4492 41.5456 27.6039 42.0434 27.6039 42.6001C27.6039 43.1579 27.4492 43.6557 27.2153 44.006C26.9765 44.3491 26.6718 44.5494 26.348 44.5494C26.0241 44.5494 25.7133 44.3491 25.4806 44.006C25.2479 43.6557 25.0979 43.1579 25.0979 42.6001C25.0979 42.0434 25.2479 41.5456 25.4806 41.1953Z" fill="white"/>
<path d="M33.8169 44.7426C33.8433 44.8074 33.9081 44.8457 33.9669 44.8457C33.9861 44.8457 33.9981 44.8398 34.0245 44.8398C34.1025 44.8074 34.1408 44.7102 34.1085 44.6322L32.5358 40.4312C32.5166 40.3724 32.4518 40.334 32.3798 40.334C32.315 40.334 32.2502 40.3724 32.2251 40.4312L30.6512 44.6322C30.6188 44.7102 30.6644 44.8074 30.7423 44.8398C30.7615 44.8398 30.7867 44.8457 30.7999 44.8457C30.8647 44.8457 30.9235 44.8074 30.9487 44.7426L31.3505 43.6749H33.4163L33.8169 44.7426ZM32.387 40.923L33.2999 43.357H31.4669L32.387 40.923Z" fill="white"/>
<path d="M38.8238 44.6923C38.8238 44.7763 38.8886 44.8471 38.9798 44.8471C39.0637 44.8471 39.1357 44.7763 39.1357 44.6923V40.4973C39.1357 40.4709 39.1225 40.4385 39.1093 40.4121C39.0961 40.3929 39.0829 40.3797 39.0637 40.3605C38.9929 40.3149 38.8886 40.3281 38.8442 40.4001L37.2379 42.6338L35.6256 40.4001C35.574 40.3281 35.4769 40.3149 35.4061 40.3605C35.3989 40.3677 35.3929 40.3677 35.3929 40.3737C35.3545 40.4001 35.3281 40.4445 35.3281 40.4973V44.6923C35.3281 44.7763 35.3989 44.8471 35.4901 44.8471C35.574 44.8471 35.6448 44.7763 35.6448 44.6923V40.9699L37.0952 42.9769C37.1276 43.0285 37.1731 43.0476 37.2319 43.0476H37.2451C37.2895 43.0476 37.3411 43.0285 37.3735 42.9769L38.8238 40.9627V44.6923Z" fill="white"/>
<path d="M189.346 40.8567C189.346 41.1566 189.488 41.4145 189.701 41.5801C189.2 41.7876 188.844 42.2902 188.844 42.866C188.844 43.6386 189.469 44.2576 190.235 44.2576C191.007 44.2576 191.626 43.6386 191.626 42.866C191.626 42.2902 191.271 41.7876 190.762 41.5801C190.983 41.4145 191.13 41.1566 191.13 40.8567C191.13 40.366 190.725 39.9678 190.235 39.9678C189.739 39.9678 189.346 40.366 189.346 40.8567ZM189.139 42.866C189.139 42.2662 189.628 41.7696 190.235 41.7696C190.848 41.7696 191.332 42.2662 191.332 42.866C191.332 43.473 190.848 43.9637 190.235 43.9637C189.628 43.9637 189.139 43.473 189.139 42.866ZM189.64 40.8567C189.64 40.5256 189.904 40.2629 190.235 40.2629C190.566 40.2629 190.835 40.5256 190.835 40.8567C190.835 41.1878 190.566 41.4577 190.235 41.4637C189.904 41.4577 189.64 41.1878 189.64 40.8567Z" fill="white"/>
<path d="M193.435 44.2576C193.802 44.2576 194.182 44.11 194.464 43.8341C194.752 43.5522 194.886 43.1731 194.886 42.8049C194.886 42.4258 194.752 42.0575 194.464 41.7756C194.182 41.4877 193.814 41.3533 193.44 41.3533C193.183 41.3533 192.932 41.4205 192.711 41.5489L192.865 40.2749H194.734C194.819 40.2749 194.886 40.2137 194.886 40.1213C194.886 40.0361 194.819 39.9678 194.734 39.9678H192.736C192.699 39.9678 192.662 39.981 192.638 40.005C192.601 40.0302 192.577 40.0661 192.577 40.1153L192.368 41.8428C192.368 41.856 192.362 41.868 192.362 41.874C192.362 41.892 192.362 41.9111 192.368 41.9231C192.368 41.9291 192.368 41.9351 192.374 41.9411V41.9471C192.38 41.9651 192.393 41.9843 192.411 41.9963C192.466 42.0575 192.565 42.0575 192.626 41.9963C192.853 41.7696 193.141 41.6592 193.44 41.6592C193.734 41.6592 194.028 41.7696 194.249 41.9903C194.47 42.2111 194.58 42.505 194.58 42.8049C194.58 43.0988 194.47 43.3867 194.243 43.6134C194.016 43.8401 193.728 43.9505 193.435 43.9505C193.141 43.9505 192.853 43.8401 192.626 43.6194C192.565 43.5582 192.466 43.5582 192.405 43.6194C192.344 43.6746 192.344 43.773 192.405 43.8341C192.687 44.116 193.06 44.2576 193.435 44.2576Z" fill="white"/>
<path d="M196.813 42.0874C197.383 42.0874 197.762 41.5668 197.762 40.991V40.979C197.762 40.4152 197.389 39.8945 196.825 39.8945C196.255 39.8945 195.875 40.4152 195.875 40.991V41.003C195.875 41.5728 196.249 42.0874 196.813 42.0874ZM196.433 44.128C196.433 44.2012 196.494 44.2563 196.567 44.2563C196.616 44.2563 196.654 44.2323 196.684 44.1891L199.668 40.1273C199.686 40.1021 199.692 40.0781 199.692 40.0469C199.692 39.9737 199.631 39.9185 199.558 39.9185C199.509 39.9185 199.471 39.9425 199.441 39.9857L196.457 44.0476C196.439 44.0728 196.433 44.0968 196.433 44.128ZM199.3 44.2815C199.87 44.2815 200.25 43.7597 200.25 43.1839V43.1719C200.25 42.6081 199.876 42.0874 199.312 42.0874C198.742 42.0874 198.363 42.6081 198.363 43.1839V43.1971C198.363 43.7669 198.736 44.2815 199.3 44.2815ZM196.825 41.8235C196.482 41.8235 196.194 41.4744 196.194 40.991V40.979C196.194 40.5315 196.451 40.1572 196.813 40.1572C197.156 40.1572 197.444 40.5123 197.444 40.991V41.003C197.444 41.4624 197.186 41.8235 196.825 41.8235ZM199.312 44.0176C198.969 44.0176 198.681 43.6685 198.681 43.1839V43.1719C198.681 42.7244 198.939 42.3513 199.3 42.3513C199.643 42.3513 199.931 42.7064 199.931 43.1839V43.1971C199.931 43.6565 199.674 44.0176 199.312 44.0176Z" fill="white"/>
<path d="M206.012 40.5254L213.012 40.5122L213.018 44.0127L206.017 44.0199L206.012 40.5254ZM215.261 40.1091L205.637 40.1247L205.642 44.4254L215.267 44.4098L215.261 40.1091ZM205.814 44.784C205.506 44.7852 205.257 44.5561 205.257 44.2742L205.25 40.2747C205.25 39.9952 205.501 39.7648 205.803 39.7636L215.09 39.748C215.394 39.7492 215.643 39.9772 215.647 40.2579L215.646 41.0844L216.362 41.0808L216.368 43.4381L215.651 43.4417L215.653 44.2598C215.653 44.5405 215.404 44.7684 215.098 44.7684L205.814 44.784Z" fill="#F9F9F8"/>
<path d="M130.083 22.3316H90.8167C89.9433 22.3316 89.2344 21.6226 89.2344 20.7493C89.2344 19.876 89.9433 19.167 90.8167 19.167H131.091L130.083 22.3316Z" fill="white"/>
<path d="M12.7683 44.6902C12.7683 44.7742 12.8391 44.845 12.9231 44.845C13.0142 44.845 13.079 44.7742 13.079 44.6902V40.5276C13.085 40.488 13.079 40.4496 13.0598 40.41C13.0202 40.3392 12.9171 40.3128 12.8451 40.3524L11.9718 40.8827C11.8938 40.9222 11.8674 41.0122 11.913 41.0962C11.9394 41.1418 11.9909 41.1742 12.0497 41.1742C12.0749 41.1742 12.1073 41.161 12.1265 41.149L12.7683 40.7735V44.6902Z" fill="white"/>
<path d="M14.6686 44.18C14.9469 44.5878 15.3416 44.8661 15.8011 44.8661C16.2605 44.8661 16.6564 44.5878 16.9347 44.18C17.2058 43.7661 17.375 43.2095 17.375 42.6001C17.375 41.9919 17.2058 41.4352 16.9347 41.0142C16.6564 40.6135 16.2605 40.334 15.8011 40.334C15.3416 40.334 14.9469 40.6135 14.6686 41.0142C14.3891 41.4352 14.2344 41.9919 14.2344 42.6001C14.2344 43.2095 14.3891 43.7661 14.6686 44.18ZM14.9337 41.1953C15.1665 40.839 15.4772 40.6519 15.8011 40.6519C16.125 40.6519 16.4297 40.839 16.6684 41.1953C16.9023 41.5456 17.0571 42.0434 17.0571 42.6001C17.0571 43.1579 16.9023 43.6557 16.6684 44.006C16.4297 44.3491 16.125 44.5494 15.8011 44.5494C15.4772 44.5494 15.1665 44.3491 14.9337 44.006C14.701 43.6557 14.5511 43.1579 14.5511 42.6001C14.5511 42.0434 14.701 41.5456 14.9337 41.1953Z" fill="white"/>
<path d="M18.9219 44.5493C18.9219 44.7304 19.0634 44.872 19.2458 44.872C19.4269 44.872 19.5685 44.7304 19.5685 44.5493C19.5685 44.3682 19.4269 44.2254 19.2458 44.2254C19.0634 44.2254 18.9219 44.3682 18.9219 44.5493ZM18.9219 41.8298C18.9219 42.0109 19.0634 42.1537 19.2458 42.1537C19.4269 42.1537 19.5685 42.0109 19.5685 41.8298C19.5685 41.6486 19.4269 41.5059 19.2458 41.5059C19.0634 41.5059 18.9219 41.6486 18.9219 41.8298Z" fill="white"/>
<path d="M22.7455 40.5679C22.7587 40.5487 22.7647 40.5223 22.7647 40.4959C22.7647 40.406 22.6939 40.334 22.6028 40.334H20.4854C20.3955 40.334 20.3235 40.406 20.3235 40.4959C20.3235 40.5871 20.3955 40.6579 20.4854 40.6579H22.2213L21.0948 41.8167C21.0301 41.8815 21.0301 41.9859 21.0948 42.0506H21.1008C21.1332 42.089 21.1788 42.1154 21.2304 42.1154C21.5411 42.1154 21.8518 42.2318 22.0845 42.4717C22.3244 42.7044 22.4408 43.0151 22.4408 43.3258C22.4408 43.6365 22.3244 43.9472 22.0845 44.1872C21.8458 44.4199 21.5351 44.5362 21.2244 44.5362C20.9137 44.5362 20.609 44.4199 20.3691 44.1872C20.3043 44.1224 20.2011 44.1224 20.1423 44.1872C20.0776 44.2519 20.0776 44.3551 20.1423 44.4139C20.441 44.7174 20.8357 44.8661 21.2244 44.8661C21.6191 44.8661 22.0137 44.7114 22.3112 44.4139C22.6159 44.1152 22.7647 43.7205 22.7647 43.3258C22.7647 42.9312 22.616 42.5353 22.3185 42.2378C22.0977 42.0182 21.8266 41.8815 21.5411 41.8239L22.7131 40.6195C22.7263 40.6063 22.7395 40.5871 22.7455 40.5679Z" fill="white"/>
<path d="M25.2155 44.18C25.4938 44.5878 25.8885 44.8661 26.348 44.8661C26.8074 44.8661 27.2021 44.5878 27.4816 44.18C27.7527 43.7661 27.9218 43.2095 27.9218 42.6001C27.9218 41.9919 27.7527 41.4352 27.4816 41.0142C27.2021 40.6135 26.8074 40.334 26.348 40.334C25.8885 40.334 25.4938 40.6135 25.2155 41.0142C24.936 41.4352 24.7812 41.9919 24.7812 42.6001C24.7812 43.2095 24.936 43.7661 25.2155 44.18ZM25.4806 41.1953C25.7133 40.839 26.0241 40.6519 26.348 40.6519C26.6718 40.6519 26.9765 40.839 27.2153 41.1953C27.4492 41.5456 27.6039 42.0434 27.6039 42.6001C27.6039 43.1579 27.4492 43.6557 27.2153 44.006C26.9765 44.3491 26.6718 44.5494 26.348 44.5494C26.0241 44.5494 25.7133 44.3491 25.4806 44.006C25.2479 43.6557 25.0979 43.1579 25.0979 42.6001C25.0979 42.0434 25.2479 41.5456 25.4806 41.1953Z" fill="white"/>
<path d="M33.8169 44.7426C33.8433 44.8074 33.9081 44.8457 33.9669 44.8457C33.9861 44.8457 33.9981 44.8398 34.0245 44.8398C34.1025 44.8074 34.1408 44.7102 34.1085 44.6322L32.5358 40.4312C32.5166 40.3724 32.4518 40.334 32.3798 40.334C32.315 40.334 32.2502 40.3724 32.2251 40.4312L30.6512 44.6322C30.6188 44.7102 30.6644 44.8074 30.7423 44.8398C30.7615 44.8398 30.7867 44.8457 30.7999 44.8457C30.8647 44.8457 30.9235 44.8074 30.9487 44.7426L31.3505 43.6749H33.4163L33.8169 44.7426ZM32.387 40.923L33.2999 43.357H31.4669L32.387 40.923Z" fill="white"/>
<path d="M38.8238 44.6923C38.8238 44.7763 38.8886 44.8471 38.9798 44.8471C39.0637 44.8471 39.1357 44.7763 39.1357 44.6923V40.4973C39.1357 40.4709 39.1225 40.4385 39.1093 40.4121C39.0961 40.3929 39.0829 40.3797 39.0637 40.3605C38.9929 40.3149 38.8886 40.3281 38.8442 40.4001L37.2379 42.6338L35.6256 40.4001C35.574 40.3281 35.4769 40.3149 35.4061 40.3605C35.3989 40.3677 35.3929 40.3677 35.3929 40.3737C35.3545 40.4001 35.3281 40.4445 35.3281 40.4973V44.6923C35.3281 44.7763 35.3989 44.8471 35.4901 44.8471C35.574 44.8471 35.6448 44.7763 35.6448 44.6923V40.9699L37.0952 42.9769C37.1276 43.0285 37.1731 43.0476 37.2319 43.0476H37.2451C37.2895 43.0476 37.3411 43.0285 37.3735 42.9769L38.8238 40.9627V44.6923Z" fill="white"/>
<rect x="14.5" y="62.5" width="197" height="347" rx="1.5" stroke="white"/>
<path d="M139.805 197.942L139.761 198.314C128.857 192.879 127.717 192.155 126.309 194.268C125.332 195.73 122.486 199.048 121.628 200.029C120.76 200.996 119.898 201.071 118.425 200.401C116.937 199.657 112.163 198.096 106.51 193.038C102.107 189.096 99.1519 184.262 98.2792 182.774C96.8264 180.265 99.8659 179.908 102.633 174.672C103.128 173.631 102.876 172.813 102.509 172.074C102.137 171.33 99.1767 164.042 97.9371 161.136C96.7471 158.24 95.5224 158.607 94.6051 158.607C91.7491 158.359 89.6616 158.399 87.8221 160.313C79.8193 169.109 81.8374 178.183 88.6848 187.832C102.142 205.444 109.312 208.687 122.421 213.189C125.962 214.314 129.189 214.156 131.743 213.789C134.589 213.337 140.504 210.214 141.739 206.718C143.003 203.222 143.003 200.322 142.632 199.652C142.265 198.983 141.293 198.611 139.805 197.942Z" fill="white"/>
<path d="M154.745 144.103C116.62 107.248 53.5256 133.979 53.5008 185.972C53.5008 196.364 56.2229 206.499 61.4093 215.449L53 246.002L84.411 237.811C123.607 258.983 171.98 230.869 172 186.001C172 170.254 165.852 155.433 154.671 144.297L154.745 144.103ZM162.093 185.838C162.064 223.685 120.518 247.321 87.6587 228.003L85.8738 226.942L67.28 231.777L72.2631 213.704L71.0781 211.844C50.6299 179.293 74.1225 136.75 112.857 136.75C126.016 136.75 138.368 141.882 147.669 151.179C156.966 160.397 162.093 172.748 162.093 185.838Z" fill="white"/>
</g>
</svg>
