<svg width="227" height="451" viewBox="0 0 227 451" fill="none" xmlns="http://www.w3.org/2000/svg">
<path d="M192.278 449.355H33.7836C15.9544 449.355 1.5 434.9 1.5 417.071V33.7836C1.5 15.9532 15.9544 1.5 33.7836 1.5H192.278C210.107 1.5 224.561 15.9532 224.561 33.7836V417.071C224.561 434.9 210.107 449.355 192.278 449.355Z" stroke="white" stroke-width="3"/>
<path d="M135.909 22.3316H90.8167C89.9433 22.3316 89.2344 21.6226 89.2344 20.7493C89.2344 19.876 89.9433 19.167 90.8167 19.167H135.909C136.782 19.167 137.49 19.876 137.49 20.7493C137.49 21.6226 136.782 22.3316 135.909 22.3316Z" fill="white"/>
<path d="M49.7576 427.785H41.1875V428.957H49.7576V427.785Z" fill="white"/>
<path d="M117.491 434.999V434.549H111.228V428.831H117.041V434.999H117.491V434.549V434.999H117.941V428.381C117.941 428.263 117.893 428.148 117.809 428.064C117.725 427.98 117.609 427.932 117.491 427.932H110.778C110.659 427.932 110.544 427.98 110.46 428.064C110.376 428.148 110.328 428.263 110.328 428.381V434.999C110.328 435.117 110.376 435.234 110.46 435.318C110.544 435.4 110.659 435.448 110.778 435.448H117.491C117.609 435.448 117.725 435.4 117.809 435.318C117.893 435.234 117.941 435.117 117.941 434.999H117.491Z" fill="white"/>
<path d="M177.183 427.698L174.092 430.79C173.771 431.109 173.609 431.532 173.609 431.95C173.609 432.37 173.771 432.792 174.092 433.113L177.183 436.204C177.358 436.379 177.644 436.379 177.819 436.204C177.994 436.028 177.994 435.744 177.819 435.567L174.727 432.476C174.581 432.329 174.51 432.142 174.509 431.95C174.51 431.76 174.581 431.572 174.727 431.427L177.819 428.333C177.995 428.158 177.994 427.873 177.819 427.698C177.644 427.521 177.358 427.521 177.183 427.698Z" fill="white"/>
<path d="M181.347 42.8974C181.738 42.8974 182.055 43.2129 182.055 43.6028C182.055 43.995 181.738 44.3117 181.347 44.3117C180.957 44.3117 180.641 43.995 180.641 43.6028C180.641 43.2129 180.957 42.8974 181.347 42.8974Z" fill="white"/>
<path d="M183.113 41.8906L183.082 41.8594L183.048 41.8306L183.031 41.815C182.116 40.9837 180.716 41.0173 179.843 41.8906L179.74 41.9925L179.597 42.1341C179.425 42.3068 179.426 42.5888 179.598 42.7615C179.772 42.9354 180.053 42.9366 180.225 42.7627L180.471 42.518C181.027 41.9638 181.93 41.9638 182.484 42.518L182.659 42.6895C182.833 42.8599 183.11 42.8599 183.283 42.6883C183.366 42.6056 183.412 42.494 183.412 42.3776C183.412 42.2589 183.366 42.1485 183.286 42.0669L183.113 41.8906Z" fill="white"/>
<path d="M184.235 41.0197L184.09 40.8722L184.087 40.871L183.971 40.7534L183.906 40.7006C182.414 39.3918 180.145 39.4314 178.702 40.8206L178.68 40.8386L178.414 41.1037C178.257 41.262 178.259 41.5176 178.415 41.6759C178.573 41.8343 178.83 41.8343 178.987 41.6771L179.253 41.412L179.258 41.406C180.425 40.2784 182.278 40.2712 183.454 41.3832L183.663 41.5919C183.822 41.7491 184.078 41.7491 184.234 41.5907C184.393 41.4324 184.394 41.1769 184.235 41.0197Z" fill="white"/>
<path d="M12.7683 44.6903C12.7683 44.7743 12.8391 44.8451 12.9231 44.8451C13.0142 44.8451 13.079 44.7743 13.079 44.6903V40.5276C13.085 40.4881 13.079 40.4497 13.0598 40.4101C13.0202 40.3393 12.9171 40.3129 12.8451 40.3525L11.9718 40.8827C11.8938 40.9223 11.8674 41.0123 11.913 41.0963C11.9394 41.1418 11.9909 41.1742 12.0497 41.1742C12.0749 41.1742 12.1073 41.161 12.1265 41.149L12.7683 40.7736V44.6903Z" fill="white"/>
<path d="M14.6686 44.18C14.9469 44.5878 15.3416 44.8661 15.8011 44.8661C16.2605 44.8661 16.6564 44.5878 16.9347 44.18C17.2058 43.7661 17.375 43.2095 17.375 42.6001C17.375 41.9919 17.2058 41.4352 16.9347 41.0142C16.6564 40.6135 16.2605 40.334 15.8011 40.334C15.3416 40.334 14.9469 40.6135 14.6686 41.0142C14.3891 41.4352 14.2344 41.9919 14.2344 42.6001C14.2344 43.2095 14.3891 43.7661 14.6686 44.18ZM14.9337 41.1953C15.1665 40.839 15.4772 40.6519 15.8011 40.6519C16.125 40.6519 16.4297 40.839 16.6684 41.1953C16.9023 41.5456 17.0571 42.0434 17.0571 42.6001C17.0571 43.1579 16.9023 43.6557 16.6684 44.006C16.4297 44.3491 16.125 44.5494 15.8011 44.5494C15.4772 44.5494 15.1665 44.3491 14.9337 44.006C14.701 43.6557 14.5511 43.1579 14.5511 42.6001C14.5511 42.0434 14.701 41.5456 14.9337 41.1953Z" fill="white"/>
<path d="M18.9219 44.5493C18.9219 44.7304 19.0634 44.872 19.2458 44.872C19.4269 44.872 19.5685 44.7304 19.5685 44.5493C19.5685 44.3682 19.4269 44.2254 19.2458 44.2254C19.0634 44.2254 18.9219 44.3682 18.9219 44.5493ZM18.9219 41.8298C18.9219 42.0109 19.0634 42.1537 19.2458 42.1537C19.4269 42.1537 19.5685 42.0109 19.5685 41.8298C19.5685 41.6486 19.4269 41.5059 19.2458 41.5059C19.0634 41.5059 18.9219 41.6486 18.9219 41.8298Z" fill="white"/>
<path d="M22.7455 40.5679C22.7587 40.5487 22.7647 40.5223 22.7647 40.4959C22.7647 40.406 22.6939 40.334 22.6028 40.334H20.4854C20.3955 40.334 20.3235 40.406 20.3235 40.4959C20.3235 40.5871 20.3955 40.6579 20.4854 40.6579H22.2213L21.0948 41.8167C21.0301 41.8815 21.0301 41.9859 21.0948 42.0506H21.1008C21.1332 42.089 21.1788 42.1154 21.2304 42.1154C21.5411 42.1154 21.8518 42.2318 22.0845 42.4717C22.3244 42.7044 22.4408 43.0151 22.4408 43.3258C22.4408 43.6365 22.3244 43.9472 22.0845 44.1872C21.8458 44.4199 21.5351 44.5362 21.2244 44.5362C20.9137 44.5362 20.609 44.4199 20.3691 44.1872C20.3043 44.1224 20.2011 44.1224 20.1423 44.1872C20.0776 44.2519 20.0776 44.3551 20.1423 44.4139C20.441 44.7174 20.8357 44.8661 21.2244 44.8661C21.6191 44.8661 22.0137 44.7114 22.3112 44.4139C22.6159 44.1152 22.7647 43.7205 22.7647 43.3258C22.7647 42.9312 22.616 42.5353 22.3185 42.2378C22.0977 42.0182 21.8266 41.8815 21.5411 41.8239L22.7131 40.6195C22.7263 40.6063 22.7395 40.5871 22.7455 40.5679Z" fill="white"/>
<path d="M25.2155 44.18C25.4938 44.5878 25.8885 44.8661 26.348 44.8661C26.8074 44.8661 27.2021 44.5878 27.4816 44.18C27.7527 43.7661 27.9218 43.2095 27.9218 42.6001C27.9218 41.9919 27.7527 41.4352 27.4816 41.0142C27.2021 40.6135 26.8074 40.334 26.348 40.334C25.8885 40.334 25.4938 40.6135 25.2155 41.0142C24.936 41.4352 24.7812 41.9919 24.7812 42.6001C24.7812 43.2095 24.936 43.7661 25.2155 44.18ZM25.4806 41.1953C25.7133 40.839 26.0241 40.6519 26.348 40.6519C26.6718 40.6519 26.9765 40.839 27.2153 41.1953C27.4492 41.5456 27.6039 42.0434 27.6039 42.6001C27.6039 43.1579 27.4492 43.6557 27.2153 44.006C26.9765 44.3491 26.6718 44.5494 26.348 44.5494C26.0241 44.5494 25.7133 44.3491 25.4806 44.006C25.2479 43.6557 25.0979 43.1579 25.0979 42.6001C25.0979 42.0434 25.2479 41.5456 25.4806 41.1953Z" fill="white"/>
<path d="M33.8169 44.7426C33.8433 44.8074 33.9081 44.8457 33.9669 44.8457C33.9861 44.8457 33.9981 44.8398 34.0245 44.8398C34.1025 44.8074 34.1408 44.7102 34.1085 44.6322L32.5358 40.4312C32.5166 40.3724 32.4518 40.334 32.3798 40.334C32.315 40.334 32.2502 40.3724 32.2251 40.4312L30.6512 44.6322C30.6188 44.7102 30.6644 44.8074 30.7423 44.8398C30.7615 44.8398 30.7867 44.8457 30.7999 44.8457C30.8647 44.8457 30.9235 44.8074 30.9487 44.7426L31.3505 43.6749H33.4163L33.8169 44.7426ZM32.387 40.923L33.2999 43.357H31.4669L32.387 40.923Z" fill="white"/>
<path d="M38.8238 44.6923C38.8238 44.7763 38.8886 44.8471 38.9798 44.8471C39.0637 44.8471 39.1357 44.7763 39.1357 44.6923V40.4973C39.1357 40.4709 39.1225 40.4385 39.1093 40.4121C39.0961 40.3929 39.0829 40.3797 39.0637 40.3605C38.9929 40.3149 38.8886 40.3281 38.8442 40.4001L37.2379 42.6338L35.6256 40.4001C35.574 40.3281 35.4769 40.3149 35.4061 40.3605C35.3989 40.3677 35.3929 40.3677 35.3929 40.3737C35.3545 40.4001 35.3281 40.4445 35.3281 40.4973V44.6923C35.3281 44.7763 35.3989 44.8471 35.4901 44.8471C35.574 44.8471 35.6448 44.7763 35.6448 44.6923V40.9699L37.0952 42.9769C37.1276 43.0285 37.1731 43.0476 37.2319 43.0476H37.2451C37.2895 43.0476 37.3411 43.0285 37.3735 42.9769L38.8238 40.9627V44.6923Z" fill="white"/>
<path d="M189.346 40.8567C189.346 41.1566 189.488 41.4145 189.701 41.5801C189.2 41.7876 188.844 42.2902 188.844 42.866C188.844 43.6386 189.469 44.2576 190.235 44.2576C191.007 44.2576 191.626 43.6386 191.626 42.866C191.626 42.2902 191.271 41.7876 190.762 41.5801C190.983 41.4145 191.13 41.1566 191.13 40.8567C191.13 40.366 190.725 39.9678 190.235 39.9678C189.739 39.9678 189.346 40.366 189.346 40.8567ZM189.139 42.866C189.139 42.2662 189.628 41.7696 190.235 41.7696C190.848 41.7696 191.332 42.2662 191.332 42.866C191.332 43.473 190.848 43.9637 190.235 43.9637C189.628 43.9637 189.139 43.473 189.139 42.866ZM189.64 40.8567C189.64 40.5256 189.904 40.2629 190.235 40.2629C190.566 40.2629 190.835 40.5256 190.835 40.8567C190.835 41.1878 190.566 41.4577 190.235 41.4637C189.904 41.4577 189.64 41.1878 189.64 40.8567Z" fill="white"/>
<path d="M193.435 44.2576C193.802 44.2576 194.182 44.11 194.464 43.8341C194.752 43.5522 194.886 43.1731 194.886 42.8049C194.886 42.4258 194.752 42.0575 194.464 41.7756C194.182 41.4877 193.814 41.3533 193.44 41.3533C193.183 41.3533 192.932 41.4205 192.711 41.5489L192.865 40.2749H194.734C194.819 40.2749 194.886 40.2137 194.886 40.1213C194.886 40.0361 194.819 39.9678 194.734 39.9678H192.736C192.699 39.9678 192.662 39.981 192.638 40.005C192.601 40.0302 192.577 40.0661 192.577 40.1153L192.368 41.8428C192.368 41.856 192.362 41.868 192.362 41.874C192.362 41.892 192.362 41.9111 192.368 41.9231C192.368 41.9291 192.368 41.9351 192.374 41.9411V41.9471C192.38 41.9651 192.393 41.9843 192.411 41.9963C192.466 42.0575 192.565 42.0575 192.626 41.9963C192.853 41.7696 193.141 41.6592 193.44 41.6592C193.734 41.6592 194.028 41.7696 194.249 41.9903C194.47 42.2111 194.58 42.505 194.58 42.8049C194.58 43.0988 194.47 43.3867 194.243 43.6134C194.016 43.8401 193.728 43.9505 193.435 43.9505C193.141 43.9505 192.853 43.8401 192.626 43.6194C192.565 43.5582 192.466 43.5582 192.405 43.6194C192.344 43.6746 192.344 43.773 192.405 43.8341C192.687 44.116 193.06 44.2576 193.435 44.2576Z" fill="white"/>
<path d="M196.813 42.0874C197.383 42.0874 197.762 41.5668 197.762 40.991V40.979C197.762 40.4152 197.389 39.8945 196.825 39.8945C196.255 39.8945 195.875 40.4152 195.875 40.991V41.003C195.875 41.5728 196.249 42.0874 196.813 42.0874ZM196.433 44.128C196.433 44.2012 196.494 44.2563 196.567 44.2563C196.616 44.2563 196.654 44.2323 196.684 44.1891L199.668 40.1273C199.686 40.1021 199.692 40.0781 199.692 40.0469C199.692 39.9737 199.631 39.9185 199.558 39.9185C199.509 39.9185 199.471 39.9425 199.441 39.9857L196.457 44.0476C196.439 44.0728 196.433 44.0968 196.433 44.128ZM199.3 44.2815C199.87 44.2815 200.25 43.7597 200.25 43.1839V43.1719C200.25 42.6081 199.876 42.0874 199.312 42.0874C198.742 42.0874 198.363 42.6081 198.363 43.1839V43.1971C198.363 43.7669 198.736 44.2815 199.3 44.2815ZM196.825 41.8235C196.482 41.8235 196.194 41.4744 196.194 40.991V40.979C196.194 40.5315 196.451 40.1572 196.813 40.1572C197.156 40.1572 197.444 40.5123 197.444 40.991V41.003C197.444 41.4624 197.186 41.8235 196.825 41.8235ZM199.312 44.0176C198.969 44.0176 198.681 43.6685 198.681 43.1839V43.1719C198.681 42.7244 198.939 42.3513 199.3 42.3513C199.643 42.3513 199.931 42.7064 199.931 43.1839V43.1971C199.931 43.6565 199.674 44.0176 199.312 44.0176Z" fill="white"/>
<path d="M206.012 40.5255L213.012 40.5123L213.018 44.0127L206.017 44.0199L206.012 40.5255ZM215.261 40.1092L205.637 40.1248L205.642 44.4254L215.267 44.4098L215.261 40.1092ZM205.814 44.7841C205.506 44.7853 205.257 44.5562 205.257 44.2743L205.25 40.2747C205.25 39.9952 205.501 39.7649 205.803 39.7637L215.09 39.7481C215.394 39.7493 215.643 39.9772 215.647 40.2579L215.646 41.0845L216.362 41.0809L216.368 43.4381L215.651 43.4417L215.653 44.2599C215.653 44.5406 215.404 44.7685 215.098 44.7685L205.814 44.7841Z" fill="#F9F9F8"/>
<path d="M130.083 22.3316H90.8167C89.9433 22.3316 89.2344 21.6226 89.2344 20.7493C89.2344 19.876 89.9433 19.167 90.8167 19.167H131.091L130.083 22.3316Z" fill="white"/>
<path d="M12.7683 44.6902C12.7683 44.7742 12.8391 44.845 12.9231 44.845C13.0142 44.845 13.079 44.7742 13.079 44.6902V40.5276C13.085 40.488 13.079 40.4496 13.0598 40.41C13.0202 40.3392 12.9171 40.3128 12.8451 40.3524L11.9718 40.8827C11.8938 40.9222 11.8674 41.0122 11.913 41.0962C11.9394 41.1418 11.9909 41.1742 12.0497 41.1742C12.0749 41.1742 12.1073 41.161 12.1265 41.149L12.7683 40.7735V44.6902Z" fill="white"/>
<path d="M14.6686 44.18C14.9469 44.5878 15.3416 44.8661 15.8011 44.8661C16.2605 44.8661 16.6564 44.5878 16.9347 44.18C17.2058 43.7661 17.375 43.2095 17.375 42.6001C17.375 41.9919 17.2058 41.4352 16.9347 41.0142C16.6564 40.6135 16.2605 40.334 15.8011 40.334C15.3416 40.334 14.9469 40.6135 14.6686 41.0142C14.3891 41.4352 14.2344 41.9919 14.2344 42.6001C14.2344 43.2095 14.3891 43.7661 14.6686 44.18ZM14.9337 41.1953C15.1665 40.839 15.4772 40.6519 15.8011 40.6519C16.125 40.6519 16.4297 40.839 16.6684 41.1953C16.9023 41.5456 17.0571 42.0434 17.0571 42.6001C17.0571 43.1579 16.9023 43.6557 16.6684 44.006C16.4297 44.3491 16.125 44.5494 15.8011 44.5494C15.4772 44.5494 15.1665 44.3491 14.9337 44.006C14.701 43.6557 14.5511 43.1579 14.5511 42.6001C14.5511 42.0434 14.701 41.5456 14.9337 41.1953Z" fill="white"/>
<path d="M18.9219 44.5493C18.9219 44.7304 19.0634 44.872 19.2458 44.872C19.4269 44.872 19.5685 44.7304 19.5685 44.5493C19.5685 44.3682 19.4269 44.2254 19.2458 44.2254C19.0634 44.2254 18.9219 44.3682 18.9219 44.5493ZM18.9219 41.8298C18.9219 42.0109 19.0634 42.1537 19.2458 42.1537C19.4269 42.1537 19.5685 42.0109 19.5685 41.8298C19.5685 41.6486 19.4269 41.5059 19.2458 41.5059C19.0634 41.5059 18.9219 41.6486 18.9219 41.8298Z" fill="white"/>
<path d="M22.7455 40.5679C22.7587 40.5487 22.7647 40.5223 22.7647 40.4959C22.7647 40.406 22.6939 40.334 22.6028 40.334H20.4854C20.3955 40.334 20.3235 40.406 20.3235 40.4959C20.3235 40.5871 20.3955 40.6579 20.4854 40.6579H22.2213L21.0948 41.8167C21.0301 41.8815 21.0301 41.9859 21.0948 42.0506H21.1008C21.1332 42.089 21.1788 42.1154 21.2304 42.1154C21.5411 42.1154 21.8518 42.2318 22.0845 42.4717C22.3244 42.7044 22.4408 43.0151 22.4408 43.3258C22.4408 43.6365 22.3244 43.9472 22.0845 44.1872C21.8458 44.4199 21.5351 44.5362 21.2244 44.5362C20.9137 44.5362 20.609 44.4199 20.3691 44.1872C20.3043 44.1224 20.2011 44.1224 20.1423 44.1872C20.0776 44.2519 20.0776 44.3551 20.1423 44.4139C20.441 44.7174 20.8357 44.8661 21.2244 44.8661C21.6191 44.8661 22.0137 44.7114 22.3112 44.4139C22.6159 44.1152 22.7647 43.7205 22.7647 43.3258C22.7647 42.9312 22.616 42.5353 22.3185 42.2378C22.0977 42.0182 21.8266 41.8815 21.5411 41.8239L22.7131 40.6195C22.7263 40.6063 22.7395 40.5871 22.7455 40.5679Z" fill="white"/>
<path d="M25.2155 44.18C25.4938 44.5878 25.8885 44.8661 26.348 44.8661C26.8074 44.8661 27.2021 44.5878 27.4816 44.18C27.7527 43.7661 27.9218 43.2095 27.9218 42.6001C27.9218 41.9919 27.7527 41.4352 27.4816 41.0142C27.2021 40.6135 26.8074 40.334 26.348 40.334C25.8885 40.334 25.4938 40.6135 25.2155 41.0142C24.936 41.4352 24.7812 41.9919 24.7812 42.6001C24.7812 43.2095 24.936 43.7661 25.2155 44.18ZM25.4806 41.1953C25.7133 40.839 26.0241 40.6519 26.348 40.6519C26.6718 40.6519 26.9765 40.839 27.2153 41.1953C27.4492 41.5456 27.6039 42.0434 27.6039 42.6001C27.6039 43.1579 27.4492 43.6557 27.2153 44.006C26.9765 44.3491 26.6718 44.5494 26.348 44.5494C26.0241 44.5494 25.7133 44.3491 25.4806 44.006C25.2479 43.6557 25.0979 43.1579 25.0979 42.6001C25.0979 42.0434 25.2479 41.5456 25.4806 41.1953Z" fill="white"/>
<path d="M33.8169 44.7426C33.8433 44.8074 33.9081 44.8457 33.9669 44.8457C33.9861 44.8457 33.9981 44.8398 34.0245 44.8398C34.1025 44.8074 34.1408 44.7102 34.1085 44.6322L32.5358 40.4312C32.5166 40.3724 32.4518 40.334 32.3798 40.334C32.315 40.334 32.2502 40.3724 32.2251 40.4312L30.6512 44.6322C30.6188 44.7102 30.6644 44.8074 30.7423 44.8398C30.7615 44.8398 30.7867 44.8457 30.7999 44.8457C30.8647 44.8457 30.9235 44.8074 30.9487 44.7426L31.3505 43.6749H33.4163L33.8169 44.7426ZM32.387 40.923L33.2999 43.357H31.4669L32.387 40.923Z" fill="white"/>
<path d="M38.8238 44.6923C38.8238 44.7763 38.8886 44.8471 38.9798 44.8471C39.0637 44.8471 39.1357 44.7763 39.1357 44.6923V40.4973C39.1357 40.4709 39.1225 40.4385 39.1093 40.4121C39.0961 40.3929 39.0829 40.3797 39.0637 40.3605C38.9929 40.3149 38.8886 40.3281 38.8442 40.4001L37.2379 42.6338L35.6256 40.4001C35.574 40.3281 35.4769 40.3149 35.4061 40.3605C35.3989 40.3677 35.3929 40.3677 35.3929 40.3737C35.3545 40.4001 35.3281 40.4445 35.3281 40.4973V44.6923C35.3281 44.7763 35.3989 44.8471 35.4901 44.8471C35.574 44.8471 35.6448 44.7763 35.6448 44.6923V40.9699L37.0952 42.9769C37.1276 43.0285 37.1731 43.0476 37.2319 43.0476H37.2451C37.2895 43.0476 37.3411 43.0285 37.3735 42.9769L38.8238 40.9627V44.6923Z" fill="white"/>
<rect x="14.5" y="62.5" width="197" height="347" rx="1.5" stroke="white"/>
<g clip-path="url(#clip0)">
<g opacity="0.9">
<path opacity="0.9" d="M43.2523 304.613C47.2452 304.613 51.1114 301.389 52.6959 287.95H33.8086C35.1079 300.974 39.2593 304.613 43.2523 304.613Z" fill="white"/>
<path opacity="0.9" d="M89.4517 298.516L89.1665 299.282C88.9447 299.187 88.6912 299.123 88.4694 299.059C88.1841 299.474 87.9306 299.889 87.6771 300.336C88.0257 300.432 88.3743 300.527 88.6912 300.655L88.406 301.421L88.1208 302.187C87.7088 302.028 87.2968 301.9 86.8532 301.804C86.5679 302.379 86.3144 302.985 86.1243 303.592C86.5679 303.687 87.0433 303.815 87.487 303.975L87.2017 304.741L86.9165 305.507C86.5046 305.347 86.0609 305.22 85.6172 305.156C85.5222 305.571 85.4271 305.986 85.332 306.401H87.1701C88.9447 298.293 96.1384 292.196 104.726 292.164C113.314 292.164 120.508 298.261 122.283 306.401H124.121C124.057 306.145 123.994 305.858 123.931 305.603C123.519 305.698 123.107 305.794 122.726 305.954L122.473 305.188L122.219 304.422C122.663 304.262 123.075 304.134 123.519 304.039C123.329 303.432 123.075 302.826 122.821 302.251C122.409 302.347 121.998 302.474 121.586 302.602L121.332 301.836L121.079 301.07C121.427 300.942 121.776 300.846 122.124 300.751C121.807 300.144 121.459 299.57 121.079 299.027C120.698 299.123 120.318 299.25 119.969 299.378L119.716 298.612L119.462 297.846C119.652 297.782 119.874 297.718 120.064 297.654C116.42 293.217 110.938 290.376 104.79 290.376C98.6736 290.376 93.1595 293.185 89.5468 297.622C89.6102 297.654 89.7053 297.654 89.7687 297.686L89.4517 298.516Z" fill="white"/>
<path opacity="0.9" d="M104.76 293.824C97.0281 293.824 90.5633 299.218 88.8203 306.464H90.69C92.4013 300.24 98.0421 295.643 104.76 295.643C111.479 295.643 117.151 300.24 118.831 306.464H120.701C118.958 299.218 112.461 293.824 104.76 293.824Z" fill="white"/>
<path opacity="0.9" d="M104.763 297.75C99.2169 297.75 94.4951 301.421 92.8789 306.464H94.7803C96.3331 302.442 100.231 299.57 104.763 299.57C109.294 299.57 113.192 302.442 114.745 306.464H116.647C115.03 301.421 110.308 297.75 104.763 297.75Z" fill="white"/>
<path opacity="0.9" d="M88.4728 299.059C88.6946 299.123 88.9481 299.218 89.1699 299.282L89.4552 298.516L89.7404 297.75C89.677 297.718 89.5819 297.718 89.5185 297.686C80.9939 294.718 71.7087 298.612 67.6523 306.464H69.5221C73.3249 299.985 81.1523 296.792 88.4728 299.059Z" fill="white"/>
<path opacity="0.9" d="M86.8889 301.836C87.3008 301.932 87.7128 302.059 88.1565 302.219L88.4417 301.453L88.7269 300.687C88.3783 300.559 88.0614 300.463 87.7128 300.368C81.4382 298.58 74.7832 301.166 71.2656 306.496H73.2938C76.4628 302.442 81.7551 300.527 86.8889 301.836Z" fill="white"/>
<path opacity="0.9" d="M85.6516 305.22C86.0953 305.315 86.5073 305.443 86.9509 305.571L87.2361 304.805L87.5214 304.039C87.0777 303.879 86.634 303.751 86.1587 303.655C82.4192 302.794 78.553 303.943 75.8594 306.496H78.553C80.6129 305.156 83.1481 304.677 85.6516 305.22Z" fill="white"/>
<path opacity="0.9" d="M119.687 298.644L119.941 299.41C120.321 299.282 120.701 299.155 121.05 299.059C128.085 297.144 135.5 300.272 139.145 306.433H140.983C137.085 298.931 128.275 295.133 120.036 297.686C119.846 297.75 119.624 297.814 119.434 297.878L119.687 298.644Z" fill="white"/>
<path opacity="0.9" d="M122.128 300.815C121.779 300.91 121.431 301.006 121.082 301.134L121.336 301.9L121.589 302.666C122.001 302.506 122.413 302.411 122.825 302.315C127.674 301.134 132.649 302.826 135.818 306.465H137.878C134.392 301.549 128.117 299.187 122.128 300.815Z" fill="white"/>
<path opacity="0.9" d="M123.553 304.102C123.11 304.198 122.698 304.326 122.254 304.485L122.507 305.251L122.761 306.018C123.173 305.89 123.553 305.762 123.965 305.666C126.12 305.22 128.307 305.539 130.176 306.464H133.124C130.525 304.262 127.007 303.304 123.553 304.102Z" fill="white"/>
<path opacity="0.9" d="M211.937 324.053H173.18L172.577 295.963C175.081 295.196 176.792 292.898 176.792 290.217V281.279C176.792 280.289 176 279.523 175.049 279.523C175.018 279.523 174.986 279.523 174.954 279.523C174.035 279.587 173.306 280.353 173.306 281.279V287.982C173.306 288.557 173.116 288.844 172.736 288.844C172.356 288.844 172.165 288.557 172.165 287.982V281.119C172.165 280.226 171.437 279.491 170.549 279.491C169.662 279.491 168.933 280.226 168.933 281.119V287.95C168.933 288.525 168.743 288.812 168.363 288.812C167.982 288.812 167.792 288.525 167.792 287.95V281.247C167.792 280.321 167.063 279.555 166.144 279.491C166.113 279.491 166.081 279.491 166.049 279.491C165.067 279.491 164.306 280.289 164.306 281.247V281.949V286.833V286.865C164.306 286.897 164.306 286.929 164.306 286.961V290.153C164.306 292.834 166.018 295.133 168.521 295.899L167.919 323.989H157.873L157.271 296.122C160.123 295.292 161.486 292.611 161.486 287.919C161.486 285.78 160.757 283.641 159.426 281.949C158.19 280.385 156.606 279.428 155.211 279.428C152.296 279.428 148.937 283.13 148.937 287.919C148.937 292.419 150.394 295.228 153.151 296.09L152.549 323.957H126.975C137.338 320.127 143.486 313.934 143.486 307.199C143.486 307.167 143.486 307.135 143.486 307.071C143.423 306.656 143.074 306.337 142.662 306.337H141.014H139.176H137.908H135.849H133.155H130.208H124.155H122.317H120.701H118.831H116.644H114.743H94.7782H92.8768H90.6901H88.8204H87.2042H85.3662H78.5528H75.8592H73.2606H71.2324H69.5528H67.6831H65.5599C65.1162 306.337 64.7676 306.688 64.7359 307.135C64.7359 307.167 64.7359 307.167 64.7359 307.199C64.7359 313.934 70.8838 320.095 81.2465 323.957H44.993L44.9296 308.476C45.088 308.444 45.2465 308.412 45.3732 308.38C53.581 306.56 57.4472 293.792 57.4472 268.67V268H28.9894V268.766C28.9894 293.92 32.8239 306.656 41.0634 308.476C41.412 308.539 41.7606 308.603 42.1408 308.667V324.053H14.9507C14.4437 324.053 14 324.468 14 325.01C14 325.521 14.412 325.968 14.9507 325.968H35.3275C35.3908 325.968 35.4225 325.968 35.4859 325.968H50.9824C51.0458 325.968 51.0775 325.968 51.1408 325.968H81.8169C82.007 325.968 82.1655 325.904 82.3239 325.808C82.419 325.745 82.5141 325.649 82.5775 325.553L83.5916 324.595H83.5599C83.5916 324.595 83.5916 324.564 83.6232 324.564L83.9085 324.276C83.9718 324.181 84.0035 324.053 84.0035 323.925C84.0352 323.542 83.7817 323.191 83.4331 323.095C73.2289 319.712 66.9859 314.189 66.4472 308.188H66.9225H68.6972H70.2817H72.1514H74.4331H76.5563H85.1761H86.9824H88.5669H90.3732H92.4965H94.3345H115.313H117.151H119.275H121.081H122.665H124.472H132.648H134.835H137.148H139.018H140.095H141.838C141.838 308.188 141.838 308.188 141.838 308.22C141.806 308.507 141.775 308.795 141.711 309.082C140.665 314.732 134.549 319.871 124.852 323.095C124.504 323.223 124.25 323.574 124.282 323.925C124.282 324.085 124.345 324.212 124.408 324.34C124.408 324.34 125.771 326 125.93 326H153.12C153.342 326 153.532 325.585 153.532 325.042C153.532 324.883 153.5 324.755 153.5 324.627L153.532 322.616L153.595 320.127L154.134 295.516L153.785 295.42C151.218 294.782 149.887 292.292 149.887 288.014C149.887 283.833 152.835 280.449 155.275 280.449C157.43 280.449 160.662 283.641 160.662 288.014C160.662 292.483 159.426 294.845 156.764 295.42L156.415 295.516L156.954 320.095L157.018 322.584L157.049 324.404C157.018 324.564 157.018 324.787 157.018 325.01C157.018 325.521 157.081 325.968 157.176 325.968H168.648C168.743 325.968 168.806 325.553 168.806 325.01C168.806 324.947 168.806 324.915 168.806 324.851C168.806 324.819 168.806 324.787 168.806 324.723L168.838 322.553L168.87 321.946L168.901 320.733V320.095L169.44 295.26L169.092 295.165C166.81 294.622 165.194 292.579 165.194 290.217V287.025C165.194 286.993 165.194 286.961 165.194 286.961V281.566V281.279C165.225 280.832 165.606 280.449 166.049 280.449H166.081H166.113C166.556 280.481 166.905 280.864 166.905 281.311V288.014C166.905 289.1 167.475 289.802 168.363 289.802C169.25 289.802 169.852 289.1 169.852 288.014V281.119C169.852 280.736 170.169 280.385 170.581 280.385C170.961 280.385 171.31 280.704 171.31 281.119V287.95C171.31 289.036 171.88 289.706 172.768 289.706C173.655 289.706 174.257 289.004 174.257 287.95V281.247C174.257 280.8 174.606 280.417 175.049 280.385H175.081H175.113C175.588 280.385 175.968 280.768 175.968 281.247V290.185C175.968 292.547 174.384 294.59 172.07 295.133L171.722 295.228L172.261 320.063V320.957L172.292 321.627L172.324 322.584L172.356 324.723V324.755C172.356 324.755 172.324 326 172.577 325.968L212.032 326C212.127 326 212 325.777 212 325.234C211.937 324.34 212.032 324.053 211.937 324.053ZM35.3275 300.783C35.1056 300.368 34.9155 299.889 34.7254 299.378C32.2852 293.154 31.0493 283.705 30.9859 270.075H55.419C55.3873 283.705 54.1197 293.122 51.7113 299.378C51.5211 299.889 51.331 300.368 51.1092 300.815C49.1444 305.06 46.5141 307.199 43.2183 307.199C39.9225 307.199 37.2923 305.06 35.3275 300.783Z" fill="white"/>
</g>
</g>
<g clip-path="url(#clip1)">
<path d="M134.794 188.893C132.523 185.485 131.322 181.52 131.322 177.425V165.797C131.322 161.025 129.461 156.541 126.08 153.173C123.212 150.314 119.545 148.553 115.583 148.095V143.697H111.306V148.111C102.514 149.208 95.6777 156.808 95.6777 165.967V177.425C95.6777 181.52 94.477 185.486 92.2055 188.893L88.1172 195.025H107.452C108.335 197.515 110.712 199.303 113.5 199.303C116.288 199.303 118.665 197.515 119.548 195.025H138.883L134.794 188.893ZM96.1003 190.748C98.6241 186.754 99.955 182.161 99.955 177.425V165.967C99.955 158.43 106.01 152.278 113.452 152.252C113.468 152.252 113.484 152.252 113.5 152.252C117.109 152.252 120.504 153.654 123.061 156.203C125.63 158.763 127.045 162.17 127.045 165.797V177.425C127.045 182.162 128.376 186.754 130.9 190.748H96.1003Z" fill="white"/>
<path d="M143.946 156.881L140.922 159.906C144.019 163.003 145.724 167.12 145.724 171.5C145.724 175.784 144.083 179.836 141.102 182.911L144.173 185.888C147.932 182.011 150.002 176.901 150.002 171.5C150.002 165.978 147.851 160.786 143.946 156.881Z" fill="white"/>
<path d="M137.896 162.93L134.871 165.955C136.352 167.436 137.168 169.405 137.168 171.5C137.168 173.562 136.374 175.509 134.932 176.983L137.99 179.974C140.218 177.696 141.445 174.687 141.445 171.5C141.445 168.263 140.185 165.219 137.896 162.93Z" fill="white"/>
<path d="M86.0798 159.906L83.0553 156.881C79.1505 160.786 77 165.978 77 171.5C77 176.901 79.0699 182.011 82.8283 185.888L85.8996 182.911C82.919 179.836 81.2773 175.784 81.2773 171.5C81.2773 167.12 82.9829 163.003 86.0798 159.906Z" fill="white"/>
<path d="M92.1288 165.955L89.1043 162.93C86.8154 165.219 85.5547 168.263 85.5547 171.5C85.5547 174.687 86.7817 177.696 89.0099 179.974L92.0675 176.983C90.6259 175.509 89.832 173.562 89.832 171.5C89.832 169.405 90.6477 167.436 92.1288 165.955Z" fill="white"/>
</g>
<defs>
<clipPath id="clip0">
<rect x="14" y="268" width="198" height="58" fill="white"/>
</clipPath>
<clipPath id="clip1">
<rect x="77" y="135" width="73" height="73" fill="white"/>
</clipPath>
</defs>
</svg>
