<svg width="433" height="383" viewBox="0 0 433 383" fill="none" xmlns="http://www.w3.org/2000/svg">
<path d="M35.4258 218.04C39.8484 313.586 124.85 340.787 230.721 342.835C392.171 345.955 410.961 294.662 410.961 199.011C410.961 103.357 375.765 4.6018 282.443 11.8835C238.104 15.3424 187.78 88.8279 150.101 113.213C98.0588 146.895 32.1039 146.266 35.4258 218.04Z" fill="#AADC41"/>
<path d="M108.959 363.058H108.97C113.564 363.056 118.471 362.651 123.651 361.898C123.527 361.581 123.408 361.263 123.294 360.942C118.242 361.668 113.46 362.058 108.991 362.058H108.97C96.6595 362.056 86.7567 359.116 79.9209 352.209C73.084 345.304 69.2372 334.348 69.2362 318.132C69.2362 315.77 69.3172 313.298 69.4832 310.711C69.7011 307.313 70.108 303.866 70.6868 300.377C70.4049 300.059 70.118 299.734 69.8391 299.414C69.1823 303.205 68.7244 306.952 68.4855 310.647C68.3186 313.253 68.2366 315.747 68.2366 318.132C68.2346 334.493 72.1223 345.749 79.2111 352.913C86.2988 360.073 96.5076 363.058 108.959 363.058ZM368.576 351.349C377.885 351.35 386.582 349.962 394.506 346.441C421.3 334.55 432.581 314.974 432.572 296.24C432.571 281.448 425.564 267.206 413.761 257.672L413.708 257.63L413.646 257.603L413.557 257.562C413.495 257.534 413.403 257.492 413.28 257.433C413.035 257.316 412.673 257.138 412.203 256.893C411.264 256.404 409.902 255.651 408.216 254.597C407.894 254.396 407.561 254.183 407.216 253.96C407.152 254.319 407.088 254.669 407.022 255.024C410.484 257.242 412.783 258.31 413.184 258.49C424.731 267.84 431.574 281.787 431.573 296.24C431.564 314.56 420.613 333.737 394.101 345.528C386.337 348.977 377.788 350.349 368.576 350.349H368.563C351.62 350.349 332.456 345.693 312 340.87V341.897C332.373 346.699 351.512 351.347 368.576 351.349ZM170.274 97.1478C170.567 96.8809 170.859 96.615 171.154 96.3461C170.453 96.1631 169.761 95.9752 169.074 95.7812V96.8189C169.472 96.9309 169.872 97.0399 170.274 97.1478Z" fill="#9CBDDD"/>
<path d="M74.8073 279.643H75.858C81.5542 262.054 90.4294 243.806 100.345 225.696C116.266 196.611 134.854 167.89 147.194 142.761C149.31 138.452 151.241 134.251 152.944 130.169H151.862C150.207 134.108 148.34 138.162 146.298 142.32C138.098 159.018 127.105 177.351 115.963 196.346C99.9273 223.693 83.5735 252.396 74.8073 279.643ZM407.022 255.026C407.088 254.67 407.152 254.32 407.216 253.961C403.951 251.844 399.694 248.722 395.041 244.38C391.01 240.619 386.683 235.942 382.446 230.212C382.149 230.374 381.841 230.519 381.525 230.647C390.944 243.437 400.839 251.065 407.022 255.026ZM372.396 216.039C372.648 215.812 372.913 215.598 373.19 215.4C370.094 209.495 367.243 202.851 364.833 195.394C357.086 171.43 346.19 149.33 330.538 132.86C325.092 127.128 319.068 122.081 312.403 117.879L311.424 118.445C318.19 122.655 324.295 127.745 329.813 133.549C345.317 149.86 356.166 171.825 363.881 195.702C366.333 203.286 369.24 210.041 372.396 216.039ZM304.283 114.458V113.344C293.647 108.131 281.546 104.913 267.785 104.213C247.856 103.198 227.333 103.032 208.477 101.717C194.884 100.771 182.156 99.2247 171.154 96.3477C170.859 96.6166 170.567 96.8825 170.274 97.1494C176.416 98.7939 183.084 100.012 190.133 100.939C213.555 104.016 241.199 103.859 267.734 105.212C281.559 105.919 293.664 109.177 304.283 114.458Z" fill="#7DB1DF"/>
<path d="M410.954 202.053C419.36 199.975 425.592 192.38 425.592 183.332C425.592 173.723 418.566 165.755 409.368 164.289C410.444 175.78 410.961 187.414 410.961 199.009C410.961 200.031 410.959 201.041 410.954 202.053Z" fill="#9CBDDD"/>
<path d="M406.308 202.616C407.91 202.616 409.466 202.422 410.954 202.053C410.959 201.041 410.961 200.03 410.961 199.009C410.961 187.413 410.444 175.78 409.368 164.289C408.372 164.13 407.35 164.047 406.308 164.047C395.658 164.047 387.024 172.681 387.024 183.332C387.024 193.981 395.658 202.616 406.308 202.616Z" fill="#7DB1DF"/>
<path d="M410.899 208.028C422.579 205.871 431.425 195.635 431.425 183.331C431.425 170.286 421.481 159.565 408.76 158.332C408.798 158.672 408.835 159.009 408.872 159.349C414.508 159.944 419.564 162.48 423.362 166.277C427.727 170.643 430.425 176.669 430.425 183.331C430.425 189.992 427.727 196.018 423.362 200.384C420.028 203.718 415.727 206.078 410.913 207.008C410.909 207.349 410.904 207.688 410.899 208.028Z" fill="#9CBDDD"/>
<path d="M406.309 208.448C407.876 208.448 409.411 208.304 410.899 208.029C410.904 207.689 410.909 207.35 410.913 207.009C409.423 207.297 407.883 207.448 406.309 207.448C399.648 207.448 393.622 204.75 389.255 200.384C384.89 196.019 382.192 189.993 382.191 183.332C382.192 176.67 384.89 170.644 389.255 166.278C393.622 161.914 399.648 159.215 406.309 159.215C407.174 159.215 408.029 159.261 408.872 159.349C408.835 159.01 408.798 158.673 408.76 158.333C407.953 158.255 407.135 158.215 406.309 158.215C392.437 158.215 381.193 169.46 381.192 183.332C381.193 197.203 392.437 208.448 406.309 208.448Z" fill="#7DB1DF"/>
<path d="M35.4049 217.559C35.308 215.252 35.282 213.015 35.3259 210.856C28.784 208.841 24.0296 202.75 24.0296 195.547C24.0296 186.701 31.1993 179.532 40.0444 179.532C40.9032 179.532 41.7469 179.6 42.5696 179.73C43.6363 177.682 44.8129 175.73 46.0835 173.874C44.1621 173.341 42.1368 173.055 40.0444 173.055C27.6224 173.055 17.5526 183.124 17.5526 195.547C17.5526 206.378 25.2092 215.421 35.4049 217.559ZM35.3529 209.815C35.7138 198.189 38.1101 188.668 42.0908 180.669C41.422 180.578 40.7392 180.531 40.0444 180.531C35.8968 180.531 32.146 182.211 29.4268 184.929C26.7087 187.648 25.0292 191.399 25.0292 195.547C25.0292 199.695 26.7087 203.445 29.4268 206.164C31.0713 207.809 33.0937 209.072 35.3529 209.815Z" fill="#9CBDDD"/>
<path d="M40.0443 218.039C52.4664 218.039 62.5361 207.969 62.5361 195.547C62.5361 185.217 55.5733 176.513 46.0834 173.875C44.8128 175.73 43.6362 177.683 42.5695 179.73C50.2141 180.941 56.0582 187.561 56.0592 195.547C56.0582 204.392 48.8895 211.562 40.0443 211.562C38.4018 211.562 36.8174 211.315 35.3258 210.856C35.2818 213.015 35.3078 215.253 35.4048 217.56C36.9023 217.874 38.4538 218.039 40.0443 218.039ZM40.0443 210.562C44.192 210.562 47.9428 208.883 50.6619 206.165C53.3791 203.446 55.0585 199.696 55.0595 195.547C55.0585 191.399 53.3791 187.649 50.6619 184.929C48.3977 182.666 45.4186 181.124 42.0907 180.67C38.1099 188.668 35.7137 198.189 35.3528 209.816C36.8284 210.3 38.4058 210.562 40.0443 210.562Z" fill="#7DB1DF"/>
<path d="M189.311 145.022H204.113L197.558 134.615L197.16 133.984L189.311 145.022ZM197.111 135.78L202.302 144.022H191.248L197.111 135.78ZM197.135 134.882L197.542 135.172L197.135 134.882Z" fill="#7DB1DF"/>
<path d="M273.607 57.9951H290.875L282.763 45.1172L273.607 57.9951Z" fill="#7DB1DF"/>
<path d="M204.697 63.542C216.115 52.2656 227.827 41.1532 239.531 32.129C235.234 27.2816 228.961 24.2266 221.973 24.2266C209.02 24.2266 198.52 34.7272 198.52 47.6801C198.52 53.7961 200.861 59.3663 204.697 63.542Z" fill="#9CBDDD"/>
<path d="M221.973 71.1344C234.927 71.1344 245.428 60.6338 245.428 47.6799C245.428 41.7148 243.199 36.2686 239.531 32.1289C227.827 41.153 216.115 52.2655 204.697 63.5419C208.982 68.2094 215.136 71.1344 221.973 71.1344Z" fill="#7DB1DF"/>
<path d="M219.538 44.7737L218.219 42.2505C217.373 40.63 217.999 38.6296 219.62 37.7829C220.724 37.2051 221.152 35.8415 220.575 34.7379L218.602 30.9621C218.024 29.8574 216.661 29.4296 215.556 30.0074L213.838 30.9051C212.219 31.7518 210.901 33.0754 210.061 34.6979L209.559 35.6686C208.693 37.341 208.697 39.3314 209.57 40.9999L213.258 48.0556L215.719 52.7661L219.407 59.8219C220.28 61.4913 221.911 62.631 223.778 62.8749L224.862 63.0168C226.673 63.2538 228.513 62.9269 230.131 62.0812L231.85 61.1834C232.955 60.6056 233.381 59.2431 232.804 58.1384L230.832 54.3626C230.254 53.258 228.891 52.8301 227.787 53.4079C226.166 54.2546 224.165 53.6278 223.319 52.0064L222 49.4842L219.538 44.7737Z" fill="white"/>
<path d="M55.2746 317.578C58.2326 317.578 60.6299 315.182 60.6299 312.223C60.6299 309.265 58.2336 306.868 55.2746 306.867C52.3175 306.868 49.9193 309.265 49.9193 312.223C49.9193 315.182 52.3175 317.578 55.2746 317.578ZM55.2746 307.867C56.4792 307.868 57.5649 308.354 58.3546 309.142C59.1434 309.933 59.6302 311.019 59.6302 312.223C59.6302 313.428 59.1434 314.514 58.3546 315.303C57.5649 316.091 56.4792 316.578 55.2746 316.578C54.071 316.578 52.9843 316.091 52.1946 315.303C51.4058 314.513 50.919 313.428 50.919 312.223C50.919 311.019 51.4058 309.933 52.1946 309.143C52.9843 308.354 54.071 307.868 55.2746 307.867Z" fill="#9CBDDD"/>
<path d="M340.705 55.3956C345.662 55.3956 349.68 51.3779 349.68 46.4205C349.68 41.464 345.662 37.4453 340.705 37.4453C335.747 37.4453 331.729 41.464 331.729 46.4205C331.729 51.3779 335.747 55.3956 340.705 55.3956Z" fill="#D8EDFA"/>
<path d="M95.652 180.631C100.885 180.63 105.127 176.388 105.128 171.155C105.127 165.921 100.885 161.68 95.652 161.68C90.4186 161.68 86.177 165.921 86.177 171.155C86.177 176.388 90.4186 180.63 95.652 180.631ZM95.652 162.679C97.9942 162.679 100.111 163.627 101.645 165.162C103.181 166.697 104.127 168.812 104.128 171.155C104.127 173.497 103.181 175.612 101.645 177.148C100.111 178.682 97.9942 179.63 95.652 179.631C93.3097 179.63 91.1944 178.682 89.6589 177.148C88.1244 175.612 87.1767 173.497 87.1767 171.155C87.1767 168.812 88.1244 166.697 89.6589 165.162C91.1944 163.627 93.3097 162.679 95.652 162.679Z" fill="#7DB1DF"/>
<path d="M378.267 231.27C379.419 231.27 380.518 231.048 381.524 230.644C378.376 226.369 375.282 221.519 372.396 216.037C370.63 217.637 369.519 219.949 369.519 222.522C369.519 227.353 373.436 231.27 378.267 231.27ZM382.446 230.209C385.168 228.727 387.016 225.84 387.016 222.522C387.016 217.69 383.099 213.773 378.267 213.773C376.374 213.773 374.622 214.375 373.19 215.397C376.113 220.974 379.253 225.891 382.446 230.209Z" fill="#7DB1DF"/>
<path d="M381.525 230.646C381.841 230.518 382.149 230.373 382.446 230.211C379.253 225.892 376.113 220.976 373.19 215.398C372.913 215.596 372.648 215.81 372.397 216.038C375.283 221.52 378.377 226.371 381.525 230.646Z" fill="#5A97D0"/>
<path d="M35.3261 210.855C35.3331 210.508 35.3421 210.157 35.3531 209.815C33.0939 209.072 31.0715 207.808 29.427 206.164C26.7089 203.445 25.0294 199.695 25.0294 195.546C25.0294 191.398 26.7089 187.648 29.427 184.929C32.1461 182.21 35.897 180.531 40.0446 180.531C40.7394 180.531 41.4222 180.578 42.091 180.669C42.2489 180.352 42.4069 180.041 42.5698 179.729C41.7471 179.599 40.9034 179.531 40.0446 179.531C31.1995 179.531 24.0298 186.701 24.0298 195.546C24.0298 202.75 28.7842 208.841 35.3261 210.855Z" fill="#C3D6E9"/>
<path d="M40.0447 211.562C48.8899 211.562 56.0586 204.393 56.0596 195.547C56.0586 187.561 50.2144 180.941 42.5699 179.73C42.4069 180.042 42.249 180.353 42.091 180.67C45.419 181.124 48.398 182.667 50.6623 184.93C53.3794 187.649 55.0589 191.4 55.0599 195.547C55.0589 199.696 53.3794 203.446 50.6623 206.165C47.9432 208.883 44.1924 210.563 40.0447 210.563C38.4062 210.563 36.8287 210.301 35.3532 209.816C35.3422 210.159 35.3332 210.51 35.3262 210.857C36.8177 211.315 38.4022 211.562 40.0447 211.562Z" fill="#AECDE9"/>
<path d="M82.8647 145.626C85.8958 144.155 89.0088 142.724 92.1828 141.31V130.169H117.851C128.714 125.321 139.686 119.954 150.101 113.213C153.042 111.31 156.057 109.11 159.144 106.664C159.631 103.712 159.888 100.879 159.887 98.1722C159.887 98.0103 159.886 97.8483 159.884 97.6874C159.868 96.3098 159.822 94.9722 159.748 93.6726C159.435 93.5457 159.124 93.4177 158.816 93.2878C149.87 89.523 142.629 84.3296 137.816 77.0979C134.19 71.6467 132.684 67.1731 132.68 63.7772C132.679 61.5819 133.324 59.8244 134.467 58.6218C135.608 57.4202 137.22 56.8074 139.036 56.8074H139.047C143.251 56.8194 148.602 59.9624 152.974 66.6103C156.848 72.5084 159.94 81.1816 160.707 92.9799C163.353 94.0255 166.149 94.9542 169.074 95.783V56.9004C169.074 52.3058 165.35 48.582 160.757 48.582H121.386C121.471 49.1039 121.549 49.6277 121.618 50.1545C121.908 52.2939 122.047 54.4732 122.047 56.6825C122.047 75.5964 111.481 92.0112 96.0155 100.129C89.4286 103.597 81.95 105.547 74.0226 105.547C63.0801 105.547 52.9903 101.819 44.9129 95.542V121.851C44.9129 126.444 48.6367 130.169 53.2312 130.169H64.4986L82.8647 145.626ZM160.299 105.741C163.167 103.426 166.099 100.904 169.074 98.2322V96.8206C166.18 96.0099 163.407 95.1012 160.771 94.0785C160.832 95.2471 160.87 96.4468 160.884 97.6764C160.886 97.8403 160.887 98.0063 160.887 98.1722C160.886 100.605 160.684 103.131 160.299 105.741ZM159.677 92.564C158.868 81.1536 155.847 72.8053 152.14 67.1591C147.909 60.7062 142.766 57.8061 139.072 57.8061H139.047C137.443 57.8091 136.127 58.3299 135.192 59.3106C134.258 60.2933 133.682 61.7698 133.68 63.7772C133.676 66.8732 135.087 71.1988 138.648 76.5441C143.324 83.5689 150.379 88.6512 159.203 92.3661C159.36 92.433 159.518 92.498 159.677 92.564Z" fill="#9CBDDD"/>
<path d="M88.9428 149.77C90.6073 149.77 92.1828 148.462 92.1828 146.54V141.309C89.0088 142.722 85.8958 144.153 82.8647 145.624L86.8845 149.007C87.5103 149.534 88.234 149.77 88.9428 149.77ZM117.851 130.167H151.862C155.399 121.744 157.957 113.855 159.144 106.663C156.057 109.108 153.042 111.308 150.101 113.212C139.686 119.953 128.714 125.319 117.851 130.167ZM152.944 130.167H160.757C165.35 130.167 169.074 126.442 169.074 121.849V98.2305C166.099 100.903 163.167 103.424 160.299 105.739C159.197 113.229 156.595 121.421 152.944 130.167Z" fill="#7DB1DF"/>
<path d="M159.144 106.662C159.528 106.358 159.914 106.049 160.299 105.738C160.684 103.128 160.886 100.603 160.887 98.1695C160.887 98.0035 160.886 97.8376 160.884 97.6736C160.87 96.444 160.832 95.2444 160.771 94.0758C163.407 95.0985 166.18 96.0072 169.074 96.8179V95.7802C166.149 94.9515 163.353 94.0228 160.707 92.9771C159.94 81.1789 156.848 72.5057 152.974 66.6076C148.602 59.9597 143.251 56.8167 139.047 56.8047H139.036C137.22 56.8047 135.608 57.4175 134.467 58.6191C133.324 59.8217 132.679 61.5792 132.68 63.7745C132.684 67.1704 134.19 71.644 137.816 77.0952C142.629 84.3269 149.87 89.5202 158.816 93.285C159.124 93.415 159.435 93.5429 159.748 93.6699C159.822 94.9695 159.868 96.3071 159.884 97.6846C159.886 97.8456 159.887 98.0075 159.887 98.1695C159.888 100.877 159.631 103.71 159.144 106.662ZM139.072 57.8034C142.766 57.8034 147.909 60.7034 152.14 67.1564C155.847 72.8026 158.868 81.1509 159.677 92.5613C159.518 92.4953 159.36 92.4303 159.203 92.3633C150.379 88.6485 143.324 83.5661 138.648 76.5414C135.087 71.1961 133.676 66.8705 133.68 63.7745C133.682 61.7671 134.258 60.2906 135.192 59.3079C136.127 58.3272 137.443 57.8064 139.047 57.8034H139.072Z" fill="#6E9ECD"/>
<path d="M151.862 130.166H152.945C156.596 121.42 159.198 113.228 160.299 105.738C159.914 106.049 159.529 106.358 159.145 106.662C157.957 113.855 155.399 121.743 151.862 130.166Z" fill="#5A97D0"/>
<path d="M25.998 56.682C25.998 66.3889 28.7871 75.436 33.5956 83.0336C34.3564 84.2532 35.1751 85.4428 36.0448 86.5825C44.832 98.1188 58.5776 105.546 74.0227 105.546C81.9502 105.546 89.4288 103.597 96.0157 100.128C111.481 92.0107 122.047 75.596 122.047 56.682C122.047 54.4727 121.908 52.2934 121.619 50.1541C118.49 26.2527 98.3659 7.80859 74.0227 7.80859C47.5011 7.80859 25.998 29.6916 25.998 56.682Z" fill="#29A9E1"/>
<path d="M36.0438 86.5762C44.831 98.1125 58.5766 105.54 74.0217 105.54C81.9491 105.54 89.4278 103.591 96.0146 100.122C95.1159 97.8726 92.3558 91.9045 87.4684 88.5656C81.3703 84.3869 62.8362 81.8777 49.9803 82.9774C42.3927 83.6172 38.2031 85.3056 36.0438 86.5762Z" fill="#6558FF"/>
<path d="M95.6519 31.8931L95.149 55.7555C95.149 55.7555 94.3913 80.1347 74.5516 79.7028C54.7099 79.271 50.5182 49.1536 50.5182 49.1536L53.6393 30.8814C53.6393 30.8814 76.8309 15.4044 95.6519 31.8931Z" fill="white"/>
<path d="M74.4166 73.9668C74.4166 73.9668 72.942 83.1939 75.1673 86.2109C77.3916 89.2279 70.7507 99.7116 70.7507 99.7116L55.3886 85.6181C55.3886 85.6181 56.4093 75.2864 56.1314 66.2383L74.4166 73.9668Z" fill="white"/>
<path d="M95.5368 37.3726C95.5368 37.3726 89.8276 39.191 83.7226 38.6552C77.6165 38.1194 75.4752 35.6561 75.4752 35.6561C75.4752 35.6561 73.4389 36.5129 70.1189 36.5129C66.799 36.5129 64.3358 34.9064 64.3358 34.9064C64.3358 34.9064 66.5851 38.7621 65.6204 43.6886C64.6567 48.616 61.4427 49.9016 61.4427 49.9016C61.4427 49.9016 59.4083 44.9742 55.8735 44.9742C52.3396 44.9742 51.053 48.723 51.9637 53.6504C52.8745 58.5768 58.5516 59.7554 58.5516 59.7554L56.1314 66.2384C56.1314 66.2384 46.9843 56.4345 45.9127 45.617C44.842 34.7994 50.3043 31.5864 50.3043 31.5864C50.3043 31.5864 49.8484 23.553 60.572 20.7679C71.2976 17.9828 78.3663 18.1977 86.3997 22.8032C86.3997 22.8032 93.1476 17.6619 98.8248 20.7679C104.501 23.8739 102.894 30.5148 100.109 32.2282C100.109 32.2282 105.573 33.6208 104.394 40.3686C103.216 47.1165 95.3429 46.5887 95.3429 46.5887L95.5368 37.3726Z" fill="#004D6C"/>
<path d="M74.5518 79.701C74.5518 79.701 60.1304 75.8852 58.7028 66.2383C58.7028 66.2383 55.125 80.2248 74.5518 84.9733C74.5518 84.9733 73.9769 80.8186 74.5518 79.701Z" fill="#D1D3D2"/>
<path d="M22.4551 45.8345C24.1205 45.8345 25.743 45.6536 27.3055 45.3097C29.8517 34.4342 35.9708 24.9692 44.3291 18.2673C42.0158 8.32751 33.1007 0.921875 22.4551 0.921875C10.053 0.921875 -0.000770569 10.9757 -0.000770569 23.3787C-0.000770569 35.7807 10.053 45.8345 22.4551 45.8345Z" fill="#9CBDDD"/>
<path d="M27.3057 45.308C37.3765 43.0907 44.9131 34.1136 44.9131 23.377C44.9131 21.6186 44.7112 19.9071 44.3293 18.2656C35.971 24.9675 29.8519 34.4325 27.3057 45.308Z" fill="#2693D0"/>
<path d="M18.886 35.0481C18.886 33.5606 19.8896 32.5159 21.2962 32.5159C22.7017 32.5159 23.6664 33.5606 23.6664 35.0481C23.6664 36.4536 22.7427 37.5383 21.2562 37.5383C19.8497 37.5383 18.886 36.4536 18.886 35.0481ZM19.7687 29.4229L19.6887 28.3782C19.4478 26.2079 20.1715 23.8377 22.1799 21.4274C23.9873 19.2981 24.992 17.7306 24.992 15.9222C24.992 13.8728 23.7064 12.5073 21.1762 12.4673C19.7287 12.4673 18.1222 12.9491 17.1175 13.7129L16.1528 11.1817C17.4784 10.217 19.7687 9.57422 21.898 9.57422C26.5185 9.57422 28.6079 12.4273 28.6079 15.4803C28.6079 18.2125 27.0813 20.1808 25.153 22.4711C23.3855 24.5604 22.7427 26.3289 22.8627 28.3782L22.9027 29.4229H19.7687Z" fill="white"/>
<path d="M60.6412 287.386C60.7122 287.614 60.8022 287.805 60.9091 287.96C62.8055 290.708 64.8099 293.375 66.9202 295.96H66.9292C135.542 380.279 312 380.279 312 380.279V279.641H60.9091C60.9091 279.641 59.9424 285.12 60.6412 287.386Z" fill="#7BD3F6"/>
<path d="M60.6413 287.387C60.7123 287.615 60.8022 287.806 60.9092 287.961C62.8056 290.709 64.81 293.376 66.9203 295.961H66.9293L312 323.849V287.387H60.6413Z" fill="#59C9E5"/>
<path d="M196.744 208.453L208.891 221.329C208.891 221.329 211.38 218.77 214.358 214.851C215.778 212.973 217.307 210.783 218.718 208.413C220.566 205.314 222.226 201.916 223.176 198.507C226.374 187.06 225.065 162.918 225.065 162.918C225.065 162.918 219.887 163.478 218.118 165.447C208.15 176.544 196.744 208.453 196.744 208.453Z" fill="#6558FF"/>
<path d="M242.402 250.516H329.378L337.321 183.636C338.233 175.981 332.894 169.009 325.38 168.035L320.148 167.352L253.69 158.715L242.402 250.516Z" fill="#1675BC"/>
<path d="M263.64 160.928C263.64 160.928 291.943 170.03 293.477 172.369C295.01 174.711 281.722 216.189 281.722 216.189L284.277 250.516H226.648L223.744 217.758C223.744 217.758 217.576 210.987 217.193 199.806C216.809 188.623 225.069 162.917 225.069 162.917L245.176 160.277L263.64 160.928Z" fill="#6558FF"/>
<path d="M255.538 96.4983C255.538 96.4983 275.266 88.016 289.27 107.808C303.274 127.6 288.772 158.716 288.772 158.716C288.772 158.716 253.038 154.051 243.146 153.097C233.254 152.144 231.252 152.144 231.252 152.144C231.252 152.144 226.157 120.885 237.032 109.391C247.908 97.8989 255.538 96.4983 255.538 96.4983Z" fill="#004D6C"/>
<path d="M248.197 173.692L264.853 162.276C264.853 162.276 263.482 157.907 263.823 153.538C263.902 152.569 264.062 151.599 264.342 150.679C264.482 150.219 264.652 149.77 264.853 149.33L248.197 148.5C248.197 148.5 248.087 149.85 247.777 151.589C247.528 152.949 247.158 154.548 246.598 155.938C246.198 156.967 245.698 157.877 245.079 158.507C242.529 161.096 248.197 173.692 248.197 173.692Z" fill="white"/>
<path d="M246.597 155.938C248.737 156.008 257.924 156.148 263.823 153.539C263.902 152.569 264.062 151.599 264.342 150.68C264.342 150.68 253.115 152.049 247.777 151.589C247.527 152.949 247.157 154.548 246.597 155.938Z" fill="#D1D3D2"/>
<path d="M238.828 104.009L236.052 126.962C236.052 126.962 232.412 150.613 251.498 152.909C270.584 155.204 277 133.142 277 133.142L279.256 108.777C279.256 108.777 259.129 90.7676 238.828 104.009Z" fill="white"/>
<path d="M247.529 105.791C247.529 105.791 250.027 111.932 258.238 116.287C265.519 120.149 272.348 121.215 272.348 121.215C272.348 121.215 273.444 127.679 277.131 131.735C277.131 131.735 283.507 119.636 280.905 109.22C278.301 98.8028 264.855 93.7705 253.057 94.8301C241.257 95.8898 237.007 100.215 235.445 107.101C233.884 113.987 236.498 123.279 236.498 123.279C236.498 123.279 239.002 107.933 247.529 105.791Z" fill="#004D6C"/>
<path d="M279.256 126.674C279.256 126.674 281.528 109.218 268.065 99.9492C259.296 93.9131 248.264 95.5196 248.264 95.5196C248.264 95.5196 255.225 90.2813 268.932 96.3294C282.639 102.378 283.333 116.056 281.945 126.674H279.256Z" fill="#29A9E1"/>
<path d="M309.539 250.515H329.378L337.321 183.635C338.233 175.981 332.894 169.008 325.38 168.034L320.148 167.352L309.539 250.515Z" fill="#0B639C"/>
<path d="M260.64 148.705C269.745 148.705 276.503 142.367 276.806 142.079L275.584 140.75C275.511 140.82 268.123 147.718 258.888 146.799L258.713 148.61C259.366 148.675 260.009 148.705 260.64 148.705Z" fill="#0B639C"/>
<path d="M35.0141 287.961H307.899C315.198 287.961 322.149 284.949 327.008 279.679L341.995 263.427C347.809 257.122 343.181 247.133 334.444 247.133H68.0455C58.8385 247.133 49.9913 250.59 43.3684 256.776L27.9873 271.141C21.4434 277.253 25.916 287.961 35.0141 287.961Z" fill="#29A9E1"/>
<path d="M159.456 166.764C159.949 167.031 160.72 167.482 161.56 167.983L161.721 167.722C159.225 166.132 155.529 163.649 155.778 163.041C156.153 162.131 158.028 162.606 159.42 163.363C160.224 163.799 161.684 164.667 163.09 165.517L163.192 165.353C160.716 163.787 156.585 161.057 156.849 160.417C157.224 159.507 159.098 159.982 160.491 160.738C161.373 161.217 163.042 162.215 164.567 163.139L164.686 162.948C162.229 161.363 159.026 159.162 159.259 158.596C159.634 157.685 161.509 158.161 162.901 158.917C164.779 159.937 170.231 163.309 170.231 163.309L174.201 164.755C173.344 163.363 170.935 158.221 172.059 158.221C173.184 158.221 176.29 161.809 177.575 165.505C178.537 168.272 178.658 170.739 178.659 171.803L213.455 216.018C213.455 216.018 212.631 217.312 211.386 219.035C207.776 224.028 199.37 225.126 194.516 221.33C190.682 218.332 187.655 214.372 184.691 210.328C179.109 202.706 170.78 182.489 168.823 177.649L160.949 170.267C158.79 168.873 156.037 166.973 156.241 166.48C156.572 165.676 158.228 166.096 159.456 166.764Z" fill="white"/>
<path d="M250.995 257.882C250.995 257.882 246.925 260.881 245.318 264.952C243.712 269.022 253.994 271.643 271.159 265.815C283.648 261.574 262.563 248.564 250.995 257.882Z" fill="#004D6C"/>
<path d="M257.459 149.8H259.759C260.579 149.8 261.244 149.123 261.244 148.288V146.874C261.244 146.039 260.579 145.363 259.759 145.363H257.459C256.639 145.363 255.974 146.039 255.974 146.874V148.288C255.974 149.123 256.639 149.8 257.459 149.8Z" fill="#004D6C"/>
<path d="M269.422 131.852C268.15 138.213 271.461 144.269 276.817 145.377C282.173 146.487 287.547 142.229 288.818 135.87C290.091 129.509 286.78 123.452 281.423 122.344C276.068 121.234 270.694 125.491 269.422 131.852Z" fill="#1675BC"/>
<path d="M274.82 132.967C274.069 136.719 276.022 140.291 279.182 140.946C282.341 141.6 285.511 139.089 286.262 135.337C287.012 131.584 285.059 128.012 281.9 127.357C278.741 126.704 275.571 129.215 274.82 132.967Z" fill="#29A9E1"/>
<path d="M288.815 169.867C288.815 169.867 293.677 170.596 295.649 173.736C304.101 187.194 320.565 228.347 320.565 228.347L304.69 235.368C304.69 235.368 283.818 211.184 281.901 199.677C279.985 188.169 288.815 169.867 288.815 169.867Z" fill="#6558FF"/>
<path d="M306.191 231.856L273.607 253.05L278.207 263.257C278.207 263.257 307.532 252.725 316.54 245.899C325.548 239.073 320.565 228.345 320.565 228.345C320.565 228.345 315.583 227.761 306.191 231.856Z" fill="white"/>
<path d="M274.565 252.727C274.565 252.727 263.576 252.207 259.616 252.207C255.654 252.207 248.754 258.709 249.521 260.788C250.287 262.87 258.209 256.498 258.209 256.498L258.657 257.342C258.657 257.342 251.629 261.633 251.245 263.258C250.862 264.884 252.46 264.625 254.759 263.649C257.059 262.674 260.509 260.463 260.509 260.463L260.893 260.919C260.893 260.919 254.248 265.014 254.248 266.509C254.248 268.005 259.041 266.315 262.554 263.974L263.001 264.689C263.001 264.689 258.657 266.899 258.337 268.33C258.018 269.76 260.381 269.175 263.001 267.94C265.621 266.705 268.049 266.574 271.435 266.055C274.821 265.535 278.838 263.03 278.838 263.03L274.565 252.727Z" fill="white"/>
<path d="M72.5562 193.276L88.1812 271.645H203.948L188.413 193.729C188.084 192.082 186.662 190.898 185.011 190.898H74.4666C73.233 190.898 72.3103 192.047 72.5562 193.276Z" fill="#1675BC"/>
<path d="M203.948 271.645L235.753 261.298C236.877 260.933 237.637 259.885 237.637 258.705C237.637 257.198 236.416 255.977 234.91 255.977H200.824L203.948 271.645Z" fill="#004D6C"/>
<path d="M287.405 173.051C287.405 173.051 280.285 193.186 284.6 207.006C284.6 207.006 270.043 190.826 287.405 173.051Z" fill="#5649EE"/>
<path d="M214.358 214.852C215.777 212.974 217.307 210.784 218.717 208.414C215.777 196.868 222.616 171.156 222.616 171.156C207.631 190.26 211.809 208.004 214.358 214.852Z" fill="#5649EE"/>
<path d="M181.446 195.547L88.1811 271.645H194.516L181.446 195.547Z" fill="#0B639C"/>
<path d="M119.633 235.428C119.633 240.564 123.797 244.728 128.933 244.728C134.069 244.728 138.232 240.564 138.232 235.428C138.232 230.293 134.069 226.129 128.933 226.129C123.797 226.129 119.633 230.293 119.633 235.428Z" fill="#7BD3F6"/>
<path d="M263.932 157.684L248.197 173.693C248.197 173.693 250.927 177.554 255.47 177.447C260.013 177.34 262.565 171.565 263.851 168.561C265.137 165.556 267.76 162.277 267.76 162.277L263.932 157.684Z" fill="#5649EE"/>
<path d="M248.197 173.695C248.197 173.695 244.144 176.161 240.18 174.448C236.217 172.735 237.289 170.115 238.68 167.354C240.073 164.594 241.572 159.667 241.572 159.667L246.09 157.062C246.09 157.062 245.29 167.587 248.197 173.695Z" fill="#5649EE"/>
<path d="M223.937 204.617L263.586 208.453C263.586 208.453 254.696 214.828 241.01 212.9C227.324 210.972 223.937 204.617 223.937 204.617Z" fill="#5649EE"/>
<path d="M392.535 89.5611V83.9739C392.535 80.2031 390.013 77.0221 386.564 76.0234C388.705 80.387 390.695 84.9056 392.535 89.5611Z" fill="#9CBDDD"/>
<path d="M304.283 122.571L311.424 118.445C309.121 117.011 306.743 115.68 304.283 114.458V122.571ZM312.403 117.879L323.862 111.255H384.26C388.83 111.255 392.535 107.55 392.535 102.98V89.5618C390.695 84.9063 388.705 80.3877 386.564 76.0241C385.832 75.8132 385.06 75.6992 384.26 75.6992H312.56C307.989 75.6992 304.283 79.404 304.283 83.9746V113.344C307.09 114.72 309.796 116.234 312.403 117.879Z" fill="#7DB1DF"/>
<path d="M311.424 118.444L312.403 117.878C309.796 116.234 307.091 114.719 304.283 113.344V114.457C306.743 115.68 309.121 117.011 311.424 118.444Z" fill="#5A97D0"/>
<path d="M387.024 84.7966H312.335C312.06 84.7966 311.836 84.5726 311.836 84.2967C311.836 84.0208 312.06 83.7969 312.335 83.7969H387.024C387.301 83.7969 387.523 84.0208 387.523 84.2967C387.523 84.5726 387.301 84.7966 387.024 84.7966Z" fill="white"/>
<path d="M387.024 93.9137H312.335C312.06 93.9137 311.836 93.6898 311.836 93.4139C311.836 93.138 312.06 92.9141 312.335 92.9141H387.024C387.301 92.9141 387.523 93.138 387.523 93.4139C387.523 93.6898 387.301 93.9137 387.024 93.9137Z" fill="white"/>
<path d="M387.024 103.031H312.335C312.06 103.031 311.836 102.807 311.836 102.531C311.836 102.255 312.06 102.031 312.335 102.031H387.024C387.301 102.031 387.523 102.255 387.523 102.531C387.523 102.807 387.301 103.031 387.024 103.031Z" fill="white"/>
<path d="M154.431 382.916C168.154 382.916 179.923 374.55 184.912 362.637C175.598 360.105 166.211 357.204 156.962 353.893C144.999 357.614 133.798 360.424 123.651 361.898C128.457 374.201 140.426 382.916 154.431 382.916ZM123.294 360.941C133.067 359.535 143.856 356.871 155.399 353.328C144.343 349.309 133.482 344.691 123.101 339.383C121.996 342.681 121.397 346.212 121.397 349.882C121.397 353.76 122.066 357.483 123.294 360.941Z" fill="#9CBDDD"/>
<path d="M123.651 361.897C133.799 360.424 144.999 357.614 156.962 353.893C156.439 353.705 155.922 353.518 155.399 353.328C143.857 356.871 133.067 359.535 123.294 360.941C123.408 361.263 123.527 361.58 123.651 361.897Z" fill="#6E9ECD"/>
<path d="M184.912 362.637C186.557 358.713 187.465 354.403 187.465 349.882C187.465 331.638 172.675 316.848 154.431 316.848C139.858 316.848 127.489 326.285 123.101 339.382C133.482 344.691 144.343 349.308 155.399 353.328C155.921 353.518 156.438 353.705 156.962 353.893C166.211 357.204 175.598 360.105 184.912 362.637Z" fill="#58AADC"/>
<path d="M133.06 340.979L152.553 353.725C152.718 353.834 152.909 353.887 153.1 353.887C153.268 353.887 153.437 353.846 153.589 353.761L176.297 341.015C176.778 340.744 176.95 340.135 176.68 339.653C176.409 339.171 175.798 339 175.319 339.27L153.139 351.72L134.153 339.306C133.694 339.003 133.072 339.133 132.77 339.596C132.467 340.058 132.597 340.678 133.06 340.979ZM133.675 337.68H175.188C176.324 337.68 177.246 338.6 177.246 339.737V362.613C177.246 363.749 176.324 364.671 175.188 364.671H133.675C132.539 364.671 131.617 363.749 131.617 362.613V339.737C131.617 338.6 132.539 337.68 133.675 337.68Z" fill="white"/>
<path d="M116.69 334.078C116.69 340.84 122.171 346.32 128.933 346.32C135.694 346.32 141.175 340.84 141.175 334.078C141.175 327.316 135.694 321.836 128.933 321.836C122.171 321.836 116.69 327.316 116.69 334.078Z" fill="#AADC41"/>
</svg>
