<svg width="352" height="451" viewBox="0 0 352 451" fill="none" xmlns="http://www.w3.org/2000/svg">
<path d="M258.278 449.355H99.7836C81.9544 449.355 67.5 434.9 67.5 417.071V33.7836C67.5 15.9532 81.9544 1.5 99.7836 1.5H258.278C276.107 1.5 290.561 15.9532 290.561 33.7836V417.071C290.561 434.9 276.107 449.355 258.278 449.355Z" stroke="white" stroke-width="3"/>
<path d="M201.909 22.3316H156.817C155.943 22.3316 155.234 21.6226 155.234 20.7493C155.234 19.876 155.943 19.167 156.817 19.167H201.909C202.782 19.167 203.49 19.876 203.49 20.7493C203.49 21.6226 202.782 22.3316 201.909 22.3316Z" fill="white"/>
<path d="M115.758 427.785H107.188V428.957H115.758V427.785Z" fill="white"/>
<path d="M183.491 434.999V434.549H177.228V428.831H183.041V434.999H183.491V434.549V434.999H183.941V428.381C183.941 428.263 183.893 428.148 183.809 428.064C183.725 427.98 183.609 427.932 183.491 427.932H176.778C176.659 427.932 176.544 427.98 176.46 428.064C176.376 428.148 176.328 428.263 176.328 428.381V434.999C176.328 435.117 176.376 435.234 176.46 435.318C176.544 435.4 176.659 435.448 176.778 435.448H183.491C183.609 435.448 183.725 435.4 183.809 435.318C183.893 435.234 183.941 435.117 183.941 434.999H183.491Z" fill="white"/>
<path d="M243.183 427.698L240.092 430.79C239.771 431.109 239.609 431.532 239.609 431.95C239.609 432.37 239.771 432.792 240.092 433.113L243.183 436.204C243.358 436.379 243.644 436.379 243.819 436.204C243.994 436.028 243.994 435.744 243.819 435.567L240.727 432.476C240.581 432.329 240.51 432.142 240.509 431.95C240.51 431.76 240.581 431.572 240.727 431.427L243.819 428.333C243.995 428.158 243.994 427.873 243.819 427.698C243.644 427.521 243.358 427.521 243.183 427.698Z" fill="white"/>
<path d="M247.347 42.8974C247.738 42.8974 248.055 43.2129 248.055 43.6028C248.055 43.995 247.738 44.3117 247.347 44.3117C246.957 44.3117 246.641 43.995 246.641 43.6028C246.641 43.2129 246.957 42.8974 247.347 42.8974Z" fill="white"/>
<path d="M249.113 41.8906L249.082 41.8594L249.048 41.8306L249.031 41.815C248.116 40.9837 246.716 41.0173 245.843 41.8906L245.74 41.9925L245.597 42.1341C245.425 42.3068 245.426 42.5888 245.598 42.7615C245.772 42.9354 246.053 42.9366 246.225 42.7627L246.471 42.518C247.027 41.9638 247.93 41.9638 248.484 42.518L248.659 42.6895C248.833 42.8599 249.11 42.8599 249.283 42.6883C249.366 42.6056 249.412 42.494 249.412 42.3776C249.412 42.2589 249.366 42.1485 249.286 42.0669L249.113 41.8906Z" fill="white"/>
<path d="M250.235 41.0197L250.09 40.8722L250.087 40.871L249.971 40.7534L249.906 40.7006C248.414 39.3918 246.145 39.4314 244.702 40.8206L244.68 40.8386L244.414 41.1037C244.257 41.262 244.259 41.5176 244.415 41.6759C244.573 41.8343 244.83 41.8343 244.987 41.6771L245.253 41.412L245.258 41.406C246.425 40.2784 248.278 40.2712 249.454 41.3832L249.663 41.5919C249.822 41.7491 250.078 41.7491 250.234 41.5907C250.393 41.4324 250.394 41.1769 250.235 41.0197Z" fill="white"/>
<path d="M78.7683 44.6903C78.7683 44.7743 78.8391 44.8451 78.9231 44.8451C79.0142 44.8451 79.079 44.7743 79.079 44.6903V40.5276C79.085 40.4881 79.079 40.4497 79.0598 40.4101C79.0202 40.3393 78.9171 40.3129 78.8451 40.3525L77.9718 40.8827C77.8938 40.9223 77.8674 41.0123 77.913 41.0963C77.9394 41.1418 77.9909 41.1742 78.0497 41.1742C78.0749 41.1742 78.1073 41.161 78.1265 41.149L78.7683 40.7736V44.6903Z" fill="white"/>
<path d="M80.6686 44.18C80.9469 44.5878 81.3416 44.8661 81.8011 44.8661C82.2605 44.8661 82.6564 44.5878 82.9347 44.18C83.2058 43.7661 83.375 43.2095 83.375 42.6001C83.375 41.9919 83.2058 41.4352 82.9347 41.0142C82.6564 40.6135 82.2605 40.334 81.8011 40.334C81.3416 40.334 80.9469 40.6135 80.6686 41.0142C80.3891 41.4352 80.2344 41.9919 80.2344 42.6001C80.2344 43.2095 80.3891 43.7661 80.6686 44.18ZM80.9337 41.1953C81.1665 40.839 81.4772 40.6519 81.8011 40.6519C82.125 40.6519 82.4297 40.839 82.6684 41.1953C82.9023 41.5456 83.0571 42.0434 83.0571 42.6001C83.0571 43.1579 82.9023 43.6557 82.6684 44.006C82.4297 44.3491 82.125 44.5494 81.8011 44.5494C81.4772 44.5494 81.1665 44.3491 80.9337 44.006C80.701 43.6557 80.5511 43.1579 80.5511 42.6001C80.5511 42.0434 80.701 41.5456 80.9337 41.1953Z" fill="white"/>
<path d="M84.9219 44.5493C84.9219 44.7304 85.0634 44.872 85.2458 44.872C85.4269 44.872 85.5685 44.7304 85.5685 44.5493C85.5685 44.3682 85.4269 44.2254 85.2458 44.2254C85.0634 44.2254 84.9219 44.3682 84.9219 44.5493ZM84.9219 41.8298C84.9219 42.0109 85.0634 42.1537 85.2458 42.1537C85.4269 42.1537 85.5685 42.0109 85.5685 41.8298C85.5685 41.6486 85.4269 41.5059 85.2458 41.5059C85.0634 41.5059 84.9219 41.6486 84.9219 41.8298Z" fill="white"/>
<path d="M88.7455 40.5679C88.7587 40.5487 88.7647 40.5223 88.7647 40.4959C88.7647 40.406 88.6939 40.334 88.6028 40.334H86.4854C86.3955 40.334 86.3235 40.406 86.3235 40.4959C86.3235 40.5871 86.3955 40.6579 86.4854 40.6579H88.2213L87.0948 41.8167C87.0301 41.8815 87.0301 41.9859 87.0948 42.0506H87.1008C87.1332 42.089 87.1788 42.1154 87.2304 42.1154C87.5411 42.1154 87.8518 42.2318 88.0845 42.4717C88.3244 42.7044 88.4408 43.0151 88.4408 43.3258C88.4408 43.6365 88.3244 43.9472 88.0845 44.1872C87.8458 44.4199 87.5351 44.5362 87.2244 44.5362C86.9137 44.5362 86.609 44.4199 86.3691 44.1872C86.3043 44.1224 86.2011 44.1224 86.1423 44.1872C86.0776 44.2519 86.0776 44.3551 86.1423 44.4139C86.441 44.7174 86.8357 44.8661 87.2244 44.8661C87.6191 44.8661 88.0137 44.7114 88.3112 44.4139C88.6159 44.1152 88.7647 43.7205 88.7647 43.3258C88.7647 42.9312 88.616 42.5353 88.3185 42.2378C88.0977 42.0182 87.8266 41.8815 87.5411 41.8239L88.7131 40.6195C88.7263 40.6063 88.7395 40.5871 88.7455 40.5679Z" fill="white"/>
<path d="M91.2155 44.18C91.4938 44.5878 91.8885 44.8661 92.348 44.8661C92.8074 44.8661 93.2021 44.5878 93.4816 44.18C93.7527 43.7661 93.9218 43.2095 93.9218 42.6001C93.9218 41.9919 93.7527 41.4352 93.4816 41.0142C93.2021 40.6135 92.8074 40.334 92.348 40.334C91.8885 40.334 91.4938 40.6135 91.2155 41.0142C90.936 41.4352 90.7812 41.9919 90.7812 42.6001C90.7812 43.2095 90.936 43.7661 91.2155 44.18ZM91.4806 41.1953C91.7133 40.839 92.0241 40.6519 92.348 40.6519C92.6718 40.6519 92.9765 40.839 93.2153 41.1953C93.4492 41.5456 93.6039 42.0434 93.6039 42.6001C93.6039 43.1579 93.4492 43.6557 93.2153 44.006C92.9765 44.3491 92.6718 44.5494 92.348 44.5494C92.0241 44.5494 91.7133 44.3491 91.4806 44.006C91.2479 43.6557 91.0979 43.1579 91.0979 42.6001C91.0979 42.0434 91.2479 41.5456 91.4806 41.1953Z" fill="white"/>
<path d="M99.8169 44.7426C99.8433 44.8074 99.9081 44.8457 99.9669 44.8457C99.9861 44.8457 99.9981 44.8398 100.024 44.8398C100.102 44.8074 100.141 44.7102 100.108 44.6322L98.5358 40.4312C98.5166 40.3724 98.4518 40.334 98.3798 40.334C98.315 40.334 98.2502 40.3724 98.2251 40.4312L96.6512 44.6322C96.6188 44.7102 96.6644 44.8074 96.7423 44.8398C96.7615 44.8398 96.7867 44.8457 96.7999 44.8457C96.8647 44.8457 96.9235 44.8074 96.9487 44.7426L97.3505 43.6749H99.4163L99.8169 44.7426ZM98.387 40.923L99.2999 43.357H97.4669L98.387 40.923Z" fill="white"/>
<path d="M104.824 44.6923C104.824 44.7763 104.889 44.8471 104.98 44.8471C105.064 44.8471 105.136 44.7763 105.136 44.6923V40.4973C105.136 40.4709 105.123 40.4385 105.109 40.4121C105.096 40.3929 105.083 40.3797 105.064 40.3605C104.993 40.3149 104.889 40.3281 104.844 40.4001L103.238 42.6338L101.626 40.4001C101.574 40.3281 101.477 40.3149 101.406 40.3605C101.399 40.3677 101.393 40.3677 101.393 40.3737C101.355 40.4001 101.328 40.4445 101.328 40.4973V44.6923C101.328 44.7763 101.399 44.8471 101.49 44.8471C101.574 44.8471 101.645 44.7763 101.645 44.6923V40.9699L103.095 42.9769C103.128 43.0285 103.173 43.0476 103.232 43.0476H103.245C103.29 43.0476 103.341 43.0285 103.373 42.9769L104.824 40.9627V44.6923Z" fill="white"/>
<path d="M255.346 40.8567C255.346 41.1566 255.488 41.4145 255.701 41.5801C255.2 41.7876 254.844 42.2902 254.844 42.866C254.844 43.6386 255.469 44.2576 256.235 44.2576C257.007 44.2576 257.626 43.6386 257.626 42.866C257.626 42.2902 257.271 41.7876 256.762 41.5801C256.983 41.4145 257.13 41.1566 257.13 40.8567C257.13 40.366 256.725 39.9678 256.235 39.9678C255.739 39.9678 255.346 40.366 255.346 40.8567ZM255.139 42.866C255.139 42.2662 255.628 41.7696 256.235 41.7696C256.848 41.7696 257.332 42.2662 257.332 42.866C257.332 43.473 256.848 43.9637 256.235 43.9637C255.628 43.9637 255.139 43.473 255.139 42.866ZM255.64 40.8567C255.64 40.5256 255.904 40.2629 256.235 40.2629C256.566 40.2629 256.835 40.5256 256.835 40.8567C256.835 41.1878 256.566 41.4577 256.235 41.4637C255.904 41.4577 255.64 41.1878 255.64 40.8567Z" fill="white"/>
<path d="M259.435 44.2576C259.802 44.2576 260.182 44.11 260.464 43.8341C260.752 43.5522 260.886 43.1731 260.886 42.8049C260.886 42.4258 260.752 42.0575 260.464 41.7756C260.182 41.4877 259.814 41.3533 259.44 41.3533C259.183 41.3533 258.932 41.4205 258.711 41.5489L258.865 40.2749H260.734C260.819 40.2749 260.886 40.2137 260.886 40.1213C260.886 40.0361 260.819 39.9678 260.734 39.9678H258.736C258.699 39.9678 258.662 39.981 258.638 40.005C258.601 40.0302 258.577 40.0661 258.577 40.1153L258.368 41.8428C258.368 41.856 258.362 41.868 258.362 41.874C258.362 41.892 258.362 41.9111 258.368 41.9231C258.368 41.9291 258.368 41.9351 258.374 41.9411V41.9471C258.38 41.9651 258.393 41.9843 258.411 41.9963C258.466 42.0575 258.565 42.0575 258.626 41.9963C258.853 41.7696 259.141 41.6592 259.44 41.6592C259.734 41.6592 260.028 41.7696 260.249 41.9903C260.47 42.2111 260.58 42.505 260.58 42.8049C260.58 43.0988 260.47 43.3867 260.243 43.6134C260.016 43.8401 259.728 43.9505 259.435 43.9505C259.141 43.9505 258.853 43.8401 258.626 43.6194C258.565 43.5582 258.466 43.5582 258.405 43.6194C258.344 43.6746 258.344 43.773 258.405 43.8341C258.687 44.116 259.06 44.2576 259.435 44.2576Z" fill="white"/>
<path d="M262.813 42.0874C263.383 42.0874 263.762 41.5668 263.762 40.991V40.979C263.762 40.4152 263.389 39.8945 262.825 39.8945C262.255 39.8945 261.875 40.4152 261.875 40.991V41.003C261.875 41.5728 262.249 42.0874 262.813 42.0874ZM262.433 44.128C262.433 44.2012 262.494 44.2563 262.567 44.2563C262.616 44.2563 262.654 44.2323 262.684 44.1891L265.668 40.1273C265.686 40.1021 265.692 40.0781 265.692 40.0469C265.692 39.9737 265.631 39.9185 265.558 39.9185C265.509 39.9185 265.471 39.9425 265.441 39.9857L262.457 44.0476C262.439 44.0728 262.433 44.0968 262.433 44.128ZM265.3 44.2815C265.87 44.2815 266.25 43.7597 266.25 43.1839V43.1719C266.25 42.6081 265.876 42.0874 265.312 42.0874C264.742 42.0874 264.363 42.6081 264.363 43.1839V43.1971C264.363 43.7669 264.736 44.2815 265.3 44.2815ZM262.825 41.8235C262.482 41.8235 262.194 41.4744 262.194 40.991V40.979C262.194 40.5315 262.451 40.1572 262.813 40.1572C263.156 40.1572 263.444 40.5123 263.444 40.991V41.003C263.444 41.4624 263.186 41.8235 262.825 41.8235ZM265.312 44.0176C264.969 44.0176 264.681 43.6685 264.681 43.1839V43.1719C264.681 42.7244 264.939 42.3513 265.3 42.3513C265.643 42.3513 265.931 42.7064 265.931 43.1839V43.1971C265.931 43.6565 265.674 44.0176 265.312 44.0176Z" fill="white"/>
<path d="M272.012 40.5255L279.012 40.5123L279.018 44.0127L272.017 44.0199L272.012 40.5255ZM281.261 40.1092L271.637 40.1248L271.642 44.4254L281.267 44.4098L281.261 40.1092ZM271.814 44.7841C271.506 44.7853 271.257 44.5562 271.257 44.2743L271.25 40.2747C271.25 39.9952 271.501 39.7649 271.803 39.7637L281.09 39.7481C281.394 39.7493 281.643 39.9772 281.647 40.2579L281.646 41.0845L282.362 41.0809L282.368 43.4381L281.651 43.4417L281.653 44.2599C281.653 44.5406 281.404 44.7685 281.098 44.7685L271.814 44.7841Z" fill="#F9F9F8"/>
<path d="M196.083 22.3316H156.817C155.943 22.3316 155.234 21.6226 155.234 20.7493C155.234 19.876 155.943 19.167 156.817 19.167H197.091L196.083 22.3316Z" fill="white"/>
<path d="M78.7683 44.6902C78.7683 44.7742 78.8391 44.845 78.9231 44.845C79.0142 44.845 79.079 44.7742 79.079 44.6902V40.5276C79.085 40.488 79.079 40.4496 79.0598 40.41C79.0202 40.3392 78.9171 40.3128 78.8451 40.3524L77.9718 40.8827C77.8938 40.9222 77.8674 41.0122 77.913 41.0962C77.9394 41.1418 77.9909 41.1742 78.0497 41.1742C78.0749 41.1742 78.1073 41.161 78.1265 41.149L78.7683 40.7735V44.6902Z" fill="white"/>
<path d="M80.6686 44.18C80.9469 44.5878 81.3416 44.8661 81.8011 44.8661C82.2605 44.8661 82.6564 44.5878 82.9347 44.18C83.2058 43.7661 83.375 43.2095 83.375 42.6001C83.375 41.9919 83.2058 41.4352 82.9347 41.0142C82.6564 40.6135 82.2605 40.334 81.8011 40.334C81.3416 40.334 80.9469 40.6135 80.6686 41.0142C80.3891 41.4352 80.2344 41.9919 80.2344 42.6001C80.2344 43.2095 80.3891 43.7661 80.6686 44.18ZM80.9337 41.1953C81.1665 40.839 81.4772 40.6519 81.8011 40.6519C82.125 40.6519 82.4297 40.839 82.6684 41.1953C82.9023 41.5456 83.0571 42.0434 83.0571 42.6001C83.0571 43.1579 82.9023 43.6557 82.6684 44.006C82.4297 44.3491 82.125 44.5494 81.8011 44.5494C81.4772 44.5494 81.1665 44.3491 80.9337 44.006C80.701 43.6557 80.5511 43.1579 80.5511 42.6001C80.5511 42.0434 80.701 41.5456 80.9337 41.1953Z" fill="white"/>
<path d="M84.9219 44.5493C84.9219 44.7304 85.0634 44.872 85.2458 44.872C85.4269 44.872 85.5685 44.7304 85.5685 44.5493C85.5685 44.3682 85.4269 44.2254 85.2458 44.2254C85.0634 44.2254 84.9219 44.3682 84.9219 44.5493ZM84.9219 41.8298C84.9219 42.0109 85.0634 42.1537 85.2458 42.1537C85.4269 42.1537 85.5685 42.0109 85.5685 41.8298C85.5685 41.6486 85.4269 41.5059 85.2458 41.5059C85.0634 41.5059 84.9219 41.6486 84.9219 41.8298Z" fill="white"/>
<path d="M88.7455 40.5679C88.7587 40.5487 88.7647 40.5223 88.7647 40.4959C88.7647 40.406 88.6939 40.334 88.6028 40.334H86.4854C86.3955 40.334 86.3235 40.406 86.3235 40.4959C86.3235 40.5871 86.3955 40.6579 86.4854 40.6579H88.2213L87.0948 41.8167C87.0301 41.8815 87.0301 41.9859 87.0948 42.0506H87.1008C87.1332 42.089 87.1788 42.1154 87.2304 42.1154C87.5411 42.1154 87.8518 42.2318 88.0845 42.4717C88.3244 42.7044 88.4408 43.0151 88.4408 43.3258C88.4408 43.6365 88.3244 43.9472 88.0845 44.1872C87.8458 44.4199 87.5351 44.5362 87.2244 44.5362C86.9137 44.5362 86.609 44.4199 86.3691 44.1872C86.3043 44.1224 86.2011 44.1224 86.1423 44.1872C86.0776 44.2519 86.0776 44.3551 86.1423 44.4139C86.441 44.7174 86.8357 44.8661 87.2244 44.8661C87.6191 44.8661 88.0137 44.7114 88.3112 44.4139C88.6159 44.1152 88.7647 43.7205 88.7647 43.3258C88.7647 42.9312 88.616 42.5353 88.3185 42.2378C88.0977 42.0182 87.8266 41.8815 87.5411 41.8239L88.7131 40.6195C88.7263 40.6063 88.7395 40.5871 88.7455 40.5679Z" fill="white"/>
<path d="M91.2155 44.18C91.4938 44.5878 91.8885 44.8661 92.348 44.8661C92.8074 44.8661 93.2021 44.5878 93.4816 44.18C93.7527 43.7661 93.9218 43.2095 93.9218 42.6001C93.9218 41.9919 93.7527 41.4352 93.4816 41.0142C93.2021 40.6135 92.8074 40.334 92.348 40.334C91.8885 40.334 91.4938 40.6135 91.2155 41.0142C90.936 41.4352 90.7812 41.9919 90.7812 42.6001C90.7812 43.2095 90.936 43.7661 91.2155 44.18ZM91.4806 41.1953C91.7133 40.839 92.0241 40.6519 92.348 40.6519C92.6718 40.6519 92.9765 40.839 93.2153 41.1953C93.4492 41.5456 93.6039 42.0434 93.6039 42.6001C93.6039 43.1579 93.4492 43.6557 93.2153 44.006C92.9765 44.3491 92.6718 44.5494 92.348 44.5494C92.0241 44.5494 91.7133 44.3491 91.4806 44.006C91.2479 43.6557 91.0979 43.1579 91.0979 42.6001C91.0979 42.0434 91.2479 41.5456 91.4806 41.1953Z" fill="white"/>
<path d="M99.8169 44.7426C99.8433 44.8074 99.9081 44.8457 99.9669 44.8457C99.9861 44.8457 99.9981 44.8398 100.024 44.8398C100.102 44.8074 100.141 44.7102 100.108 44.6322L98.5358 40.4312C98.5166 40.3724 98.4518 40.334 98.3798 40.334C98.315 40.334 98.2502 40.3724 98.2251 40.4312L96.6512 44.6322C96.6188 44.7102 96.6644 44.8074 96.7423 44.8398C96.7615 44.8398 96.7867 44.8457 96.7999 44.8457C96.8647 44.8457 96.9235 44.8074 96.9487 44.7426L97.3505 43.6749H99.4163L99.8169 44.7426ZM98.387 40.923L99.2999 43.357H97.4669L98.387 40.923Z" fill="white"/>
<path d="M104.824 44.6923C104.824 44.7763 104.889 44.8471 104.98 44.8471C105.064 44.8471 105.136 44.7763 105.136 44.6923V40.4973C105.136 40.4709 105.123 40.4385 105.109 40.4121C105.096 40.3929 105.083 40.3797 105.064 40.3605C104.993 40.3149 104.889 40.3281 104.844 40.4001L103.238 42.6338L101.626 40.4001C101.574 40.3281 101.477 40.3149 101.406 40.3605C101.399 40.3677 101.393 40.3677 101.393 40.3737C101.355 40.4001 101.328 40.4445 101.328 40.4973V44.6923C101.328 44.7763 101.399 44.8471 101.49 44.8471C101.574 44.8471 101.645 44.7763 101.645 44.6923V40.9699L103.095 42.9769C103.128 43.0285 103.173 43.0476 103.232 43.0476H103.245C103.29 43.0476 103.341 43.0285 103.373 42.9769L104.824 40.9627V44.6923Z" fill="white"/>
<rect x="80.5" y="62.5" width="197" height="347" rx="1.5" stroke="white"/>
<path fill-rule="evenodd" clip-rule="evenodd" d="M13.7612 230.4C8.38802 230.4 4.01432 226.03 4.01432 220.619C4.01432 215.227 8.38802 210.839 13.7612 210.839C19.1539 210.839 23.507 215.227 23.507 220.619C23.507 226.03 19.1539 230.4 13.7612 230.4ZM352 150.546C352 146.798 350.802 143.892 348.445 141.948C346.248 140.104 343.452 139.483 341.135 139.302C340.336 138.521 339.019 138 337.541 138C335.104 138 333.126 139.383 333.126 141.067C333.126 142.77 335.104 144.154 337.541 144.154C339.058 144.154 340.417 143.612 341.215 142.77C342.893 142.93 344.83 143.392 346.248 144.595C347.806 145.877 348.565 147.821 348.565 150.546C348.565 156.339 347.366 165.177 343.991 172.573C343.492 173.695 342.953 174.737 342.393 175.699C341.655 175.799 340.955 176.2 340.496 176.861C337.041 181.913 332.567 184.477 327.254 184.477C322.182 184.298 317.928 181.732 314.592 176.861C314.133 176.2 313.435 175.799 312.695 175.72C312.136 174.737 311.597 173.716 311.098 172.593C307.721 165.197 306.524 156.358 306.524 150.567C306.524 147.841 307.283 145.896 308.82 144.614C310.259 143.391 312.176 142.93 313.874 142.77C314.652 143.612 316.01 144.154 317.548 144.154C319.985 144.154 321.963 142.79 321.963 141.087C321.963 139.383 319.985 138.02 317.548 138.02C316.07 138.02 314.732 138.521 313.933 139.323C311.636 139.483 308.841 140.124 306.642 141.948C304.287 143.912 303.089 146.798 303.089 150.567C303.089 156.74 304.586 168.645 309.799 177.562C309.559 178.344 309.659 179.207 310.139 179.928C313.833 185.32 318.647 188.606 324.219 189.588V210.433C324.299 213.819 323.48 217.026 318.547 216.766H283.216L276.965 190.571C276.826 189.949 276.505 189.449 276.026 189.088C275.587 188.726 275.008 188.547 274.348 188.526H274.309C273.689 188.526 273.091 188.747 272.631 189.147C272.191 189.528 271.853 190.07 271.733 190.691L266.64 216.766H258.931L251.301 163.173C251.201 162.512 250.882 161.93 250.402 161.509C249.923 161.109 249.304 160.848 248.645 160.848C247.985 160.848 247.366 161.109 246.887 161.509C246.428 161.91 246.088 162.491 245.989 163.153L235.863 231.537L234.784 219.231C234.724 218.529 234.405 217.929 233.926 217.487C233.445 217.046 232.806 216.766 232.108 216.766H228.868V216.71H100.08C99.4018 216.71 98.7823 216.951 98.3226 217.372C97.8435 217.773 97.5041 218.355 97.425 219.015L92.0518 256.655L81.287 183.982C81.1867 183.32 80.8669 182.739 80.3883 182.338C79.9286 181.917 79.3091 181.677 78.65 181.677H78.5508C77.8922 181.696 77.2726 181.977 76.813 182.418C76.3338 182.859 76.0341 183.46 75.9739 184.142L73.1179 216.69H67.007C66.3474 216.69 65.7484 216.931 65.2693 217.352C64.7901 217.753 64.4698 218.314 64.351 218.975L61.2745 238.456L57.3805 220.058C57.2607 219.436 56.9208 218.915 56.4411 218.535C55.9815 218.153 55.3836 217.933 54.7635 217.933H27.2622C26.0237 211.6 20.4521 206.81 13.7612 206.81C6.17162 206.81 0 213.002 0 220.619C0 228.255 6.17162 234.428 13.7612 234.428C20.4521 234.428 26.0237 229.658 27.2622 223.325H52.5872L59.018 253.749C59.1578 254.37 59.5172 254.91 59.9768 255.272C60.476 255.652 61.0755 255.873 61.695 255.873H61.714C62.3536 255.853 62.9521 255.612 63.4117 255.211C63.8713 254.81 64.1911 254.25 64.2909 253.609L69.3031 222.082H75.575C76.2737 222.082 76.9133 221.822 77.3924 221.381C77.8716 220.939 78.1908 220.318 78.251 219.637L79.3297 207.31L89.4555 275.714C89.5552 276.356 89.8945 276.937 90.3737 277.358C90.8333 277.759 91.4523 278 92.1114 278C92.7906 278 93.3901 277.759 93.8687 277.338C94.3479 276.937 94.6677 276.356 94.7679 275.694L102.375 222.23H228.868V222.157H229.651L232.507 254.726C232.566 255.386 232.867 255.988 233.326 256.429C233.805 256.87 234.405 257.15 235.084 257.171H235.163C235.843 257.171 236.441 256.93 236.921 256.53C237.401 256.109 237.719 255.548 237.82 254.887L248.585 182.193L253.937 219.833H253.958C254.037 220.493 254.377 221.075 254.836 221.495C255.315 221.897 255.935 222.157 256.594 222.157H268.857C269.496 222.157 270.075 221.916 270.554 221.536C271.014 221.155 271.353 220.613 271.472 219.972L274.609 203.858L278.483 220.093C278.623 220.694 278.962 221.195 279.442 221.575C279.902 221.937 280.48 222.157 281.099 222.157H322.501C325.577 222.157 329.571 218.93 329.571 215.684V189.548C335.204 188.526 341.295 185.239 344.95 179.928C345.429 179.207 345.53 178.325 345.29 177.562C350.502 168.645 352 156.74 352 150.546Z" fill="white"/>
</svg>
