<svg width="512" height="451" viewBox="0 0 512 451" fill="none" xmlns="http://www.w3.org/2000/svg">
<path d="M321.409 198V186.364H325.477C326.288 186.364 326.956 186.504 327.483 186.784C328.009 187.061 328.402 187.434 328.659 187.903C328.917 188.369 329.045 188.886 329.045 189.455C329.045 189.955 328.956 190.367 328.778 190.693C328.604 191.019 328.373 191.277 328.085 191.466C327.801 191.655 327.492 191.795 327.159 191.886V192C327.515 192.023 327.873 192.148 328.233 192.375C328.593 192.602 328.894 192.928 329.136 193.352C329.379 193.777 329.5 194.295 329.5 194.909C329.5 195.492 329.367 196.017 329.102 196.483C328.837 196.949 328.419 197.318 327.847 197.591C327.275 197.864 326.53 198 325.614 198H321.409ZM322.818 196.75H325.614C326.534 196.75 327.188 196.572 327.574 196.216C327.964 195.856 328.159 195.42 328.159 194.909C328.159 194.515 328.059 194.152 327.858 193.818C327.657 193.481 327.371 193.212 327 193.011C326.629 192.807 326.189 192.705 325.682 192.705H322.818V196.75ZM322.818 191.477H325.432C326.068 191.477 326.606 191.294 327.045 190.926C327.485 190.559 327.705 190.068 327.705 189.455C327.705 188.943 327.527 188.509 327.17 188.153C326.814 187.794 326.25 187.614 325.477 187.614H322.818V191.477ZM332.497 186.364L335.497 191.205H335.588L338.588 186.364H340.247L336.588 192.182L340.247 198H338.588L335.588 193.25H335.497L332.497 198H330.838L334.588 192.182L330.838 186.364H332.497ZM351.712 192.182C351.712 193.409 351.49 194.47 351.047 195.364C350.604 196.258 349.996 196.947 349.223 197.432C348.45 197.917 347.568 198.159 346.575 198.159C345.583 198.159 344.7 197.917 343.928 197.432C343.155 196.947 342.547 196.258 342.104 195.364C341.661 194.47 341.439 193.409 341.439 192.182C341.439 190.955 341.661 189.894 342.104 189C342.547 188.106 343.155 187.417 343.928 186.932C344.7 186.447 345.583 186.205 346.575 186.205C347.568 186.205 348.45 186.447 349.223 186.932C349.996 187.417 350.604 188.106 351.047 189C351.49 189.894 351.712 190.955 351.712 192.182ZM350.348 192.182C350.348 191.174 350.179 190.324 349.842 189.631C349.509 188.938 349.056 188.413 348.484 188.057C347.916 187.701 347.28 187.523 346.575 187.523C345.871 187.523 345.232 187.701 344.661 188.057C344.092 188.413 343.64 188.938 343.303 189.631C342.969 190.324 342.803 191.174 342.803 192.182C342.803 193.189 342.969 194.04 343.303 194.733C343.64 195.426 344.092 195.951 344.661 196.307C345.232 196.663 345.871 196.841 346.575 196.841C347.28 196.841 347.916 196.663 348.484 196.307C349.056 195.951 349.509 195.426 349.842 194.733C350.179 194.04 350.348 193.189 350.348 192.182ZM353.081 200.818V196.75H353.831C354.089 196.515 354.331 196.184 354.558 195.756C354.789 195.324 354.984 194.748 355.143 194.028C355.306 193.305 355.414 192.386 355.467 191.273L355.717 186.364H362.626V196.75H363.967V200.795H362.626V198H354.422V200.818H353.081ZM355.513 196.75H361.286V187.614H356.99L356.808 191.273C356.74 192.545 356.594 193.638 356.371 194.551C356.151 195.46 355.865 196.193 355.513 196.75ZM373.506 198V186.364H369.574C368.665 186.364 367.919 186.519 367.335 186.83C366.752 187.136 366.32 187.559 366.04 188.097C365.759 188.634 365.619 189.246 365.619 189.932C365.619 190.705 365.795 191.379 366.148 191.955C366.504 192.527 367.053 192.939 367.795 193.193L365.165 198H366.801L369.256 193.449C369.35 193.453 369.449 193.455 369.551 193.455H372.097V198H373.506ZM372.097 192.182H369.597C368.665 192.182 368 191.981 367.602 191.58C367.205 191.178 367.006 190.629 367.006 189.932C367.006 189.231 367.205 188.67 367.602 188.25C368.004 187.826 368.676 187.614 369.619 187.614H372.097V192.182ZM389.876 196.75L389.717 200.75H388.331V198H376.331V186.364H377.74V196.705H381.831V186.364H383.24V196.705H387.331V186.364H388.74V196.75H389.876ZM392.018 186.364V198H393.382L399.723 188.864H399.837V198H401.246V186.364H399.882L393.518 195.523H393.405V186.364H392.018ZM404.065 186.364V198H405.429L411.77 188.864H411.884V198H413.293V186.364H411.929L405.565 195.523H405.452V186.364H404.065ZM409.793 183.455H411.043C411.043 184.068 410.83 184.57 410.406 184.96C409.982 185.35 409.406 185.545 408.679 185.545C407.963 185.545 407.393 185.35 406.969 184.96C406.548 184.57 406.338 184.068 406.338 183.455H407.588C407.588 183.75 407.67 184.009 407.832 184.233C407.999 184.456 408.281 184.568 408.679 184.568C409.077 184.568 409.361 184.456 409.531 184.233C409.705 184.009 409.793 183.75 409.793 183.455ZM420.612 198V186.364H424.68C425.491 186.364 426.16 186.504 426.686 186.784C427.213 187.061 427.605 187.434 427.862 187.903C428.12 188.369 428.249 188.886 428.249 189.455C428.249 189.955 428.16 190.367 427.982 190.693C427.807 191.019 427.576 191.277 427.288 191.466C427.004 191.655 426.696 191.795 426.362 191.886V192C426.718 192.023 427.076 192.148 427.436 192.375C427.796 192.602 428.097 192.928 428.339 193.352C428.582 193.777 428.703 194.295 428.703 194.909C428.703 195.492 428.571 196.017 428.305 196.483C428.04 196.949 427.622 197.318 427.05 197.591C426.478 197.864 425.733 198 424.817 198H420.612ZM422.021 196.75H424.817C425.737 196.75 426.391 196.572 426.777 196.216C427.167 195.856 427.362 195.42 427.362 194.909C427.362 194.515 427.262 194.152 427.061 193.818C426.86 193.481 426.574 193.212 426.203 193.011C425.832 192.807 425.393 192.705 424.885 192.705H422.021V196.75ZM422.021 191.477H424.635C425.271 191.477 425.809 191.294 426.249 190.926C426.688 190.559 426.908 190.068 426.908 189.455C426.908 188.943 426.73 188.509 426.374 188.153C426.018 187.794 425.453 187.614 424.68 187.614H422.021V191.477ZM432.428 191.25H435.382C436.632 191.25 437.589 191.551 438.251 192.153C438.914 192.752 439.246 193.557 439.246 194.568C439.246 195.58 438.914 196.405 438.251 197.045C437.589 197.682 436.632 198 435.382 198H431.018V186.364H432.428V191.25ZM432.428 192.5V196.773H435.382C435.912 196.773 436.361 196.667 436.729 196.455C437.1 196.239 437.38 195.962 437.57 195.625C437.763 195.284 437.859 194.924 437.859 194.545C437.859 193.989 437.645 193.509 437.217 193.108C436.789 192.703 436.178 192.5 435.382 192.5H432.428ZM441.791 186.364V198H440.382V186.364H441.791ZM448.339 198.159C447.589 198.159 446.921 198.03 446.334 197.773C445.75 197.515 445.286 197.157 444.942 196.699C444.601 196.237 444.415 195.701 444.385 195.091H445.817C445.858 195.652 446.116 196.095 446.589 196.42C447.067 196.746 447.643 196.909 448.317 196.909C449.063 196.909 449.677 196.72 450.158 196.341C450.643 195.958 450.885 195.458 450.885 194.841C450.885 194.197 450.646 193.672 450.169 193.267C449.696 192.862 449.018 192.659 448.135 192.659H447.203V191.409H448.135C448.824 191.409 449.387 191.225 449.822 190.858C450.258 190.491 450.476 190 450.476 189.386C450.476 188.799 450.285 188.328 449.902 187.972C449.519 187.612 449.006 187.432 448.362 187.432C447.961 187.432 447.582 187.506 447.226 187.653C446.874 187.797 446.586 188.008 446.362 188.284C446.139 188.557 446.018 188.886 445.999 189.273H444.635C444.658 188.663 444.841 188.129 445.186 187.67C445.531 187.208 445.982 186.848 446.538 186.591C447.099 186.333 447.714 186.205 448.385 186.205C449.105 186.205 449.722 186.35 450.237 186.642C450.752 186.93 451.148 187.311 451.425 187.784C451.701 188.258 451.839 188.769 451.839 189.318C451.839 189.973 451.667 190.532 451.322 190.994C450.982 191.456 450.518 191.777 449.93 191.955V192.045C450.665 192.167 451.239 192.479 451.652 192.983C452.065 193.483 452.271 194.102 452.271 194.841C452.271 195.473 452.099 196.042 451.754 196.545C451.413 197.045 450.947 197.439 450.357 197.727C449.766 198.015 449.093 198.159 448.339 198.159ZM464.618 192.182C464.618 193.409 464.396 194.47 463.953 195.364C463.51 196.258 462.902 196.947 462.129 197.432C461.357 197.917 460.474 198.159 459.482 198.159C458.489 198.159 457.607 197.917 456.834 197.432C456.061 196.947 455.453 196.258 455.01 195.364C454.567 194.47 454.345 193.409 454.345 192.182C454.345 190.955 454.567 189.894 455.01 189C455.453 188.106 456.061 187.417 456.834 186.932C457.607 186.447 458.489 186.205 459.482 186.205C460.474 186.205 461.357 186.447 462.129 186.932C462.902 187.417 463.51 188.106 463.953 189C464.396 189.894 464.618 190.955 464.618 192.182ZM463.254 192.182C463.254 191.174 463.086 190.324 462.749 189.631C462.415 188.938 461.963 188.413 461.391 188.057C460.822 187.701 460.186 187.523 459.482 187.523C458.777 187.523 458.139 187.701 457.567 188.057C456.999 188.413 456.546 188.938 456.209 189.631C455.875 190.324 455.709 191.174 455.709 192.182C455.709 193.189 455.875 194.04 456.209 194.733C456.546 195.426 456.999 195.951 457.567 196.307C458.139 196.663 458.777 196.841 459.482 196.841C460.186 196.841 460.822 196.663 461.391 196.307C461.963 195.951 462.415 195.426 462.749 194.733C463.086 194.04 463.254 193.189 463.254 192.182ZM466.987 198V186.364H471.055C471.866 186.364 472.535 186.504 473.061 186.784C473.588 187.061 473.98 187.434 474.237 187.903C474.495 188.369 474.624 188.886 474.624 189.455C474.624 189.955 474.535 190.367 474.357 190.693C474.182 191.019 473.951 191.277 473.663 191.466C473.379 191.655 473.071 191.795 472.737 191.886V192C473.093 192.023 473.451 192.148 473.811 192.375C474.171 192.602 474.472 192.928 474.714 193.352C474.957 193.777 475.078 194.295 475.078 194.909C475.078 195.492 474.946 196.017 474.68 196.483C474.415 196.949 473.997 197.318 473.425 197.591C472.853 197.864 472.108 198 471.192 198H466.987ZM468.396 196.75H471.192C472.112 196.75 472.766 196.572 473.152 196.216C473.542 195.856 473.737 195.42 473.737 194.909C473.737 194.515 473.637 194.152 473.436 193.818C473.235 193.481 472.949 193.212 472.578 193.011C472.207 192.807 471.768 192.705 471.26 192.705H468.396V196.75ZM468.396 191.477H471.01C471.646 191.477 472.184 191.294 472.624 190.926C473.063 190.559 473.283 190.068 473.283 189.455C473.283 188.943 473.105 188.509 472.749 188.153C472.393 187.794 471.828 187.614 471.055 187.614H468.396V191.477Z" fill="white"/>
<path d="M337.932 269.159C337.152 269.159 336.462 269.021 335.864 268.744C335.269 268.464 334.805 268.08 334.472 267.591C334.138 267.098 333.973 266.538 333.977 265.909C333.973 265.417 334.07 264.962 334.267 264.545C334.464 264.125 334.733 263.775 335.074 263.494C335.419 263.21 335.803 263.03 336.227 262.955V262.886C335.67 262.742 335.227 262.43 334.898 261.949C334.568 261.464 334.405 260.913 334.409 260.295C334.405 259.705 334.555 259.176 334.858 258.71C335.161 258.244 335.578 257.877 336.108 257.608C336.642 257.339 337.25 257.205 337.932 257.205C338.606 257.205 339.208 257.339 339.739 257.608C340.269 257.877 340.686 258.244 340.989 258.71C341.295 259.176 341.451 259.705 341.455 260.295C341.451 260.913 341.282 261.464 340.949 261.949C340.619 262.43 340.182 262.742 339.636 262.886V262.955C340.057 263.03 340.436 263.21 340.773 263.494C341.11 263.775 341.379 264.125 341.58 264.545C341.78 264.962 341.883 265.417 341.886 265.909C341.883 266.538 341.712 267.098 341.375 267.591C341.042 268.08 340.578 268.464 339.983 268.744C339.392 269.021 338.708 269.159 337.932 269.159ZM337.932 267.909C338.72 267.909 339.343 267.722 339.801 267.347C340.263 266.968 340.496 266.466 340.5 265.841C340.496 265.402 340.383 265.013 340.159 264.676C339.936 264.339 339.631 264.074 339.244 263.881C338.862 263.687 338.424 263.591 337.932 263.591C337.436 263.591 336.992 263.687 336.602 263.881C336.216 264.074 335.911 264.339 335.688 264.676C335.468 265.013 335.36 265.402 335.364 265.841C335.36 266.466 335.587 266.968 336.045 267.347C336.504 267.722 337.133 267.909 337.932 267.909ZM337.932 262.386C338.557 262.386 339.072 262.205 339.477 261.841C339.883 261.473 340.087 260.989 340.091 260.386C340.087 259.795 339.886 259.322 339.489 258.966C339.095 258.61 338.576 258.432 337.932 258.432C337.28 258.432 336.756 258.61 336.358 258.966C335.964 259.322 335.769 259.795 335.773 260.386C335.769 260.989 335.968 261.473 336.369 261.841C336.775 262.205 337.295 262.386 337.932 262.386ZM352.268 257.182C352.746 257.186 353.223 257.277 353.7 257.455C354.178 257.633 354.613 257.928 355.007 258.341C355.401 258.754 355.717 259.316 355.956 260.028C356.195 260.737 356.314 261.629 356.314 262.705C356.314 264.773 355.935 266.366 355.178 267.483C354.424 268.6 353.393 269.159 352.087 269.159C351.109 269.159 350.297 268.875 349.649 268.307C349.001 267.735 348.609 266.989 348.473 266.068H349.859C349.984 266.602 350.232 267.044 350.604 267.392C350.979 267.737 351.473 267.909 352.087 267.909C352.984 267.909 353.693 267.517 354.212 266.733C354.734 265.949 354.996 264.841 354.996 263.409H354.905C354.587 263.886 354.179 264.263 353.683 264.54C353.191 264.816 352.643 264.955 352.041 264.955C351.375 264.955 350.763 264.79 350.206 264.46C349.653 264.127 349.21 263.67 348.876 263.091C348.547 262.508 348.382 261.841 348.382 261.091C348.382 260.371 348.541 259.714 348.859 259.119C349.181 258.525 349.632 258.051 350.212 257.699C350.795 257.347 351.481 257.174 352.268 257.182ZM352.268 258.432C351.791 258.432 351.361 258.551 350.979 258.79C350.6 259.028 350.299 259.348 350.075 259.75C349.856 260.152 349.746 260.598 349.746 261.091C349.746 261.576 349.852 262.017 350.064 262.415C350.28 262.809 350.573 263.123 350.945 263.358C351.32 263.589 351.746 263.705 352.223 263.705C352.7 263.705 353.132 263.581 353.518 263.335C353.909 263.089 354.217 262.765 354.445 262.364C354.676 261.962 354.791 261.53 354.791 261.068C354.791 260.606 354.681 260.174 354.462 259.773C354.246 259.371 353.946 259.047 353.564 258.801C353.185 258.555 352.753 258.432 352.268 258.432ZM362.639 257.364V269H361.23V258.841H361.162L358.321 260.727V259.295L361.23 257.364H362.639ZM366.349 269L371.554 258.705V258.614H365.554V257.364H373.009V258.682L367.827 269H366.349ZM379.354 266.614V265.455L384.467 257.364H386.172V265.364H387.763V266.614H386.172V269H384.831V266.614H379.354ZM384.831 265.364V259.159H384.74L380.876 265.273V265.364H384.831ZM393.688 269.159C392.403 269.159 391.407 268.638 390.699 267.597C389.994 266.555 389.642 265.083 389.642 263.182C389.642 261.295 389.998 259.828 390.71 258.778C391.422 257.729 392.415 257.205 393.688 257.205C394.96 257.205 395.953 257.729 396.665 258.778C397.377 259.828 397.733 261.295 397.733 263.182C397.733 265.083 397.379 266.555 396.67 267.597C395.966 268.638 394.972 269.159 393.688 269.159ZM393.688 267.909C394.536 267.909 395.195 267.5 395.665 266.682C396.134 265.864 396.369 264.697 396.369 263.182C396.369 261.67 396.133 260.502 395.659 259.676C395.186 258.847 394.528 258.432 393.688 258.432C392.847 258.432 392.189 258.847 391.716 259.676C391.242 260.502 391.006 261.67 391.006 263.182C391.006 264.697 391.241 265.864 391.71 266.682C392.184 267.5 392.843 267.909 393.688 267.909ZM403.619 269.159C402.839 269.159 402.15 269.021 401.551 268.744C400.956 268.464 400.492 268.08 400.159 267.591C399.826 267.098 399.661 266.538 399.665 265.909C399.661 265.417 399.758 264.962 399.955 264.545C400.152 264.125 400.42 263.775 400.761 263.494C401.106 263.21 401.491 263.03 401.915 262.955V262.886C401.358 262.742 400.915 262.43 400.585 261.949C400.256 261.464 400.093 260.913 400.097 260.295C400.093 259.705 400.242 259.176 400.545 258.71C400.848 258.244 401.265 257.877 401.795 257.608C402.33 257.339 402.938 257.205 403.619 257.205C404.294 257.205 404.896 257.339 405.426 257.608C405.956 257.877 406.373 258.244 406.676 258.71C406.983 259.176 407.138 259.705 407.142 260.295C407.138 260.913 406.97 261.464 406.636 261.949C406.307 262.43 405.869 262.742 405.324 262.886V262.955C405.744 263.03 406.123 263.21 406.46 263.494C406.797 263.775 407.066 264.125 407.267 264.545C407.468 264.962 407.57 265.417 407.574 265.909C407.57 266.538 407.4 267.098 407.062 267.591C406.729 268.08 406.265 268.464 405.67 268.744C405.08 269.021 404.396 269.159 403.619 269.159ZM403.619 267.909C404.407 267.909 405.03 267.722 405.489 267.347C405.951 266.968 406.184 266.466 406.188 265.841C406.184 265.402 406.07 265.013 405.847 264.676C405.623 264.339 405.318 264.074 404.932 263.881C404.549 263.687 404.112 263.591 403.619 263.591C403.123 263.591 402.68 263.687 402.29 263.881C401.903 264.074 401.598 264.339 401.375 264.676C401.155 265.013 401.047 265.402 401.051 265.841C401.047 266.466 401.275 266.968 401.733 267.347C402.191 267.722 402.82 267.909 403.619 267.909ZM403.619 262.386C404.244 262.386 404.759 262.205 405.165 261.841C405.57 261.473 405.775 260.989 405.778 260.386C405.775 259.795 405.574 259.322 405.176 258.966C404.782 258.61 404.263 258.432 403.619 258.432C402.968 258.432 402.443 258.61 402.045 258.966C401.652 259.322 401.456 259.795 401.46 260.386C401.456 260.989 401.655 261.473 402.057 261.841C402.462 262.205 402.983 262.386 403.619 262.386ZM427.047 269.159C425.763 269.159 424.767 268.638 424.058 267.597C423.354 266.555 423.001 265.083 423.001 263.182C423.001 261.295 423.357 259.828 424.07 258.778C424.782 257.729 425.774 257.205 427.047 257.205C428.32 257.205 429.312 257.729 430.024 258.778C430.736 259.828 431.092 261.295 431.092 263.182C431.092 265.083 430.738 266.555 430.03 267.597C429.325 268.638 428.331 269.159 427.047 269.159ZM427.047 267.909C427.895 267.909 428.554 267.5 429.024 266.682C429.494 265.864 429.729 264.697 429.729 263.182C429.729 261.67 429.492 260.502 429.018 259.676C428.545 258.847 427.888 258.432 427.047 258.432C426.206 258.432 425.549 258.847 425.075 259.676C424.602 260.502 424.365 261.67 424.365 263.182C424.365 264.697 424.6 265.864 425.07 266.682C425.543 267.5 426.202 267.909 427.047 267.909ZM436.956 257.182C437.433 257.186 437.911 257.277 438.388 257.455C438.865 257.633 439.301 257.928 439.695 258.341C440.089 258.754 440.405 259.316 440.643 260.028C440.882 260.737 441.001 261.629 441.001 262.705C441.001 264.773 440.623 266.366 439.865 267.483C439.111 268.6 438.081 269.159 436.774 269.159C435.797 269.159 434.984 268.875 434.337 268.307C433.689 267.735 433.297 266.989 433.161 266.068H434.547C434.672 266.602 434.92 267.044 435.291 267.392C435.666 267.737 436.161 267.909 436.774 267.909C437.672 267.909 438.38 267.517 438.899 266.733C439.422 265.949 439.683 264.841 439.683 263.409H439.592C439.274 263.886 438.867 264.263 438.371 264.54C437.878 264.816 437.331 264.955 436.729 264.955C436.062 264.955 435.45 264.79 434.893 264.46C434.34 264.127 433.897 263.67 433.564 263.091C433.234 262.508 433.07 261.841 433.07 261.091C433.07 260.371 433.229 259.714 433.547 259.119C433.869 258.525 434.32 258.051 434.899 257.699C435.482 257.347 436.168 257.174 436.956 257.182ZM436.956 258.432C436.479 258.432 436.049 258.551 435.666 258.79C435.287 259.028 434.986 259.348 434.763 259.75C434.543 260.152 434.433 260.598 434.433 261.091C434.433 261.576 434.539 262.017 434.751 262.415C434.967 262.809 435.261 263.123 435.632 263.358C436.007 263.589 436.433 263.705 436.911 263.705C437.388 263.705 437.82 263.581 438.206 263.335C438.596 263.089 438.905 262.765 439.132 262.364C439.363 261.962 439.479 261.53 439.479 261.068C439.479 260.606 439.369 260.174 439.149 259.773C438.933 259.371 438.634 259.047 438.251 258.801C437.873 258.555 437.441 258.432 436.956 258.432ZM446.963 269.159C446.183 269.159 445.493 269.021 444.895 268.744C444.3 268.464 443.836 268.08 443.503 267.591C443.17 267.098 443.005 266.538 443.009 265.909C443.005 265.417 443.101 264.962 443.298 264.545C443.495 264.125 443.764 263.775 444.105 263.494C444.45 263.21 444.834 263.03 445.259 262.955V262.886C444.702 262.742 444.259 262.43 443.929 261.949C443.599 261.464 443.437 260.913 443.44 260.295C443.437 259.705 443.586 259.176 443.889 258.71C444.192 258.244 444.609 257.877 445.139 257.608C445.673 257.339 446.281 257.205 446.963 257.205C447.637 257.205 448.24 257.339 448.77 257.608C449.3 257.877 449.717 258.244 450.02 258.71C450.327 259.176 450.482 259.705 450.486 260.295C450.482 260.913 450.313 261.464 449.98 261.949C449.651 262.43 449.213 262.742 448.668 262.886V262.955C449.088 263.03 449.467 263.21 449.804 263.494C450.141 263.775 450.41 264.125 450.611 264.545C450.812 264.962 450.914 265.417 450.918 265.909C450.914 266.538 450.743 267.098 450.406 267.591C450.073 268.08 449.609 268.464 449.014 268.744C448.423 269.021 447.74 269.159 446.963 269.159ZM446.963 267.909C447.751 267.909 448.374 267.722 448.832 267.347C449.295 266.968 449.527 266.466 449.531 265.841C449.527 265.402 449.414 265.013 449.19 264.676C448.967 264.339 448.662 264.074 448.276 263.881C447.893 263.687 447.455 263.591 446.963 263.591C446.467 263.591 446.024 263.687 445.634 263.881C445.247 264.074 444.942 264.339 444.719 264.676C444.499 265.013 444.391 265.402 444.395 265.841C444.391 266.466 444.618 266.968 445.077 267.347C445.535 267.722 446.164 267.909 446.963 267.909ZM446.963 262.386C447.588 262.386 448.103 262.205 448.509 261.841C448.914 261.473 449.118 260.989 449.122 260.386C449.118 259.795 448.918 259.322 448.52 258.966C448.126 258.61 447.607 258.432 446.963 258.432C446.312 258.432 445.787 258.61 445.389 258.966C444.995 259.322 444.8 259.795 444.804 260.386C444.8 260.989 444.999 261.473 445.401 261.841C445.806 262.205 446.327 262.386 446.963 262.386ZM456.959 269.159C456.482 269.152 456.004 269.061 455.527 268.886C455.05 268.712 454.614 268.419 454.22 268.006C453.826 267.589 453.51 267.027 453.271 266.318C453.033 265.606 452.913 264.712 452.913 263.636C452.913 261.568 453.29 259.975 454.044 258.858C454.798 257.741 455.83 257.182 457.141 257.182C458.118 257.182 458.929 257.468 459.572 258.04C460.22 258.612 460.614 259.356 460.754 260.273H459.368C459.239 259.739 458.989 259.299 458.618 258.955C458.247 258.606 457.754 258.432 457.141 258.432C456.239 258.432 455.529 258.826 455.01 259.614C454.495 260.398 454.235 261.504 454.232 262.932H454.322C454.641 262.451 455.048 262.074 455.544 261.801C456.04 261.525 456.588 261.386 457.186 261.386C457.853 261.386 458.463 261.553 459.016 261.886C459.569 262.216 460.012 262.672 460.345 263.256C460.679 263.835 460.845 264.5 460.845 265.25C460.845 265.97 460.684 266.629 460.362 267.227C460.04 267.822 459.588 268.295 459.004 268.648C458.425 268.996 457.743 269.167 456.959 269.159ZM456.959 267.909C457.436 267.909 457.864 267.79 458.243 267.551C458.625 267.312 458.927 266.992 459.146 266.591C459.37 266.189 459.482 265.742 459.482 265.25C459.482 264.769 459.374 264.331 459.158 263.938C458.946 263.54 458.652 263.223 458.277 262.989C457.906 262.754 457.482 262.636 457.004 262.636C456.523 262.636 456.089 262.759 455.703 263.006C455.317 263.252 455.01 263.576 454.783 263.977C454.555 264.375 454.44 264.807 454.436 265.273C454.436 265.735 454.544 266.167 454.76 266.568C454.98 266.97 455.279 267.294 455.658 267.54C456.04 267.786 456.474 267.909 456.959 267.909Z" fill="white"/>
<path d="M477.278 449.355H318.784C300.954 449.355 286.5 434.9 286.5 417.071V33.7836C286.5 15.9532 300.954 1.5 318.784 1.5H477.278C495.107 1.5 509.561 15.9532 509.561 33.7836V417.071C509.561 434.9 495.107 449.355 477.278 449.355Z" stroke="white" stroke-width="3"/>
<path d="M420.909 22.3316H375.817C374.943 22.3316 374.234 21.6226 374.234 20.7493C374.234 19.876 374.943 19.167 375.817 19.167H420.909C421.782 19.167 422.49 19.876 422.49 20.7493C422.49 21.6226 421.782 22.3316 420.909 22.3316Z" fill="white"/>
<path d="M334.758 427.785H326.188V428.957H334.758V427.785Z" fill="white"/>
<path d="M402.491 434.999V434.549H396.228V428.831H402.041V434.999H402.491V434.549V434.999H402.941V428.381C402.941 428.263 402.893 428.148 402.809 428.064C402.725 427.98 402.609 427.932 402.491 427.932H395.778C395.659 427.932 395.544 427.98 395.46 428.064C395.376 428.148 395.328 428.263 395.328 428.381V434.999C395.328 435.117 395.376 435.234 395.46 435.318C395.544 435.4 395.659 435.448 395.778 435.448H402.491C402.609 435.448 402.725 435.4 402.809 435.318C402.893 435.234 402.941 435.117 402.941 434.999H402.491Z" fill="white"/>
<path d="M462.183 427.698L459.092 430.79C458.771 431.109 458.609 431.532 458.609 431.95C458.609 432.37 458.771 432.792 459.092 433.113L462.183 436.204C462.358 436.379 462.644 436.379 462.819 436.204C462.994 436.028 462.994 435.744 462.819 435.567L459.727 432.476C459.581 432.329 459.51 432.142 459.509 431.95C459.51 431.76 459.581 431.572 459.727 431.427L462.819 428.333C462.995 428.158 462.994 427.873 462.819 427.698C462.644 427.521 462.358 427.521 462.183 427.698Z" fill="white"/>
<path d="M466.347 42.8974C466.738 42.8974 467.055 43.2129 467.055 43.6028C467.055 43.995 466.738 44.3117 466.347 44.3117C465.957 44.3117 465.641 43.995 465.641 43.6028C465.641 43.2129 465.957 42.8974 466.347 42.8974Z" fill="white"/>
<path d="M468.113 41.8906L468.082 41.8594L468.048 41.8306L468.031 41.815C467.116 40.9837 465.716 41.0173 464.843 41.8906L464.74 41.9925L464.597 42.1341C464.425 42.3068 464.426 42.5888 464.598 42.7615C464.772 42.9354 465.053 42.9366 465.225 42.7627L465.471 42.518C466.027 41.9638 466.93 41.9638 467.484 42.518L467.659 42.6895C467.833 42.8599 468.11 42.8599 468.283 42.6883C468.366 42.6056 468.412 42.494 468.412 42.3776C468.412 42.2589 468.366 42.1485 468.286 42.0669L468.113 41.8906Z" fill="white"/>
<path d="M469.235 41.0197L469.09 40.8722L469.087 40.871L468.971 40.7534L468.906 40.7006C467.414 39.3918 465.145 39.4314 463.702 40.8206L463.68 40.8386L463.414 41.1037C463.257 41.262 463.259 41.5176 463.415 41.6759C463.573 41.8343 463.83 41.8343 463.987 41.6771L464.253 41.412L464.258 41.406C465.425 40.2784 467.278 40.2712 468.454 41.3832L468.663 41.5919C468.822 41.7491 469.078 41.7491 469.234 41.5907C469.393 41.4324 469.394 41.1769 469.235 41.0197Z" fill="white"/>
<path d="M297.768 44.6903C297.768 44.7743 297.839 44.8451 297.923 44.8451C298.014 44.8451 298.079 44.7743 298.079 44.6903V40.5276C298.085 40.4881 298.079 40.4497 298.06 40.4101C298.02 40.3393 297.917 40.3129 297.845 40.3525L296.972 40.8827C296.894 40.9223 296.867 41.0123 296.913 41.0963C296.939 41.1418 296.991 41.1742 297.05 41.1742C297.075 41.1742 297.107 41.161 297.127 41.149L297.768 40.7736V44.6903Z" fill="white"/>
<path d="M299.669 44.18C299.947 44.5878 300.342 44.8661 300.801 44.8661C301.261 44.8661 301.656 44.5878 301.935 44.18C302.206 43.7661 302.375 43.2095 302.375 42.6001C302.375 41.9919 302.206 41.4352 301.935 41.0142C301.656 40.6135 301.261 40.334 300.801 40.334C300.342 40.334 299.947 40.6135 299.669 41.0142C299.389 41.4352 299.234 41.9919 299.234 42.6001C299.234 43.2095 299.389 43.7661 299.669 44.18ZM299.934 41.1953C300.166 40.839 300.477 40.6519 300.801 40.6519C301.125 40.6519 301.43 40.839 301.668 41.1953C301.902 41.5456 302.057 42.0434 302.057 42.6001C302.057 43.1579 301.902 43.6557 301.668 44.006C301.43 44.3491 301.125 44.5494 300.801 44.5494C300.477 44.5494 300.166 44.3491 299.934 44.006C299.701 43.6557 299.551 43.1579 299.551 42.6001C299.551 42.0434 299.701 41.5456 299.934 41.1953Z" fill="white"/>
<path d="M303.922 44.5493C303.922 44.7304 304.063 44.872 304.246 44.872C304.427 44.872 304.568 44.7304 304.568 44.5493C304.568 44.3682 304.427 44.2254 304.246 44.2254C304.063 44.2254 303.922 44.3682 303.922 44.5493ZM303.922 41.8298C303.922 42.0109 304.063 42.1537 304.246 42.1537C304.427 42.1537 304.568 42.0109 304.568 41.8298C304.568 41.6486 304.427 41.5059 304.246 41.5059C304.063 41.5059 303.922 41.6486 303.922 41.8298Z" fill="white"/>
<path d="M307.746 40.5679C307.759 40.5487 307.765 40.5223 307.765 40.4959C307.765 40.406 307.694 40.334 307.603 40.334H305.485C305.395 40.334 305.323 40.406 305.323 40.4959C305.323 40.5871 305.395 40.6579 305.485 40.6579H307.221L306.095 41.8167C306.03 41.8815 306.03 41.9859 306.095 42.0506H306.101C306.133 42.089 306.179 42.1154 306.23 42.1154C306.541 42.1154 306.852 42.2318 307.085 42.4717C307.324 42.7044 307.441 43.0151 307.441 43.3258C307.441 43.6365 307.324 43.9472 307.085 44.1872C306.846 44.4199 306.535 44.5362 306.224 44.5362C305.914 44.5362 305.609 44.4199 305.369 44.1872C305.304 44.1224 305.201 44.1224 305.142 44.1872C305.078 44.2519 305.078 44.3551 305.142 44.4139C305.441 44.7174 305.836 44.8661 306.224 44.8661C306.619 44.8661 307.014 44.7114 307.311 44.4139C307.616 44.1152 307.765 43.7205 307.765 43.3258C307.765 42.9312 307.616 42.5353 307.318 42.2378C307.098 42.0182 306.827 41.8815 306.541 41.8239L307.713 40.6195C307.726 40.6063 307.74 40.5871 307.746 40.5679Z" fill="white"/>
<path d="M310.216 44.18C310.494 44.5878 310.888 44.8661 311.348 44.8661C311.807 44.8661 312.202 44.5878 312.482 44.18C312.753 43.7661 312.922 43.2095 312.922 42.6001C312.922 41.9919 312.753 41.4352 312.482 41.0142C312.202 40.6135 311.807 40.334 311.348 40.334C310.888 40.334 310.494 40.6135 310.216 41.0142C309.936 41.4352 309.781 41.9919 309.781 42.6001C309.781 43.2095 309.936 43.7661 310.216 44.18ZM310.481 41.1953C310.713 40.839 311.024 40.6519 311.348 40.6519C311.672 40.6519 311.977 40.839 312.215 41.1953C312.449 41.5456 312.604 42.0434 312.604 42.6001C312.604 43.1579 312.449 43.6557 312.215 44.006C311.977 44.3491 311.672 44.5494 311.348 44.5494C311.024 44.5494 310.713 44.3491 310.481 44.006C310.248 43.6557 310.098 43.1579 310.098 42.6001C310.098 42.0434 310.248 41.5456 310.481 41.1953Z" fill="white"/>
<path d="M318.817 44.7426C318.843 44.8074 318.908 44.8457 318.967 44.8457C318.986 44.8457 318.998 44.8398 319.024 44.8398C319.102 44.8074 319.141 44.7102 319.108 44.6322L317.536 40.4312C317.517 40.3724 317.452 40.334 317.38 40.334C317.315 40.334 317.25 40.3724 317.225 40.4312L315.651 44.6322C315.619 44.7102 315.664 44.8074 315.742 44.8398C315.762 44.8398 315.787 44.8457 315.8 44.8457C315.865 44.8457 315.923 44.8074 315.949 44.7426L316.351 43.6749H318.416L318.817 44.7426ZM317.387 40.923L318.3 43.357H316.467L317.387 40.923Z" fill="white"/>
<path d="M323.824 44.6923C323.824 44.7763 323.889 44.8471 323.98 44.8471C324.064 44.8471 324.136 44.7763 324.136 44.6923V40.4973C324.136 40.4709 324.123 40.4385 324.109 40.4121C324.096 40.3929 324.083 40.3797 324.064 40.3605C323.993 40.3149 323.889 40.3281 323.844 40.4001L322.238 42.6338L320.626 40.4001C320.574 40.3281 320.477 40.3149 320.406 40.3605C320.399 40.3677 320.393 40.3677 320.393 40.3737C320.355 40.4001 320.328 40.4445 320.328 40.4973V44.6923C320.328 44.7763 320.399 44.8471 320.49 44.8471C320.574 44.8471 320.645 44.7763 320.645 44.6923V40.9699L322.095 42.9769C322.128 43.0285 322.173 43.0476 322.232 43.0476H322.245C322.29 43.0476 322.341 43.0285 322.373 42.9769L323.824 40.9627V44.6923Z" fill="white"/>
<path d="M474.346 40.8567C474.346 41.1566 474.488 41.4145 474.701 41.5801C474.2 41.7876 473.844 42.2902 473.844 42.866C473.844 43.6386 474.469 44.2576 475.235 44.2576C476.007 44.2576 476.626 43.6386 476.626 42.866C476.626 42.2902 476.271 41.7876 475.762 41.5801C475.983 41.4145 476.13 41.1566 476.13 40.8567C476.13 40.366 475.725 39.9678 475.235 39.9678C474.739 39.9678 474.346 40.366 474.346 40.8567ZM474.139 42.866C474.139 42.2662 474.628 41.7696 475.235 41.7696C475.848 41.7696 476.332 42.2662 476.332 42.866C476.332 43.473 475.848 43.9637 475.235 43.9637C474.628 43.9637 474.139 43.473 474.139 42.866ZM474.64 40.8567C474.64 40.5256 474.904 40.2629 475.235 40.2629C475.566 40.2629 475.835 40.5256 475.835 40.8567C475.835 41.1878 475.566 41.4577 475.235 41.4637C474.904 41.4577 474.64 41.1878 474.64 40.8567Z" fill="white"/>
<path d="M478.435 44.2576C478.802 44.2576 479.182 44.11 479.464 43.8341C479.752 43.5522 479.886 43.1731 479.886 42.8049C479.886 42.4258 479.752 42.0575 479.464 41.7756C479.182 41.4877 478.814 41.3533 478.44 41.3533C478.183 41.3533 477.932 41.4205 477.711 41.5489L477.865 40.2749H479.734C479.819 40.2749 479.886 40.2137 479.886 40.1213C479.886 40.0361 479.819 39.9678 479.734 39.9678H477.736C477.699 39.9678 477.662 39.981 477.638 40.005C477.601 40.0302 477.577 40.0661 477.577 40.1153L477.368 41.8428C477.368 41.856 477.362 41.868 477.362 41.874C477.362 41.892 477.362 41.9111 477.368 41.9231C477.368 41.9291 477.368 41.9351 477.374 41.9411V41.9471C477.38 41.9651 477.393 41.9843 477.411 41.9963C477.466 42.0575 477.565 42.0575 477.626 41.9963C477.853 41.7696 478.141 41.6592 478.44 41.6592C478.734 41.6592 479.028 41.7696 479.249 41.9903C479.47 42.2111 479.58 42.505 479.58 42.8049C479.58 43.0988 479.47 43.3867 479.243 43.6134C479.016 43.8401 478.728 43.9505 478.435 43.9505C478.141 43.9505 477.853 43.8401 477.626 43.6194C477.565 43.5582 477.466 43.5582 477.405 43.6194C477.344 43.6746 477.344 43.773 477.405 43.8341C477.687 44.116 478.06 44.2576 478.435 44.2576Z" fill="white"/>
<path d="M481.813 42.0874C482.383 42.0874 482.762 41.5668 482.762 40.991V40.979C482.762 40.4152 482.389 39.8945 481.825 39.8945C481.255 39.8945 480.875 40.4152 480.875 40.991V41.003C480.875 41.5728 481.249 42.0874 481.813 42.0874ZM481.433 44.128C481.433 44.2012 481.494 44.2563 481.567 44.2563C481.616 44.2563 481.654 44.2323 481.684 44.1891L484.668 40.1273C484.686 40.1021 484.692 40.0781 484.692 40.0469C484.692 39.9737 484.631 39.9185 484.558 39.9185C484.509 39.9185 484.471 39.9425 484.441 39.9857L481.457 44.0476C481.439 44.0728 481.433 44.0968 481.433 44.128ZM484.3 44.2815C484.87 44.2815 485.25 43.7597 485.25 43.1839V43.1719C485.25 42.6081 484.876 42.0874 484.312 42.0874C483.742 42.0874 483.363 42.6081 483.363 43.1839V43.1971C483.363 43.7669 483.736 44.2815 484.3 44.2815ZM481.825 41.8235C481.482 41.8235 481.194 41.4744 481.194 40.991V40.979C481.194 40.5315 481.451 40.1572 481.813 40.1572C482.156 40.1572 482.444 40.5123 482.444 40.991V41.003C482.444 41.4624 482.186 41.8235 481.825 41.8235ZM484.312 44.0176C483.969 44.0176 483.681 43.6685 483.681 43.1839V43.1719C483.681 42.7244 483.939 42.3513 484.3 42.3513C484.643 42.3513 484.931 42.7064 484.931 43.1839V43.1971C484.931 43.6565 484.674 44.0176 484.312 44.0176Z" fill="white"/>
<path d="M491.012 40.5255L498.012 40.5123L498.018 44.0127L491.017 44.0199L491.012 40.5255ZM500.261 40.1092L490.637 40.1248L490.642 44.4254L500.267 44.4098L500.261 40.1092ZM490.814 44.7841C490.506 44.7853 490.257 44.5562 490.257 44.2743L490.25 40.2747C490.25 39.9952 490.501 39.7649 490.803 39.7637L500.09 39.7481C500.394 39.7493 500.643 39.9772 500.647 40.2579L500.646 41.0845L501.362 41.0809L501.368 43.4381L500.651 43.4417L500.653 44.2599C500.653 44.5406 500.404 44.7685 500.098 44.7685L490.814 44.7841Z" fill="#F9F9F8"/>
<path d="M415.083 22.3316H375.817C374.943 22.3316 374.234 21.6226 374.234 20.7493C374.234 19.876 374.943 19.167 375.817 19.167H416.091L415.083 22.3316Z" fill="white"/>
<path d="M297.768 44.6902C297.768 44.7742 297.839 44.845 297.923 44.845C298.014 44.845 298.079 44.7742 298.079 44.6902V40.5276C298.085 40.488 298.079 40.4496 298.06 40.41C298.02 40.3392 297.917 40.3128 297.845 40.3524L296.972 40.8827C296.894 40.9222 296.867 41.0122 296.913 41.0962C296.939 41.1418 296.991 41.1742 297.05 41.1742C297.075 41.1742 297.107 41.161 297.127 41.149L297.768 40.7735V44.6902Z" fill="white"/>
<path d="M299.669 44.18C299.947 44.5878 300.342 44.8661 300.801 44.8661C301.261 44.8661 301.656 44.5878 301.935 44.18C302.206 43.7661 302.375 43.2095 302.375 42.6001C302.375 41.9919 302.206 41.4352 301.935 41.0142C301.656 40.6135 301.261 40.334 300.801 40.334C300.342 40.334 299.947 40.6135 299.669 41.0142C299.389 41.4352 299.234 41.9919 299.234 42.6001C299.234 43.2095 299.389 43.7661 299.669 44.18ZM299.934 41.1953C300.166 40.839 300.477 40.6519 300.801 40.6519C301.125 40.6519 301.43 40.839 301.668 41.1953C301.902 41.5456 302.057 42.0434 302.057 42.6001C302.057 43.1579 301.902 43.6557 301.668 44.006C301.43 44.3491 301.125 44.5494 300.801 44.5494C300.477 44.5494 300.166 44.3491 299.934 44.006C299.701 43.6557 299.551 43.1579 299.551 42.6001C299.551 42.0434 299.701 41.5456 299.934 41.1953Z" fill="white"/>
<path d="M303.922 44.5493C303.922 44.7304 304.063 44.872 304.246 44.872C304.427 44.872 304.568 44.7304 304.568 44.5493C304.568 44.3682 304.427 44.2254 304.246 44.2254C304.063 44.2254 303.922 44.3682 303.922 44.5493ZM303.922 41.8298C303.922 42.0109 304.063 42.1537 304.246 42.1537C304.427 42.1537 304.568 42.0109 304.568 41.8298C304.568 41.6486 304.427 41.5059 304.246 41.5059C304.063 41.5059 303.922 41.6486 303.922 41.8298Z" fill="white"/>
<path d="M307.746 40.5679C307.759 40.5487 307.765 40.5223 307.765 40.4959C307.765 40.406 307.694 40.334 307.603 40.334H305.485C305.395 40.334 305.323 40.406 305.323 40.4959C305.323 40.5871 305.395 40.6579 305.485 40.6579H307.221L306.095 41.8167C306.03 41.8815 306.03 41.9859 306.095 42.0506H306.101C306.133 42.089 306.179 42.1154 306.23 42.1154C306.541 42.1154 306.852 42.2318 307.085 42.4717C307.324 42.7044 307.441 43.0151 307.441 43.3258C307.441 43.6365 307.324 43.9472 307.085 44.1872C306.846 44.4199 306.535 44.5362 306.224 44.5362C305.914 44.5362 305.609 44.4199 305.369 44.1872C305.304 44.1224 305.201 44.1224 305.142 44.1872C305.078 44.2519 305.078 44.3551 305.142 44.4139C305.441 44.7174 305.836 44.8661 306.224 44.8661C306.619 44.8661 307.014 44.7114 307.311 44.4139C307.616 44.1152 307.765 43.7205 307.765 43.3258C307.765 42.9312 307.616 42.5353 307.318 42.2378C307.098 42.0182 306.827 41.8815 306.541 41.8239L307.713 40.6195C307.726 40.6063 307.74 40.5871 307.746 40.5679Z" fill="white"/>
<path d="M310.216 44.18C310.494 44.5878 310.888 44.8661 311.348 44.8661C311.807 44.8661 312.202 44.5878 312.482 44.18C312.753 43.7661 312.922 43.2095 312.922 42.6001C312.922 41.9919 312.753 41.4352 312.482 41.0142C312.202 40.6135 311.807 40.334 311.348 40.334C310.888 40.334 310.494 40.6135 310.216 41.0142C309.936 41.4352 309.781 41.9919 309.781 42.6001C309.781 43.2095 309.936 43.7661 310.216 44.18ZM310.481 41.1953C310.713 40.839 311.024 40.6519 311.348 40.6519C311.672 40.6519 311.977 40.839 312.215 41.1953C312.449 41.5456 312.604 42.0434 312.604 42.6001C312.604 43.1579 312.449 43.6557 312.215 44.006C311.977 44.3491 311.672 44.5494 311.348 44.5494C311.024 44.5494 310.713 44.3491 310.481 44.006C310.248 43.6557 310.098 43.1579 310.098 42.6001C310.098 42.0434 310.248 41.5456 310.481 41.1953Z" fill="white"/>
<path d="M318.817 44.7426C318.843 44.8074 318.908 44.8457 318.967 44.8457C318.986 44.8457 318.998 44.8398 319.024 44.8398C319.102 44.8074 319.141 44.7102 319.108 44.6322L317.536 40.4312C317.517 40.3724 317.452 40.334 317.38 40.334C317.315 40.334 317.25 40.3724 317.225 40.4312L315.651 44.6322C315.619 44.7102 315.664 44.8074 315.742 44.8398C315.762 44.8398 315.787 44.8457 315.8 44.8457C315.865 44.8457 315.923 44.8074 315.949 44.7426L316.351 43.6749H318.416L318.817 44.7426ZM317.387 40.923L318.3 43.357H316.467L317.387 40.923Z" fill="white"/>
<path d="M323.824 44.6923C323.824 44.7763 323.889 44.8471 323.98 44.8471C324.064 44.8471 324.136 44.7763 324.136 44.6923V40.4973C324.136 40.4709 324.123 40.4385 324.109 40.4121C324.096 40.3929 324.083 40.3797 324.064 40.3605C323.993 40.3149 323.889 40.3281 323.844 40.4001L322.238 42.6338L320.626 40.4001C320.574 40.3281 320.477 40.3149 320.406 40.3605C320.399 40.3677 320.393 40.3677 320.393 40.3737C320.355 40.4001 320.328 40.4445 320.328 40.4973V44.6923C320.328 44.7763 320.399 44.8471 320.49 44.8471C320.574 44.8471 320.645 44.7763 320.645 44.6923V40.9699L322.095 42.9769C322.128 43.0285 322.173 43.0476 322.232 43.0476H322.245C322.29 43.0476 322.341 43.0285 322.373 42.9769L323.824 40.9627V44.6923Z" fill="white"/>
<rect x="299.5" y="62.5" width="197" height="347" rx="1.5" stroke="white"/>
<circle cx="343" cy="369" r="20.5" stroke="white"/>
<circle cx="451" cy="369" r="20.5" stroke="white"/>
<rect x="414.5" y="250.5" width="55" height="24" rx="1.5" stroke="white"/>
<g opacity="0.1">
<path d="M102.409 190V178.364H106.477C107.288 178.364 107.956 178.504 108.483 178.784C109.009 179.061 109.402 179.434 109.659 179.903C109.917 180.369 110.045 180.886 110.045 181.455C110.045 181.955 109.956 182.367 109.778 182.693C109.604 183.019 109.373 183.277 109.085 183.466C108.801 183.655 108.492 183.795 108.159 183.886V184C108.515 184.023 108.873 184.148 109.233 184.375C109.593 184.602 109.894 184.928 110.136 185.352C110.379 185.777 110.5 186.295 110.5 186.909C110.5 187.492 110.367 188.017 110.102 188.483C109.837 188.949 109.419 189.318 108.847 189.591C108.275 189.864 107.53 190 106.614 190H102.409ZM103.818 188.75H106.614C107.534 188.75 108.188 188.572 108.574 188.216C108.964 187.856 109.159 187.42 109.159 186.909C109.159 186.515 109.059 186.152 108.858 185.818C108.657 185.481 108.371 185.212 108 185.011C107.629 184.807 107.189 184.705 106.682 184.705H103.818V188.75ZM103.818 183.477H106.432C107.068 183.477 107.606 183.294 108.045 182.926C108.485 182.559 108.705 182.068 108.705 181.455C108.705 180.943 108.527 180.509 108.17 180.153C107.814 179.794 107.25 179.614 106.477 179.614H103.818V183.477ZM112.634 190V181.273H116.202C117.141 181.273 117.887 181.485 118.44 181.909C118.993 182.333 119.27 182.894 119.27 183.591C119.27 184.121 119.113 184.532 118.798 184.824C118.484 185.112 118.08 185.307 117.588 185.409C117.91 185.455 118.223 185.568 118.526 185.75C118.832 185.932 119.086 186.182 119.287 186.5C119.488 186.814 119.588 187.201 119.588 187.659C119.588 188.33 119.336 188.888 118.832 189.335C118.329 189.778 117.634 190 116.747 190H112.634ZM113.906 188.773H116.747C117.209 188.773 117.571 188.663 117.832 188.443C118.094 188.223 118.224 187.924 118.224 187.545C118.224 187.095 118.094 186.741 117.832 186.483C117.571 186.222 117.209 186.091 116.747 186.091H113.906V188.773ZM113.906 184.932H116.202C116.74 184.932 117.162 184.822 117.469 184.602C117.776 184.379 117.929 184.072 117.929 183.682C117.929 183.314 117.776 183.027 117.469 182.818C117.162 182.606 116.74 182.5 116.202 182.5H113.906V184.932ZM125.277 190.182C124.436 190.182 123.711 189.996 123.101 189.625C122.495 189.25 122.027 188.727 121.697 188.057C121.372 187.383 121.209 186.598 121.209 185.705C121.209 184.811 121.372 184.023 121.697 183.341C122.027 182.655 122.485 182.121 123.072 181.739C123.663 181.352 124.353 181.159 125.141 181.159C125.595 181.159 126.044 181.235 126.487 181.386C126.93 181.538 127.334 181.784 127.697 182.125C128.061 182.462 128.351 182.909 128.567 183.466C128.783 184.023 128.891 184.708 128.891 185.523V186.091H122.555C122.586 187.023 122.849 187.737 123.345 188.233C123.845 188.729 124.489 188.977 125.277 188.977C125.804 188.977 126.256 188.864 126.635 188.636C127.014 188.409 127.288 188.068 127.459 187.614L128.754 187.977C128.55 188.636 128.141 189.169 127.527 189.574C126.913 189.979 126.163 190.182 125.277 190.182ZM122.555 184.932H127.527C127.527 184.193 127.311 183.581 126.879 183.097C126.447 182.608 125.868 182.364 125.141 182.364C124.629 182.364 124.186 182.483 123.811 182.722C123.436 182.96 123.141 183.277 122.925 183.67C122.709 184.061 122.586 184.481 122.555 184.932ZM129.999 192.5V188.75H130.726C130.961 188.504 131.156 188.225 131.311 187.915C131.466 187.604 131.595 187.199 131.697 186.699C131.8 186.199 131.885 185.542 131.953 184.727L132.249 181.273H137.794V188.75H139.135V192.5H137.794V190H131.339V192.5H129.999ZM132.249 188.75H136.453V182.523H133.499L133.271 184.727C133.177 185.64 133.059 186.437 132.919 187.119C132.779 187.801 132.555 188.345 132.249 188.75ZM142.256 188.023L146.46 181.273H148.006V190H146.665V183.25L142.483 190H140.915V181.273H142.256V188.023ZM149.274 182.523V181.273H156.365V182.523H153.501V190H152.161V182.523H149.274ZM161.527 190.182C160.686 190.182 159.961 189.996 159.351 189.625C158.745 189.25 158.277 188.727 157.947 188.057C157.622 187.383 157.459 186.598 157.459 185.705C157.459 184.811 157.622 184.023 157.947 183.341C158.277 182.655 158.735 182.121 159.322 181.739C159.913 181.352 160.603 181.159 161.391 181.159C161.845 181.159 162.294 181.235 162.737 181.386C163.18 181.538 163.584 181.784 163.947 182.125C164.311 182.462 164.601 182.909 164.817 183.466C165.033 184.023 165.141 184.708 165.141 185.523V186.091H158.805C158.836 187.023 159.099 187.737 159.595 188.233C160.095 188.729 160.739 188.977 161.527 188.977C162.054 188.977 162.506 188.864 162.885 188.636C163.264 188.409 163.538 188.068 163.709 187.614L165.004 187.977C164.8 188.636 164.391 189.169 163.777 189.574C163.163 189.979 162.413 190.182 161.527 190.182ZM158.805 184.932H163.777C163.777 184.193 163.561 183.581 163.129 183.097C162.697 182.608 162.118 182.364 161.391 182.364C160.879 182.364 160.436 182.483 160.061 182.722C159.686 182.96 159.391 183.277 159.175 183.67C158.959 184.061 158.836 184.481 158.805 184.932ZM171.68 190V181.273H178.544V190H177.203V182.523H173.021V190H171.68ZM180.993 193.273V181.273H182.288V182.659H182.447C182.546 182.508 182.682 182.314 182.857 182.08C183.035 181.841 183.288 181.629 183.618 181.443C183.951 181.254 184.402 181.159 184.97 181.159C185.705 181.159 186.353 181.343 186.913 181.71C187.474 182.078 187.911 182.598 188.226 183.273C188.54 183.947 188.697 184.742 188.697 185.659C188.697 186.583 188.54 187.384 188.226 188.062C187.911 188.737 187.476 189.259 186.919 189.631C186.362 189.998 185.72 190.182 184.993 190.182C184.432 190.182 183.983 190.089 183.646 189.903C183.309 189.714 183.05 189.5 182.868 189.261C182.686 189.019 182.546 188.818 182.447 188.659H182.334V193.273H180.993ZM182.311 185.636C182.311 186.625 182.525 187.43 182.953 188.051C183.385 188.669 184.004 188.977 184.811 188.977C185.372 188.977 185.839 188.83 186.214 188.534C186.593 188.235 186.877 187.833 187.067 187.33C187.26 186.822 187.357 186.258 187.357 185.636C187.357 185.023 187.262 184.47 187.072 183.977C186.887 183.481 186.605 183.089 186.226 182.801C185.851 182.509 185.379 182.364 184.811 182.364C183.993 182.364 183.372 182.665 182.947 183.267C182.523 183.869 182.311 184.659 182.311 185.636ZM194.288 190.182C193.5 190.182 192.809 189.994 192.214 189.619C191.624 189.244 191.161 188.72 190.828 188.045C190.499 187.371 190.334 186.583 190.334 185.682C190.334 184.773 190.499 183.979 190.828 183.301C191.161 182.623 191.624 182.097 192.214 181.722C192.809 181.347 193.5 181.159 194.288 181.159C195.076 181.159 195.766 181.347 196.357 181.722C196.951 182.097 197.413 182.623 197.743 183.301C198.076 183.979 198.243 184.773 198.243 185.682C198.243 186.583 198.076 187.371 197.743 188.045C197.413 188.72 196.951 189.244 196.357 189.619C195.766 189.994 195.076 190.182 194.288 190.182ZM194.288 188.977C194.887 188.977 195.379 188.824 195.766 188.517C196.152 188.21 196.438 187.807 196.624 187.307C196.809 186.807 196.902 186.265 196.902 185.682C196.902 185.098 196.809 184.555 196.624 184.051C196.438 183.547 196.152 183.14 195.766 182.83C195.379 182.519 194.887 182.364 194.288 182.364C193.69 182.364 193.197 182.519 192.811 182.83C192.425 183.14 192.139 183.547 191.953 184.051C191.768 184.555 191.675 185.098 191.675 185.682C191.675 186.265 191.768 186.807 191.953 187.307C192.139 187.807 192.425 188.21 192.811 188.517C193.197 188.824 193.69 188.977 194.288 188.977ZM200.29 190V181.273H203.858C204.797 181.273 205.544 181.485 206.097 181.909C206.65 182.333 206.926 182.894 206.926 183.591C206.926 184.121 206.769 184.532 206.455 184.824C206.14 185.112 205.737 185.307 205.244 185.409C205.566 185.455 205.879 185.568 206.182 185.75C206.489 185.932 206.742 186.182 206.943 186.5C207.144 186.814 207.244 187.201 207.244 187.659C207.244 188.33 206.992 188.888 206.489 189.335C205.985 189.778 205.29 190 204.403 190H200.29ZM201.562 188.773H204.403C204.866 188.773 205.227 188.663 205.489 188.443C205.75 188.223 205.881 187.924 205.881 187.545C205.881 187.095 205.75 186.741 205.489 186.483C205.227 186.222 204.866 186.091 204.403 186.091H201.562V188.773ZM201.562 184.932H203.858C204.396 184.932 204.818 184.822 205.125 184.602C205.432 184.379 205.585 184.072 205.585 183.682C205.585 183.314 205.432 183.027 205.125 182.818C204.818 182.606 204.396 182.5 203.858 182.5H201.562V184.932ZM212.933 190.182C212.092 190.182 211.367 189.996 210.757 189.625C210.151 189.25 209.683 188.727 209.354 188.057C209.028 187.383 208.865 186.598 208.865 185.705C208.865 184.811 209.028 184.023 209.354 183.341C209.683 182.655 210.142 182.121 210.729 181.739C211.32 181.352 212.009 181.159 212.797 181.159C213.251 181.159 213.7 181.235 214.143 181.386C214.587 181.538 214.99 181.784 215.354 182.125C215.717 182.462 216.007 182.909 216.223 183.466C216.439 184.023 216.547 184.708 216.547 185.523V186.091H210.212C210.242 187.023 210.505 187.737 211.001 188.233C211.501 188.729 212.145 188.977 212.933 188.977C213.46 188.977 213.912 188.864 214.291 188.636C214.67 188.409 214.945 188.068 215.115 187.614L216.411 187.977C216.206 188.636 215.797 189.169 215.183 189.574C214.57 189.979 213.82 190.182 212.933 190.182ZM210.212 184.932H215.183C215.183 184.193 214.967 183.581 214.536 183.097C214.104 182.608 213.524 182.364 212.797 182.364C212.286 182.364 211.842 182.483 211.467 182.722C211.092 182.96 210.797 183.277 210.581 183.67C210.365 184.061 210.242 184.481 210.212 184.932ZM218.587 193.273V181.273H219.882V182.659H220.041C220.14 182.508 220.276 182.314 220.45 182.08C220.628 181.841 220.882 181.629 221.212 181.443C221.545 181.254 221.996 181.159 222.564 181.159C223.299 181.159 223.946 181.343 224.507 181.71C225.068 182.078 225.505 182.598 225.82 183.273C226.134 183.947 226.291 184.742 226.291 185.659C226.291 186.583 226.134 187.384 225.82 188.062C225.505 188.737 225.07 189.259 224.513 189.631C223.956 189.998 223.314 190.182 222.587 190.182C222.026 190.182 221.577 190.089 221.24 189.903C220.903 189.714 220.643 189.5 220.462 189.261C220.28 189.019 220.14 188.818 220.041 188.659H219.928V193.273H218.587ZM219.905 185.636C219.905 186.625 220.119 187.43 220.547 188.051C220.979 188.669 221.598 188.977 222.405 188.977C222.965 188.977 223.433 188.83 223.808 188.534C224.187 188.235 224.471 187.833 224.661 187.33C224.854 186.822 224.95 186.258 224.95 185.636C224.95 185.023 224.856 184.47 224.666 183.977C224.481 183.481 224.198 183.089 223.82 182.801C223.445 182.509 222.973 182.364 222.405 182.364C221.587 182.364 220.965 182.665 220.541 183.267C220.117 183.869 219.905 184.659 219.905 185.636ZM231.882 190.182C231.094 190.182 230.403 189.994 229.808 189.619C229.217 189.244 228.755 188.72 228.422 188.045C228.092 187.371 227.928 186.583 227.928 185.682C227.928 184.773 228.092 183.979 228.422 183.301C228.755 182.623 229.217 182.097 229.808 181.722C230.403 181.347 231.094 181.159 231.882 181.159C232.67 181.159 233.359 181.347 233.95 181.722C234.545 182.097 235.007 182.623 235.337 183.301C235.67 183.979 235.837 184.773 235.837 185.682C235.837 186.583 235.67 187.371 235.337 188.045C235.007 188.72 234.545 189.244 233.95 189.619C233.359 189.994 232.67 190.182 231.882 190.182ZM231.882 188.977C232.481 188.977 232.973 188.824 233.359 188.517C233.746 188.21 234.032 187.807 234.217 187.307C234.403 186.807 234.496 186.265 234.496 185.682C234.496 185.098 234.403 184.555 234.217 184.051C234.032 183.547 233.746 183.14 233.359 182.83C232.973 182.519 232.481 182.364 231.882 182.364C231.284 182.364 230.791 182.519 230.405 182.83C230.018 183.14 229.732 183.547 229.547 184.051C229.361 184.555 229.268 185.098 229.268 185.682C229.268 186.265 229.361 186.807 229.547 187.307C229.732 187.807 230.018 188.21 230.405 188.517C230.791 188.824 231.284 188.977 231.882 188.977ZM244.611 181.273V190H243.27V186.955C242.955 187.049 242.628 187.123 242.287 187.176C241.946 187.225 241.569 187.25 241.156 187.25C240.168 187.25 239.374 186.983 238.776 186.449C238.181 185.915 237.884 185.114 237.884 184.045V181.25H239.224V184.045C239.224 184.716 239.41 185.21 239.781 185.528C240.152 185.843 240.611 186 241.156 186C241.558 186 241.929 185.973 242.27 185.92C242.611 185.867 242.944 185.794 243.27 185.699V181.273H244.611ZM248.412 181.273V185.023H252.594V181.273H253.935V190H252.594V186.273H248.412V190H247.071V181.273H248.412ZM257.724 184.432H260.043C261.065 184.432 261.848 184.691 262.389 185.21C262.931 185.729 263.202 186.386 263.202 187.182C263.202 187.705 263.08 188.18 262.838 188.608C262.596 189.032 262.24 189.371 261.77 189.625C261.3 189.875 260.724 190 260.043 190H256.384V181.273H257.724V184.432ZM257.724 185.682V188.75H260.043C260.573 188.75 261.009 188.61 261.349 188.33C261.69 188.049 261.861 187.689 261.861 187.25C261.861 186.788 261.69 186.411 261.349 186.119C261.009 185.828 260.573 185.682 260.043 185.682H257.724ZM264.588 190V181.273H265.929V190H264.588ZM269.724 188.023L273.929 181.273H275.474V190H274.134V183.25L269.952 190H268.384V181.273H269.724V188.023ZM273.043 178.364H274.293C274.293 178.977 274.08 179.479 273.656 179.869C273.232 180.259 272.656 180.455 271.929 180.455C271.213 180.455 270.643 180.259 270.219 179.869C269.798 179.479 269.588 178.977 269.588 178.364H270.838C270.838 178.659 270.92 178.919 271.082 179.142C271.249 179.366 271.531 179.477 271.929 179.477C272.327 179.477 272.611 179.366 272.781 179.142C272.955 178.919 273.043 178.659 273.043 178.364ZM282.43 190V181.273H283.771V185.068H284.658L287.794 181.273H289.521L285.999 185.477L289.567 190H287.839L284.976 186.318H283.771V190H282.43ZM294.21 190.182C293.422 190.182 292.731 189.994 292.136 189.619C291.545 189.244 291.083 188.72 290.75 188.045C290.42 187.371 290.256 186.583 290.256 185.682C290.256 184.773 290.42 183.979 290.75 183.301C291.083 182.623 291.545 182.097 292.136 181.722C292.731 181.347 293.422 181.159 294.21 181.159C294.998 181.159 295.688 181.347 296.278 181.722C296.873 182.097 297.335 182.623 297.665 183.301C297.998 183.979 298.165 184.773 298.165 185.682C298.165 186.583 297.998 187.371 297.665 188.045C297.335 188.72 296.873 189.244 296.278 189.619C295.688 189.994 294.998 190.182 294.21 190.182ZM294.21 188.977C294.809 188.977 295.301 188.824 295.688 188.517C296.074 188.21 296.36 187.807 296.545 187.307C296.731 186.807 296.824 186.265 296.824 185.682C296.824 185.098 296.731 184.555 296.545 184.051C296.36 183.547 296.074 183.14 295.688 182.83C295.301 182.519 294.809 182.364 294.21 182.364C293.612 182.364 293.119 182.519 292.733 182.83C292.347 183.14 292.061 183.547 291.875 184.051C291.689 184.555 291.597 185.098 291.597 185.682C291.597 186.265 291.689 186.807 291.875 187.307C292.061 187.807 292.347 188.21 292.733 188.517C293.119 188.824 293.612 188.977 294.21 188.977ZM299.28 192.5V188.75H300.007C300.242 188.504 300.437 188.225 300.592 187.915C300.748 187.604 300.876 187.199 300.979 186.699C301.081 186.199 301.166 185.542 301.234 184.727L301.53 181.273H307.075V188.75H308.416V192.5H307.075V190H300.621V192.5H299.28ZM301.53 188.75H305.734V182.523H302.78L302.553 184.727C302.458 185.64 302.34 186.437 302.2 187.119C302.06 187.801 301.837 188.345 301.53 188.75Z" fill="white"/>
<path d="M73.647 89.5H435.635C440.371 89.5 444.254 93.3832 444.254 98.1227V338.867H65.0195V98.1227C65.0195 93.3835 68.9019 89.5 73.647 89.5Z" stroke="white"/>
<path d="M81.8906 327.013V105.195H427.672V327.013H81.8906Z" stroke="white"/>
<path d="M505.184 354.029L485.095 361.396H22.9046L2.81567 354.029H505.184Z" stroke="white"/>
<path d="M254.851 98.4352C254.851 99.051 254.358 99.5489 253.736 99.5489C253.121 99.5489 252.621 99.0496 252.621 98.4352C252.621 97.8143 253.122 97.3167 253.736 97.3167C254.357 97.3167 254.851 97.813 254.851 98.4352Z" fill="#808285" stroke="white"/>
<path d="M212.914 347.183V339.822H294.237V347.183H212.914Z" stroke="white"/>
<path d="M288.974 342.36V339.822H507.5V353.012H0.5V339.822H218.772V342.36C218.772 344.728 220.707 346.665 223.071 346.665H284.673C287.042 346.665 288.974 344.728 288.974 342.36Z" stroke="white"/>
<rect x="101.5" y="144.5" width="101" height="22" rx="11" stroke="white"/>
</g>
</svg>
