<svg width="400" height="274" viewBox="0 0 400 274" fill="none" xmlns="http://www.w3.org/2000/svg">
<g opacity="0.4">
<path d="M251.015 154.576V145.488H254.192C254.825 145.488 255.347 145.598 255.758 145.816C256.169 146.032 256.475 146.324 256.677 146.691C256.878 147.054 256.978 147.458 256.978 147.902C256.978 148.292 256.909 148.615 256.77 148.869C256.634 149.124 256.453 149.325 256.228 149.473C256.007 149.621 255.765 149.73 255.505 149.801V149.89C255.783 149.908 256.063 150.005 256.344 150.183C256.625 150.36 256.86 150.615 257.049 150.946C257.239 151.277 257.333 151.683 257.333 152.162C257.333 152.617 257.23 153.027 257.023 153.391C256.816 153.755 256.489 154.043 256.042 154.256C255.595 154.469 255.014 154.576 254.298 154.576H251.015ZM252.115 153.6H254.298C255.017 153.6 255.527 153.461 255.829 153.182C256.134 152.901 256.286 152.561 256.286 152.162C256.286 151.854 256.208 151.57 256.051 151.31C255.894 151.047 255.671 150.837 255.381 150.68C255.091 150.52 254.748 150.44 254.351 150.44H252.115V153.6ZM252.115 149.482H254.156C254.653 149.482 255.073 149.338 255.416 149.051C255.76 148.764 255.931 148.381 255.931 147.902C255.931 147.503 255.792 147.164 255.514 146.886C255.236 146.605 254.795 146.464 254.192 146.464H252.115V149.482ZM259.674 145.488L262.017 149.269H262.088L264.431 145.488H265.727L262.869 150.032L265.727 154.576H264.431L262.088 150.866H262.017L259.674 154.576H258.378L261.307 150.032L258.378 145.488H259.674ZM274.68 150.032C274.68 150.99 274.507 151.819 274.161 152.517C273.815 153.215 273.34 153.753 272.737 154.132C272.133 154.511 271.444 154.7 270.669 154.7C269.894 154.7 269.204 154.511 268.601 154.132C267.997 153.753 267.523 153.215 267.177 152.517C266.83 151.819 266.657 150.99 266.657 150.032C266.657 149.073 266.83 148.245 267.177 147.547C267.523 146.849 267.997 146.31 268.601 145.932C269.204 145.553 269.894 145.364 270.669 145.364C271.444 145.364 272.133 145.553 272.737 145.932C273.34 146.31 273.815 146.849 274.161 147.547C274.507 148.245 274.68 149.073 274.68 150.032ZM273.615 150.032C273.615 149.245 273.484 148.581 273.22 148.04C272.96 147.498 272.606 147.088 272.16 146.81C271.716 146.532 271.219 146.393 270.669 146.393C270.119 146.393 269.62 146.532 269.173 146.81C268.73 147.088 268.376 147.498 268.113 148.04C267.852 148.581 267.722 149.245 267.722 150.032C267.722 150.819 267.852 151.483 268.113 152.024C268.376 152.566 268.73 152.975 269.173 153.253C269.62 153.532 270.119 153.671 270.669 153.671C271.219 153.671 271.716 153.532 272.16 153.253C272.606 152.975 272.96 152.566 273.22 152.024C273.484 151.483 273.615 150.819 273.615 150.032ZM275.75 156.777V153.6H276.335C276.536 153.416 276.726 153.157 276.903 152.823C277.084 152.486 277.236 152.036 277.36 151.474C277.488 150.909 277.572 150.192 277.613 149.322L277.808 145.488H283.204V153.6H284.252V156.759H283.204V154.576H276.797V156.777H275.75ZM277.649 153.6H282.157V146.464H278.802L278.66 149.322C278.607 150.316 278.493 151.169 278.319 151.882C278.147 152.592 277.924 153.165 277.649 153.6ZM291.701 154.576V145.488H288.63C287.92 145.488 287.337 145.609 286.882 145.852C286.426 146.092 286.089 146.421 285.87 146.841C285.651 147.262 285.542 147.739 285.542 148.275C285.542 148.878 285.679 149.405 285.954 149.854C286.232 150.301 286.661 150.624 287.241 150.822L285.187 154.576H286.465L288.382 151.021C288.456 151.024 288.532 151.026 288.612 151.026H290.6V154.576H291.701ZM290.6 150.032H288.648C287.92 150.032 287.401 149.875 287.09 149.562C286.78 149.248 286.624 148.819 286.624 148.275C286.624 147.727 286.78 147.29 287.09 146.961C287.404 146.63 287.929 146.464 288.666 146.464H290.6V150.032ZM304.486 153.6L304.362 156.723H303.279V154.576H293.907V145.488H295.008V153.564H298.203V145.488H299.303V153.564H302.498V145.488H303.598V153.6H304.486ZM306.159 145.488V154.576H307.224L312.176 147.441H312.265V154.576H313.365V145.488H312.3L307.33 152.641H307.242V145.488H306.159ZM315.567 145.488V154.576H316.632L321.584 147.441H321.673V154.576H322.773V145.488H321.708L316.739 152.641H316.65V145.488H315.567ZM320.04 143.216H321.016C321.016 143.695 320.851 144.087 320.519 144.392C320.188 144.697 319.738 144.849 319.17 144.849C318.611 144.849 318.166 144.697 317.835 144.392C317.506 144.087 317.342 143.695 317.342 143.216H318.318C318.318 143.447 318.382 143.65 318.509 143.824C318.639 143.999 318.86 144.086 319.17 144.086C319.481 144.086 319.703 143.999 319.836 143.824C319.972 143.65 320.04 143.447 320.04 143.216ZM328.49 154.576V145.488H331.667C332.3 145.488 332.822 145.598 333.233 145.816C333.645 146.032 333.951 146.324 334.152 146.691C334.353 147.054 334.454 147.458 334.454 147.902C334.454 148.292 334.384 148.615 334.245 148.869C334.109 149.124 333.929 149.325 333.704 149.473C333.482 149.621 333.241 149.73 332.98 149.801V149.89C333.259 149.908 333.538 150.005 333.819 150.183C334.1 150.36 334.335 150.615 334.525 150.946C334.714 151.277 334.809 151.683 334.809 152.162C334.809 152.617 334.705 153.027 334.498 153.391C334.291 153.755 333.964 154.043 333.517 154.256C333.071 154.469 332.489 154.576 331.774 154.576H328.49ZM329.59 153.6H331.774C332.492 153.6 333.003 153.461 333.304 153.182C333.609 152.901 333.761 152.561 333.761 152.162C333.761 151.854 333.683 151.57 333.526 151.31C333.37 151.047 333.146 150.837 332.856 150.68C332.566 150.52 332.223 150.44 331.827 150.44H329.59V153.6ZM329.59 149.482H331.632C332.129 149.482 332.549 149.338 332.892 149.051C333.235 148.764 333.406 148.381 333.406 147.902C333.406 147.503 333.267 147.164 332.989 146.886C332.711 146.605 332.271 146.464 331.667 146.464H329.59V149.482ZM337.717 149.304H340.025C341.001 149.304 341.748 149.539 342.266 150.01C342.783 150.477 343.042 151.106 343.042 151.896C343.042 152.685 342.783 153.33 342.266 153.83C341.748 154.327 341.001 154.576 340.025 154.576H336.617V145.488H337.717V149.304ZM337.717 150.28V153.617H340.025C340.439 153.617 340.79 153.535 341.076 153.369C341.366 153.2 341.585 152.984 341.733 152.721C341.884 152.455 341.96 152.174 341.96 151.878C341.96 151.443 341.792 151.069 341.458 150.755C341.124 150.439 340.646 150.28 340.025 150.28H337.717ZM345.03 145.488V154.576H343.93V145.488H345.03ZM350.144 154.7C349.559 154.7 349.036 154.599 348.578 154.398C348.122 154.197 347.76 153.918 347.491 153.56C347.224 153.199 347.079 152.78 347.056 152.304H348.174C348.207 152.742 348.408 153.088 348.778 153.342C349.15 153.597 349.6 153.724 350.126 153.724C350.709 153.724 351.189 153.576 351.564 153.28C351.943 152.981 352.132 152.591 352.132 152.109C352.132 151.606 351.946 151.196 351.573 150.879C351.203 150.563 350.674 150.405 349.984 150.405H349.257V149.428H349.984C350.523 149.428 350.962 149.285 351.302 148.998C351.643 148.711 351.813 148.328 351.813 147.849C351.813 147.39 351.663 147.022 351.365 146.744C351.066 146.463 350.665 146.322 350.162 146.322C349.848 146.322 349.553 146.38 349.275 146.495C348.999 146.608 348.775 146.772 348.6 146.988C348.425 147.201 348.331 147.458 348.316 147.76H347.251C347.269 147.284 347.412 146.867 347.682 146.509C347.951 146.148 348.303 145.867 348.738 145.666C349.175 145.464 349.656 145.364 350.18 145.364C350.742 145.364 351.224 145.478 351.626 145.706C352.029 145.93 352.338 146.228 352.554 146.597C352.77 146.967 352.878 147.367 352.878 147.796C352.878 148.307 352.743 148.744 352.474 149.105C352.208 149.465 351.845 149.715 351.387 149.854V149.925C351.961 150.02 352.409 150.264 352.731 150.658C353.054 151.048 353.215 151.532 353.215 152.109C353.215 152.603 353.08 153.046 352.811 153.44C352.545 153.83 352.181 154.138 351.72 154.363C351.258 154.588 350.733 154.7 350.144 154.7ZM362.857 150.032C362.857 150.99 362.684 151.819 362.338 152.517C361.992 153.215 361.517 153.753 360.914 154.132C360.31 154.511 359.621 154.7 358.846 154.7C358.071 154.7 357.382 154.511 356.778 154.132C356.175 153.753 355.7 153.215 355.354 152.517C355.008 151.819 354.835 150.99 354.835 150.032C354.835 149.073 355.008 148.245 355.354 147.547C355.7 146.849 356.175 146.31 356.778 145.932C357.382 145.553 358.071 145.364 358.846 145.364C359.621 145.364 360.31 145.553 360.914 145.932C361.517 146.31 361.992 146.849 362.338 147.547C362.684 148.245 362.857 149.073 362.857 150.032ZM361.792 150.032C361.792 149.245 361.661 148.581 361.397 148.04C361.137 147.498 360.784 147.088 360.337 146.81C359.893 146.532 359.396 146.393 358.846 146.393C358.296 146.393 357.797 146.532 357.351 146.81C356.907 147.088 356.553 147.498 356.29 148.04C356.03 148.581 355.9 149.245 355.9 150.032C355.9 150.819 356.03 151.483 356.29 152.024C356.553 152.566 356.907 152.975 357.351 153.253C357.797 153.532 358.296 153.671 358.846 153.671C359.396 153.671 359.893 153.532 360.337 153.253C360.784 152.975 361.137 152.566 361.397 152.024C361.661 151.483 361.792 150.819 361.792 150.032ZM364.708 154.576V145.488H367.885C368.518 145.488 369.04 145.598 369.451 145.816C369.862 146.032 370.169 146.324 370.37 146.691C370.571 147.054 370.672 147.458 370.672 147.902C370.672 148.292 370.602 148.615 370.463 148.869C370.327 149.124 370.146 149.325 369.922 149.473C369.7 149.621 369.459 149.73 369.198 149.801V149.89C369.476 149.908 369.756 150.005 370.037 150.183C370.318 150.36 370.553 150.615 370.743 150.946C370.932 151.277 371.026 151.683 371.026 152.162C371.026 152.617 370.923 153.027 370.716 153.391C370.509 153.755 370.182 154.043 369.735 154.256C369.289 154.469 368.707 154.576 367.991 154.576H364.708ZM365.808 153.6H367.991C368.71 153.6 369.22 153.461 369.522 153.182C369.827 152.901 369.979 152.561 369.979 152.162C369.979 151.854 369.901 151.57 369.744 151.31C369.587 151.047 369.364 150.837 369.074 150.68C368.784 150.52 368.441 150.44 368.045 150.44H365.808V153.6ZM365.808 149.482H367.849C368.346 149.482 368.766 149.338 369.11 149.051C369.453 148.764 369.624 148.381 369.624 147.902C369.624 147.503 369.485 147.164 369.207 146.886C368.929 146.605 368.488 146.464 367.885 146.464H365.808V149.482Z" fill="white"/>
<path d="M263.914 210.149C263.305 210.149 262.766 210.041 262.299 209.825C261.834 209.607 261.472 209.306 261.212 208.925C260.951 208.54 260.823 208.102 260.826 207.611C260.823 207.227 260.898 206.872 261.052 206.546C261.206 206.218 261.416 205.944 261.682 205.725C261.951 205.503 262.252 205.363 262.583 205.304V205.251C262.148 205.138 261.802 204.894 261.545 204.518C261.287 204.14 261.16 203.709 261.163 203.227C261.16 202.766 261.277 202.353 261.514 201.989C261.75 201.625 262.076 201.338 262.49 201.128C262.907 200.918 263.382 200.813 263.914 200.813C264.441 200.813 264.911 200.918 265.325 201.128C265.739 201.338 266.065 201.625 266.301 201.989C266.541 202.353 266.662 202.766 266.665 203.227C266.662 203.709 266.531 204.14 266.27 204.518C266.013 204.894 265.671 205.138 265.245 205.251V205.304C265.574 205.363 265.87 205.503 266.133 205.725C266.396 205.944 266.606 206.218 266.763 206.546C266.92 206.872 267 207.227 267.003 207.611C267 208.102 266.866 208.54 266.603 208.925C266.343 209.306 265.98 209.607 265.516 209.825C265.055 210.041 264.521 210.149 263.914 210.149ZM263.914 209.173C264.529 209.173 265.016 209.027 265.374 208.734C265.735 208.438 265.917 208.046 265.92 207.558C265.917 207.215 265.828 206.912 265.654 206.648C265.479 206.385 265.241 206.178 264.939 206.027C264.64 205.876 264.299 205.801 263.914 205.801C263.527 205.801 263.18 205.876 262.876 206.027C262.574 206.178 262.336 206.385 262.161 206.648C261.99 206.912 261.905 207.215 261.908 207.558C261.905 208.046 262.083 208.438 262.441 208.734C262.799 209.027 263.29 209.173 263.914 209.173ZM263.914 204.86C264.402 204.86 264.805 204.718 265.121 204.434C265.438 204.147 265.597 203.768 265.6 203.298C265.597 202.837 265.441 202.467 265.13 202.189C264.822 201.911 264.417 201.772 263.914 201.772C263.405 201.772 262.996 201.911 262.685 202.189C262.377 202.467 262.225 202.837 262.228 203.298C262.225 203.768 262.38 204.147 262.694 204.434C263.01 204.718 263.417 204.86 263.914 204.86ZM275.111 200.795C275.483 200.798 275.856 200.869 276.229 201.008C276.602 201.147 276.942 201.378 277.25 201.701C277.557 202.023 277.804 202.462 277.991 203.019C278.177 203.572 278.27 204.268 278.27 205.109C278.27 206.724 277.974 207.968 277.383 208.84C276.794 209.713 275.989 210.149 274.969 210.149C274.206 210.149 273.571 209.928 273.065 209.484C272.559 209.037 272.253 208.454 272.147 207.735H273.229C273.327 208.153 273.521 208.497 273.811 208.769C274.103 209.039 274.489 209.173 274.969 209.173C275.67 209.173 276.223 208.867 276.628 208.255C277.037 207.642 277.241 206.777 277.241 205.659H277.17C276.921 206.032 276.603 206.326 276.216 206.542C275.831 206.758 275.404 206.866 274.933 206.866C274.413 206.866 273.935 206.737 273.5 206.48C273.068 206.219 272.722 205.863 272.462 205.41C272.204 204.955 272.076 204.434 272.076 203.848C272.076 203.286 272.2 202.773 272.448 202.309C272.7 201.844 273.052 201.474 273.504 201.199C273.96 200.924 274.495 200.79 275.111 200.795ZM275.111 201.772C274.738 201.772 274.402 201.865 274.103 202.051C273.808 202.238 273.572 202.488 273.398 202.801C273.226 203.115 273.141 203.464 273.141 203.848C273.141 204.227 273.223 204.572 273.389 204.882C273.558 205.19 273.787 205.435 274.077 205.619C274.37 205.799 274.702 205.89 275.075 205.89C275.448 205.89 275.785 205.793 276.087 205.601C276.392 205.409 276.633 205.156 276.81 204.842C276.991 204.529 277.081 204.191 277.081 203.831C277.081 203.47 276.995 203.132 276.824 202.819C276.655 202.505 276.421 202.252 276.122 202.06C275.827 201.868 275.489 201.772 275.111 201.772ZM283.21 200.937V210.025H282.11V202.091H282.056L279.838 203.564V202.446L282.11 200.937H283.21ZM286.108 210.025L290.172 201.985V201.914H285.486V200.937H291.308V201.967L287.261 210.025H286.108ZM296.264 208.161V207.256L300.257 200.937H301.589V207.185H302.831V208.161H301.589V210.025H300.541V208.161H296.264ZM300.541 207.185V202.34H300.47L297.453 207.114V207.185H300.541ZM307.458 210.149C306.455 210.149 305.677 209.743 305.124 208.929C304.574 208.116 304.299 206.966 304.299 205.481C304.299 204.008 304.577 202.862 305.133 202.042C305.689 201.223 306.464 200.813 307.458 200.813C308.452 200.813 309.227 201.223 309.783 202.042C310.339 202.862 310.617 204.008 310.617 205.481C310.617 206.966 310.341 208.116 309.788 208.929C309.237 209.743 308.461 210.149 307.458 210.149ZM307.458 209.173C308.121 209.173 308.635 208.854 309.002 208.215C309.369 207.576 309.552 206.665 309.552 205.481C309.552 204.301 309.368 203.388 308.998 202.743C308.628 202.096 308.115 201.772 307.458 201.772C306.801 201.772 306.288 202.096 305.918 202.743C305.548 203.388 305.364 204.301 305.364 205.481C305.364 206.665 305.547 207.576 305.914 208.215C306.284 208.854 306.798 209.173 307.458 209.173ZM315.215 210.149C314.605 210.149 314.067 210.041 313.599 209.825C313.135 209.607 312.773 209.306 312.512 208.925C312.252 208.54 312.123 208.102 312.126 207.611C312.123 207.227 312.199 206.872 312.352 206.546C312.506 206.218 312.716 205.944 312.983 205.725C313.252 205.503 313.552 205.363 313.883 205.304V205.251C313.448 205.138 313.102 204.894 312.845 204.518C312.588 204.14 312.46 203.709 312.463 203.227C312.46 202.766 312.577 202.353 312.814 201.989C313.051 201.625 313.376 201.338 313.79 201.128C314.207 200.918 314.682 200.813 315.215 200.813C315.741 200.813 316.211 200.918 316.626 201.128C317.04 201.338 317.365 201.625 317.602 201.989C317.841 202.353 317.963 202.766 317.966 203.227C317.963 203.709 317.831 204.14 317.571 204.518C317.313 204.894 316.972 205.138 316.546 205.251V205.304C316.874 205.363 317.17 205.503 317.433 205.725C317.697 205.944 317.907 206.218 318.063 206.546C318.22 206.872 318.3 207.227 318.303 207.611C318.3 208.102 318.167 208.54 317.904 208.925C317.643 209.306 317.281 209.607 316.816 209.825C316.355 210.041 315.821 210.149 315.215 210.149ZM315.215 209.173C315.83 209.173 316.317 209.027 316.674 208.734C317.035 208.438 317.217 208.046 317.22 207.558C317.217 207.215 317.129 206.912 316.954 206.648C316.779 206.385 316.541 206.178 316.24 206.027C315.941 205.876 315.599 205.801 315.215 205.801C314.827 205.801 314.481 205.876 314.176 206.027C313.874 206.178 313.636 206.385 313.462 206.648C313.29 206.912 313.206 207.215 313.209 207.558C313.206 208.046 313.383 208.438 313.741 208.734C314.099 209.027 314.59 209.173 315.215 209.173ZM315.215 204.86C315.703 204.86 316.105 204.718 316.422 204.434C316.738 204.147 316.898 203.768 316.901 203.298C316.898 202.837 316.741 202.467 316.43 202.189C316.123 201.911 315.717 201.772 315.215 201.772C314.706 201.772 314.296 201.911 313.985 202.189C313.678 202.467 313.525 202.837 313.528 203.298C313.525 203.768 313.681 204.147 313.994 204.434C314.311 204.718 314.718 204.86 315.215 204.86ZM333.511 210.149C332.508 210.149 331.73 209.743 331.177 208.929C330.627 208.116 330.352 206.966 330.352 205.481C330.352 204.008 330.63 202.862 331.186 202.042C331.742 201.223 332.517 200.813 333.511 200.813C334.505 200.813 335.28 201.223 335.836 202.042C336.392 202.862 336.67 204.008 336.67 205.481C336.67 206.966 336.394 208.116 335.841 208.929C335.29 209.743 334.514 210.149 333.511 210.149ZM333.511 209.173C334.174 209.173 334.688 208.854 335.055 208.215C335.422 207.576 335.605 206.665 335.605 205.481C335.605 204.301 335.42 203.388 335.051 202.743C334.681 202.096 334.168 201.772 333.511 201.772C332.854 201.772 332.341 202.096 331.971 202.743C331.601 203.388 331.416 204.301 331.416 205.481C331.416 206.665 331.6 207.576 331.967 208.215C332.337 208.854 332.851 209.173 333.511 209.173ZM341.25 200.795C341.622 200.798 341.995 200.869 342.368 201.008C342.741 201.147 343.081 201.378 343.389 201.701C343.696 202.023 343.943 202.462 344.13 203.019C344.316 203.572 344.409 204.268 344.409 205.109C344.409 206.724 344.113 207.968 343.522 208.84C342.933 209.713 342.128 210.149 341.108 210.149C340.344 210.149 339.71 209.928 339.204 209.484C338.698 209.037 338.392 208.454 338.286 207.735H339.368C339.466 208.153 339.66 208.497 339.95 208.769C340.242 209.039 340.628 209.173 341.108 209.173C341.809 209.173 342.362 208.867 342.767 208.255C343.176 207.642 343.38 206.777 343.38 205.659H343.309C343.06 206.032 342.742 206.326 342.355 206.542C341.97 206.758 341.543 206.866 341.072 206.866C340.552 206.866 340.074 206.737 339.639 206.48C339.207 206.219 338.861 205.863 338.601 205.41C338.343 204.955 338.215 204.434 338.215 203.848C338.215 203.286 338.339 202.773 338.587 202.309C338.839 201.844 339.191 201.474 339.643 201.199C340.099 200.924 340.634 200.79 341.25 200.795ZM341.25 201.772C340.877 201.772 340.541 201.865 340.242 202.051C339.947 202.238 339.711 202.488 339.537 202.801C339.365 203.115 339.28 203.464 339.28 203.848C339.28 204.227 339.362 204.572 339.528 204.882C339.697 205.19 339.926 205.435 340.216 205.619C340.509 205.799 340.841 205.89 341.214 205.89C341.587 205.89 341.924 205.793 342.226 205.601C342.531 205.409 342.772 205.156 342.949 204.842C343.13 204.529 343.22 204.191 343.22 203.831C343.22 203.47 343.134 203.132 342.963 202.819C342.794 202.505 342.56 202.252 342.261 202.06C341.966 201.868 341.628 201.772 341.25 201.772ZM349.065 210.149C348.456 210.149 347.917 210.041 347.45 209.825C346.985 209.607 346.623 209.306 346.363 208.925C346.102 208.54 345.974 208.102 345.977 207.611C345.974 207.227 346.049 206.872 346.203 206.546C346.357 206.218 346.567 205.944 346.833 205.725C347.102 205.503 347.402 205.363 347.734 205.304V205.251C347.299 205.138 346.953 204.894 346.695 204.518C346.438 204.14 346.311 203.709 346.314 203.227C346.311 202.766 346.428 202.353 346.664 201.989C346.901 201.625 347.226 201.338 347.641 201.128C348.058 200.918 348.533 200.813 349.065 200.813C349.592 200.813 350.062 200.918 350.476 201.128C350.89 201.338 351.216 201.625 351.452 201.989C351.692 202.353 351.813 202.766 351.816 203.227C351.813 203.709 351.682 204.14 351.421 204.518C351.164 204.894 350.822 205.138 350.396 205.251V205.304C350.725 205.363 351.02 205.503 351.284 205.725C351.547 205.944 351.757 206.218 351.914 206.546C352.071 206.872 352.15 207.227 352.153 207.611C352.15 208.102 352.017 208.54 351.754 208.925C351.494 209.306 351.131 209.607 350.667 209.825C350.205 210.041 349.671 210.149 349.065 210.149ZM349.065 209.173C349.68 209.173 350.167 209.027 350.525 208.734C350.886 208.438 351.068 208.046 351.071 207.558C351.068 207.215 350.979 206.912 350.804 206.648C350.63 206.385 350.392 206.178 350.09 206.027C349.791 205.876 349.45 205.801 349.065 205.801C348.677 205.801 348.331 205.876 348.027 206.027C347.725 206.178 347.487 206.385 347.312 206.648C347.141 206.912 347.056 207.215 347.059 207.558C347.056 208.046 347.234 208.438 347.592 208.734C347.95 209.027 348.441 209.173 349.065 209.173ZM349.065 204.86C349.553 204.86 349.955 204.718 350.272 204.434C350.589 204.147 350.748 203.768 350.751 203.298C350.748 202.837 350.591 202.467 350.281 202.189C349.973 201.911 349.568 201.772 349.065 201.772C348.556 201.772 348.146 201.911 347.836 202.189C347.528 202.467 347.376 202.837 347.379 203.298C347.376 203.768 347.531 204.147 347.845 204.434C348.161 204.718 348.568 204.86 349.065 204.86ZM356.871 210.149C356.499 210.143 356.126 210.072 355.753 209.936C355.381 209.8 355.04 209.571 354.733 209.249C354.425 208.923 354.178 208.484 353.992 207.931C353.805 207.375 353.712 206.676 353.712 205.836C353.712 204.221 354.006 202.977 354.595 202.104C355.184 201.232 355.99 200.795 357.013 200.795C357.777 200.795 358.41 201.019 358.913 201.465C359.419 201.912 359.726 202.493 359.836 203.209H358.753C358.652 202.792 358.457 202.449 358.167 202.18C357.877 201.908 357.493 201.772 357.013 201.772C356.309 201.772 355.755 202.079 355.349 202.695C354.947 203.307 354.744 204.171 354.742 205.286H354.813C355.061 204.91 355.379 204.616 355.767 204.403C356.154 204.187 356.582 204.079 357.049 204.079C357.57 204.079 358.046 204.209 358.478 204.47C358.91 204.727 359.256 205.083 359.516 205.539C359.776 205.992 359.907 206.511 359.907 207.096C359.907 207.659 359.781 208.173 359.529 208.641C359.278 209.105 358.924 209.475 358.469 209.75C358.016 210.022 357.484 210.155 356.871 210.149ZM356.871 209.173C357.244 209.173 357.578 209.08 357.874 208.894C358.173 208.707 358.408 208.457 358.58 208.144C358.754 207.83 358.842 207.481 358.842 207.096C358.842 206.721 358.757 206.379 358.589 206.071C358.423 205.761 358.194 205.514 357.901 205.33C357.611 205.147 357.28 205.055 356.907 205.055C356.531 205.055 356.193 205.151 355.891 205.344C355.589 205.536 355.349 205.789 355.172 206.103C354.994 206.413 354.904 206.75 354.901 207.114C354.901 207.475 354.986 207.812 355.154 208.126C355.326 208.44 355.559 208.692 355.855 208.885C356.154 209.077 356.493 209.173 356.871 209.173Z" fill="white"/>
<path d="M372.743 350.936H248.962C235.038 350.936 223.75 339.647 223.75 325.723V26.3842C223.75 12.4591 235.038 1.17147 248.962 1.17147H372.743C386.667 1.17147 397.955 12.4591 397.955 26.3842V325.723C397.955 339.647 386.667 350.936 372.743 350.936Z" stroke="white" stroke-width="2.34293"/>
<path d="M328.721 17.4403H293.505C292.823 17.4403 292.27 16.8867 292.27 16.2046C292.27 15.5226 292.823 14.9689 293.505 14.9689H328.721C329.403 14.9689 329.956 15.5226 329.956 16.2046C329.956 16.8867 329.403 17.4403 328.721 17.4403Z" fill="white"/>
<path d="M364.208 33.5018C364.513 33.5018 364.761 33.7482 364.761 34.0527C364.761 34.3591 364.513 34.6064 364.208 34.6064C363.904 34.6064 363.656 34.3591 363.656 34.0527C363.656 33.7482 363.904 33.5018 364.208 33.5018Z" fill="white"/>
<path d="M365.584 32.7155L365.56 32.6912L365.534 32.6687L365.521 32.6565C364.806 32.0073 363.712 32.0335 363.03 32.7155L362.95 32.7952L362.838 32.9057C362.704 33.0406 362.705 33.2608 362.839 33.3957C362.975 33.5316 363.194 33.5325 363.329 33.3966L363.521 33.2055C363.955 32.7727 364.661 32.7727 365.093 33.2055L365.23 33.3395C365.366 33.4725 365.582 33.4725 365.717 33.3386C365.782 33.2739 365.818 33.1868 365.818 33.0959C365.818 33.0032 365.782 32.917 365.719 32.8533L365.584 32.7155Z" fill="white"/>
<path d="M366.462 32.0354L366.349 31.9202L366.346 31.9193L366.256 31.8274L366.204 31.7862C365.04 30.7641 363.267 30.795 362.14 31.8799L362.123 31.894L361.915 32.101C361.793 32.2247 361.795 32.4242 361.916 32.5479C362.04 32.6716 362.241 32.6716 362.363 32.5488L362.571 32.3418L362.575 32.3371C363.487 31.4564 364.933 31.4508 365.852 32.3193L366.015 32.4823C366.139 32.6051 366.339 32.6051 366.461 32.4814C366.585 32.3577 366.586 32.1582 366.462 32.0354Z" fill="white"/>
<path d="M232.553 34.902C232.553 34.9676 232.608 35.0229 232.673 35.0229C232.745 35.0229 232.795 34.9676 232.795 34.902V31.6511C232.8 31.6202 232.795 31.5902 232.78 31.5593C232.749 31.504 232.669 31.4834 232.613 31.5143L231.931 31.9284C231.87 31.9593 231.849 32.0296 231.885 32.0951C231.905 32.1307 231.946 32.156 231.991 32.156C232.011 32.156 232.036 32.1457 232.051 32.1364L232.553 31.8431V34.902Z" fill="white"/>
<path d="M234.034 34.5035C234.252 34.822 234.56 35.0394 234.919 35.0394C235.278 35.0394 235.587 34.822 235.804 34.5035C236.016 34.1803 236.148 33.7456 236.148 33.2696C236.148 32.7946 236.016 32.3599 235.804 32.0311C235.587 31.7182 235.278 31.4999 234.919 31.4999C234.56 31.4999 234.252 31.7182 234.034 32.0311C233.816 32.3599 233.695 32.7946 233.695 33.2696C233.695 33.7456 233.816 34.1803 234.034 34.5035ZM234.242 32.1726C234.423 31.8943 234.666 31.7481 234.919 31.7481C235.172 31.7481 235.41 31.8943 235.596 32.1726C235.779 32.4461 235.9 32.8349 235.9 33.2696C235.9 33.7053 235.779 34.0941 235.596 34.3676C235.41 34.6356 235.172 34.7921 234.919 34.7921C234.666 34.7921 234.423 34.6356 234.242 34.3676C234.06 34.0941 233.943 33.7053 233.943 33.2696C233.943 32.8349 234.06 32.4461 234.242 32.1726Z" fill="white"/>
<path d="M237.355 34.792C237.355 34.9335 237.466 35.044 237.608 35.044C237.75 35.044 237.86 34.9335 237.86 34.792C237.86 34.6505 237.75 34.5391 237.608 34.5391C237.466 34.5391 237.355 34.6505 237.355 34.792ZM237.355 32.6681C237.355 32.8096 237.466 32.9211 237.608 32.9211C237.75 32.9211 237.86 32.8096 237.86 32.6681C237.86 32.5267 237.75 32.4152 237.608 32.4152C237.466 32.4152 237.355 32.5267 237.355 32.6681Z" fill="white"/>
<path d="M240.34 31.6826C240.351 31.6676 240.355 31.647 240.355 31.6264C240.355 31.5561 240.3 31.4999 240.229 31.4999H238.575C238.505 31.4999 238.449 31.5561 238.449 31.6264C238.449 31.6976 238.505 31.7528 238.575 31.7528H239.931L239.051 32.6579C239.001 32.7084 239.001 32.79 239.051 32.8405H239.056C239.081 32.8705 239.117 32.8911 239.157 32.8911C239.4 32.8911 239.643 32.982 239.824 33.1694C240.012 33.3511 240.103 33.5938 240.103 33.8364C240.103 34.0791 240.012 34.3217 239.824 34.5091C239.638 34.6909 239.395 34.7817 239.153 34.7817C238.91 34.7817 238.672 34.6909 238.485 34.5091C238.434 34.4585 238.353 34.4585 238.307 34.5091C238.257 34.5597 238.257 34.6403 238.307 34.6862C238.541 34.9232 238.849 35.0394 239.153 35.0394C239.461 35.0394 239.769 34.9185 240.001 34.6862C240.239 34.4529 240.355 34.1447 240.355 33.8364C240.355 33.5282 240.239 33.219 240.007 32.9867C239.835 32.8152 239.623 32.7084 239.4 32.6635L240.315 31.7229C240.326 31.7125 240.336 31.6976 240.34 31.6826Z" fill="white"/>
<path d="M242.273 34.5035C242.49 34.822 242.798 35.0394 243.157 35.0394C243.516 35.0394 243.824 34.822 244.042 34.5035C244.254 34.1803 244.386 33.7456 244.386 33.2696C244.386 32.7946 244.254 32.3599 244.042 32.0311C243.824 31.7182 243.516 31.4999 243.157 31.4999C242.798 31.4999 242.49 31.7182 242.273 32.0311C242.054 32.3599 241.934 32.7946 241.934 33.2696C241.934 33.7456 242.054 34.1803 242.273 34.5035ZM242.48 32.1726C242.662 31.8943 242.904 31.7481 243.157 31.7481C243.41 31.7481 243.648 31.8943 243.835 32.1726C244.017 32.4461 244.138 32.8349 244.138 33.2696C244.138 33.7053 244.017 34.0941 243.835 34.3676C243.648 34.6356 243.41 34.7921 243.157 34.7921C242.904 34.7921 242.662 34.6356 242.48 34.3676C242.298 34.0941 242.181 33.7053 242.181 33.2696C242.181 32.8349 242.298 32.4461 242.48 32.1726Z" fill="white"/>
<path d="M248.988 34.9429C249.009 34.9935 249.06 35.0235 249.106 35.0235C249.121 35.0235 249.13 35.0188 249.151 35.0188C249.211 34.9935 249.241 34.9176 249.216 34.8567L247.988 31.5758C247.973 31.5299 247.922 31.4999 247.866 31.4999C247.815 31.4999 247.765 31.5299 247.745 31.5758L246.516 34.8567C246.491 34.9176 246.526 34.9935 246.587 35.0188C246.602 35.0188 246.622 35.0235 246.632 35.0235C246.683 35.0235 246.729 34.9935 246.748 34.9429L247.062 34.1091H248.676L248.988 34.9429ZM247.872 31.9599L248.585 33.8608H247.153L247.872 31.9599Z" fill="white"/>
<path d="M252.898 34.9036C252.898 34.9692 252.949 35.0245 253.02 35.0245C253.085 35.0245 253.142 34.9692 253.142 34.9036V31.6274C253.142 31.6068 253.131 31.5815 253.121 31.5609C253.111 31.5459 253.1 31.5356 253.085 31.5206C253.03 31.485 252.949 31.4953 252.914 31.5515L251.659 33.296L250.4 31.5515C250.36 31.4953 250.284 31.485 250.229 31.5206C250.223 31.5262 250.219 31.5262 250.219 31.5309C250.189 31.5515 250.168 31.5862 250.168 31.6274V34.9036C250.168 34.9692 250.223 35.0245 250.294 35.0245C250.36 35.0245 250.415 34.9692 250.415 34.9036V31.9965L251.548 33.5639C251.573 33.6042 251.609 33.6192 251.655 33.6192H251.665C251.7 33.6192 251.74 33.6042 251.765 33.5639L252.898 31.9909V34.9036Z" fill="white"/>
<path d="M370.451 31.9081C370.451 32.1423 370.562 32.3437 370.728 32.473C370.337 32.6351 370.059 33.0276 370.059 33.4773C370.059 34.0807 370.547 34.5641 371.145 34.5641C371.748 34.5641 372.231 34.0807 372.231 33.4773C372.231 33.0276 371.954 32.6351 371.557 32.473C371.729 32.3437 371.844 32.1423 371.844 31.9081C371.844 31.5249 371.528 31.2139 371.145 31.2139C370.758 31.2139 370.451 31.5249 370.451 31.9081ZM370.289 33.4773C370.289 33.0089 370.671 32.621 371.145 32.621C371.624 32.621 372.002 33.0089 372.002 33.4773C372.002 33.9514 371.624 34.3346 371.145 34.3346C370.671 34.3346 370.289 33.9514 370.289 33.4773ZM370.681 31.9081C370.681 31.6495 370.887 31.4443 371.145 31.4443C371.404 31.4443 371.614 31.6495 371.614 31.9081C371.614 32.1667 371.404 32.3775 371.145 32.3821C370.887 32.3775 370.681 32.1667 370.681 31.9081Z" fill="white"/>
<path d="M373.644 34.5641C373.931 34.5641 374.228 34.4489 374.448 34.2334C374.673 34.0132 374.778 33.7172 374.778 33.4296C374.778 33.1335 374.673 32.8459 374.448 32.6257C374.228 32.4009 373.94 32.296 373.649 32.296C373.448 32.296 373.252 32.3484 373.079 32.4487L373.199 31.4537H374.659C374.725 31.4537 374.778 31.4059 374.778 31.3338C374.778 31.2673 374.725 31.2139 374.659 31.2139H373.099C373.07 31.2139 373.041 31.2242 373.022 31.2429C372.993 31.2626 372.974 31.2907 372.974 31.3291L372.811 32.6782C372.811 32.6885 372.807 32.6979 372.807 32.7026C372.807 32.7166 372.807 32.7316 372.811 32.741C372.811 32.7457 372.811 32.7503 372.816 32.755V32.7597C372.821 32.7738 372.831 32.7887 372.845 32.7981C372.888 32.8459 372.965 32.8459 373.013 32.7981C373.19 32.621 373.415 32.5349 373.649 32.5349C373.879 32.5349 374.108 32.621 374.28 32.7934C374.453 32.9658 374.539 33.1954 374.539 33.4296C374.539 33.6591 374.453 33.8839 374.276 34.061C374.099 34.2381 373.874 34.3243 373.644 34.3243C373.415 34.3243 373.19 34.2381 373.013 34.0657C372.965 34.0179 372.888 34.0179 372.841 34.0657C372.793 34.1088 372.793 34.1856 372.841 34.2334C373.061 34.4536 373.352 34.5641 373.644 34.5641Z" fill="white"/>
<path d="M376.283 32.8692C376.728 32.8692 377.024 32.4626 377.024 32.0129V32.0035C377.024 31.5632 376.733 31.1566 376.293 31.1566C375.848 31.1566 375.551 31.5632 375.551 32.0129V32.0223C375.551 32.4673 375.843 32.8692 376.283 32.8692ZM375.986 34.4628C375.986 34.52 376.034 34.5631 376.091 34.5631C376.13 34.5631 376.159 34.5443 376.182 34.5106L378.513 31.3384C378.527 31.3187 378.532 31.3 378.532 31.2756C378.532 31.2184 378.484 31.1754 378.427 31.1754C378.389 31.1754 378.36 31.1941 378.336 31.2278L376.005 34.4001C375.991 34.4197 375.986 34.4385 375.986 34.4628ZM378.226 34.5828C378.671 34.5828 378.968 34.1752 378.968 33.7255V33.7161C378.968 33.2758 378.675 32.8692 378.235 32.8692C377.79 32.8692 377.494 33.2758 377.494 33.7255V33.7358C377.494 34.1808 377.785 34.5828 378.226 34.5828ZM376.293 32.6631C376.025 32.6631 375.8 32.3905 375.8 32.0129V32.0035C375.8 31.6541 376 31.3618 376.283 31.3618C376.551 31.3618 376.776 31.6391 376.776 32.0129V32.0223C376.776 32.3811 376.575 32.6631 376.293 32.6631ZM378.235 34.3766C377.967 34.3766 377.742 34.104 377.742 33.7255V33.7161C377.742 33.3667 377.944 33.0753 378.226 33.0753C378.493 33.0753 378.718 33.3526 378.718 33.7255V33.7358C378.718 34.0946 378.518 34.3766 378.235 34.3766Z" fill="white"/>
<path d="M383.47 31.6493L388.937 31.639L388.941 34.3728L383.474 34.3784L383.47 31.6493ZM390.693 31.3242L383.178 31.3364L383.181 34.6951L390.698 34.6829L390.693 31.3242ZM383.315 34.9752C383.075 34.9762 382.881 34.7972 382.881 34.577L382.875 31.4535C382.875 31.2352 383.071 31.0554 383.307 31.0544L390.56 31.0422C390.797 31.0432 390.992 31.2212 390.995 31.4404L390.994 32.0859L391.553 32.0831L391.558 33.9241L390.998 33.9269L391 34.5658C391 34.785 390.805 34.963 390.566 34.963L383.315 34.9752Z" fill="#F9F9F8"/>
<path d="M324.171 17.4403H293.505C292.823 17.4403 292.27 16.8867 292.27 16.2046C292.27 15.5226 292.823 14.9689 293.505 14.9689H324.959L324.171 17.4403Z" fill="white"/>
<path d="M232.553 34.9021C232.553 34.9677 232.608 35.023 232.673 35.023C232.745 35.023 232.795 34.9677 232.795 34.9021V31.6512C232.8 31.6203 232.795 31.5903 232.78 31.5594C232.749 31.5041 232.669 31.4835 232.613 31.5144L231.931 31.9285C231.87 31.9594 231.849 32.0297 231.885 32.0953C231.905 32.1309 231.946 32.1562 231.991 32.1562C232.011 32.1562 232.036 32.1459 232.051 32.1365L232.553 31.8433V34.9021Z" fill="white"/>
<path d="M234.034 34.5036C234.252 34.8222 234.56 35.0395 234.919 35.0395C235.278 35.0395 235.587 34.8222 235.804 34.5036C236.016 34.1804 236.148 33.7457 236.148 33.2698C236.148 32.7948 236.016 32.3601 235.804 32.0312C235.587 31.7183 235.278 31.5 234.919 31.5C234.56 31.5 234.252 31.7183 234.034 32.0312C233.816 32.3601 233.695 32.7948 233.695 33.2698C233.695 33.7457 233.816 34.1804 234.034 34.5036ZM234.242 32.1727C234.423 31.8944 234.666 31.7483 234.919 31.7483C235.172 31.7483 235.41 31.8944 235.596 32.1727C235.779 32.4462 235.9 32.835 235.9 33.2698C235.9 33.7054 235.779 34.0942 235.596 34.3678C235.41 34.6357 235.172 34.7922 234.919 34.7922C234.666 34.7922 234.423 34.6357 234.242 34.3678C234.06 34.0942 233.943 33.7054 233.943 33.2698C233.943 32.835 234.06 32.4462 234.242 32.1727Z" fill="white"/>
<path d="M237.359 34.7921C237.359 34.9336 237.47 35.0442 237.612 35.0442C237.754 35.0442 237.864 34.9336 237.864 34.7921C237.864 34.6507 237.754 34.5392 237.612 34.5392C237.47 34.5392 237.359 34.6507 237.359 34.7921ZM237.359 32.6682C237.359 32.8097 237.47 32.9212 237.612 32.9212C237.754 32.9212 237.864 32.8097 237.864 32.6682C237.864 32.5268 237.754 32.4153 237.612 32.4153C237.47 32.4153 237.359 32.5268 237.359 32.6682Z" fill="white"/>
<path d="M240.344 31.6827C240.355 31.6677 240.359 31.6471 240.359 31.6265C240.359 31.5562 240.304 31.5 240.233 31.5H238.579C238.509 31.5 238.453 31.5562 238.453 31.6265C238.453 31.6977 238.509 31.753 238.579 31.753H239.935L239.055 32.658C239.005 32.7086 239.005 32.7901 239.055 32.8407H239.06C239.085 32.8706 239.121 32.8913 239.161 32.8913C239.404 32.8913 239.646 32.9821 239.828 33.1695C240.016 33.3513 240.106 33.5939 240.106 33.8366C240.106 34.0792 240.016 34.3219 239.828 34.5092C239.642 34.691 239.399 34.7819 239.156 34.7819C238.914 34.7819 238.676 34.691 238.488 34.5092C238.438 34.4586 238.357 34.4586 238.311 34.5092C238.261 34.5598 238.261 34.6404 238.311 34.6863C238.545 34.9233 238.853 35.0395 239.156 35.0395C239.465 35.0395 239.773 34.9187 240.005 34.6863C240.243 34.453 240.359 34.1448 240.359 33.8366C240.359 33.5283 240.243 33.2192 240.011 32.9868C239.838 32.8154 239.627 32.7086 239.404 32.6636L240.319 31.723C240.329 31.7127 240.34 31.6977 240.344 31.6827Z" fill="white"/>
<path d="M242.273 34.5036C242.49 34.8222 242.798 35.0395 243.157 35.0395C243.516 35.0395 243.824 34.8222 244.042 34.5036C244.254 34.1804 244.386 33.7457 244.386 33.2698C244.386 32.7948 244.254 32.3601 244.042 32.0312C243.824 31.7183 243.516 31.5 243.157 31.5C242.798 31.5 242.49 31.7183 242.273 32.0312C242.054 32.3601 241.934 32.7948 241.934 33.2698C241.934 33.7457 242.054 34.1804 242.273 34.5036ZM242.48 32.1727C242.662 31.8944 242.904 31.7483 243.157 31.7483C243.41 31.7483 243.648 31.8944 243.835 32.1727C244.017 32.4462 244.138 32.835 244.138 33.2698C244.138 33.7054 244.017 34.0942 243.835 34.3678C243.648 34.6357 243.41 34.7922 243.157 34.7922C242.904 34.7922 242.662 34.6357 242.48 34.3678C242.298 34.0942 242.181 33.7054 242.181 33.2698C242.181 32.835 242.298 32.4462 242.48 32.1727Z" fill="white"/>
<path d="M248.988 34.943C249.009 34.9936 249.06 35.0236 249.106 35.0236C249.121 35.0236 249.13 35.0189 249.151 35.0189C249.211 34.9936 249.241 34.9177 249.216 34.8568L247.988 31.5759C247.973 31.53 247.922 31.5 247.866 31.5C247.815 31.5 247.765 31.53 247.745 31.5759L246.516 34.8568C246.491 34.9177 246.526 34.9936 246.587 35.0189C246.602 35.0189 246.622 35.0236 246.632 35.0236C246.683 35.0236 246.729 34.9936 246.748 34.943L247.062 34.1092H248.676L248.988 34.943ZM247.872 31.96L248.585 33.8609H247.153L247.872 31.96Z" fill="white"/>
<path d="M252.902 34.9038C252.902 34.9693 252.953 35.0246 253.024 35.0246C253.089 35.0246 253.146 34.9693 253.146 34.9038V31.6275C253.146 31.6069 253.135 31.5816 253.125 31.561C253.115 31.546 253.104 31.5357 253.089 31.5207C253.034 31.4851 252.953 31.4954 252.918 31.5516L251.663 33.2961L250.404 31.5516C250.364 31.4954 250.288 31.4851 250.233 31.5207C250.227 31.5263 250.222 31.5263 250.222 31.531C250.192 31.5516 250.172 31.5863 250.172 31.6275V34.9038C250.172 34.9693 250.227 35.0246 250.298 35.0246C250.364 35.0246 250.419 34.9693 250.419 34.9038V31.9966L251.552 33.564C251.577 33.6043 251.613 33.6193 251.659 33.6193H251.669C251.704 33.6193 251.744 33.6043 251.769 33.564L252.902 31.991V34.9038Z" fill="white"/>
<rect x="233.902" y="48.811" width="153.852" height="270.999" rx="1.17147" stroke="white" stroke-width="0.780977"/>
<rect x="323.715" y="195.635" width="42.9537" height="18.7434" rx="1.17147" stroke="white" stroke-width="0.780977"/>
<g opacity="0.2">
<path d="M79.9794 148.328V139.24H83.1565C83.7896 139.24 84.3117 139.35 84.7229 139.569C85.1341 139.784 85.4403 140.076 85.6415 140.443C85.8426 140.807 85.9432 141.21 85.9432 141.654C85.9432 142.045 85.8737 142.367 85.7346 142.621C85.5986 142.876 85.4181 143.077 85.1933 143.225C84.9714 143.373 84.7303 143.482 84.47 143.553V143.642C84.7481 143.66 85.0276 143.757 85.3087 143.935C85.5897 144.112 85.8249 144.367 86.0142 144.698C86.2035 145.029 86.2982 145.435 86.2982 145.914C86.2982 146.37 86.1946 146.779 85.9876 147.143C85.7805 147.507 85.4536 147.795 85.0069 148.008C84.5602 148.221 83.9789 148.328 83.263 148.328H79.9794ZM81.0798 147.352H83.263C83.9819 147.352 84.4922 147.213 84.7939 146.935C85.0986 146.654 85.251 146.313 85.251 145.914C85.251 145.606 85.1726 145.322 85.0158 145.062C84.859 144.799 84.6357 144.589 84.3457 144.432C84.0558 144.272 83.7127 144.192 83.3163 144.192H81.0798V147.352ZM81.0798 143.234H83.121C83.618 143.234 84.0381 143.09 84.3812 142.803C84.7244 142.516 84.896 142.133 84.896 141.654C84.896 141.255 84.7569 140.916 84.4789 140.638C84.2008 140.357 83.76 140.216 83.1565 140.216H81.0798V143.234ZM87.9644 148.328V141.512H90.7511C91.4847 141.512 92.0675 141.678 92.4994 142.009C92.9313 142.34 93.1473 142.778 93.1473 143.323C93.1473 143.737 93.0245 144.058 92.779 144.285C92.5334 144.51 92.2184 144.663 91.8338 144.742C92.0853 144.778 92.3293 144.867 92.566 145.009C92.8056 145.151 93.0038 145.346 93.1606 145.594C93.3174 145.84 93.3958 146.142 93.3958 146.5C93.3958 147.023 93.199 147.46 92.8056 147.809C92.4121 148.155 91.8693 148.328 91.1771 148.328H87.9644ZM88.9584 147.369H91.1771C91.538 147.369 91.8205 147.284 92.0246 147.112C92.2287 146.94 92.3308 146.707 92.3308 146.411C92.3308 146.059 92.2287 145.782 92.0246 145.581C91.8205 145.377 91.538 145.275 91.1771 145.275H88.9584V147.369ZM88.9584 144.37H90.7511C91.1712 144.37 91.501 144.284 91.7406 144.112C91.9802 143.938 92.1 143.698 92.1 143.394C92.1 143.107 91.9802 142.882 91.7406 142.719C91.501 142.553 91.1712 142.471 90.7511 142.471H88.9584V144.37ZM97.8387 148.47C97.1819 148.47 96.6154 148.325 96.1392 148.035C95.6658 147.742 95.3005 147.334 95.0431 146.81C94.7887 146.284 94.6615 145.671 94.6615 144.973C94.6615 144.275 94.7887 143.66 95.0431 143.127C95.3005 142.592 95.6584 142.175 96.117 141.876C96.5785 141.574 97.1169 141.423 97.7322 141.423C98.0872 141.423 98.4377 141.482 98.7838 141.601C99.1299 141.719 99.445 141.911 99.729 142.178C100.013 142.441 100.239 142.79 100.408 143.225C100.577 143.66 100.661 144.195 100.661 144.831V145.275H95.7132C95.7368 146.003 95.9424 146.56 96.33 146.948C96.7205 147.335 97.2234 147.529 97.8387 147.529C98.2499 147.529 98.6034 147.44 98.8992 147.263C99.195 147.085 99.4095 146.819 99.5426 146.464L100.554 146.748C100.395 147.263 100.075 147.679 99.5959 147.995C99.1166 148.312 98.5309 148.47 97.8387 148.47ZM95.7132 144.37H99.5959C99.5959 143.793 99.4273 143.315 99.09 142.936C98.7528 142.555 98.3002 142.364 97.7322 142.364C97.3328 142.364 96.9867 142.457 96.6938 142.644C96.401 142.83 96.1702 143.077 96.0016 143.385C95.833 143.689 95.7368 144.018 95.7132 144.37ZM101.526 150.28V147.352H102.094C102.278 147.159 102.43 146.942 102.551 146.699C102.672 146.457 102.773 146.14 102.853 145.75C102.933 145.359 102.999 144.846 103.053 144.21L103.283 141.512H107.614V147.352H108.661V150.28H107.614V148.328H102.573V150.28H101.526ZM103.283 147.352H106.567V142.488H104.26L104.082 144.21C104.008 144.923 103.916 145.546 103.807 146.078C103.697 146.611 103.523 147.035 103.283 147.352ZM111.099 146.784L114.382 141.512H115.589V148.328H114.542V143.056L111.276 148.328H110.051V141.512H111.099V146.784ZM116.58 142.488V141.512H122.118V142.488H119.881V148.328H118.834V142.488H116.58ZM126.149 148.47C125.492 148.47 124.926 148.325 124.45 148.035C123.976 147.742 123.611 147.334 123.354 146.81C123.099 146.284 122.972 145.671 122.972 144.973C122.972 144.275 123.099 143.66 123.354 143.127C123.611 142.592 123.969 142.175 124.427 141.876C124.889 141.574 125.427 141.423 126.043 141.423C126.398 141.423 126.748 141.482 127.094 141.601C127.44 141.719 127.755 141.911 128.039 142.178C128.323 142.441 128.55 142.79 128.718 143.225C128.887 143.66 128.971 144.195 128.971 144.831V145.275H124.024C124.047 146.003 124.253 146.56 124.64 146.948C125.031 147.335 125.534 147.529 126.149 147.529C126.56 147.529 126.914 147.44 127.21 147.263C127.505 147.085 127.72 146.819 127.853 146.464L128.865 146.748C128.705 147.263 128.386 147.679 127.906 147.995C127.427 148.312 126.841 148.47 126.149 148.47ZM124.024 144.37H127.906C127.906 143.793 127.738 143.315 127.4 142.936C127.063 142.555 126.611 142.364 126.043 142.364C125.643 142.364 125.297 142.457 125.004 142.644C124.711 142.83 124.481 143.077 124.312 143.385C124.143 143.689 124.047 144.018 124.024 144.37ZM134.079 148.328V141.512H139.439V148.328H138.392V142.488H135.126V148.328H134.079ZM141.352 150.884V141.512H142.363V142.595H142.487C142.564 142.476 142.671 142.326 142.807 142.142C142.946 141.956 143.144 141.79 143.402 141.645C143.662 141.497 144.014 141.423 144.458 141.423C145.032 141.423 145.537 141.567 145.975 141.854C146.413 142.141 146.755 142.547 147 143.074C147.246 143.601 147.369 144.222 147.369 144.938C147.369 145.66 147.246 146.285 147 146.815C146.755 147.341 146.415 147.75 145.98 148.039C145.545 148.326 145.043 148.47 144.475 148.47C144.038 148.47 143.687 148.397 143.424 148.252C143.16 148.105 142.958 147.937 142.816 147.751C142.674 147.562 142.564 147.405 142.487 147.281H142.399V150.884H141.352ZM142.381 144.92C142.381 145.692 142.548 146.321 142.882 146.806C143.22 147.288 143.703 147.529 144.333 147.529C144.771 147.529 145.137 147.414 145.429 147.183C145.725 146.949 145.947 146.636 146.095 146.242C146.246 145.846 146.321 145.405 146.321 144.92C146.321 144.441 146.247 144.009 146.099 143.624C145.955 143.237 145.734 142.931 145.438 142.706C145.145 142.478 144.777 142.364 144.333 142.364C143.694 142.364 143.209 142.599 142.878 143.07C142.547 143.54 142.381 144.157 142.381 144.92ZM151.735 148.47C151.12 148.47 150.58 148.323 150.115 148.031C149.654 147.738 149.293 147.328 149.033 146.801C148.775 146.275 148.647 145.66 148.647 144.955C148.647 144.246 148.775 143.626 149.033 143.096C149.293 142.567 149.654 142.156 150.115 141.863C150.58 141.57 151.12 141.423 151.735 141.423C152.35 141.423 152.889 141.57 153.35 141.863C153.815 142.156 154.176 142.567 154.433 143.096C154.693 143.626 154.823 144.246 154.823 144.955C154.823 145.66 154.693 146.275 154.433 146.801C154.176 147.328 153.815 147.738 153.35 148.031C152.889 148.323 152.35 148.47 151.735 148.47ZM151.735 147.529C152.202 147.529 152.587 147.409 152.889 147.17C153.19 146.93 153.414 146.615 153.559 146.225C153.704 145.834 153.776 145.411 153.776 144.955C153.776 144.5 153.704 144.075 153.559 143.682C153.414 143.289 153.19 142.97 152.889 142.728C152.587 142.485 152.202 142.364 151.735 142.364C151.268 142.364 150.883 142.485 150.581 142.728C150.279 142.97 150.056 143.289 149.911 143.682C149.766 144.075 149.694 144.5 149.694 144.955C149.694 145.411 149.766 145.834 149.911 146.225C150.056 146.615 150.279 146.93 150.581 147.17C150.883 147.409 151.268 147.529 151.735 147.529ZM156.422 148.328V141.512H159.209C159.942 141.512 160.525 141.678 160.957 142.009C161.389 142.34 161.605 142.778 161.605 143.323C161.605 143.737 161.482 144.058 161.236 144.285C160.991 144.51 160.676 144.663 160.291 144.742C160.543 144.778 160.787 144.867 161.023 145.009C161.263 145.151 161.461 145.346 161.618 145.594C161.775 145.84 161.853 146.142 161.853 146.5C161.853 147.023 161.657 147.46 161.263 147.809C160.87 148.155 160.327 148.328 159.635 148.328H156.422ZM157.416 147.369H159.635C159.995 147.369 160.278 147.284 160.482 147.112C160.686 146.94 160.788 146.707 160.788 146.411C160.788 146.059 160.686 145.782 160.482 145.581C160.278 145.377 159.995 145.275 159.635 145.275H157.416V147.369ZM157.416 144.37H159.209C159.629 144.37 159.959 144.284 160.198 144.112C160.438 143.938 160.558 143.698 160.558 143.394C160.558 143.107 160.438 142.882 160.198 142.719C159.959 142.553 159.629 142.471 159.209 142.471H157.416V144.37ZM166.296 148.47C165.639 148.47 165.073 148.325 164.597 148.035C164.123 147.742 163.758 147.334 163.501 146.81C163.246 146.284 163.119 145.671 163.119 144.973C163.119 144.275 163.246 143.66 163.501 143.127C163.758 142.592 164.116 142.175 164.574 141.876C165.036 141.574 165.574 141.423 166.19 141.423C166.545 141.423 166.895 141.482 167.241 141.601C167.587 141.719 167.903 141.911 168.186 142.178C168.47 142.441 168.697 142.79 168.865 143.225C169.034 143.66 169.118 144.195 169.118 144.831V145.275H164.171C164.194 146.003 164.4 146.56 164.787 146.948C165.178 147.335 165.681 147.529 166.296 147.529C166.707 147.529 167.061 147.44 167.357 147.263C167.653 147.085 167.867 146.819 168 146.464L169.012 146.748C168.852 147.263 168.533 147.679 168.053 147.995C167.574 148.312 166.988 148.47 166.296 148.47ZM164.171 144.37H168.053C168.053 143.793 167.885 143.315 167.548 142.936C167.21 142.555 166.758 142.364 166.19 142.364C165.79 142.364 165.444 142.457 165.151 142.644C164.858 142.83 164.628 143.077 164.459 143.385C164.29 143.689 164.194 144.018 164.171 144.37ZM170.711 150.884V141.512H171.723V142.595H171.847C171.924 142.476 172.031 142.326 172.167 142.142C172.306 141.956 172.504 141.79 172.761 141.645C173.022 141.497 173.374 141.423 173.818 141.423C174.391 141.423 174.897 141.567 175.335 141.854C175.773 142.141 176.115 142.547 176.36 143.074C176.606 143.601 176.728 144.222 176.728 144.938C176.728 145.66 176.606 146.285 176.36 146.815C176.115 147.341 175.774 147.75 175.34 148.039C174.905 148.326 174.403 148.47 173.835 148.47C173.397 148.47 173.047 148.397 172.784 148.252C172.52 148.105 172.318 147.937 172.176 147.751C172.034 147.562 171.924 147.405 171.847 147.281H171.759V150.884H170.711ZM171.741 144.92C171.741 145.692 171.908 146.321 172.242 146.806C172.579 147.288 173.063 147.529 173.693 147.529C174.131 147.529 174.496 147.414 174.789 147.183C175.085 146.949 175.307 146.636 175.455 146.242C175.606 145.846 175.681 145.405 175.681 144.92C175.681 144.441 175.607 144.009 175.459 143.624C175.314 143.237 175.094 142.931 174.798 142.706C174.505 142.478 174.137 142.364 173.693 142.364C173.054 142.364 172.569 142.599 172.238 143.07C171.906 143.54 171.741 144.157 171.741 144.92ZM181.095 148.47C180.479 148.47 179.94 148.323 179.475 148.031C179.014 147.738 178.653 147.328 178.392 146.801C178.135 146.275 178.006 145.66 178.006 144.955C178.006 144.246 178.135 143.626 178.392 143.096C178.653 142.567 179.014 142.156 179.475 141.863C179.94 141.57 180.479 141.423 181.095 141.423C181.71 141.423 182.249 141.57 182.71 141.863C183.174 142.156 183.535 142.567 183.793 143.096C184.053 143.626 184.183 144.246 184.183 144.955C184.183 145.66 184.053 146.275 183.793 146.801C183.535 147.328 183.174 147.738 182.71 148.031C182.249 148.323 181.71 148.47 181.095 148.47ZM181.095 147.529C181.562 147.529 181.947 147.409 182.249 147.17C182.55 146.93 182.774 146.615 182.919 146.225C183.064 145.834 183.136 145.411 183.136 144.955C183.136 144.5 183.064 144.075 182.919 143.682C182.774 143.289 182.55 142.97 182.249 142.728C181.947 142.485 181.562 142.364 181.095 142.364C180.627 142.364 180.243 142.485 179.941 142.728C179.639 142.97 179.416 143.289 179.271 143.682C179.126 144.075 179.054 144.5 179.054 144.955C179.054 145.411 179.126 145.834 179.271 146.225C179.416 146.615 179.639 146.93 179.941 147.17C180.243 147.409 180.627 147.529 181.095 147.529ZM191.036 141.512V148.328H189.988V145.949C189.743 146.023 189.487 146.081 189.221 146.123C188.954 146.161 188.66 146.18 188.338 146.18C187.566 146.18 186.946 145.972 186.478 145.555C186.014 145.137 185.782 144.512 185.782 143.678V141.494H186.829V143.678C186.829 144.201 186.974 144.587 187.264 144.836C187.554 145.081 187.912 145.204 188.338 145.204C188.651 145.204 188.941 145.183 189.207 145.142C189.474 145.1 189.734 145.043 189.988 144.969V141.512H191.036ZM194.004 141.512V144.441H197.27V141.512H198.317V148.328H197.27V145.417H194.004V148.328H192.957V141.512H194.004ZM201.277 143.979H203.088C203.886 143.979 204.497 144.182 204.92 144.587C205.343 144.992 205.555 145.506 205.555 146.127C205.555 146.535 205.46 146.906 205.271 147.241C205.081 147.572 204.803 147.837 204.436 148.035C204.07 148.23 203.62 148.328 203.088 148.328H200.23V141.512H201.277V143.979ZM201.277 144.955V147.352H203.088C203.502 147.352 203.842 147.242 204.108 147.023C204.374 146.804 204.507 146.523 204.507 146.18C204.507 145.819 204.374 145.525 204.108 145.297C203.842 145.069 203.502 144.955 203.088 144.955H201.277ZM206.637 148.328V141.512H207.685V148.328H206.637ZM210.649 146.784L213.932 141.512H215.139V148.328H214.092V143.056L210.826 148.328H209.602V141.512H210.649V146.784ZM213.24 139.24H214.216C214.216 139.719 214.051 140.111 213.719 140.416C213.388 140.721 212.938 140.873 212.37 140.873C211.811 140.873 211.366 140.721 211.035 140.416C210.706 140.111 210.542 139.719 210.542 139.24H211.519C211.519 139.471 211.582 139.674 211.709 139.848C211.839 140.023 212.06 140.11 212.37 140.11C212.681 140.11 212.903 140.023 213.036 139.848C213.172 139.674 213.24 139.471 213.24 139.24ZM220.572 148.328V141.512H221.619V144.476H222.311L224.761 141.512H226.11L223.359 144.796L226.145 148.328H224.796L222.56 145.452H221.619V148.328H220.572ZM229.772 148.47C229.156 148.47 228.616 148.323 228.152 148.031C227.69 147.738 227.33 147.328 227.069 146.801C226.812 146.275 226.683 145.66 226.683 144.955C226.683 144.246 226.812 143.626 227.069 143.096C227.33 142.567 227.69 142.156 228.152 141.863C228.616 141.57 229.156 141.423 229.772 141.423C230.387 141.423 230.925 141.57 231.387 141.863C231.851 142.156 232.212 142.567 232.47 143.096C232.73 143.626 232.86 144.246 232.86 144.955C232.86 145.66 232.73 146.275 232.47 146.801C232.212 147.328 231.851 147.738 231.387 148.031C230.925 148.323 230.387 148.47 229.772 148.47ZM229.772 147.529C230.239 147.529 230.624 147.409 230.925 147.17C231.227 146.93 231.45 146.615 231.595 146.225C231.74 145.834 231.813 145.411 231.813 144.955C231.813 144.5 231.74 144.075 231.595 143.682C231.45 143.289 231.227 142.97 230.925 142.728C230.624 142.485 230.239 142.364 229.772 142.364C229.304 142.364 228.92 142.485 228.618 142.728C228.316 142.97 228.093 143.289 227.948 143.682C227.803 144.075 227.73 144.5 227.73 144.955C227.73 145.411 227.803 145.834 227.948 146.225C228.093 146.615 228.316 146.93 228.618 147.17C228.92 147.409 229.304 147.529 229.772 147.529ZM233.731 150.28V147.352H234.299C234.482 147.159 234.635 146.942 234.756 146.699C234.877 146.457 234.978 146.14 235.058 145.75C235.138 145.359 235.204 144.846 235.257 144.21L235.488 141.512H239.819V147.352H240.866V150.28H239.819V148.328H234.778V150.28H233.731ZM235.488 147.352H238.772V142.488H236.464L236.287 144.21C236.213 144.923 236.121 145.546 236.012 146.078C235.902 146.611 235.728 147.035 235.488 147.352Z" fill="white"/>
<path d="M57.5151 69.8974H340.219C343.918 69.8974 346.951 72.9302 346.951 76.6316V264.647H50.7772V76.6316C50.7772 72.9304 53.8092 69.8974 57.5151 69.8974Z" stroke="white" stroke-width="0.780977"/>
<path d="M63.9569 255.39V82.1551H334.004V255.39H63.9569Z" stroke="white" stroke-width="0.780977"/>
<path d="M199.035 76.8756C199.035 77.3565 198.649 77.7454 198.163 77.7454C197.683 77.7454 197.293 77.3554 197.293 76.8756C197.293 76.3907 197.684 76.0021 198.163 76.0021C198.648 76.0021 199.035 76.3896 199.035 76.8756Z" fill="#808285" stroke="white" stroke-width="0.780977"/>
<path d="M166.285 271.142V265.393H229.797V271.142H166.285Z" stroke="white" stroke-width="0.780977"/>
<path d="M225.682 267.375V265.393H396.346V275.694H0.390488V265.393H170.856V267.375C170.856 269.224 172.367 270.737 174.213 270.737H222.323C224.173 270.737 225.682 269.224 225.682 267.375Z" stroke="white" stroke-width="0.780977"/>
<rect x="79.2694" y="112.851" width="78.8787" height="17.1815" rx="8.59075" stroke="white" stroke-width="0.780977"/>
</g>
</g>
</svg>
