<svg width="227" height="265" viewBox="0 0 227 265" fill="none" xmlns="http://www.w3.org/2000/svg">
<g opacity="0.4">
<path d="M42.233 242V231.818H43.4659V236.352H48.8949V231.818H50.1278V242H48.8949V237.446H43.4659V242H42.233ZM61.1871 236.909C61.1871 237.983 60.9933 238.911 60.6055 239.693C60.2177 240.475 59.6857 241.079 59.0096 241.503C58.3335 241.927 57.5612 242.139 56.6928 242.139C55.8245 242.139 55.0522 241.927 54.3761 241.503C53.6999 241.079 53.168 240.475 52.7802 239.693C52.3924 238.911 52.1985 237.983 52.1985 236.909C52.1985 235.835 52.3924 234.907 52.7802 234.125C53.168 233.343 53.6999 232.74 54.3761 232.315C55.0522 231.891 55.8245 231.679 56.6928 231.679C57.5612 231.679 58.3335 231.891 59.0096 232.315C59.6857 232.74 60.2177 233.343 60.6055 234.125C60.9933 234.907 61.1871 235.835 61.1871 236.909ZM59.994 236.909C59.994 236.027 59.8465 235.283 59.5515 234.677C59.2598 234.07 58.8638 233.611 58.3633 233.3C57.8661 232.988 57.3093 232.832 56.6928 232.832C56.0763 232.832 55.5179 232.988 55.0174 233.3C54.5202 233.611 54.1242 234.07 53.8292 234.677C53.5375 235.283 53.3917 236.027 53.3917 236.909C53.3917 237.791 53.5375 238.535 53.8292 239.141C54.1242 239.748 54.5202 240.207 55.0174 240.518C55.5179 240.83 56.0763 240.986 56.6928 240.986C57.3093 240.986 57.8661 240.83 58.3633 240.518C58.8638 240.207 59.2598 239.748 59.5515 239.141C59.8465 238.535 59.994 237.791 59.994 236.909ZM63.2603 242V231.818H66.82C67.5292 231.818 68.1142 231.941 68.5749 232.186C69.0356 232.428 69.3787 232.754 69.604 233.165C69.8294 233.573 69.9421 234.026 69.9421 234.523C69.9421 234.96 69.8642 235.321 69.7085 235.607C69.556 235.892 69.3538 236.117 69.1019 236.283C68.8533 236.448 68.5832 236.571 68.2915 236.651V236.75C68.6031 236.77 68.9163 236.879 69.2312 237.078C69.546 237.277 69.8095 237.562 70.0217 237.933C70.2338 238.304 70.3398 238.759 70.3398 239.295C70.3398 239.806 70.2238 240.265 69.9918 240.673C69.7598 241.08 69.3936 241.403 68.8931 241.642C68.3926 241.881 67.7414 242 66.9393 242H63.2603ZM64.4933 240.906H66.9393C67.7447 240.906 68.3164 240.75 68.6545 240.439C68.9959 240.124 69.1665 239.743 69.1665 239.295C69.1665 238.951 69.0787 238.633 68.9031 238.341C68.7274 238.046 68.4772 237.811 68.1523 237.635C67.8275 237.456 67.4431 237.366 66.9989 237.366H64.4933V240.906ZM64.4933 236.293H66.7802C67.337 236.293 67.8076 236.132 68.1921 235.81C68.5766 235.489 68.7688 235.06 68.7688 234.523C68.7688 234.075 68.613 233.696 68.3015 233.384C67.9899 233.069 67.4961 232.912 66.82 232.912H64.4933V236.293ZM80.9567 236.909C80.9567 237.983 80.7628 238.911 80.375 239.693C79.9872 240.475 79.4553 241.079 78.7791 241.503C78.103 241.927 77.3307 242.139 76.4624 242.139C75.594 242.139 74.8217 241.927 74.1456 241.503C73.4695 241.079 72.9375 240.475 72.5497 239.693C72.1619 238.911 71.968 237.983 71.968 236.909C71.968 235.835 72.1619 234.907 72.5497 234.125C72.9375 233.343 73.4695 232.74 74.1456 232.315C74.8217 231.891 75.594 231.679 76.4624 231.679C77.3307 231.679 78.103 231.891 78.7791 232.315C79.4553 232.74 79.9872 233.343 80.375 234.125C80.7628 234.907 80.9567 235.835 80.9567 236.909ZM79.7635 236.909C79.7635 236.027 79.616 235.283 79.321 234.677C79.0294 234.07 78.6333 233.611 78.1328 233.3C77.6357 232.988 77.0788 232.832 76.4624 232.832C75.8459 232.832 75.2874 232.988 74.7869 233.3C74.2898 233.611 73.8937 234.07 73.5987 234.677C73.3071 235.283 73.1612 236.027 73.1612 236.909C73.1612 237.791 73.3071 238.535 73.5987 239.141C73.8937 239.748 74.2898 240.207 74.7869 240.518C75.2874 240.83 75.8459 240.986 76.4624 240.986C77.0788 240.986 77.6357 240.83 78.1328 240.518C78.6333 240.207 79.0294 239.748 79.321 239.141C79.616 238.535 79.7635 237.791 79.7635 236.909ZM83.0298 242V231.818H89.1747V232.912H84.2628V236.352H88.8565V237.446H84.2628V240.906H89.2543V242H83.0298ZM103.528 235H102.295C102.195 234.529 102.005 234.133 101.723 233.812C101.441 233.49 101.102 233.247 100.704 233.081C100.306 232.915 99.8819 232.832 99.4311 232.832C98.8146 232.832 98.2562 232.988 97.7557 233.3C97.2585 233.611 96.8625 234.07 96.5675 234.677C96.2758 235.283 96.13 236.027 96.13 236.909C96.13 237.791 96.2758 238.535 96.5675 239.141C96.8625 239.748 97.2585 240.207 97.7557 240.518C98.2562 240.83 98.8146 240.986 99.4311 240.986C99.8819 240.986 100.306 240.903 100.704 240.737C101.102 240.571 101.441 240.328 101.723 240.006C102.005 239.685 102.195 239.289 102.295 238.818H103.528C103.402 239.514 103.145 240.111 102.757 240.608C102.369 241.102 101.889 241.481 101.315 241.746C100.742 242.008 100.114 242.139 99.4311 242.139C98.5627 242.139 97.7905 241.927 97.1143 241.503C96.4382 241.079 95.9063 240.475 95.5185 239.693C95.1307 238.911 94.9368 237.983 94.9368 236.909C94.9368 235.835 95.1307 234.907 95.5185 234.125C95.9063 233.343 96.4382 232.74 97.1143 232.315C97.7905 231.891 98.5627 231.679 99.4311 231.679C100.114 231.679 100.742 231.812 101.315 232.077C101.889 232.339 102.369 232.718 102.757 233.215C103.145 233.709 103.402 234.304 103.528 235ZM114.111 236.909C114.111 237.983 113.917 238.911 113.529 239.693C113.142 240.475 112.61 241.079 111.933 241.503C111.257 241.927 110.485 242.139 109.617 242.139C108.748 242.139 107.976 241.927 107.3 241.503C106.624 241.079 106.092 240.475 105.704 239.693C105.316 238.911 105.122 237.983 105.122 236.909C105.122 235.835 105.316 234.907 105.704 234.125C106.092 233.343 106.624 232.74 107.3 232.315C107.976 231.891 108.748 231.679 109.617 231.679C110.485 231.679 111.257 231.891 111.933 232.315C112.61 232.74 113.142 233.343 113.529 234.125C113.917 234.907 114.111 235.835 114.111 236.909ZM112.918 236.909C112.918 236.027 112.77 235.283 112.475 234.677C112.184 234.07 111.788 233.611 111.287 233.3C110.79 232.988 110.233 232.832 109.617 232.832C109 232.832 108.442 232.988 107.941 233.3C107.444 233.611 107.048 234.07 106.753 234.677C106.461 235.283 106.316 236.027 106.316 236.909C106.316 237.791 106.461 238.535 106.753 239.141C107.048 239.748 107.444 240.207 107.941 240.518C108.442 240.83 109 240.986 109.617 240.986C110.233 240.986 110.79 240.83 111.287 240.518C111.788 240.207 112.184 239.748 112.475 239.141C112.77 238.535 112.918 237.791 112.918 236.909ZM124.775 236.909C124.775 237.983 124.581 238.911 124.193 239.693C123.806 240.475 123.274 241.079 122.597 241.503C121.921 241.927 121.149 242.139 120.281 242.139C119.412 242.139 118.64 241.927 117.964 241.503C117.288 241.079 116.756 240.475 116.368 239.693C115.98 238.911 115.786 237.983 115.786 236.909C115.786 235.835 115.98 234.907 116.368 234.125C116.756 233.343 117.288 232.74 117.964 232.315C118.64 231.891 119.412 231.679 120.281 231.679C121.149 231.679 121.921 231.891 122.597 232.315C123.274 232.74 123.806 233.343 124.193 234.125C124.581 234.907 124.775 235.835 124.775 236.909ZM123.582 236.909C123.582 236.027 123.434 235.283 123.139 234.677C122.848 234.07 122.452 233.611 121.951 233.3C121.454 232.988 120.897 232.832 120.281 232.832C119.664 232.832 119.106 232.988 118.605 233.3C118.108 233.611 117.712 234.07 117.417 234.677C117.125 235.283 116.98 236.027 116.98 236.909C116.98 237.791 117.125 238.535 117.417 239.141C117.712 239.748 118.108 240.207 118.605 240.518C119.106 240.83 119.664 240.986 120.281 240.986C120.897 240.986 121.454 240.83 121.951 240.518C122.452 240.207 122.848 239.748 123.139 239.141C123.434 238.535 123.582 237.791 123.582 236.909ZM126.848 242V231.818H132.993V232.912H128.081V236.094H130.666C131.76 236.094 132.597 236.357 133.177 236.884C133.757 237.408 134.047 238.112 134.047 238.997C134.047 239.882 133.757 240.605 133.177 241.165C132.597 241.722 131.76 242 130.666 242H126.848ZM128.081 240.926H130.666C131.13 240.926 131.523 240.833 131.845 240.648C132.169 240.459 132.415 240.217 132.58 239.922C132.749 239.624 132.834 239.309 132.834 238.977C132.834 238.49 132.647 238.071 132.272 237.719C131.898 237.365 131.362 237.188 130.666 237.188H128.081V240.926ZM147.929 240.906L147.79 244.406H146.577V242H136.077V231.818H137.31V240.866H140.889V231.818H142.122V240.866H145.702V231.818H146.935V240.906H147.929ZM149.803 242V231.818H155.948V232.912H151.036V236.352H155.63V237.446H151.036V240.906H156.028V242H149.803ZM158.17 242V231.818H159.403V236.352H164.832V231.818H166.065V242H164.832V237.446H159.403V242H158.17ZM168.534 231.818V242H169.727L175.275 234.006H175.375V242H176.608V231.818H175.414L169.846 239.832H169.747V231.818H168.534ZM179.075 242V231.818H185.22V232.912H180.308V236.352H184.901V237.446H180.308V240.906H185.299V242H179.075Z" fill="white"/>
<path d="M192.278 449.355H33.7836C15.9544 449.355 1.5 434.9 1.5 417.071V33.7836C1.5 15.9532 15.9544 1.5 33.7836 1.5H192.278C210.107 1.5 224.561 15.9532 224.561 33.7836V417.071C224.561 434.9 210.107 449.355 192.278 449.355Z" stroke="white" stroke-width="3"/>
<path d="M135.909 22.3316H90.8167C89.9433 22.3316 89.2344 21.6226 89.2344 20.7493C89.2344 19.876 89.9433 19.167 90.8167 19.167H135.909C136.782 19.167 137.49 19.876 137.49 20.7493C137.49 21.6226 136.782 22.3316 135.909 22.3316Z" fill="white"/>
<path d="M181.347 42.8975C181.738 42.8975 182.055 43.213 182.055 43.6028C182.055 43.9951 181.738 44.3118 181.347 44.3118C180.957 44.3118 180.641 43.9951 180.641 43.6028C180.641 43.213 180.957 42.8975 181.347 42.8975Z" fill="white"/>
<path d="M183.113 41.8906L183.082 41.8594L183.048 41.8306L183.031 41.815C182.116 40.9837 180.716 41.0173 179.843 41.8906L179.74 41.9925L179.597 42.1341C179.425 42.3068 179.426 42.5888 179.598 42.7615C179.772 42.9354 180.053 42.9366 180.225 42.7627L180.471 42.518C181.027 41.9638 181.93 41.9638 182.484 42.518L182.659 42.6895C182.833 42.8599 183.11 42.8599 183.283 42.6883C183.366 42.6056 183.412 42.494 183.412 42.3776C183.412 42.2589 183.366 42.1485 183.286 42.0669L183.113 41.8906Z" fill="white"/>
<path d="M184.235 41.0198L184.09 40.8722L184.087 40.871L183.971 40.7535L183.906 40.7007C182.414 39.3919 180.145 39.4315 178.702 40.8206L178.68 40.8386L178.414 41.1037C178.257 41.2621 178.259 41.5176 178.415 41.676C178.573 41.8343 178.83 41.8343 178.987 41.6772L179.253 41.4121L179.258 41.4061C180.425 40.2784 182.278 40.2712 183.454 41.3833L183.663 41.592C183.822 41.7491 184.078 41.7491 184.234 41.5908C184.393 41.4325 184.394 41.1769 184.235 41.0198Z" fill="white"/>
<path d="M12.7683 44.6902C12.7683 44.7742 12.8391 44.845 12.9231 44.845C13.0142 44.845 13.079 44.7742 13.079 44.6902V40.5276C13.085 40.488 13.079 40.4496 13.0598 40.41C13.0202 40.3392 12.9171 40.3128 12.8451 40.3524L11.9718 40.8827C11.8938 40.9222 11.8674 41.0122 11.913 41.0962C11.9394 41.1418 11.9909 41.1742 12.0497 41.1742C12.0749 41.1742 12.1073 41.161 12.1265 41.149L12.7683 40.7735V44.6902Z" fill="white"/>
<path d="M14.6686 44.18C14.9469 44.5878 15.3416 44.8661 15.8011 44.8661C16.2605 44.8661 16.6564 44.5878 16.9347 44.18C17.2058 43.7661 17.375 43.2095 17.375 42.6001C17.375 41.9919 17.2058 41.4352 16.9347 41.0142C16.6564 40.6135 16.2605 40.334 15.8011 40.334C15.3416 40.334 14.9469 40.6135 14.6686 41.0142C14.3891 41.4352 14.2344 41.9919 14.2344 42.6001C14.2344 43.2095 14.3891 43.7661 14.6686 44.18ZM14.9337 41.1953C15.1665 40.839 15.4772 40.6519 15.8011 40.6519C16.125 40.6519 16.4297 40.839 16.6684 41.1953C16.9023 41.5456 17.0571 42.0434 17.0571 42.6001C17.0571 43.1579 16.9023 43.6557 16.6684 44.006C16.4297 44.3491 16.125 44.5494 15.8011 44.5494C15.4772 44.5494 15.1665 44.3491 14.9337 44.006C14.701 43.6557 14.5511 43.1579 14.5511 42.6001C14.5511 42.0434 14.701 41.5456 14.9337 41.1953Z" fill="white"/>
<path d="M18.9219 44.5493C18.9219 44.7304 19.0634 44.872 19.2458 44.872C19.4269 44.872 19.5685 44.7304 19.5685 44.5493C19.5685 44.3682 19.4269 44.2254 19.2458 44.2254C19.0634 44.2254 18.9219 44.3682 18.9219 44.5493ZM18.9219 41.8298C18.9219 42.0109 19.0634 42.1537 19.2458 42.1537C19.4269 42.1537 19.5685 42.0109 19.5685 41.8298C19.5685 41.6486 19.4269 41.5059 19.2458 41.5059C19.0634 41.5059 18.9219 41.6486 18.9219 41.8298Z" fill="white"/>
<path d="M22.7455 40.5679C22.7587 40.5487 22.7647 40.5223 22.7647 40.4959C22.7647 40.406 22.6939 40.334 22.6028 40.334H20.4854C20.3955 40.334 20.3235 40.406 20.3235 40.4959C20.3235 40.5871 20.3955 40.6579 20.4854 40.6579H22.2213L21.0948 41.8167C21.0301 41.8815 21.0301 41.9859 21.0948 42.0506H21.1008C21.1332 42.089 21.1788 42.1154 21.2304 42.1154C21.5411 42.1154 21.8518 42.2318 22.0845 42.4717C22.3244 42.7044 22.4408 43.0151 22.4408 43.3258C22.4408 43.6365 22.3244 43.9472 22.0845 44.1872C21.8458 44.4199 21.5351 44.5362 21.2244 44.5362C20.9137 44.5362 20.609 44.4199 20.3691 44.1872C20.3043 44.1224 20.2011 44.1224 20.1423 44.1872C20.0776 44.2519 20.0776 44.3551 20.1423 44.4139C20.441 44.7174 20.8357 44.8661 21.2244 44.8661C21.6191 44.8661 22.0137 44.7114 22.3112 44.4139C22.6159 44.1152 22.7647 43.7205 22.7647 43.3258C22.7647 42.9312 22.616 42.5353 22.3185 42.2378C22.0977 42.0182 21.8266 41.8815 21.5411 41.8239L22.7131 40.6195C22.7263 40.6063 22.7395 40.5871 22.7455 40.5679Z" fill="white"/>
<path d="M25.2155 44.18C25.4938 44.5878 25.8885 44.8661 26.348 44.8661C26.8074 44.8661 27.2021 44.5878 27.4816 44.18C27.7527 43.7661 27.9218 43.2095 27.9218 42.6001C27.9218 41.9919 27.7527 41.4352 27.4816 41.0142C27.2021 40.6135 26.8074 40.334 26.348 40.334C25.8885 40.334 25.4938 40.6135 25.2155 41.0142C24.936 41.4352 24.7812 41.9919 24.7812 42.6001C24.7812 43.2095 24.936 43.7661 25.2155 44.18ZM25.4806 41.1953C25.7133 40.839 26.0241 40.6519 26.348 40.6519C26.6718 40.6519 26.9765 40.839 27.2153 41.1953C27.4492 41.5456 27.6039 42.0434 27.6039 42.6001C27.6039 43.1579 27.4492 43.6557 27.2153 44.006C26.9765 44.3491 26.6718 44.5494 26.348 44.5494C26.0241 44.5494 25.7133 44.3491 25.4806 44.006C25.2479 43.6557 25.0979 43.1579 25.0979 42.6001C25.0979 42.0434 25.2479 41.5456 25.4806 41.1953Z" fill="white"/>
<path d="M33.8169 44.7426C33.8433 44.8074 33.9081 44.8457 33.9669 44.8457C33.9861 44.8457 33.9981 44.8398 34.0245 44.8398C34.1025 44.8074 34.1408 44.7102 34.1085 44.6322L32.5358 40.4312C32.5166 40.3724 32.4518 40.334 32.3798 40.334C32.315 40.334 32.2502 40.3724 32.2251 40.4312L30.6512 44.6322C30.6188 44.7102 30.6644 44.8074 30.7423 44.8398C30.7615 44.8398 30.7867 44.8457 30.7999 44.8457C30.8647 44.8457 30.9235 44.8074 30.9487 44.7426L31.3505 43.6749H33.4163L33.8169 44.7426ZM32.387 40.923L33.2999 43.357H31.4669L32.387 40.923Z" fill="white"/>
<path d="M38.8238 44.6923C38.8238 44.7763 38.8886 44.8471 38.9798 44.8471C39.0637 44.8471 39.1357 44.7763 39.1357 44.6923V40.4973C39.1357 40.4709 39.1225 40.4385 39.1093 40.4121C39.0961 40.3929 39.0829 40.3797 39.0637 40.3605C38.9929 40.3149 38.8886 40.3281 38.8442 40.4001L37.2379 42.6338L35.6256 40.4001C35.574 40.3281 35.4769 40.3149 35.4061 40.3605C35.3989 40.3677 35.3929 40.3677 35.3929 40.3737C35.3545 40.4001 35.3281 40.4445 35.3281 40.4973V44.6923C35.3281 44.7763 35.3989 44.8471 35.4901 44.8471C35.574 44.8471 35.6448 44.7763 35.6448 44.6923V40.9699L37.0952 42.9769C37.1276 43.0285 37.1731 43.0476 37.2319 43.0476H37.2451C37.2895 43.0476 37.3411 43.0285 37.3735 42.9769L38.8238 40.9627V44.6923Z" fill="white"/>
<path d="M189.346 40.8567C189.346 41.1566 189.488 41.4145 189.701 41.5801C189.2 41.7876 188.844 42.2902 188.844 42.866C188.844 43.6386 189.469 44.2576 190.235 44.2576C191.007 44.2576 191.626 43.6386 191.626 42.866C191.626 42.2902 191.271 41.7876 190.762 41.5801C190.983 41.4145 191.13 41.1566 191.13 40.8567C191.13 40.366 190.725 39.9678 190.235 39.9678C189.739 39.9678 189.346 40.366 189.346 40.8567ZM189.139 42.866C189.139 42.2662 189.628 41.7696 190.235 41.7696C190.848 41.7696 191.332 42.2662 191.332 42.866C191.332 43.473 190.848 43.9637 190.235 43.9637C189.628 43.9637 189.139 43.473 189.139 42.866ZM189.64 40.8567C189.64 40.5256 189.904 40.2629 190.235 40.2629C190.566 40.2629 190.835 40.5256 190.835 40.8567C190.835 41.1878 190.566 41.4577 190.235 41.4637C189.904 41.4577 189.64 41.1878 189.64 40.8567Z" fill="white"/>
<path d="M193.435 44.2576C193.802 44.2576 194.182 44.11 194.464 43.8341C194.752 43.5522 194.886 43.1731 194.886 42.8049C194.886 42.4258 194.752 42.0575 194.464 41.7756C194.182 41.4877 193.814 41.3533 193.44 41.3533C193.183 41.3533 192.932 41.4205 192.711 41.5489L192.865 40.2749H194.734C194.819 40.2749 194.886 40.2137 194.886 40.1213C194.886 40.0361 194.819 39.9678 194.734 39.9678H192.736C192.699 39.9678 192.662 39.981 192.638 40.005C192.601 40.0302 192.577 40.0661 192.577 40.1153L192.368 41.8428C192.368 41.856 192.362 41.868 192.362 41.874C192.362 41.892 192.362 41.9111 192.368 41.9231C192.368 41.9291 192.368 41.9351 192.374 41.9411V41.9471C192.38 41.9651 192.393 41.9843 192.411 41.9963C192.466 42.0575 192.565 42.0575 192.626 41.9963C192.853 41.7696 193.141 41.6592 193.44 41.6592C193.734 41.6592 194.028 41.7696 194.249 41.9903C194.47 42.2111 194.58 42.505 194.58 42.8049C194.58 43.0988 194.47 43.3867 194.243 43.6134C194.016 43.8401 193.728 43.9505 193.435 43.9505C193.141 43.9505 192.853 43.8401 192.626 43.6194C192.565 43.5582 192.466 43.5582 192.405 43.6194C192.344 43.6746 192.344 43.773 192.405 43.8341C192.687 44.116 193.06 44.2576 193.435 44.2576Z" fill="white"/>
<path d="M196.813 42.0874C197.383 42.0874 197.762 41.5668 197.762 40.991V40.979C197.762 40.4152 197.389 39.8945 196.825 39.8945C196.255 39.8945 195.875 40.4152 195.875 40.991V41.003C195.875 41.5728 196.249 42.0874 196.813 42.0874ZM196.433 44.128C196.433 44.2012 196.494 44.2563 196.567 44.2563C196.616 44.2563 196.654 44.2323 196.684 44.1891L199.668 40.1273C199.686 40.1021 199.692 40.0781 199.692 40.0469C199.692 39.9737 199.631 39.9185 199.558 39.9185C199.509 39.9185 199.471 39.9425 199.441 39.9857L196.457 44.0476C196.439 44.0728 196.433 44.0968 196.433 44.128ZM199.3 44.2815C199.87 44.2815 200.25 43.7597 200.25 43.1839V43.1719C200.25 42.6081 199.876 42.0874 199.312 42.0874C198.742 42.0874 198.363 42.6081 198.363 43.1839V43.1971C198.363 43.7669 198.736 44.2815 199.3 44.2815ZM196.825 41.8235C196.482 41.8235 196.194 41.4744 196.194 40.991V40.979C196.194 40.5315 196.451 40.1572 196.813 40.1572C197.156 40.1572 197.444 40.5123 197.444 40.991V41.003C197.444 41.4624 197.186 41.8235 196.825 41.8235ZM199.312 44.0176C198.969 44.0176 198.681 43.6685 198.681 43.1839V43.1719C198.681 42.7244 198.939 42.3513 199.3 42.3513C199.643 42.3513 199.931 42.7064 199.931 43.1839V43.1971C199.931 43.6565 199.674 44.0176 199.312 44.0176Z" fill="white"/>
<path d="M206.012 40.5254L213.012 40.5122L213.018 44.0127L206.017 44.0199L206.012 40.5254ZM215.261 40.1091L205.637 40.1247L205.642 44.4254L215.267 44.4098L215.261 40.1091ZM205.814 44.784C205.506 44.7852 205.257 44.5561 205.257 44.2742L205.25 40.2747C205.25 39.9952 205.501 39.7648 205.803 39.7636L215.09 39.748C215.394 39.7492 215.643 39.9772 215.647 40.2579L215.646 41.0844L216.362 41.0808L216.368 43.4381L215.651 43.4417L215.653 44.2598C215.653 44.5405 215.404 44.7684 215.098 44.7684L205.814 44.784Z" fill="#F9F9F8"/>
<path d="M130.083 22.3316H90.8167C89.9433 22.3316 89.2344 21.6226 89.2344 20.7493C89.2344 19.876 89.9433 19.167 90.8167 19.167H131.091L130.083 22.3316Z" fill="white"/>
<path d="M12.7683 44.6902C12.7683 44.7742 12.8391 44.845 12.9231 44.845C13.0142 44.845 13.079 44.7742 13.079 44.6902V40.5276C13.085 40.488 13.079 40.4496 13.0598 40.41C13.0202 40.3392 12.9171 40.3128 12.8451 40.3524L11.9718 40.8827C11.8938 40.9222 11.8674 41.0122 11.913 41.0962C11.9394 41.1418 11.9909 41.1742 12.0497 41.1742C12.0749 41.1742 12.1073 41.161 12.1265 41.149L12.7683 40.7735V44.6902Z" fill="white"/>
<path d="M14.6686 44.18C14.9469 44.5878 15.3416 44.8661 15.8011 44.8661C16.2605 44.8661 16.6564 44.5878 16.9347 44.18C17.2058 43.7661 17.375 43.2095 17.375 42.6001C17.375 41.9919 17.2058 41.4352 16.9347 41.0142C16.6564 40.6135 16.2605 40.334 15.8011 40.334C15.3416 40.334 14.9469 40.6135 14.6686 41.0142C14.3891 41.4352 14.2344 41.9919 14.2344 42.6001C14.2344 43.2095 14.3891 43.7661 14.6686 44.18ZM14.9337 41.1953C15.1665 40.839 15.4772 40.6519 15.8011 40.6519C16.125 40.6519 16.4297 40.839 16.6684 41.1953C16.9023 41.5456 17.0571 42.0434 17.0571 42.6001C17.0571 43.1579 16.9023 43.6557 16.6684 44.006C16.4297 44.3491 16.125 44.5494 15.8011 44.5494C15.4772 44.5494 15.1665 44.3491 14.9337 44.006C14.701 43.6557 14.5511 43.1579 14.5511 42.6001C14.5511 42.0434 14.701 41.5456 14.9337 41.1953Z" fill="white"/>
<path d="M18.9219 44.5493C18.9219 44.7304 19.0634 44.872 19.2458 44.872C19.4269 44.872 19.5685 44.7304 19.5685 44.5493C19.5685 44.3682 19.4269 44.2254 19.2458 44.2254C19.0634 44.2254 18.9219 44.3682 18.9219 44.5493ZM18.9219 41.8298C18.9219 42.0109 19.0634 42.1537 19.2458 42.1537C19.4269 42.1537 19.5685 42.0109 19.5685 41.8298C19.5685 41.6486 19.4269 41.5059 19.2458 41.5059C19.0634 41.5059 18.9219 41.6486 18.9219 41.8298Z" fill="white"/>
<path d="M22.7455 40.5679C22.7587 40.5487 22.7647 40.5223 22.7647 40.4959C22.7647 40.406 22.6939 40.334 22.6028 40.334H20.4854C20.3955 40.334 20.3235 40.406 20.3235 40.4959C20.3235 40.5871 20.3955 40.6579 20.4854 40.6579H22.2213L21.0948 41.8167C21.0301 41.8815 21.0301 41.9859 21.0948 42.0506H21.1008C21.1332 42.089 21.1788 42.1154 21.2304 42.1154C21.5411 42.1154 21.8518 42.2318 22.0845 42.4717C22.3244 42.7044 22.4408 43.0151 22.4408 43.3258C22.4408 43.6365 22.3244 43.9472 22.0845 44.1872C21.8458 44.4199 21.5351 44.5362 21.2244 44.5362C20.9137 44.5362 20.609 44.4199 20.3691 44.1872C20.3043 44.1224 20.2011 44.1224 20.1423 44.1872C20.0776 44.2519 20.0776 44.3551 20.1423 44.4139C20.441 44.7174 20.8357 44.8661 21.2244 44.8661C21.6191 44.8661 22.0137 44.7114 22.3112 44.4139C22.6159 44.1152 22.7647 43.7205 22.7647 43.3258C22.7647 42.9312 22.616 42.5353 22.3185 42.2378C22.0977 42.0182 21.8266 41.8815 21.5411 41.8239L22.7131 40.6195C22.7263 40.6063 22.7395 40.5871 22.7455 40.5679Z" fill="white"/>
<path d="M25.2155 44.18C25.4938 44.5878 25.8885 44.8661 26.348 44.8661C26.8074 44.8661 27.2021 44.5878 27.4816 44.18C27.7527 43.7661 27.9218 43.2095 27.9218 42.6001C27.9218 41.9919 27.7527 41.4352 27.4816 41.0142C27.2021 40.6135 26.8074 40.334 26.348 40.334C25.8885 40.334 25.4938 40.6135 25.2155 41.0142C24.936 41.4352 24.7812 41.9919 24.7812 42.6001C24.7812 43.2095 24.936 43.7661 25.2155 44.18ZM25.4806 41.1953C25.7133 40.839 26.0241 40.6519 26.348 40.6519C26.6718 40.6519 26.9765 40.839 27.2153 41.1953C27.4492 41.5456 27.6039 42.0434 27.6039 42.6001C27.6039 43.1579 27.4492 43.6557 27.2153 44.006C26.9765 44.3491 26.6718 44.5494 26.348 44.5494C26.0241 44.5494 25.7133 44.3491 25.4806 44.006C25.2479 43.6557 25.0979 43.1579 25.0979 42.6001C25.0979 42.0434 25.2479 41.5456 25.4806 41.1953Z" fill="white"/>
<path d="M33.8169 44.7426C33.8433 44.8074 33.9081 44.8457 33.9669 44.8457C33.9861 44.8457 33.9981 44.8398 34.0245 44.8398C34.1025 44.8074 34.1408 44.7102 34.1085 44.6322L32.5358 40.4312C32.5166 40.3724 32.4518 40.334 32.3798 40.334C32.315 40.334 32.2502 40.3724 32.2251 40.4312L30.6512 44.6322C30.6188 44.7102 30.6644 44.8074 30.7423 44.8398C30.7615 44.8398 30.7867 44.8457 30.7999 44.8457C30.8647 44.8457 30.9235 44.8074 30.9487 44.7426L31.3505 43.6749H33.4163L33.8169 44.7426ZM32.387 40.923L33.2999 43.357H31.4669L32.387 40.923Z" fill="white"/>
<path d="M38.8238 44.6923C38.8238 44.7763 38.8886 44.8471 38.9798 44.8471C39.0637 44.8471 39.1357 44.7763 39.1357 44.6923V40.4973C39.1357 40.4709 39.1225 40.4385 39.1093 40.4121C39.0961 40.3929 39.0829 40.3797 39.0637 40.3605C38.9929 40.3149 38.8886 40.3281 38.8442 40.4001L37.2379 42.6338L35.6256 40.4001C35.574 40.3281 35.4769 40.3149 35.4061 40.3605C35.3989 40.3677 35.3929 40.3677 35.3929 40.3737C35.3545 40.4001 35.3281 40.4445 35.3281 40.4973V44.6923C35.3281 44.7763 35.3989 44.8471 35.4901 44.8471C35.574 44.8471 35.6448 44.7763 35.6448 44.6923V40.9699L37.0952 42.9769C37.1276 43.0285 37.1731 43.0476 37.2319 43.0476H37.2451C37.2895 43.0476 37.3411 43.0285 37.3735 42.9769L38.8238 40.9627V44.6923Z" fill="white"/>
<rect x="14.5" y="62.5" width="197" height="347" rx="1.5" stroke="white"/>
<path d="M139.018 148.919H87.9824C84.1323 148.919 81 152.052 81 155.902V189.417C81 193.267 84.1323 196.4 87.9824 196.4H104.425C104.625 196.4 104.816 196.496 104.935 196.658L110.934 204.791C111.535 205.606 112.461 206.076 113.474 206.081H113.489C114.496 206.081 115.42 205.62 116.025 204.814L122.16 196.653C122.28 196.494 122.469 196.4 122.668 196.4H139.018C142.868 196.4 146 193.267 146 189.417V155.902C146 152.051 142.868 148.919 139.018 148.919ZM142.191 189.417C142.191 189.717 142.149 190.007 142.071 190.282L122.507 173.132L142.191 156.796V189.417ZM139.018 152.728C139.598 152.728 140.142 152.885 140.611 153.159L115.532 173.971C114.358 174.946 112.653 174.946 111.479 173.971L86.3954 153.155C86.8626 152.884 87.4045 152.728 87.9824 152.728H139.018ZM84.9293 190.282C84.8512 190.007 84.8086 189.717 84.8086 189.417V156.787L104.499 173.128L84.9293 190.282ZM119.116 194.364L113.493 201.844L108 194.397C107.167 193.266 105.83 192.591 104.425 192.591H88.0729L107.467 175.591L109.046 176.902C110.338 177.974 111.921 178.51 113.505 178.51C115.089 178.51 116.673 177.973 117.964 176.902L119.538 175.595L138.927 192.591H122.668C121.279 192.591 119.951 193.254 119.116 194.364Z" fill="white"/>
</g>
</svg>
