<svg width="476" height="394" viewBox="0 0 476 394" fill="none" xmlns="http://www.w3.org/2000/svg">
<g opacity="0.1">
<path fill-rule="evenodd" clip-rule="evenodd" d="M169.145 17.4638L310.081 59.745C314.534 61.0804 317.582 65.1787 317.582 69.8272V224.858C317.582 245.023 309.419 265.664 293.32 286.209C281.023 301.901 264.013 317.657 242.76 333.042C207.056 358.887 171.9 374.741 170.421 375.403C169.052 376.016 167.586 376.322 166.12 376.322C164.653 376.322 163.187 376.015 161.819 375.403C160.339 374.741 125.182 358.887 89.4789 333.042C68.2253 317.657 51.2146 301.901 38.9183 286.209C22.8191 265.664 14.6562 245.022 14.6562 224.858V69.8272C14.6562 65.1787 17.7054 61.0804 22.1581 59.745L163.096 17.4638C165.069 16.8715 167.174 16.8715 169.145 17.4638ZM168.993 23.7067L305.12 64.545C309.42 65.8349 312.365 69.7933 312.364 74.2831V224.023C312.364 243.5 304.48 263.437 288.93 283.281C277.053 298.437 260.623 313.656 240.096 328.515C205.61 353.478 171.654 368.791 170.225 369.43C168.903 370.023 167.487 370.318 166.071 370.318C164.654 370.318 163.238 370.022 161.917 369.43C160.488 368.791 126.531 353.478 92.0455 328.515C71.5173 313.656 55.0871 298.437 43.2104 283.281C27.6607 263.436 19.7764 243.499 19.7764 224.023V74.2831C19.7764 69.7933 22.7215 65.8349 27.0222 64.545L163.15 23.7067C165.056 23.1347 167.089 23.1347 168.993 23.7067Z" fill="white"/>
<path fill-rule="evenodd" clip-rule="evenodd" d="M169.256 0.486678L323.664 46.8095C328.543 48.2726 331.883 52.7626 331.882 57.8554V227.705C331.882 249.798 322.939 272.413 305.301 294.921C291.829 312.113 273.192 329.375 249.908 346.231C210.791 374.546 172.275 391.915 170.654 392.64C169.155 393.312 167.548 393.648 165.942 393.648C164.335 393.648 162.729 393.312 161.229 392.64C159.609 391.915 121.091 374.546 81.9748 346.231C58.6896 329.375 40.0529 312.113 26.5812 294.921C8.94318 272.412 0 249.797 0 227.705V57.8554C0 52.7626 3.34062 48.2726 8.21893 46.8095L162.629 0.486678C164.791 -0.162226 167.096 -0.162226 169.256 0.486678ZM169.089 7.32639L318.227 52.0683C322.939 53.4815 326.165 57.8183 326.164 62.7373V226.791C326.164 248.129 317.526 269.972 300.49 291.713C287.478 308.317 269.478 324.991 246.988 341.271C209.206 368.62 172.004 385.397 170.439 386.097C168.99 386.746 167.438 387.07 165.887 387.07C164.335 387.07 162.784 386.745 161.336 386.097C159.77 385.397 122.567 368.62 84.7858 341.271C62.2953 324.991 44.2945 308.317 31.2826 291.713C14.2465 269.972 5.60852 248.129 5.60852 226.791V62.7373C5.60852 57.8183 8.83514 53.4815 13.547 52.0683L162.687 7.32639C164.775 6.69963 167.003 6.69963 169.089 7.32639Z" fill="white"/>
<path fill-rule="evenodd" clip-rule="evenodd" d="M168.57 47.6458L285.687 82.781C289.387 83.8908 291.92 87.2964 291.92 91.1592V219.988C291.92 236.745 285.136 253.898 271.758 270.971C261.54 284.01 247.404 297.104 229.743 309.888C200.074 331.365 170.86 344.54 169.63 345.089C168.493 345.599 167.274 345.853 166.056 345.853C164.837 345.853 163.619 345.599 162.482 345.089C161.253 344.54 132.038 331.365 102.368 309.888C84.7068 297.104 70.571 284.01 60.3529 270.971C46.9747 253.898 40.1914 236.745 40.1914 219.988V91.1592C40.1914 87.2964 42.7252 83.8908 46.4254 82.781L163.543 47.6458C165.183 47.1536 166.932 47.1536 168.57 47.6458ZM168.441 52.8336L281.561 86.7698C285.135 87.8417 287.582 91.1311 287.581 94.8621V219.294C287.581 235.48 281.029 252.047 268.107 268.537C258.238 281.132 244.585 293.778 227.527 306.127C198.87 326.87 170.652 339.595 169.465 340.127C168.367 340.619 167.189 340.864 166.013 340.864C164.836 340.864 163.659 340.618 162.561 340.127C161.373 339.595 133.155 326.87 104.498 306.127C87.4396 293.778 73.7862 281.132 63.9168 268.537C50.9952 252.047 44.4434 235.479 44.4434 219.294V94.8621C44.4434 91.1311 46.8907 87.8417 50.4646 86.7698L163.586 52.8336C165.17 52.3582 166.859 52.3582 168.441 52.8336Z" fill="white"/>
<path fill-rule="evenodd" clip-rule="evenodd" d="M168.205 64.6235L272.053 95.7781C275.334 96.7621 277.58 99.7819 277.579 103.207V217.44C277.579 232.299 271.565 247.508 259.702 262.646C250.642 274.209 238.107 285.819 222.447 297.155C196.14 316.198 170.235 327.88 169.145 328.368C168.137 328.82 167.056 329.045 165.976 329.045C164.895 329.045 163.815 328.819 162.807 328.368C161.716 327.88 135.811 316.198 109.504 297.155C93.843 285.819 81.3088 274.209 72.2484 262.646C60.3859 247.508 54.3711 232.298 54.3711 217.44V103.207C54.3711 99.7819 56.6178 96.7621 59.8988 95.7781L163.748 64.6235C165.202 64.1871 166.752 64.1871 168.205 64.6235ZM168.098 69.2235L268.401 99.3148C271.57 100.265 273.74 103.182 273.739 106.49V216.825C273.739 231.176 267.93 245.867 256.472 260.489C247.721 271.656 235.615 282.87 220.489 293.819C195.079 312.213 170.058 323.496 169.006 323.967C168.032 324.404 166.988 324.621 165.945 324.621C164.901 324.621 163.857 324.403 162.883 323.967C161.831 323.496 136.81 312.213 111.4 293.819C96.2734 282.87 84.167 271.656 75.4157 260.489C63.9581 245.866 58.1486 231.176 58.1486 216.825V106.49C58.1486 103.182 60.3186 100.265 63.4876 99.3148L163.792 69.2235C165.197 68.8019 166.695 68.8019 168.098 69.2235Z" fill="white"/>
</g>
<path fill-rule="evenodd" clip-rule="evenodd" d="M313.145 17.4638L454.081 59.745C458.534 61.0804 461.582 65.1787 461.582 69.8272V224.858C461.582 245.023 453.419 265.664 437.32 286.209C425.023 301.901 408.013 317.657 386.76 333.042C351.056 358.887 315.9 374.741 314.421 375.403C313.052 376.016 311.586 376.322 310.12 376.322C308.653 376.322 307.187 376.015 305.819 375.403C304.339 374.741 269.182 358.887 233.479 333.042C212.225 317.657 195.215 301.901 182.918 286.209C166.819 265.664 158.656 245.022 158.656 224.858V69.8272C158.656 65.1787 161.705 61.0804 166.158 59.745L307.096 17.4638C309.069 16.8715 311.174 16.8715 313.145 17.4638ZM312.993 23.7067L449.12 64.545C453.42 65.8349 456.365 69.7933 456.364 74.2831V224.023C456.364 243.5 448.48 263.437 432.93 283.281C421.053 298.437 404.623 313.656 384.096 328.515C349.61 353.478 315.654 368.791 314.225 369.43C312.903 370.023 311.487 370.318 310.071 370.318C308.654 370.318 307.238 370.022 305.917 369.43C304.488 368.791 270.531 353.478 236.046 328.515C215.517 313.656 199.087 298.437 187.21 283.281C171.661 263.436 163.776 243.499 163.776 224.023V74.2831C163.776 69.7933 166.721 65.8349 171.022 64.545L307.15 23.7067C309.056 23.1347 311.089 23.1347 312.993 23.7067Z" fill="white"/>
<path fill-rule="evenodd" clip-rule="evenodd" d="M313.256 0.486678L467.664 46.8095C472.543 48.2726 475.883 52.7626 475.882 57.8554V227.705C475.882 249.798 466.939 272.413 449.301 294.921C435.829 312.113 417.192 329.375 393.908 346.231C354.791 374.546 316.275 391.915 314.654 392.64C313.155 393.312 311.548 393.648 309.942 393.648C308.335 393.648 306.729 393.312 305.229 392.64C303.609 391.915 265.091 374.546 225.975 346.231C202.69 329.375 184.053 312.113 170.581 294.921C152.943 272.412 144 249.797 144 227.705V57.8554C144 52.7626 147.341 48.2726 152.219 46.8095L306.629 0.486678C308.791 -0.162226 311.096 -0.162226 313.256 0.486678ZM313.089 7.32639L462.227 52.0683C466.939 53.4815 470.165 57.8183 470.164 62.7373V226.791C470.164 248.129 461.526 269.972 444.49 291.713C431.478 308.317 413.478 324.991 390.988 341.271C353.206 368.62 316.004 385.397 314.439 386.097C312.99 386.746 311.438 387.07 309.887 387.07C308.335 387.07 306.784 386.745 305.336 386.097C303.77 385.397 266.567 368.62 228.786 341.271C206.295 324.991 188.295 308.317 175.283 291.713C158.246 269.972 149.609 248.129 149.609 226.791V62.7373C149.609 57.8183 152.835 53.4815 157.547 52.0683L306.687 7.32639C308.775 6.69963 311.003 6.69963 313.089 7.32639Z" fill="white"/>
<path fill-rule="evenodd" clip-rule="evenodd" d="M312.57 47.6458L429.687 82.781C433.387 83.8908 435.92 87.2964 435.92 91.1592V219.988C435.92 236.745 429.136 253.898 415.758 270.971C405.54 284.01 391.404 297.104 373.743 309.888C344.074 331.365 314.86 344.54 313.63 345.089C312.493 345.599 311.274 345.853 310.056 345.853C308.837 345.853 307.619 345.599 306.482 345.089C305.253 344.54 276.038 331.365 246.368 309.888C228.707 297.104 214.571 284.01 204.353 270.971C190.975 253.898 184.191 236.745 184.191 219.988V91.1592C184.191 87.2964 186.725 83.8908 190.425 82.781L307.543 47.6458C309.183 47.1536 310.932 47.1536 312.57 47.6458ZM312.441 52.8336L425.561 86.7698C429.135 87.8417 431.582 91.1311 431.581 94.8621V219.294C431.581 235.48 425.029 252.047 412.107 268.537C402.238 281.132 388.585 293.778 371.527 306.127C342.87 326.87 314.652 339.595 313.465 340.127C312.367 340.619 311.189 340.864 310.013 340.864C308.836 340.864 307.659 340.618 306.561 340.127C305.373 339.595 277.155 326.87 248.498 306.127C231.44 293.778 217.786 281.132 207.917 268.537C194.995 252.047 188.443 235.479 188.443 219.294V94.8621C188.443 91.1311 190.891 87.8417 194.465 86.7698L307.586 52.8336C309.17 52.3582 310.859 52.3582 312.441 52.8336Z" fill="white"/>
<path fill-rule="evenodd" clip-rule="evenodd" d="M312.205 64.6235L416.053 95.7781C419.334 96.7621 421.58 99.7819 421.579 103.207V217.44C421.579 232.299 415.565 247.508 403.702 262.646C394.642 274.209 382.107 285.819 366.447 297.155C340.14 316.198 314.235 327.88 313.145 328.368C312.137 328.82 311.056 329.045 309.976 329.045C308.895 329.045 307.815 328.819 306.807 328.368C305.716 327.88 279.811 316.198 253.504 297.155C237.843 285.819 225.309 274.209 216.248 262.646C204.386 247.508 198.371 232.298 198.371 217.44V103.207C198.371 99.7819 200.618 96.7621 203.899 95.7781L307.748 64.6235C309.202 64.1871 310.752 64.1871 312.205 64.6235ZM312.098 69.2235L412.401 99.3148C415.57 100.265 417.74 103.182 417.739 106.49V216.825C417.739 231.176 411.93 245.867 400.472 260.489C391.721 271.656 379.615 282.87 364.489 293.819C339.079 312.213 314.058 323.496 313.006 323.967C312.032 324.404 310.988 324.621 309.945 324.621C308.901 324.621 307.857 324.403 306.883 323.967C305.831 323.496 280.81 312.213 255.4 293.819C240.273 282.87 228.167 271.656 219.416 260.489C207.958 245.866 202.149 231.176 202.149 216.825V106.49C202.149 103.182 204.319 100.265 207.488 99.3148L307.792 69.2235C309.197 68.8019 310.695 68.8019 312.098 69.2235Z" fill="white"/>
</svg>
