<svg width="160" height="160" viewBox="0 0 160 160" fill="none" xmlns="http://www.w3.org/2000/svg">
<path d="M80 160C124.113 160 160 124.113 160 80C160 35.8867 124.113 0 80 0C35.8867 0 0 35.8867 0 80C0 124.113 35.8867 160 80 160ZM80 10C118.6 10 150 41.4 150 80C150 118.6 118.6 150 80 150C41.4 150 10 118.6 10 80C10 41.4 41.4 10 80 10Z" fill="#040634"/>
<path d="M52.6398 94.3666L63.0931 89.8266L60.1598 92.7666C59.2198 93.7066 58.6931 94.98 58.6931 96.3V115.867C58.6931 120.347 64.1064 122.52 67.2264 119.4L77.7198 108.907L100.586 120.34C103.546 121.82 107.126 120.067 107.74 116.76L120.786 45.02C121.473 41.16 117.673 38.04 114.04 39.4666L29.2664 72.6466C25.4664 74.1266 24.9598 79.3266 28.3998 81.52L47.9598 94C49.3598 94.8933 51.1264 95.0333 52.6398 94.3666ZM109.346 52.0533L99.0998 108.42L78.9664 98.36C77.0198 97.3866 74.6998 97.7933 73.1998 99.3L68.6931 103.807V98.3866L88.7398 78.34C92.6264 74.4533 88.2531 68.04 83.2131 70.22L51.0998 84.1533L42.0731 78.3933L109.346 52.0533Z" fill="#040634"/>
</svg>
