<svg width="148" height="160" viewBox="0 0 148 160" fill="none" xmlns="http://www.w3.org/2000/svg">
<path d="M145.679 92.6264C150.469 52.4818 143.377 27.1375 130.586 15.6742L130.593 15.6676C109.947 -3.9085 40.2223 -6.80594 15.5224 16.5468C4.43018 27.9701 0.523145 44.7353 0.0949769 65.4903C-0.333191 86.252 -0.841641 125.144 35.5593 135.695H35.5928L35.5593 151.807C35.5593 151.807 35.3118 158.335 39.4998 159.647C44.2899 161.193 46.4575 158.162 61.3564 140.444C86.2705 142.596 105.404 137.667 107.578 136.947C112.609 135.269 141.076 131.519 145.679 92.6264ZM63.8117 129.108C63.8117 129.108 48.0431 148.684 43.1392 153.766C41.5336 155.418 39.7741 155.264 39.8009 151.987C39.8009 149.836 39.9213 125.238 39.9213 125.238C9.05974 116.432 10.8795 83.3146 11.214 65.9899C11.5485 48.6585 14.733 34.4643 24.1259 24.9061C45.7952 4.67726 106.923 9.19994 122.497 23.7738C141.538 40.5789 134.76 88.0571 134.801 89.6756C130.887 122.14 107.819 124.199 103.578 125.604C101.765 126.203 84.9391 130.513 63.8117 129.108Z" fill="#040634"/>
<path d="M72.5333 28.709C69.9576 28.709 69.9576 32.7055 72.5333 32.7388C92.5167 32.892 108.974 46.7597 109.155 72.1973C109.155 74.8816 113.102 74.8483 113.069 72.164H113.062C112.848 44.7548 94.8784 28.8622 72.5333 28.709Z" fill="#040634"/>
<path d="M98.8249 67.9812C98.7647 70.6322 102.705 70.7587 102.739 68.0744C103.066 52.9611 93.7069 40.5121 76.1186 39.1999C73.5429 39.0134 73.2753 43.0432 75.8443 43.2297C91.0978 44.382 99.1326 54.7462 98.8249 67.9812Z" fill="#040634"/>
<path d="M94.6042 85.1732C91.2992 83.2682 87.9341 84.4538 86.5426 86.3255L83.6324 90.0755C82.1538 91.9805 79.3908 91.7274 79.3908 91.7274C59.2268 86.4187 53.8346 65.4106 53.8346 65.4106C53.8346 65.4106 53.587 62.5664 55.4335 61.0411L59.0729 58.0438C60.8926 56.605 62.0433 53.1414 60.1902 49.7377C55.2395 40.8323 51.9145 37.7616 50.2219 35.4037C48.4423 33.1857 45.7663 32.6861 42.9832 34.1848H42.923C37.136 37.5551 30.8005 43.8629 32.8276 50.3572C36.2864 57.2045 42.642 79.0319 62.8997 95.524C72.4197 103.324 87.4859 111.317 93.8816 113.162L93.9418 113.255C100.244 115.347 106.372 108.792 109.644 102.858V102.811C111.095 99.9401 110.614 97.2225 108.493 95.4441C104.733 91.794 99.0598 87.7642 94.6042 85.1732Z" fill="#040634"/>
<path d="M78.8698 54.0668C85.299 54.4398 88.4166 57.7835 88.7511 64.6508C88.8715 67.3351 92.7852 67.1486 92.6648 64.4643C92.2366 55.4988 87.5402 50.5032 79.0838 50.037C76.5081 49.8838 76.2673 53.9136 78.8698 54.0668Z" fill="#040634"/>
</svg>
