<svg width="160" height="160" viewBox="0 0 160 160" fill="none" xmlns="http://www.w3.org/2000/svg">
<g clip-path="url(#clip0)">
<path d="M116.714 95.38L116.654 95.88C101.994 88.5733 100.461 87.6 98.5676 90.44C97.2543 92.4067 93.4276 96.8667 92.2743 98.1867C91.1076 99.4867 89.9476 99.5867 87.9676 98.6867C85.9676 97.6867 79.5476 95.5867 71.9476 88.7867C66.0276 83.4867 62.0543 76.9867 60.8809 74.9867C58.9276 71.6133 63.0143 71.1333 66.7343 64.0933C67.4009 62.6933 67.0609 61.5933 66.5676 60.6C66.0676 59.6 62.0876 49.8 60.4209 45.8933C58.8209 42 57.1743 42.4933 55.9409 42.4933C52.1009 42.16 49.2943 42.2133 46.8209 44.7867C36.0609 56.6133 38.7743 68.8133 47.9809 81.7867C66.0743 105.467 75.7143 109.827 93.3409 115.88C98.1009 117.393 102.441 117.18 105.874 116.687C109.701 116.08 117.654 111.88 119.314 107.18C121.014 102.48 121.014 98.58 120.514 97.68C120.021 96.78 118.714 96.28 116.714 95.38Z" fill="#040634"/>
<path d="M136.8 22.9921C85.54 -26.5613 0.706667 9.37873 0.673333 79.2854C0.673333 93.2587 4.33333 106.885 11.3067 118.919L0 159.999L42.2333 148.985C94.9333 177.452 159.973 139.652 160 79.3254C160 58.1521 151.733 38.2254 136.7 23.2521L136.8 22.9921ZM146.68 79.1054C146.64 129.992 90.78 161.772 46.6 135.799L44.2 134.372L19.2 140.872L25.9 116.572L24.3067 114.072C-3.18667 70.3054 28.4 13.1054 80.48 13.1054C98.1733 13.1054 114.78 20.0054 127.287 32.5054C139.787 44.8987 146.68 61.5054 146.68 79.1054Z" fill="#040634"/>
</g>
<defs>
<clipPath id="clip0">
<rect width="160" height="160" fill="white"/>
</clipPath>
</defs>
</svg>
